<?xml version="1.0" encoding="utf-8"?>
<!-- Generator: Adobe Illustrator 26.3.1, SVG Export Plug-In . SVG Version: 6.00 Build 0)  -->
<svg version="1.1" xmlns="http://www.w3.org/2000/svg" xmlns:xlink="http://www.w3.org/1999/xlink" x="0px" y="0px" width="480px"
	 height="250px" viewBox="0 0 480 250" style="enable-background:new 0 0 480 250;" xml:space="preserve">
<style type="text/css">
	.st0{clip-path:url(#SVGID_00000000180858219350023490000007863579178837999008_);fill:#CCFFFF;}
	
		.st1{clip-path:url(#SVGID_00000000180858219350023490000007863579178837999008_);fill:none;stroke:#000000;stroke-width:0.75;stroke-linejoin:round;stroke-miterlimit:10;}
	
		.st2{clip-path:url(#SVGID_00000000180858219350023490000007863579178837999008_);fill:#FFFFFF;stroke:#000000;stroke-width:1.5;stroke-linecap:round;stroke-linejoin:round;stroke-miterlimit:10;}
	.st3{clip-path:url(#SVGID_00000080196847227335007860000006895203999144882842_);fill:#CCFFFF;}
	
		.st4{clip-path:url(#SVGID_00000080196847227335007860000006895203999144882842_);fill:none;stroke:#000000;stroke-width:0.75;stroke-linejoin:round;stroke-miterlimit:10;}
	
		.st5{clip-path:url(#SVGID_00000080196847227335007860000006895203999144882842_);fill:#FFFFFF;stroke:#000000;stroke-width:1.5;stroke-linecap:round;stroke-linejoin:round;stroke-miterlimit:10;}
	.st6{clip-path:url(#SVGID_00000039848908821752770920000001468839068199128211_);}
	.st7{fill:#FFFFFF;}
	.st8{fill:none;stroke:#000000;stroke-width:0.4572;}
	.st9{fill:none;stroke:#000000;stroke-width:1.1887;}
	.st10{clip-path:url(#SVGID_00000036224690371479444680000016910284724541706151_);}
	.st11{fill:#A6A6A6;}
	.st12{fill:#5DC2D0;}
	.st13{fill:#040000;}
	.st14{fill:#FFFFFF;stroke:#000000;stroke-width:2;stroke-linecap:round;stroke-linejoin:round;stroke-miterlimit:10;}
	.st15{fill:url(#SVGID_00000126297160912020110720000015165465633286764686_);}
	.st16{fill:#FFFFFF;stroke:#000000;stroke-linejoin:round;stroke-miterlimit:10;}
	.st17{fill:url(#SVGID_00000044892163016551262790000006604578030056348062_);}
	.st18{fill:#C0DD98;}
	.st19{fill:#72AF43;}
	.st20{fill:#FFFFFF;stroke:#007DFF;stroke-width:2;stroke-linecap:round;stroke-linejoin:round;stroke-miterlimit:10;}
	.st21{fill:#FF0000;}
</style>
<g id="Layer_1">
	<g>
		<defs>
			<rect id="SVGID_1_" x="255.6" y="92.1" width="221.7" height="105.3"/>
		</defs>
		<clipPath id="SVGID_00000127022442063142637000000015740049647162674560_">
			<use xlink:href="#SVGID_1_"  style="overflow:visible;"/>
		</clipPath>
		<polyline style="clip-path:url(#SVGID_00000127022442063142637000000015740049647162674560_);fill:#CCFFFF;" points="479.2,197 
			254.4,197 254.4,92.5 479.2,92.5 		"/>
		
			<line style="clip-path:url(#SVGID_00000127022442063142637000000015740049647162674560_);fill:none;stroke:#000000;stroke-width:0.75;stroke-linejoin:round;stroke-miterlimit:10;" x1="254.4" y1="197" x2="480.5" y2="197"/>
		
			<path style="clip-path:url(#SVGID_00000127022442063142637000000015740049647162674560_);fill:#FFFFFF;stroke:#000000;stroke-width:1.5;stroke-linecap:round;stroke-linejoin:round;stroke-miterlimit:10;" d="
			M245.2,191.7c-5.6,0-10.1-4.5-10.1-10.1v-74.2c0-5.6,4.5-10.1,10.1-10.1h171.2c5.6,0,10.1,4.5,10.1,10.1v74.2
			c0,5.6-4.5,10.1-10.1,10.1H245.2z"/>
		
			<path style="clip-path:url(#SVGID_00000127022442063142637000000015740049647162674560_);fill:#FFFFFF;stroke:#000000;stroke-width:1.5;stroke-linecap:round;stroke-linejoin:round;stroke-miterlimit:10;" d="
			M445.3,191.7c-5.6,0-10.1-4.5-10.1-10.1v-74.2c0-5.6,4.5-10.1,10.1-10.1h64c5.6,0,10.1,4.5,10.1,10.1v74.2
			c0,5.6-4.5,10.1-10.1,10.1H445.3z"/>
		
			<line style="clip-path:url(#SVGID_00000127022442063142637000000015740049647162674560_);fill:none;stroke:#000000;stroke-width:0.75;stroke-linejoin:round;stroke-miterlimit:10;" x1="254.4" y1="92.5" x2="477.9" y2="92.5"/>
	</g>
	<g>
		<defs>
			<rect id="SVGID_00000152946564136655263470000000030383285053876382_" x="2.7" y="92.1" width="221.9" height="105.3"/>
		</defs>
		<clipPath id="SVGID_00000142151408690957720110000010525823149478930052_">
			<use xlink:href="#SVGID_00000152946564136655263470000000030383285053876382_"  style="overflow:visible;"/>
		</clipPath>
		<polyline style="clip-path:url(#SVGID_00000142151408690957720110000010525823149478930052_);fill:#CCFFFF;" points="239.5,197 
			0.7,197 0.7,92.5 239.5,92.5 		"/>
		
			<line style="clip-path:url(#SVGID_00000142151408690957720110000010525823149478930052_);fill:none;stroke:#000000;stroke-width:0.75;stroke-linejoin:round;stroke-miterlimit:10;" x1="-4" y1="197" x2="234.7" y2="197"/>
		
			<path style="clip-path:url(#SVGID_00000142151408690957720110000010525823149478930052_);fill:#FFFFFF;stroke:#000000;stroke-width:1.5;stroke-linecap:round;stroke-linejoin:round;stroke-miterlimit:10;" d="
			M-39.6,191.6c-5.6,0-10.1-4.5-10.1-10.1v-74.2c0-5.6,4.5-10.1,10.1-10.1H0.9c5.6,0,10.1,4.5,10.1,10.1v74.2
			c0,5.6-4.5,10.1-10.1,10.1H-39.6z"/>
		
			<path style="clip-path:url(#SVGID_00000142151408690957720110000010525823149478930052_);fill:#FFFFFF;stroke:#000000;stroke-width:1.5;stroke-linecap:round;stroke-linejoin:round;stroke-miterlimit:10;" d="
			M29.5,191.6c-5.6,0-10.1-4.5-10.1-10.1v-74.2c0-5.6,4.5-10.1,10.1-10.1h171.2c5.6,0,10.1,4.5,10.1,10.1v74.2
			c0,5.6-4.5,10.1-10.1,10.1H29.5z"/>
		
			<path style="clip-path:url(#SVGID_00000142151408690957720110000010525823149478930052_);fill:#FFFFFF;stroke:#000000;stroke-width:1.5;stroke-linecap:round;stroke-linejoin:round;stroke-miterlimit:10;" d="
			M229.6,191.6c-5.6,0-10.1-4.5-10.1-10.1v-74.2c0-5.6,4.5-10.1,10.1-10.1h40.5c5.6,0,10.1,4.5,10.1,10.1v74.2
			c0,5.6-4.5,10.1-10.1,10.1H229.6z"/>
		
			<line style="clip-path:url(#SVGID_00000142151408690957720110000010525823149478930052_);fill:none;stroke:#000000;stroke-width:0.75;stroke-linejoin:round;stroke-miterlimit:10;" x1="-4" y1="92.5" x2="234.7" y2="92.5"/>
	</g>
	<g>
		<defs>
			<path id="SVGID_00000123442749555798795880000015773761670779479688_" d="M245.3,191.6c-5.6,0-10.1-4.5-10.1-10.1v-74.2
				c0-5.6,4.5-10.1,10.1-10.1h171.2c5.6,0,10.1,4.5,10.1,10.1v74.2c0,5.6-4.5,10.1-10.1,10.1H245.3z"/>
		</defs>
		<clipPath id="SVGID_00000076583919754829510860000012233685361400934025_">
			<use xlink:href="#SVGID_00000123442749555798795880000015773761670779479688_"  style="overflow:visible;"/>
		</clipPath>
		<g style="clip-path:url(#SVGID_00000076583919754829510860000012233685361400934025_);">
			<g>
				<rect x="286.5" y="108.9" class="st7" width="15" height="74.6"/>
				<line class="st8" x1="286.5" y1="183.3" x2="301.3" y2="183.3"/>
				<line class="st8" x1="286.5" y1="181.8" x2="301.3" y2="181.8"/>
				<line class="st9" x1="286.5" y1="180.7" x2="301.3" y2="180.7"/>
				<line class="st9" x1="286.5" y1="179.2" x2="301.3" y2="179.2"/>
				<line class="st8" x1="286.5" y1="178.1" x2="301.3" y2="178.1"/>
				<line class="st9" x1="286.5" y1="176.7" x2="301.3" y2="176.7"/>
				<line class="st8" x1="286.5" y1="175.6" x2="301.3" y2="175.6"/>
				<line class="st8" x1="286.5" y1="174.1" x2="301.3" y2="174.1"/>
				<line class="st8" x1="286.5" y1="173.3" x2="301.3" y2="173.3"/>
				<line class="st9" x1="286.5" y1="172.1" x2="301.3" y2="172.1"/>
				<line class="st8" x1="286.5" y1="170.8" x2="301.3" y2="170.8"/>
				<line class="st9" x1="286.5" y1="169.6" x2="301.3" y2="169.6"/>
				<line class="st8" x1="286.5" y1="167.8" x2="301.3" y2="167.8"/>
				<line class="st8" x1="286.5" y1="167" x2="301.3" y2="167"/>
				<line class="st9" x1="286.5" y1="165.9" x2="301.3" y2="165.9"/>
				<line class="st9" x1="286.5" y1="164.2" x2="301.3" y2="164.2"/>
				<line class="st9" x1="286.5" y1="162.7" x2="301.3" y2="162.7"/>
				<line class="st8" x1="286.5" y1="160.9" x2="301.3" y2="160.9"/>
				<line class="st8" x1="286.5" y1="160.1" x2="301.3" y2="160.1"/>
				<line class="st8" x1="286.5" y1="159.3" x2="301.3" y2="159.3"/>
				<line class="st8" x1="286.5" y1="158.2" x2="301.3" y2="158.2"/>
				<line class="st8" x1="286.5" y1="157.4" x2="301.3" y2="157.4"/>
				<line class="st9" x1="286.5" y1="155.6" x2="301.3" y2="155.6"/>
				<line class="st8" x1="286.5" y1="154.5" x2="301.3" y2="154.5"/>
				<line class="st9" x1="286.5" y1="153.3" x2="301.3" y2="153.3"/>
				<line class="st9" x1="286.5" y1="151.6" x2="301.3" y2="151.6"/>
				<line class="st8" x1="286.5" y1="150.5" x2="301.3" y2="150.5"/>
				<line class="st9" x1="286.5" y1="148.7" x2="301.3" y2="148.7"/>
				<line class="st8" x1="286.5" y1="147.5" x2="301.3" y2="147.5"/>
				<line class="st8" x1="286.5" y1="146.7" x2="301.3" y2="146.7"/>
				<line class="st8" x1="286.5" y1="145.7" x2="301.3" y2="145.7"/>
				<line class="st9" x1="286.5" y1="144.5" x2="301.3" y2="144.5"/>
				<line class="st9" x1="286.5" y1="142.4" x2="301.3" y2="142.4"/>
				<line class="st8" x1="286.5" y1="141.3" x2="301.3" y2="141.3"/>
				<line class="st8" x1="286.5" y1="140.4" x2="301.3" y2="140.4"/>
				<line class="st8" x1="286.5" y1="139.4" x2="301.3" y2="139.4"/>
				<line class="st8" x1="286.5" y1="138.6" x2="301.3" y2="138.6"/>
				<line class="st8" x1="286.5" y1="137.1" x2="301.3" y2="137.1"/>
				<line class="st9" x1="286.5" y1="136" x2="301.3" y2="136"/>
				<line class="st9" x1="286.5" y1="134.5" x2="301.3" y2="134.5"/>
				<line class="st9" x1="286.5" y1="132.8" x2="301.3" y2="132.8"/>
				<line class="st8" x1="286.5" y1="131.7" x2="301.3" y2="131.7"/>
				<line class="st8" x1="286.5" y1="130.2" x2="301.3" y2="130.2"/>
				<line class="st9" x1="286.5" y1="129" x2="301.3" y2="129"/>
				<line class="st8" x1="286.5" y1="127.9" x2="301.3" y2="127.9"/>
				<line class="st8" x1="286.5" y1="126.9" x2="301.3" y2="126.9"/>
				<line class="st9" x1="286.5" y1="125.7" x2="301.3" y2="125.7"/>
				<line class="st8" x1="286.5" y1="123.9" x2="301.3" y2="123.9"/>
				<line class="st9" x1="286.5" y1="122.8" x2="301.3" y2="122.8"/>
				<line class="st8" x1="286.5" y1="121.6" x2="301.3" y2="121.6"/>
				<line class="st8" x1="286.5" y1="120.6" x2="301.3" y2="120.6"/>
				<line class="st9" x1="286.5" y1="119.5" x2="301.3" y2="119.5"/>
				<line class="st8" x1="286.5" y1="117.7" x2="301.3" y2="117.7"/>
				<line class="st8" x1="286.5" y1="116.8" x2="301.3" y2="116.8"/>
				<line class="st9" x1="286.5" y1="115.7" x2="301.3" y2="115.7"/>
				<line class="st8" x1="286.5" y1="114.3" x2="301.3" y2="114.3"/>
				<line class="st8" x1="286.5" y1="112.9" x2="301.3" y2="112.9"/>
				<line class="st9" x1="286.5" y1="111.7" x2="301.3" y2="111.7"/>
				<line class="st9" x1="286.5" y1="110.2" x2="301.3" y2="110.2"/>
				<line class="st8" x1="286.5" y1="109.1" x2="301.3" y2="109.1"/>
			</g>
		</g>
		<g style="clip-path:url(#SVGID_00000076583919754829510860000012233685361400934025_);">
			<g>
				<rect x="360.9" y="108.9" class="st7" width="15" height="74.6"/>
				<line class="st8" x1="360.9" y1="183.3" x2="375.7" y2="183.3"/>
				<line class="st8" x1="360.9" y1="181.8" x2="375.7" y2="181.8"/>
				<line class="st9" x1="360.9" y1="180.7" x2="375.7" y2="180.7"/>
				<line class="st9" x1="360.9" y1="179.2" x2="375.7" y2="179.2"/>
				<line class="st8" x1="360.9" y1="178.1" x2="375.7" y2="178.1"/>
				<line class="st9" x1="360.9" y1="176.7" x2="375.7" y2="176.7"/>
				<line class="st8" x1="360.9" y1="175.6" x2="375.7" y2="175.6"/>
				<line class="st8" x1="360.9" y1="174.1" x2="375.7" y2="174.1"/>
				<line class="st8" x1="360.9" y1="173.3" x2="375.7" y2="173.3"/>
				<line class="st9" x1="360.9" y1="172.1" x2="375.7" y2="172.1"/>
				<line class="st8" x1="360.9" y1="170.8" x2="375.7" y2="170.8"/>
				<line class="st9" x1="360.9" y1="169.6" x2="375.7" y2="169.6"/>
				<line class="st8" x1="360.9" y1="167.8" x2="375.7" y2="167.8"/>
				<line class="st8" x1="360.9" y1="167" x2="375.7" y2="167"/>
				<line class="st9" x1="360.9" y1="165.9" x2="375.7" y2="165.9"/>
				<line class="st9" x1="360.9" y1="164.2" x2="375.7" y2="164.2"/>
				<line class="st9" x1="360.9" y1="162.7" x2="375.7" y2="162.7"/>
				<line class="st8" x1="360.9" y1="160.9" x2="375.7" y2="160.9"/>
				<line class="st8" x1="360.9" y1="160.1" x2="375.7" y2="160.1"/>
				<line class="st8" x1="360.9" y1="159.3" x2="375.7" y2="159.3"/>
				<line class="st8" x1="360.9" y1="158.2" x2="375.7" y2="158.2"/>
				<line class="st8" x1="360.9" y1="157.4" x2="375.7" y2="157.4"/>
				<line class="st9" x1="360.9" y1="155.6" x2="375.7" y2="155.6"/>
				<line class="st8" x1="360.9" y1="154.5" x2="375.7" y2="154.5"/>
				<line class="st9" x1="360.9" y1="153.3" x2="375.7" y2="153.3"/>
				<line class="st9" x1="360.9" y1="151.6" x2="375.7" y2="151.6"/>
				<line class="st8" x1="360.9" y1="150.5" x2="375.7" y2="150.5"/>
				<line class="st9" x1="360.9" y1="148.7" x2="375.7" y2="148.7"/>
				<line class="st8" x1="360.9" y1="147.5" x2="375.7" y2="147.5"/>
				<line class="st8" x1="360.9" y1="146.7" x2="375.7" y2="146.7"/>
				<line class="st8" x1="360.9" y1="145.7" x2="375.7" y2="145.7"/>
				<line class="st9" x1="360.9" y1="144.5" x2="375.7" y2="144.5"/>
				<line class="st9" x1="360.9" y1="142.4" x2="375.7" y2="142.4"/>
				<line class="st8" x1="360.9" y1="141.3" x2="375.7" y2="141.3"/>
				<line class="st8" x1="360.9" y1="140.4" x2="375.7" y2="140.4"/>
				<line class="st8" x1="360.9" y1="139.4" x2="375.7" y2="139.4"/>
				<line class="st8" x1="360.9" y1="138.6" x2="375.7" y2="138.6"/>
				<line class="st8" x1="360.9" y1="137.1" x2="375.7" y2="137.1"/>
				<line class="st9" x1="360.9" y1="136" x2="375.7" y2="136"/>
				<line class="st9" x1="360.9" y1="134.5" x2="375.7" y2="134.5"/>
				<line class="st9" x1="360.9" y1="132.8" x2="375.7" y2="132.8"/>
				<line class="st8" x1="360.9" y1="131.7" x2="375.7" y2="131.7"/>
				<line class="st8" x1="360.9" y1="130.2" x2="375.7" y2="130.2"/>
				<line class="st9" x1="360.9" y1="129" x2="375.7" y2="129"/>
				<line class="st8" x1="360.9" y1="127.9" x2="375.7" y2="127.9"/>
				<line class="st8" x1="360.9" y1="126.9" x2="375.7" y2="126.9"/>
				<line class="st9" x1="360.9" y1="125.7" x2="375.7" y2="125.7"/>
				<line class="st8" x1="360.9" y1="123.9" x2="375.7" y2="123.9"/>
				<line class="st9" x1="360.9" y1="122.8" x2="375.7" y2="122.8"/>
				<line class="st8" x1="360.9" y1="121.6" x2="375.7" y2="121.6"/>
				<line class="st8" x1="360.9" y1="120.6" x2="375.7" y2="120.6"/>
				<line class="st9" x1="360.9" y1="119.5" x2="375.7" y2="119.5"/>
				<line class="st8" x1="360.9" y1="117.7" x2="375.7" y2="117.7"/>
				<line class="st8" x1="360.9" y1="116.8" x2="375.7" y2="116.8"/>
				<line class="st9" x1="360.9" y1="115.7" x2="375.7" y2="115.7"/>
				<line class="st8" x1="360.9" y1="114.3" x2="375.7" y2="114.3"/>
				<line class="st8" x1="360.9" y1="112.9" x2="375.7" y2="112.9"/>
				<line class="st9" x1="360.9" y1="111.7" x2="375.7" y2="111.7"/>
				<line class="st9" x1="360.9" y1="110.2" x2="375.7" y2="110.2"/>
				<line class="st8" x1="360.9" y1="109.1" x2="375.7" y2="109.1"/>
			</g>
		</g>
	</g>
	<g>
		<defs>
			<path id="SVGID_00000053540371059787629090000006279488938314831515_" d="M29.5,191.6c-5.6,0-10.1-4.5-10.1-10.1v-74.2
				c0-5.6,4.5-10.1,10.1-10.1h171.2c5.6,0,10.1,4.5,10.1,10.1v74.2c0,5.6-4.5,10.1-10.1,10.1H29.5z"/>
		</defs>
		<clipPath id="SVGID_00000094619212943952343160000008964953853165306815_">
			<use xlink:href="#SVGID_00000053540371059787629090000006279488938314831515_"  style="overflow:visible;"/>
		</clipPath>
		<g style="clip-path:url(#SVGID_00000094619212943952343160000008964953853165306815_);">
			<g>
				<rect x="70.7" y="108.8" class="st7" width="15" height="74.6"/>
				<line class="st8" x1="70.7" y1="183.3" x2="85.5" y2="183.3"/>
				<line class="st8" x1="70.7" y1="181.8" x2="85.5" y2="181.8"/>
				<line class="st9" x1="70.7" y1="180.7" x2="85.5" y2="180.7"/>
				<line class="st9" x1="70.7" y1="179.2" x2="85.5" y2="179.2"/>
				<line class="st8" x1="70.7" y1="178" x2="85.5" y2="178"/>
				<line class="st9" x1="70.7" y1="176.7" x2="85.5" y2="176.7"/>
				<line class="st8" x1="70.7" y1="175.5" x2="85.5" y2="175.5"/>
				<line class="st8" x1="70.7" y1="174.1" x2="85.5" y2="174.1"/>
				<line class="st8" x1="70.7" y1="173.2" x2="85.5" y2="173.2"/>
				<line class="st9" x1="70.7" y1="172.1" x2="85.5" y2="172.1"/>
				<line class="st8" x1="70.7" y1="170.7" x2="85.5" y2="170.7"/>
				<line class="st9" x1="70.7" y1="169.6" x2="85.5" y2="169.6"/>
				<line class="st8" x1="70.7" y1="167.8" x2="85.5" y2="167.8"/>
				<line class="st8" x1="70.7" y1="167" x2="85.5" y2="167"/>
				<line class="st9" x1="70.7" y1="165.8" x2="85.5" y2="165.8"/>
				<line class="st9" x1="70.7" y1="164.1" x2="85.5" y2="164.1"/>
				<line class="st9" x1="70.7" y1="162.7" x2="85.5" y2="162.7"/>
				<line class="st8" x1="70.7" y1="160.9" x2="85.5" y2="160.9"/>
				<line class="st8" x1="70.7" y1="160" x2="85.5" y2="160"/>
				<line class="st8" x1="70.7" y1="159.2" x2="85.5" y2="159.2"/>
				<line class="st8" x1="70.7" y1="158.2" x2="85.5" y2="158.2"/>
				<line class="st8" x1="70.7" y1="157.4" x2="85.5" y2="157.4"/>
				<line class="st9" x1="70.7" y1="155.6" x2="85.5" y2="155.6"/>
				<line class="st8" x1="70.7" y1="154.4" x2="85.5" y2="154.4"/>
				<line class="st9" x1="70.7" y1="153.3" x2="85.5" y2="153.3"/>
				<line class="st9" x1="70.7" y1="151.6" x2="85.5" y2="151.6"/>
				<line class="st8" x1="70.7" y1="150.5" x2="85.5" y2="150.5"/>
				<line class="st9" x1="70.7" y1="148.6" x2="85.5" y2="148.6"/>
				<line class="st8" x1="70.7" y1="147.5" x2="85.5" y2="147.5"/>
				<line class="st8" x1="70.7" y1="146.7" x2="85.5" y2="146.7"/>
				<line class="st8" x1="70.7" y1="145.7" x2="85.5" y2="145.7"/>
				<line class="st9" x1="70.7" y1="144.5" x2="85.5" y2="144.5"/>
				<line class="st9" x1="70.7" y1="142.4" x2="85.5" y2="142.4"/>
				<line class="st8" x1="70.7" y1="141.2" x2="85.5" y2="141.2"/>
				<line class="st8" x1="70.7" y1="140.4" x2="85.5" y2="140.4"/>
				<line class="st8" x1="70.7" y1="139.4" x2="85.5" y2="139.4"/>
				<line class="st8" x1="70.7" y1="138.6" x2="85.5" y2="138.6"/>
				<line class="st8" x1="70.7" y1="137.1" x2="85.5" y2="137.1"/>
				<line class="st9" x1="70.7" y1="135.9" x2="85.5" y2="135.9"/>
				<line class="st9" x1="70.7" y1="134.5" x2="85.5" y2="134.5"/>
				<line class="st9" x1="70.7" y1="132.8" x2="85.5" y2="132.8"/>
				<line class="st8" x1="70.7" y1="131.6" x2="85.5" y2="131.6"/>
				<line class="st8" x1="70.7" y1="130.2" x2="85.5" y2="130.2"/>
				<line class="st9" x1="70.7" y1="129" x2="85.5" y2="129"/>
				<line class="st8" x1="70.7" y1="127.9" x2="85.5" y2="127.9"/>
				<line class="st8" x1="70.7" y1="126.8" x2="85.5" y2="126.8"/>
				<line class="st9" x1="70.7" y1="125.7" x2="85.5" y2="125.7"/>
				<line class="st8" x1="70.7" y1="123.9" x2="85.5" y2="123.9"/>
				<line class="st9" x1="70.7" y1="122.7" x2="85.5" y2="122.7"/>
				<line class="st8" x1="70.7" y1="121.6" x2="85.5" y2="121.6"/>
				<line class="st8" x1="70.7" y1="120.6" x2="85.5" y2="120.6"/>
				<line class="st9" x1="70.7" y1="119.4" x2="85.5" y2="119.4"/>
				<line class="st8" x1="70.7" y1="117.6" x2="85.5" y2="117.6"/>
				<line class="st8" x1="70.7" y1="116.8" x2="85.5" y2="116.8"/>
				<line class="st9" x1="70.7" y1="115.6" x2="85.5" y2="115.6"/>
				<line class="st8" x1="70.7" y1="114.3" x2="85.5" y2="114.3"/>
				<line class="st8" x1="70.7" y1="112.8" x2="85.5" y2="112.8"/>
				<line class="st9" x1="70.7" y1="111.7" x2="85.5" y2="111.7"/>
				<line class="st9" x1="70.7" y1="110.2" x2="85.5" y2="110.2"/>
				<line class="st8" x1="70.7" y1="109" x2="85.5" y2="109"/>
			</g>
		</g>
		<g style="clip-path:url(#SVGID_00000094619212943952343160000008964953853165306815_);">
			<g>
				<rect x="145.1" y="108.8" class="st7" width="15" height="74.6"/>
				<line class="st8" x1="145.1" y1="183.3" x2="159.9" y2="183.3"/>
				<line class="st8" x1="145.1" y1="181.8" x2="159.9" y2="181.8"/>
				<line class="st9" x1="145.1" y1="180.7" x2="159.9" y2="180.7"/>
				<line class="st9" x1="145.1" y1="179.2" x2="159.9" y2="179.2"/>
				<line class="st8" x1="145.1" y1="178" x2="159.9" y2="178"/>
				<line class="st9" x1="145.1" y1="176.7" x2="159.9" y2="176.7"/>
				<line class="st8" x1="145.1" y1="175.5" x2="159.9" y2="175.5"/>
				<line class="st8" x1="145.1" y1="174.1" x2="159.9" y2="174.1"/>
				<line class="st8" x1="145.1" y1="173.2" x2="159.9" y2="173.2"/>
				<line class="st9" x1="145.1" y1="172.1" x2="159.9" y2="172.1"/>
				<line class="st8" x1="145.1" y1="170.7" x2="159.9" y2="170.7"/>
				<line class="st9" x1="145.1" y1="169.6" x2="159.9" y2="169.6"/>
				<line class="st8" x1="145.1" y1="167.8" x2="159.9" y2="167.8"/>
				<line class="st8" x1="145.1" y1="167" x2="159.9" y2="167"/>
				<line class="st9" x1="145.1" y1="165.8" x2="159.9" y2="165.8"/>
				<line class="st9" x1="145.1" y1="164.1" x2="159.9" y2="164.1"/>
				<line class="st9" x1="145.1" y1="162.7" x2="159.9" y2="162.7"/>
				<line class="st8" x1="145.1" y1="160.9" x2="159.9" y2="160.9"/>
				<line class="st8" x1="145.1" y1="160" x2="159.9" y2="160"/>
				<line class="st8" x1="145.1" y1="159.2" x2="159.9" y2="159.2"/>
				<line class="st8" x1="145.1" y1="158.2" x2="159.9" y2="158.2"/>
				<line class="st8" x1="145.1" y1="157.4" x2="159.9" y2="157.4"/>
				<line class="st9" x1="145.1" y1="155.6" x2="159.9" y2="155.6"/>
				<line class="st8" x1="145.1" y1="154.4" x2="159.9" y2="154.4"/>
				<line class="st9" x1="145.1" y1="153.3" x2="159.9" y2="153.3"/>
				<line class="st9" x1="145.1" y1="151.6" x2="159.9" y2="151.6"/>
				<line class="st8" x1="145.1" y1="150.5" x2="159.9" y2="150.5"/>
				<line class="st9" x1="145.1" y1="148.6" x2="159.9" y2="148.6"/>
				<line class="st8" x1="145.1" y1="147.5" x2="159.9" y2="147.5"/>
				<line class="st8" x1="145.1" y1="146.7" x2="159.9" y2="146.7"/>
				<line class="st8" x1="145.1" y1="145.7" x2="159.9" y2="145.7"/>
				<line class="st9" x1="145.1" y1="144.5" x2="159.9" y2="144.5"/>
				<line class="st9" x1="145.1" y1="142.4" x2="159.9" y2="142.4"/>
				<line class="st8" x1="145.1" y1="141.2" x2="159.9" y2="141.2"/>
				<line class="st8" x1="145.1" y1="140.4" x2="159.9" y2="140.4"/>
				<line class="st8" x1="145.1" y1="139.4" x2="159.9" y2="139.4"/>
				<line class="st8" x1="145.1" y1="138.6" x2="159.9" y2="138.6"/>
				<line class="st8" x1="145.1" y1="137.1" x2="159.9" y2="137.1"/>
				<line class="st9" x1="145.1" y1="135.9" x2="159.9" y2="135.9"/>
				<line class="st9" x1="145.1" y1="134.5" x2="159.9" y2="134.5"/>
				<line class="st9" x1="145.1" y1="132.8" x2="159.9" y2="132.8"/>
				<line class="st8" x1="145.1" y1="131.6" x2="159.9" y2="131.6"/>
				<line class="st8" x1="145.1" y1="130.2" x2="159.9" y2="130.2"/>
				<line class="st9" x1="145.1" y1="129" x2="159.9" y2="129"/>
				<line class="st8" x1="145.1" y1="127.9" x2="159.9" y2="127.9"/>
				<line class="st8" x1="145.1" y1="126.8" x2="159.9" y2="126.8"/>
				<line class="st9" x1="145.1" y1="125.7" x2="159.9" y2="125.7"/>
				<line class="st8" x1="145.1" y1="123.9" x2="159.9" y2="123.9"/>
				<line class="st9" x1="145.1" y1="122.7" x2="159.9" y2="122.7"/>
				<line class="st8" x1="145.1" y1="121.6" x2="159.9" y2="121.6"/>
				<line class="st8" x1="145.1" y1="120.6" x2="159.9" y2="120.6"/>
				<line class="st9" x1="145.1" y1="119.4" x2="159.9" y2="119.4"/>
				<line class="st8" x1="145.1" y1="117.6" x2="159.9" y2="117.6"/>
				<line class="st8" x1="145.1" y1="116.8" x2="159.9" y2="116.8"/>
				<line class="st9" x1="145.1" y1="115.6" x2="159.9" y2="115.6"/>
				<line class="st8" x1="145.1" y1="114.3" x2="159.9" y2="114.3"/>
				<line class="st8" x1="145.1" y1="112.8" x2="159.9" y2="112.8"/>
				<line class="st9" x1="145.1" y1="111.7" x2="159.9" y2="111.7"/>
				<line class="st9" x1="145.1" y1="110.2" x2="159.9" y2="110.2"/>
				<line class="st8" x1="145.1" y1="109" x2="159.9" y2="109"/>
			</g>
		</g>
	</g>
</g>
<g id="Layer_2">
	<polygon class="st11" points="202.5,206.6 189.5,215.6 202.5,224.5 202.5,218.8 476.2,218.8 476.2,212.8 202.5,212.8 	"/>
	<path class="st12" d="M233,138.5c0-2.7,1.6-3.3,3.5-1.4l10.9,10.9c1.9,1.9,1.9,5,0,6.9l-10.9,10.9c-1.9,1.9-3.5,1.3-3.5-1.4V138.5z
		"/>
	<g>
		<path class="st13" d="M420.2,228.2h-2.9v3.3h-0.9v-3.3h-2.6c-0.1,1.5-0.5,2.7-1.4,3.6l-0.7-0.7c0.8-0.9,1.2-1.9,1.2-3.1v-5.6h8.1
			v8.4c0,0.5-0.2,0.7-0.7,0.7h-1.2l-0.2-1h1.1c0.1,0,0.2-0.1,0.2-0.2V228.2z M413.9,223.3v1.6h2.6v-1.6H413.9z M413.9,225.8v1.6h2.6
			v-1.6H413.9z M417.4,223.3v1.6h2.9v-1.6H417.4z M417.4,225.8v1.6h2.9v-1.6H417.4z"/>
		<path class="st13" d="M424.6,224.4c0.2,0.2,0.4,0.4,0.7,0.6l1.4-1.8l0.7,0.4c0.3,0.1,0.2,0.2-0.1,0.3l-2.2,2.7l1.7-0.1
			c-0.2-0.3-0.4-0.6-0.5-0.9l0.7-0.4c0.5,0.6,0.8,1.3,1.1,2l-0.8,0.3l-0.1-0.4l-1.1,0.1v4.7H425v-4.7l-1.6,0.1
			c-0.1,0.3-0.2,0.3-0.3,0l-0.2-0.8l1.1,0l0.7-0.8c-0.4-0.4-1-0.8-1.5-1.3l0.5-0.7l0.4,0.3c0.5-0.7,0.9-1.4,1.2-2.2l0.7,0.4
			c0.3,0.1,0.2,0.2-0.1,0.3C425.5,223.1,425.1,223.8,424.6,224.4z M423.9,231.2l-0.8-0.4c0.4-0.9,0.6-1.9,0.7-2.8l0.8,0.2
			c0.2,0.1,0.2,0.1,0,0.3C424.4,229.3,424.2,230.2,423.9,231.2z M427,228c0.3,0.6,0.5,1.2,0.6,1.9l-0.8,0.2
			c-0.1-0.7-0.2-1.4-0.5-1.9L427,228z M433.3,229.8c-0.2,1.8-0.7,2.3-1.5,1.5c-0.7-0.7-1.2-2.2-1.4-4.7h-1.3v3.6l1.4-0.4l0.2,0.7
			l-2.9,0.9c-0.1,0.3-0.2,0.3-0.3,0l-0.3-0.9l1.1-0.2v-7.7l0.8,0.2c1-0.3,1.9-0.6,2.8-0.9l0.6,0.9c-0.4,0.1-0.8,0.2-1.2,0.3v2.6h1.8
			v0.8h-1.7c0.1,1.5,0.4,2.6,0.8,3.5c0.2,0.4,0.3,0.1,0.4-0.8L433.3,229.8z M430.4,225.9v-2.4c-0.4,0.1-0.9,0.2-1.2,0.3v2.2H430.4z"
			/>
		<path class="st13" d="M434.2,230.9l1.5-0.9v-2.9h-1.4v-0.8h2.3v3.6c0.7,0.7,1.5,1,2.4,1h5.4l-0.2,0.8h-5.4c-1,0-1.9-0.4-2.7-1.2
			l-1.4,1.5L434.2,230.9z M436.2,224.4c-0.4-0.6-0.8-1.1-1.3-1.5l0.7-0.7c0.6,0.5,1.1,0.9,1.3,1.4L436.2,224.4z M443.8,227.1h-3
			l0,0.4c1.2,0.5,2.1,1.1,2.9,1.8l-0.6,1c-1-1-1.8-1.7-2.5-2c-0.4,0.8-1.2,1.5-2.5,2.2l-0.5-0.9c1.5-0.8,2.4-1.6,2.5-2.5h-2.8v-0.8
			h2.8v-1.5h-2.5V224h1.5c-0.3-0.6-0.7-1-1.1-1.5l0.8-0.5c0.4,0.4,0.8,0.9,1.1,1.5l-0.7,0.5h1.5l1.1-2.2l1,0.4
			c0.1,0.1,0.1,0.2-0.1,0.2l-1,1.5h1.9v0.8h-2.6v1.5h2.9V227.1z"/>
		<path class="st13" d="M448.6,228.6c-0.2,0-0.4-0.1-0.6-0.3c-0.2-0.2-0.3-1.1-0.3-2.6c0-1.2,0.1-2.2,0.2-3.2h1
			c0.2,0.1,0.2,0.2,0,0.3c-0.1,0.7-0.2,1.7-0.2,2.9c0,1.3,0.1,1.9,0.2,1.9c0.1,0,0.2-0.1,0.4-0.2c0.2-0.2,0.5-0.6,1-1.2l0.7,0.7
			c-0.5,0.6-1,1.1-1.4,1.4C449.2,228.5,449,228.6,448.6,228.6z M452.3,222.2h0.9c0.3,0,0.4,0.1,0.1,0.4c0.1,0.9,0.1,2.4,0.1,4.3
			c0,2.2-1,3.9-3.1,5l-0.7-0.7c2-0.9,2.9-2.4,2.9-4.3C452.5,224.9,452.4,223.3,452.3,222.2z"/>
		<path class="st13" d="M461.4,226.2h4.1l-0.4,4c-0.1,1.1-0.5,1.6-1.3,1.6H462l-0.2-1h1.9c0.2,0,0.3-0.2,0.4-0.7l0.4-3.1h-3.2
			c-0.4,1.9-1.6,3.5-3.8,4.8l-0.6-0.9c2.3-1.2,3.5-3,3.6-5.5l0-0.8h-3.7v-1h4.3v-1.8h1c0.3,0.1,0.3,0.2,0,0.4v1.4h4.4v1h-5.1
			L461.4,226.2z"/>
		<path class="st13" d="M469.6,224.3v7.4h-0.9v-8.2h3.1l0.7-1.6l1.1,0.4c0.1,0.1,0.1,0.2-0.1,0.2l-0.7,1h4.5v7.6
			c0,0.5-0.2,0.7-0.7,0.7h-1.3l-0.1-1h1c0.1,0,0.2-0.1,0.2-0.2v-6.3H469.6z M474.2,229.7v-0.5h-2.3v0.8H471v-4.3h4.1v4H474.2z
			 M471.8,226.5v1.8h2.3v-1.8H471.8z"/>
	</g>
	<g>
		<polygon class="st14" points="44.3,120.9 44.3,125.1 40.6,125.1 40.6,165.4 44.3,165.4 44.3,169.6 61.4,169.6 61.4,120.9 		"/>
		
			<linearGradient id="SVGID_00000170269663744537498630000001618318670387877000_" gradientUnits="userSpaceOnUse" x1="60.6992" y1="145.5195" x2="76.2392" y2="145.5195">
			<stop  offset="0" style="stop-color:#FF4C4C"/>
			<stop  offset="1" style="stop-color:#FF4C4C;stop-opacity:0"/>
		</linearGradient>
		<polygon style="fill:url(#SVGID_00000170269663744537498630000001618318670387877000_);" points="76.2,185.1 60.7,168.8 
			60.7,120.5 76.2,105.9 		"/>
		<path class="st16" d="M52.6,125.1h-12v40.4h12V125.1z"/>
		<rect x="44.3" y="120.9" class="st16" width="17" height="48.8"/>
	</g>
	<g>
		<polygon class="st14" points="332.4,120.9 332.4,125.1 328.7,125.1 328.7,165.5 332.4,165.5 332.4,169.7 349.5,169.7 349.5,120.9 
					"/>
		
			<linearGradient id="SVGID_00000073691296186631601560000007381233637833407894_" gradientUnits="userSpaceOnUse" x1="348.8057" y1="145.5527" x2="364.3457" y2="145.5527">
			<stop  offset="0" style="stop-color:#FF4C4C"/>
			<stop  offset="1" style="stop-color:#FF4C4C;stop-opacity:0"/>
		</linearGradient>
		<polygon style="fill:url(#SVGID_00000073691296186631601560000007381233637833407894_);" points="364.3,185.1 348.8,168.9 
			348.8,120.6 364.3,106 		"/>
		<path class="st16" d="M340.7,125.1h-12v40.4h12V125.1z"/>
		<rect x="332.4" y="120.9" class="st16" width="17" height="48.8"/>
	</g>
	<g>
		<polygon class="st18" points="86.3,49 142.8,49 114.5,82.3 		"/>
		<polygon class="st18" points="338.4,49 395,49 366.7,82.3 		"/>
		<rect x="2" y="17" class="st18" width="475.5" height="49"/>
		<polygon class="st19" points="470.9,35.3 8.7,35.3 8.7,22.3 470.9,22.3 470.9,35.3 		"/>
		<g>
			<path class="st13" d="M73.7,42.1c0.2,0.1,0.2,0.3-0.1,0.4c-0.5,1.8-1.4,3.5-2.5,5.1l-1-0.7c1.3-1.6,2.2-3.3,2.6-5.3L73.7,42.1z
				 M77.1,41.1c1.5,1.8,2.5,3.8,3.1,5.8L79,47.3c-0.7-2.3-1.7-4.2-2.9-5.5L77.1,41.1z M79.4,40.8l-0.7,0.5c-0.4-0.6-0.9-1.1-1.4-1.5
				l0.6-0.5C78.4,39.7,78.9,40.2,79.4,40.8z M80.4,40l-0.6,0.5c-0.5-0.6-1-1.1-1.4-1.4l0.6-0.5C79.4,39,79.9,39.4,80.4,40z"/>
			<path class="st13" d="M81.5,44.3v-1h9.8v1H81.5z"/>
			<path class="st13" d="M99.9,42.3h-6.1v-1h7.1v6.3h-1v-0.5h-6.1v-1h6.1V42.3z"/>
			<path class="st13" d="M104,44.3v-1h9.8v1H104z"/>
			<path class="st13" d="M123.5,45.4c-1.6-0.8-2.8-1.3-3.8-1.6v4.6h-1v-8.8h0.9c0.4,0,0.4,0.1,0.1,0.4v2.8c1.4,0.4,2.9,1,4.4,1.7
				L123.5,45.4z M123.4,41.5c-0.5-0.6-1-1.1-1.5-1.5l0.6-0.4c0.5,0.4,1,0.9,1.5,1.5L123.4,41.5z M124.5,40.6c-0.4-0.5-0.9-1-1.5-1.5
				l0.6-0.4c0.5,0.4,1,0.8,1.5,1.5L124.5,40.6z"/>
			<path class="st13" d="M133.8,47.9v-3.4V41h-1.3v-0.5c1,0,1.6-0.4,1.8-1.2h0.5v8.6H133.8z"/>
			<path class="st13" d="M141.2,46.6c2.2,0,3.6-0.4,4.4-1.1c0.4-0.4,0.7-1,0.7-1.6c0-0.7-0.2-1.2-0.7-1.7c-0.4-0.4-1-0.5-1.8-0.5
				c-0.7,0-1.6,0.2-2.6,0.5c-0.8,0.3-1.6,0.6-2.5,1l-0.5-1.1l2.5-0.7c1.4-0.4,2.5-0.6,3.3-0.6c1.2,0,2,0.3,2.6,0.8
				c0.6,0.6,0.8,1.3,0.8,2.2c0,1-0.3,1.8-0.8,2.3c-1,1-2.7,1.5-5,1.5L141.2,46.6z"/>
			<path class="st13" d="M157.6,42.1c0.6,0.6,1,1.5,1,2.6c0,1-0.3,1.8-0.9,2.4c-0.5,0.5-1.3,1-2.2,1.3l-0.6-0.8
				c1-0.3,1.7-0.7,2.1-1.1c0.4-0.4,0.7-1,0.7-1.8c0-0.8-0.2-1.5-0.7-1.9c-0.6-0.6-1.3-0.9-2.2-0.9c-0.3,1.2-0.8,2.5-1.5,3.8l0.8,1
				l-0.7,0.5l-0.6-0.7c-0.2,0.4-0.5,0.7-0.7,1c-0.4,0.4-0.8,0.6-1.1,0.6c-0.4,0-0.8-0.2-1.1-0.5c-0.4-0.4-0.6-0.9-0.6-1.6
				c0-1.1,0.6-2.2,1.7-3.3c-0.2-0.9-0.4-1.7-0.4-2.5h0.8c0.3,0.1,0.3,0.2,0.1,0.4c0.1,0.6,0.1,1.2,0.3,1.6c0.8-0.5,1.5-0.8,2.3-0.9
				c0.1-0.4,0.2-1.1,0.4-2l0.9,0.2c0.3,0.1,0.3,0.2,0,0.4l-0.3,1.4C156.1,41.1,156.9,41.5,157.6,42.1z M151.3,43.5
				c-0.7,0.9-1.1,1.7-1.1,2.5c0,0.4,0.1,0.7,0.4,1c0.1,0.1,0.3,0.2,0.5,0.2c0.1,0,0.3-0.1,0.5-0.3c0.2-0.2,0.4-0.5,0.7-1.1
				C151.9,45.1,151.6,44.4,151.3,43.5z M152,42.8c0.3,1,0.6,1.7,0.8,2.1c0.5-1,0.9-1.9,1.1-2.9C153.2,42.1,152.6,42.4,152,42.8z"/>
		</g>
		<g>
			<path class="st13" d="M325.9,42.1c0.2,0.1,0.2,0.3-0.1,0.4c-0.5,1.8-1.4,3.5-2.5,5.1l-1-0.7c1.3-1.6,2.2-3.3,2.6-5.3L325.9,42.1z
				 M329.3,41.1c1.5,1.8,2.5,3.8,3.1,5.8l-1.2,0.4c-0.7-2.3-1.7-4.2-2.9-5.5L329.3,41.1z M331.6,40.8l-0.7,0.5
				c-0.4-0.6-0.9-1.1-1.4-1.5l0.6-0.5C330.6,39.7,331.1,40.2,331.6,40.8z M332.6,40l-0.6,0.5c-0.5-0.6-1-1.1-1.4-1.4l0.6-0.5
				C331.6,39,332,39.4,332.6,40z"/>
			<path class="st13" d="M333.7,44.3v-1h9.8v1H333.7z"/>
			<path class="st13" d="M352.1,42.3H346v-1h7.1v6.3h-1v-0.5H346v-1h6.1V42.3z"/>
			<path class="st13" d="M356.2,44.3v-1h9.8v1H356.2z"/>
			<path class="st13" d="M375.7,45.4c-1.6-0.8-2.8-1.3-3.8-1.6v4.6h-1v-8.8h0.9c0.4,0,0.4,0.1,0.1,0.4v2.8c1.4,0.4,2.9,1,4.4,1.7
				L375.7,45.4z M375.6,41.5c-0.5-0.6-1-1.1-1.5-1.5l0.6-0.4c0.5,0.4,1,0.9,1.5,1.5L375.6,41.5z M376.7,40.6c-0.4-0.5-0.9-1-1.5-1.5
				l0.6-0.4c0.5,0.4,1,0.8,1.5,1.5L376.7,40.6z"/>
			<path class="st13" d="M388.6,47v0.8h-4.5v-0.7c0.7-1.3,1.5-2.5,2.5-3.6c0.6-0.6,0.8-1.3,0.8-2c0-0.5-0.1-0.9-0.4-1.1
				c-0.2-0.2-0.4-0.3-0.7-0.3c-0.2,0-0.5,0.1-0.7,0.4c-0.3,0.3-0.4,0.8-0.4,1.6h-1c0-1.1,0.3-1.8,0.7-2.3c0.4-0.4,0.8-0.5,1.4-0.5
				c0.6,0,1,0.2,1.4,0.6c0.4,0.4,0.6,1,0.6,1.7c0,0.8-0.4,1.7-1.2,2.6c-0.8,1-1.6,1.9-2.1,2.8H388.6z"/>
			<path class="st13" d="M393.4,46.6c2.2,0,3.6-0.4,4.4-1.1c0.4-0.4,0.7-1,0.7-1.6c0-0.7-0.2-1.2-0.7-1.7c-0.4-0.4-1-0.5-1.8-0.5
				c-0.7,0-1.6,0.2-2.6,0.5c-0.8,0.3-1.6,0.6-2.5,1l-0.5-1.1l2.5-0.7c1.4-0.4,2.5-0.6,3.3-0.6c1.2,0,2,0.3,2.6,0.8
				c0.6,0.6,0.8,1.3,0.8,2.2c0,1-0.3,1.8-0.8,2.3c-1,1-2.7,1.5-5,1.5L393.4,46.6z"/>
			<path class="st13" d="M409.8,42.1c0.6,0.6,1,1.5,1,2.6c0,1-0.3,1.8-0.9,2.4c-0.5,0.5-1.3,1-2.2,1.3l-0.6-0.8
				c1-0.3,1.7-0.7,2.1-1.1c0.4-0.4,0.7-1,0.7-1.8c0-0.8-0.2-1.5-0.7-1.9c-0.6-0.6-1.3-0.9-2.2-0.9c-0.3,1.2-0.8,2.5-1.5,3.8l0.8,1
				l-0.7,0.5l-0.6-0.7c-0.2,0.4-0.5,0.7-0.7,1c-0.4,0.4-0.8,0.6-1.1,0.6c-0.4,0-0.8-0.2-1.1-0.5c-0.4-0.4-0.6-0.9-0.6-1.6
				c0-1.1,0.6-2.2,1.7-3.3c-0.2-0.9-0.4-1.7-0.4-2.5h0.8c0.3,0.1,0.3,0.2,0.1,0.4c0.1,0.6,0.1,1.2,0.3,1.6c0.8-0.5,1.5-0.8,2.3-0.9
				c0.1-0.4,0.2-1.1,0.4-2l0.9,0.2c0.3,0.1,0.3,0.2,0,0.4l-0.3,1.4C408.3,41.1,409.1,41.5,409.8,42.1z M403.4,43.5
				c-0.7,0.9-1.1,1.7-1.1,2.5c0,0.4,0.1,0.7,0.4,1c0.1,0.1,0.3,0.2,0.5,0.2c0.1,0,0.3-0.1,0.5-0.3c0.2-0.2,0.4-0.5,0.7-1.1
				C404.1,45.1,403.7,44.4,403.4,43.5z M404.1,42.8c0.3,1,0.6,1.7,0.8,2.1c0.5-1,0.9-1.9,1.1-2.9C405.4,42.1,404.7,42.4,404.1,42.8z
				"/>
		</g>
		<g>
			<path class="st13" d="M88.8,61.4v-3.4v-3.4h-1.3V54c1,0,1.6-0.4,1.8-1.2h0.5v8.6H88.8z"/>
			<path class="st13" d="M97,60.5v0.8h-4.5v-0.7c0.7-1.3,1.5-2.5,2.5-3.6c0.6-0.6,0.8-1.3,0.8-2c0-0.5-0.1-0.9-0.4-1.1
				c-0.2-0.2-0.4-0.3-0.7-0.3c-0.2,0-0.5,0.1-0.7,0.4c-0.3,0.3-0.4,0.8-0.4,1.6h-1c0-1.1,0.3-1.8,0.7-2.3c0.4-0.4,0.8-0.5,1.4-0.5
				c0.6,0,1,0.2,1.4,0.6c0.4,0.4,0.6,1,0.6,1.7c0,0.8-0.4,1.7-1.2,2.6c-0.9,1-1.6,1.9-2.1,2.8H97z"/>
			<path class="st13" d="M99.5,60.2c0.2,0.2,0.5,0.3,0.8,0.3c0.3,0,0.6-0.1,0.8-0.4s0.4-0.7,0.4-1.3c0-0.5-0.2-0.9-0.5-1.2
				c-0.2-0.2-0.6-0.3-1.1-0.3v-0.7c0.5,0,0.8-0.2,1.1-0.4c0.2-0.2,0.4-0.6,0.4-1.1c0-0.6-0.1-1-0.4-1.3c-0.2-0.2-0.4-0.3-0.7-0.3
				s-0.5,0.1-0.7,0.3c-0.3,0.3-0.5,0.7-0.5,1.3h-1c0-0.8,0.3-1.4,0.7-1.8c0.4-0.4,0.8-0.5,1.4-0.5c0.6,0,1.1,0.2,1.4,0.5
				c0.4,0.4,0.6,1,0.6,1.6c0,0.6-0.2,1.1-0.5,1.4c-0.3,0.3-0.6,0.5-0.8,0.6c0.4,0.1,0.7,0.3,0.9,0.5c0.4,0.4,0.6,0.9,0.6,1.5
				c0,0.8-0.2,1.4-0.7,1.8c-0.4,0.4-0.9,0.6-1.5,0.6c-0.7,0-1.2-0.2-1.6-0.6c-0.4-0.4-0.7-1.1-0.7-2h1
				C99.1,59.5,99.2,59.9,99.5,60.2z"/>
			<path class="st13" d="M106.6,61.4v-1v-1h-2.9v-0.8l2.9-5.7h1v5.7h0.9v0.8h-0.9v2H106.6z M106.6,58.5v-3.9l-2,3.9H106.6z"/>
			<path class="st13" d="M110.8,60.3c0.2,0.2,0.4,0.3,0.7,0.3c0.3,0,0.5-0.1,0.7-0.4c0.4-0.4,0.5-0.9,0.5-1.8c0-0.8-0.1-1.3-0.4-1.6
				c-0.2-0.2-0.4-0.3-0.6-0.3c-0.5,0-1,0.3-1.3,0.9h-0.9l0.3-4.7h3.8v0.8h-2.9l-0.2,2.9c0.4-0.4,0.9-0.7,1.5-0.7
				c0.4,0,0.8,0.2,1.1,0.5c0.5,0.5,0.7,1.2,0.7,2.1c0,1-0.3,1.8-0.8,2.3c-0.4,0.4-0.9,0.6-1.5,0.6c-0.6,0-1.1-0.2-1.5-0.5
				c-0.4-0.4-0.7-1.1-0.7-1.9h1C110.4,59.5,110.5,60,110.8,60.3z"/>
			<path class="st13" d="M118.1,53.8c-0.1-0.1-0.3-0.2-0.4-0.2c-0.2,0-0.4,0.1-0.6,0.3c-0.5,0.5-0.8,1.5-0.9,2.9
				c0.4-0.7,0.9-1,1.5-1c0.4,0,0.8,0.2,1.2,0.5c0.5,0.5,0.7,1.2,0.7,2.2c0,1.1-0.2,1.8-0.7,2.3c-0.4,0.4-0.8,0.5-1.4,0.5
				c-0.5,0-1-0.2-1.4-0.6c-0.6-0.6-0.9-1.8-0.9-3.6c0-1.7,0.4-3,1.3-3.9c0.4-0.4,0.8-0.5,1.3-0.5c0.4,0,0.8,0.1,1.1,0.4
				c0.4,0.4,0.6,0.9,0.7,1.6h-1C118.4,54.3,118.3,54,118.1,53.8z M116.8,56.9c-0.4,0.4-0.5,0.8-0.5,1.4c0,0.9,0.2,1.6,0.6,2
				c0.2,0.2,0.4,0.3,0.6,0.3c0.2,0,0.5-0.1,0.7-0.3c0.3-0.3,0.4-0.8,0.4-1.8c0-0.8-0.1-1.3-0.4-1.6c-0.2-0.2-0.4-0.3-0.6-0.3
				C117.2,56.6,117,56.7,116.8,56.9z"/>
			<path class="st13" d="M122,61.4l2.2-7.7h-3.3v-0.8h4.2v0.9l-2.1,7.6H122z"/>
			<path class="st13" d="M130.1,57.4c0.5,0.5,0.7,1,0.7,1.5c0,0.8-0.2,1.4-0.7,1.9c-0.4,0.4-0.9,0.6-1.6,0.6c-0.7,0-1.2-0.2-1.6-0.6
				c-0.5-0.5-0.7-1.1-0.7-1.9c0-0.5,0.2-1,0.7-1.5c0.2-0.2,0.4-0.4,0.7-0.4c-0.2-0.1-0.4-0.2-0.6-0.4c-0.4-0.4-0.6-0.9-0.6-1.5v0
				c0-0.7,0.2-1.3,0.7-1.8c0.4-0.4,0.8-0.6,1.4-0.6c0.6,0,1,0.2,1.4,0.6c0.4,0.4,0.7,1,0.7,1.8v0c0,0.6-0.2,1-0.6,1.5
				c-0.1,0.1-0.3,0.3-0.6,0.4C129.7,57,129.9,57.2,130.1,57.4z M127.7,57.7c-0.3,0.3-0.4,0.7-0.4,1.2c0,0.6,0.1,1,0.4,1.3
				c0.2,0.2,0.5,0.4,0.8,0.4c0.3,0,0.6-0.1,0.8-0.4c0.3-0.3,0.4-0.7,0.4-1.3c0-0.5-0.1-0.9-0.4-1.2c-0.2-0.2-0.5-0.4-0.8-0.4
				C128.2,57.4,127.9,57.5,127.7,57.7z M127.8,53.9c-0.2,0.2-0.4,0.6-0.4,1.2v0c0,0.5,0.1,0.9,0.4,1.1c0.2,0.2,0.5,0.3,0.7,0.3
				c0.3,0,0.5-0.1,0.7-0.3c0.2-0.2,0.4-0.6,0.4-1.1v0c0-0.6-0.1-1-0.4-1.2c-0.2-0.2-0.5-0.3-0.7-0.3C128.3,53.6,128,53.7,127.8,53.9
				z"/>
			<path class="st13" d="M136.4,57c0,1.8-0.4,3.1-1.2,3.9c-0.4,0.4-0.8,0.5-1.3,0.5c-0.4,0-0.8-0.1-1.1-0.4c-0.5-0.5-0.7-1-0.7-1.6
				h1c0,0.4,0.1,0.7,0.4,1c0.1,0.1,0.3,0.2,0.5,0.2c0.2,0,0.4-0.1,0.6-0.3c0.4-0.4,0.7-1.4,0.8-2.8c-0.3,0.7-0.8,1-1.5,1
				c-0.4,0-0.8-0.2-1.2-0.5c-0.5-0.5-0.7-1.2-0.7-2.3c0-1,0.3-1.8,0.8-2.3c0.4-0.4,0.8-0.6,1.3-0.6c0.5,0,0.9,0.2,1.3,0.5
				C136,54,136.4,55.2,136.4,57z M134,53.6c-0.2,0-0.4,0.1-0.6,0.3c-0.3,0.3-0.5,0.9-0.5,1.8c0,0.9,0.1,1.5,0.4,1.8
				c0.2,0.2,0.4,0.3,0.6,0.3c0.3,0,0.5-0.1,0.7-0.3c0.4-0.4,0.5-0.9,0.5-1.6c0-0.9-0.2-1.6-0.6-2C134.5,53.7,134.3,53.6,134,53.6z"
				/>
			<path class="st13" d="M142,60.5v0.8h-4.5v-0.7c0.7-1.3,1.5-2.5,2.5-3.6c0.6-0.6,0.8-1.3,0.8-2c0-0.5-0.1-0.9-0.4-1.1
				c-0.2-0.2-0.4-0.3-0.7-0.3c-0.2,0-0.5,0.1-0.7,0.4c-0.3,0.3-0.4,0.8-0.4,1.6h-1c0-1.1,0.3-1.8,0.7-2.3c0.4-0.4,0.8-0.5,1.4-0.5
				c0.6,0,1,0.2,1.4,0.6c0.4,0.4,0.6,1,0.6,1.7c0,0.8-0.4,1.7-1.2,2.6c-0.9,1-1.6,1.9-2.1,2.8H142z"/>
		</g>
		<g>
			<path class="st13" d="M343.5,57c0,1.8-0.4,3.1-1.2,3.9c-0.4,0.4-0.8,0.5-1.3,0.5c-0.4,0-0.8-0.1-1.1-0.4c-0.5-0.5-0.7-1-0.7-1.6
				h1c0,0.4,0.1,0.7,0.4,1c0.1,0.1,0.3,0.2,0.5,0.2s0.4-0.1,0.6-0.3c0.4-0.4,0.7-1.4,0.8-2.8c-0.3,0.7-0.8,1-1.5,1
				c-0.4,0-0.8-0.2-1.2-0.5c-0.5-0.5-0.7-1.2-0.7-2.3c0-1,0.3-1.8,0.8-2.3c0.4-0.4,0.8-0.6,1.3-0.6c0.5,0,0.9,0.2,1.3,0.5
				C343.2,54,343.5,55.2,343.5,57z M341.2,53.6c-0.2,0-0.4,0.1-0.6,0.3c-0.3,0.3-0.5,0.9-0.5,1.8c0,0.9,0.1,1.5,0.4,1.8
				c0.2,0.2,0.4,0.3,0.6,0.3c0.3,0,0.5-0.1,0.7-0.3c0.4-0.4,0.5-0.9,0.5-1.6c0-0.9-0.2-1.6-0.6-2C341.7,53.7,341.5,53.6,341.2,53.6z
				"/>
			<path class="st13" d="M348.6,57.4c0.5,0.5,0.7,1,0.7,1.5c0,0.8-0.2,1.4-0.7,1.9c-0.4,0.4-0.9,0.6-1.6,0.6c-0.7,0-1.2-0.2-1.6-0.6
				c-0.5-0.5-0.7-1.1-0.7-1.9c0-0.5,0.2-1,0.7-1.5c0.2-0.2,0.4-0.4,0.7-0.4c-0.2-0.1-0.4-0.2-0.6-0.4c-0.4-0.4-0.6-0.9-0.6-1.5v0
				c0-0.7,0.2-1.3,0.7-1.8c0.4-0.4,0.8-0.6,1.4-0.6c0.6,0,1,0.2,1.4,0.6c0.4,0.4,0.7,1,0.7,1.8v0c0,0.6-0.2,1-0.6,1.5
				c-0.1,0.1-0.3,0.3-0.6,0.4C348.1,57,348.4,57.2,348.6,57.4z M346.1,57.7c-0.3,0.3-0.4,0.7-0.4,1.2c0,0.6,0.1,1,0.4,1.3
				c0.2,0.2,0.5,0.4,0.8,0.4c0.3,0,0.6-0.1,0.8-0.4c0.3-0.3,0.4-0.7,0.4-1.3c0-0.5-0.1-0.9-0.4-1.2c-0.2-0.2-0.5-0.4-0.8-0.4
				C346.7,57.4,346.4,57.5,346.1,57.7z M346.2,53.9c-0.2,0.2-0.4,0.6-0.4,1.2v0c0,0.5,0.1,0.9,0.4,1.1c0.2,0.2,0.5,0.3,0.7,0.3
				c0.3,0,0.5-0.1,0.7-0.3c0.2-0.2,0.4-0.6,0.4-1.1v0c0-0.6-0.1-1-0.4-1.2c-0.2-0.2-0.5-0.3-0.7-0.3
				C346.7,53.6,346.4,53.7,346.2,53.9z"/>
			<path class="st13" d="M351.6,61.4l2.2-7.7h-3.3v-0.8h4.2v0.9l-2.1,7.6H351.6z"/>
			<path class="st13" d="M359.1,53.8c-0.1-0.1-0.3-0.2-0.4-0.2c-0.2,0-0.4,0.1-0.6,0.3c-0.5,0.5-0.8,1.5-0.9,2.9
				c0.4-0.7,0.9-1,1.5-1c0.4,0,0.8,0.2,1.2,0.5c0.5,0.5,0.7,1.2,0.7,2.2c0,1.1-0.2,1.8-0.7,2.3c-0.4,0.4-0.8,0.5-1.4,0.5
				c-0.5,0-1-0.2-1.4-0.6c-0.6-0.6-0.9-1.8-0.9-3.6c0-1.7,0.4-3,1.3-3.9c0.4-0.4,0.8-0.5,1.3-0.5c0.4,0,0.8,0.1,1.1,0.4
				c0.4,0.4,0.6,0.9,0.7,1.6h-1C359.4,54.3,359.3,54,359.1,53.8z M357.7,56.9c-0.4,0.4-0.5,0.8-0.5,1.4c0,0.9,0.2,1.6,0.6,2
				c0.2,0.2,0.4,0.3,0.6,0.3c0.2,0,0.5-0.1,0.7-0.3c0.3-0.3,0.4-0.8,0.4-1.8c0-0.8-0.1-1.3-0.4-1.6c-0.2-0.2-0.4-0.3-0.6-0.3
				C358.1,56.6,357.9,56.7,357.7,56.9z"/>
			<path class="st13" d="M363,60.3c0.2,0.2,0.4,0.3,0.7,0.3c0.3,0,0.5-0.1,0.7-0.4c0.4-0.4,0.5-0.9,0.5-1.8c0-0.8-0.1-1.3-0.4-1.6
				c-0.2-0.2-0.4-0.3-0.6-0.3c-0.5,0-1,0.3-1.3,0.9h-0.9l0.3-4.7h3.8v0.8h-2.9l-0.2,2.9c0.4-0.4,0.9-0.7,1.5-0.7
				c0.4,0,0.8,0.2,1.1,0.5c0.5,0.5,0.7,1.2,0.7,2.1c0,1-0.3,1.8-0.8,2.3c-0.4,0.4-0.9,0.6-1.5,0.6c-0.6,0-1.1-0.2-1.5-0.5
				c-0.4-0.4-0.7-1.1-0.7-1.9h1C362.6,59.5,362.7,60,363,60.3z"/>
			<path class="st13" d="M370,61.4v-1v-1h-2.9v-0.8l2.9-5.7h1v5.7h0.9v0.8H371v2H370z M370,58.5v-3.9l-2,3.9H370z"/>
			<path class="st13" d="M374.2,60.2c0.2,0.2,0.5,0.3,0.8,0.3c0.3,0,0.6-0.1,0.8-0.4s0.4-0.7,0.4-1.3c0-0.5-0.2-0.9-0.5-1.2
				c-0.2-0.2-0.6-0.3-1.1-0.3v-0.7c0.5,0,0.8-0.2,1.1-0.4c0.2-0.2,0.4-0.6,0.4-1.1c0-0.6-0.1-1-0.4-1.3c-0.2-0.2-0.4-0.3-0.7-0.3
				s-0.5,0.1-0.7,0.3c-0.3,0.3-0.5,0.7-0.5,1.3h-1c0-0.8,0.3-1.4,0.7-1.8c0.4-0.4,0.8-0.5,1.4-0.5c0.6,0,1.1,0.2,1.4,0.5
				c0.4,0.4,0.6,1,0.6,1.6c0,0.6-0.2,1.1-0.5,1.4c-0.3,0.3-0.6,0.5-0.8,0.6c0.4,0.1,0.7,0.3,0.9,0.5c0.4,0.4,0.6,0.9,0.6,1.5
				c0,0.8-0.2,1.4-0.7,1.8c-0.4,0.4-0.9,0.6-1.5,0.6c-0.7,0-1.2-0.2-1.6-0.6c-0.4-0.4-0.7-1.1-0.7-2h1
				C373.8,59.5,373.9,59.9,374.2,60.2z"/>
			<path class="st13" d="M383,60.5v0.8h-4.5v-0.7c0.7-1.3,1.5-2.5,2.5-3.6c0.6-0.6,0.8-1.3,0.8-2c0-0.5-0.1-0.9-0.4-1.1
				c-0.2-0.2-0.4-0.3-0.7-0.3c-0.2,0-0.5,0.1-0.7,0.4c-0.3,0.3-0.4,0.8-0.4,1.6h-1c0-1.1,0.3-1.8,0.7-2.3c0.4-0.4,0.8-0.5,1.4-0.5
				c0.6,0,1,0.2,1.4,0.6c0.4,0.4,0.6,1,0.6,1.7c0,0.8-0.4,1.7-1.2,2.6c-0.8,1-1.6,1.9-2.1,2.8H383z"/>
			<path class="st13" d="M386,61.4v-3.4v-3.4h-1.3V54c1,0,1.6-0.4,1.8-1.2h0.5v8.6H386z"/>
			<path class="st13" d="M394.2,57c0,1.8-0.4,3.1-1.2,3.9c-0.4,0.4-0.8,0.5-1.3,0.5c-0.4,0-0.8-0.1-1.1-0.4c-0.5-0.5-0.7-1-0.7-1.6
				h1c0,0.4,0.1,0.7,0.4,1c0.1,0.1,0.3,0.2,0.5,0.2s0.4-0.1,0.6-0.3c0.4-0.4,0.7-1.4,0.8-2.8c-0.3,0.7-0.8,1-1.5,1
				c-0.4,0-0.8-0.2-1.2-0.5c-0.5-0.5-0.7-1.2-0.7-2.3c0-1,0.3-1.8,0.8-2.3c0.4-0.4,0.8-0.6,1.3-0.6c0.5,0,0.9,0.2,1.3,0.5
				C393.8,54,394.2,55.2,394.2,57z M391.8,53.6c-0.2,0-0.4,0.1-0.6,0.3c-0.3,0.3-0.5,0.9-0.5,1.8c0,0.9,0.1,1.5,0.4,1.8
				c0.2,0.2,0.4,0.3,0.6,0.3c0.3,0,0.5-0.1,0.7-0.3c0.4-0.4,0.5-0.9,0.5-1.6c0-0.9-0.2-1.6-0.6-2C392.3,53.7,392.1,53.6,391.8,53.6z
				"/>
		</g>
		<g>
			<path class="st7" d="M215.1,25.2c0.1,0.2,0,0.3-0.2,0.1c-1,0.2-2.1,0.3-3.1,0.5v2.2h3.1V29h-3.1v2.5h3.1v0.9h-3.1v1.2h-0.9v-8.7
				l0.8,0.2c0.8-0.1,1.8-0.4,3-0.8L215.1,25.2z M216.5,25.9v8.7h-0.9V25h4.6v7c0,0.5-0.2,0.8-0.7,0.8h-1.4l-0.3-1h1.3
				c0.1,0,0.2-0.1,0.2-0.2v-5.7H216.5z"/>
			<path class="st7" d="M228,29.4V30h4.6v0.9H228v2.7c0,0.5-0.2,0.8-0.8,0.8H226l-0.2-0.9h1.1c0.1,0,0.2-0.1,0.2-0.2v-2.4h-4.9V30
				h4.9v-1.2l0.5,0.1l1.3-0.9h-4.5v-0.9h5.4l0.2-0.2l0.8,0.8l-0.3,0.1L228,29.4z M227.9,25.2h4.4v2.3h-0.9v-1.5h-7.9v1.5h-0.9v-2.4
				h4.4V24h1c0.3,0.1,0.3,0.2,0,0.4V25.2z"/>
			<path class="st7" d="M239.3,28.9h-4.7v-1h9.6v1h-3.8v0.6c0,2-0.7,3.6-2.1,4.9l-0.9-0.7c1.3-1,2-2.4,2-4.2V28.9z M236.3,26.1v-1
				h5.8v1H236.3z M244,25.8l-0.7,0.5c-0.4-0.6-0.9-1.2-1.3-1.7l0.7-0.4C243.1,24.5,243.5,25.1,244,25.8z M245.1,25.1l-0.7,0.5
				c-0.5-0.7-0.9-1.2-1.3-1.6l0.7-0.5C244.2,24,244.6,24.5,245.1,25.1z"/>
			<path class="st7" d="M246.2,29.8v-1h10.5v1H246.2z"/>
			<path class="st7" d="M262.5,26h3.1l0.5-0.2l0.6,0.6c0.1,0.2,0.1,0.3-0.2,0.4c-0.2,1.2-0.6,2.4-1.1,3.4l1.1,0.8l-0.7,1l-1-0.8
				c-0.9,1.3-2.2,2.4-3.9,3.2l-1.1-0.8c1.9-0.8,3.2-1.8,4-3.1c-0.8-0.5-1.5-1-2.3-1.4l0.6-0.8c1,0.4,1.8,0.8,2.4,1.2
				c0.5-1,0.8-1.8,0.8-2.6H262c-0.6,1.1-1.3,2-2.2,2.9l-0.9-0.6c1.6-1.7,2.6-3.4,3.1-5.2l1.1,0.5c0.2,0.1,0.2,0.2-0.2,0.4
				C262.8,25.3,262.7,25.6,262.5,26z"/>
		</g>
	</g>
	<path class="st20" d="M140.2,86.3h-49c-4.4,0-8,3.6-8,8v4c0,4.4,3.6,8,8,8h5.5L84.7,133l24-26.6h31.5c4.4,0,8-3.6,8-8v-4
		C148.2,89.9,144.6,86.3,140.2,86.3z"/>
	<g>
		<path class="st13" d="M89.3,100.5v-3.4v-3.4H88v-0.5c1,0,1.6-0.4,1.8-1.2h0.5v8.6H89.3z"/>
		<path class="st13" d="M97.5,99.7v0.8h-4.5v-0.7c0.7-1.3,1.5-2.5,2.5-3.6c0.6-0.6,0.8-1.3,0.8-2c0-0.5-0.1-0.9-0.4-1.1
			c-0.2-0.2-0.4-0.3-0.7-0.3c-0.2,0-0.5,0.1-0.7,0.4c-0.3,0.3-0.4,0.8-0.4,1.6h-1c0-1.1,0.3-1.8,0.7-2.3c0.4-0.4,0.8-0.5,1.4-0.5
			c0.6,0,1,0.2,1.4,0.6c0.4,0.4,0.6,1,0.6,1.7c0,0.8-0.4,1.7-1.2,2.6c-0.9,1-1.6,1.9-2.1,2.8H97.5z"/>
		<path class="st13" d="M100,99.4c0.2,0.2,0.5,0.3,0.8,0.3c0.3,0,0.6-0.1,0.8-0.4s0.4-0.7,0.4-1.3c0-0.5-0.2-0.9-0.5-1.2
			c-0.2-0.2-0.6-0.3-1.1-0.3v-0.7c0.5,0,0.8-0.2,1.1-0.4c0.2-0.2,0.4-0.6,0.4-1.1c0-0.6-0.1-1-0.4-1.3c-0.2-0.2-0.4-0.3-0.7-0.3
			s-0.5,0.1-0.7,0.3c-0.3,0.3-0.5,0.7-0.5,1.3h-1c0-0.8,0.3-1.4,0.7-1.8c0.4-0.4,0.8-0.5,1.4-0.5c0.6,0,1.1,0.2,1.4,0.5
			c0.4,0.4,0.6,1,0.6,1.6c0,0.6-0.2,1.1-0.5,1.4c-0.3,0.3-0.6,0.5-0.8,0.6c0.4,0.1,0.7,0.3,0.9,0.5c0.4,0.4,0.6,0.9,0.6,1.5
			c0,0.8-0.2,1.4-0.7,1.8c-0.4,0.4-0.9,0.6-1.5,0.6c-0.7,0-1.2-0.2-1.6-0.6c-0.4-0.4-0.7-1.1-0.7-2h1C99.6,98.6,99.7,99.1,100,99.4z
			"/>
		<path class="st13" d="M107.1,100.5v-1v-1h-2.9v-0.8l2.9-5.7h1v5.7h0.9v0.8h-0.9v2H107.1z M107.1,97.7v-3.9l-2,3.9H107.1z"/>
		<path class="st13" d="M111.3,99.4c0.2,0.2,0.4,0.3,0.7,0.3c0.3,0,0.5-0.1,0.7-0.4c0.4-0.4,0.5-0.9,0.5-1.8c0-0.8-0.1-1.3-0.4-1.6
			c-0.2-0.2-0.4-0.3-0.6-0.3c-0.5,0-1,0.3-1.3,0.9h-0.9l0.3-4.7h3.8v0.8h-2.9l-0.2,2.9c0.4-0.4,0.9-0.7,1.5-0.7
			c0.4,0,0.8,0.2,1.1,0.5c0.5,0.5,0.7,1.2,0.7,2.1c0,1-0.3,1.8-0.8,2.3c-0.4,0.4-0.9,0.6-1.5,0.6c-0.6,0-1.1-0.2-1.5-0.5
			c-0.4-0.4-0.7-1.1-0.7-1.9h1C110.9,98.7,111,99.1,111.3,99.4z"/>
		<path class="st13" d="M118.6,93c-0.1-0.1-0.3-0.2-0.4-0.2c-0.2,0-0.4,0.1-0.6,0.3c-0.5,0.5-0.8,1.5-0.9,2.9c0.4-0.7,0.9-1,1.5-1
			c0.4,0,0.8,0.2,1.2,0.5c0.5,0.5,0.7,1.2,0.7,2.2c0,1.1-0.2,1.8-0.7,2.3c-0.4,0.4-0.8,0.5-1.4,0.5c-0.5,0-1-0.2-1.4-0.6
			c-0.6-0.6-0.9-1.8-0.9-3.6c0-1.7,0.4-3,1.3-3.9c0.4-0.4,0.8-0.5,1.3-0.5c0.4,0,0.8,0.1,1.1,0.4c0.4,0.4,0.6,0.9,0.7,1.6h-1
			C118.9,93.5,118.8,93.2,118.6,93z M117.3,96.1c-0.4,0.4-0.5,0.8-0.5,1.4c0,0.9,0.2,1.6,0.6,2c0.2,0.2,0.4,0.3,0.6,0.3
			c0.2,0,0.5-0.1,0.7-0.3c0.3-0.3,0.4-0.8,0.4-1.8c0-0.8-0.1-1.3-0.4-1.6c-0.2-0.2-0.4-0.3-0.6-0.3
			C117.7,95.8,117.5,95.9,117.3,96.1z"/>
		<path class="st13" d="M122.4,100.5l2.2-7.7h-3.3V92h4.2v0.9l-2.1,7.6H122.4z"/>
		<path class="st13" d="M130.6,96.6c0.5,0.5,0.7,1,0.7,1.5c0,0.8-0.2,1.4-0.7,1.9c-0.4,0.4-0.9,0.6-1.6,0.6c-0.7,0-1.2-0.2-1.6-0.6
			c-0.5-0.5-0.7-1.1-0.7-1.9c0-0.5,0.2-1,0.7-1.5c0.2-0.2,0.4-0.4,0.7-0.4c-0.2-0.1-0.4-0.2-0.6-0.4c-0.4-0.4-0.6-0.9-0.6-1.5v0
			c0-0.7,0.2-1.3,0.7-1.8c0.4-0.4,0.8-0.6,1.4-0.6c0.6,0,1,0.2,1.4,0.6c0.4,0.4,0.7,1,0.7,1.8v0c0,0.6-0.2,1-0.6,1.5
			c-0.1,0.1-0.3,0.3-0.6,0.4C130.2,96.2,130.4,96.4,130.6,96.6z M128.2,96.9c-0.3,0.3-0.4,0.7-0.4,1.2c0,0.6,0.1,1,0.4,1.3
			c0.2,0.2,0.5,0.4,0.8,0.4c0.3,0,0.6-0.1,0.8-0.4c0.3-0.3,0.4-0.7,0.4-1.3c0-0.5-0.1-0.9-0.4-1.2c-0.2-0.2-0.5-0.4-0.8-0.4
			C128.7,96.5,128.4,96.6,128.2,96.9z M128.3,93.1c-0.2,0.2-0.4,0.6-0.4,1.2v0c0,0.5,0.1,0.9,0.4,1.1c0.2,0.2,0.5,0.3,0.7,0.3
			c0.3,0,0.5-0.1,0.7-0.3c0.2-0.2,0.4-0.6,0.4-1.1v0c0-0.6-0.1-1-0.4-1.2c-0.2-0.2-0.5-0.3-0.7-0.3
			C128.7,92.8,128.5,92.9,128.3,93.1z"/>
		<path class="st13" d="M136.9,96.1c0,1.8-0.4,3.1-1.2,3.9c-0.4,0.4-0.8,0.5-1.3,0.5c-0.4,0-0.8-0.1-1.1-0.4c-0.5-0.5-0.7-1-0.7-1.6
			h1c0,0.4,0.1,0.7,0.4,1c0.1,0.1,0.3,0.2,0.5,0.2c0.2,0,0.4-0.1,0.6-0.3c0.4-0.4,0.7-1.4,0.8-2.8c-0.3,0.7-0.8,1-1.5,1
			c-0.4,0-0.8-0.2-1.2-0.5c-0.5-0.5-0.7-1.2-0.7-2.3c0-1,0.3-1.8,0.8-2.3c0.4-0.4,0.8-0.6,1.3-0.6c0.5,0,0.9,0.2,1.3,0.5
			C136.5,93.2,136.9,94.4,136.9,96.1z M134.5,92.8c-0.2,0-0.4,0.1-0.6,0.3c-0.3,0.3-0.5,0.9-0.5,1.8c0,0.9,0.1,1.5,0.4,1.8
			c0.2,0.2,0.4,0.3,0.6,0.3c0.3,0,0.5-0.1,0.7-0.3c0.4-0.4,0.5-0.9,0.5-1.6c0-0.9-0.2-1.6-0.6-2C135,92.8,134.8,92.8,134.5,92.8z"/>
		<path class="st13" d="M142.5,99.7v0.8h-4.5v-0.7c0.7-1.3,1.5-2.5,2.5-3.6c0.6-0.6,0.8-1.3,0.8-2c0-0.5-0.1-0.9-0.4-1.1
			c-0.2-0.2-0.4-0.3-0.7-0.3c-0.2,0-0.5,0.1-0.7,0.4c-0.3,0.3-0.4,0.8-0.4,1.6h-1c0-1.1,0.3-1.8,0.7-2.3c0.4-0.4,0.8-0.5,1.4-0.5
			c0.6,0,1,0.2,1.4,0.6c0.4,0.4,0.6,1,0.6,1.7c0,0.8-0.4,1.7-1.2,2.6c-0.9,1-1.6,1.9-2.1,2.8H142.5z"/>
	</g>
	<path class="st20" d="M428.2,86.3h-49c-4.4,0-8,3.6-8,8v4c0,4.4,3.6,8,8,8h5.5L372.7,133l24-26.6h31.5c4.4,0,8-3.6,8-8v-4
		C436.2,89.9,432.6,86.3,428.2,86.3z"/>
	<g>
		<path class="st13" d="M379.9,96.1c0,1.8-0.4,3.1-1.2,3.9c-0.4,0.4-0.8,0.5-1.3,0.5c-0.4,0-0.8-0.1-1.1-0.4c-0.5-0.5-0.7-1-0.7-1.6
			h1c0,0.4,0.1,0.7,0.4,1c0.1,0.1,0.3,0.2,0.5,0.2c0.2,0,0.4-0.1,0.6-0.3c0.4-0.4,0.7-1.4,0.8-2.8c-0.3,0.7-0.8,1-1.5,1
			c-0.4,0-0.8-0.2-1.2-0.5c-0.5-0.5-0.7-1.2-0.7-2.3c0-1,0.3-1.8,0.8-2.3c0.4-0.4,0.8-0.6,1.3-0.6s0.9,0.2,1.3,0.5
			C379.5,93.2,379.9,94.4,379.9,96.1z M377.5,92.8c-0.2,0-0.4,0.1-0.6,0.3c-0.3,0.3-0.5,0.9-0.5,1.8c0,0.9,0.1,1.5,0.4,1.8
			c0.2,0.2,0.4,0.3,0.6,0.3c0.3,0,0.5-0.1,0.7-0.3c0.4-0.4,0.5-0.9,0.5-1.6c0-0.9-0.2-1.6-0.6-2C378,92.8,377.8,92.8,377.5,92.8z"/>
		<path class="st13" d="M384.9,96.6c0.5,0.5,0.7,1,0.7,1.5c0,0.8-0.2,1.4-0.7,1.9c-0.4,0.4-0.9,0.6-1.6,0.6s-1.2-0.2-1.6-0.6
			c-0.5-0.5-0.7-1.1-0.7-1.9c0-0.5,0.2-1,0.7-1.5c0.2-0.2,0.4-0.4,0.7-0.4c-0.2-0.1-0.4-0.2-0.6-0.4c-0.4-0.4-0.6-0.9-0.6-1.5v0
			c0-0.7,0.2-1.3,0.7-1.8c0.4-0.4,0.8-0.6,1.4-0.6s1,0.2,1.4,0.6c0.4,0.4,0.7,1,0.7,1.8v0c0,0.6-0.2,1-0.6,1.5
			c-0.1,0.1-0.3,0.3-0.6,0.4C384.4,96.2,384.7,96.4,384.9,96.6z M382.5,96.9c-0.3,0.3-0.4,0.7-0.4,1.2c0,0.6,0.1,1,0.4,1.3
			c0.2,0.2,0.5,0.4,0.8,0.4s0.6-0.1,0.8-0.4c0.3-0.3,0.4-0.7,0.4-1.3c0-0.5-0.1-0.9-0.4-1.2c-0.2-0.2-0.5-0.4-0.8-0.4
			S382.7,96.6,382.5,96.9z M382.5,93.1c-0.2,0.2-0.4,0.6-0.4,1.2v0c0,0.5,0.1,0.9,0.4,1.1c0.2,0.2,0.5,0.3,0.7,0.3s0.5-0.1,0.7-0.3
			c0.2-0.2,0.4-0.6,0.4-1.1v0c0-0.6-0.1-1-0.4-1.2c-0.2-0.2-0.5-0.3-0.7-0.3S382.7,92.9,382.5,93.1z"/>
		<path class="st13" d="M387.9,100.5l2.2-7.7h-3.3V92h4.2v0.9l-2.1,7.6H387.9z"/>
		<path class="st13" d="M395.4,93c-0.1-0.1-0.3-0.2-0.4-0.2c-0.2,0-0.4,0.1-0.6,0.3c-0.5,0.5-0.8,1.5-0.9,2.9c0.4-0.7,0.9-1,1.5-1
			c0.4,0,0.8,0.2,1.2,0.5c0.5,0.5,0.7,1.2,0.7,2.2c0,1.1-0.2,1.8-0.7,2.3c-0.4,0.4-0.8,0.5-1.4,0.5c-0.5,0-1-0.2-1.4-0.6
			c-0.6-0.6-0.9-1.8-0.9-3.6c0-1.7,0.4-3,1.3-3.9c0.4-0.4,0.8-0.5,1.3-0.5c0.4,0,0.8,0.1,1.1,0.4c0.4,0.4,0.6,0.9,0.7,1.6h-1
			C395.7,93.5,395.6,93.2,395.4,93z M394,96.1c-0.4,0.4-0.5,0.8-0.5,1.4c0,0.9,0.2,1.6,0.6,2c0.2,0.2,0.4,0.3,0.6,0.3
			s0.5-0.1,0.7-0.3c0.3-0.3,0.4-0.8,0.4-1.8c0-0.8-0.1-1.3-0.4-1.6c-0.2-0.2-0.4-0.3-0.6-0.3C394.5,95.8,394.2,95.9,394,96.1z"/>
		<path class="st13" d="M399.3,99.4c0.2,0.2,0.4,0.3,0.7,0.3c0.3,0,0.5-0.1,0.7-0.4c0.4-0.4,0.5-0.9,0.5-1.8c0-0.8-0.1-1.3-0.4-1.6
			c-0.2-0.2-0.4-0.3-0.6-0.3c-0.5,0-1,0.3-1.3,0.9h-0.9l0.3-4.7h3.8v0.8h-2.9l-0.2,2.9c0.4-0.4,0.9-0.7,1.4-0.7
			c0.4,0,0.8,0.2,1.1,0.5c0.5,0.5,0.7,1.2,0.7,2.1c0,1-0.3,1.8-0.8,2.3c-0.4,0.4-0.9,0.6-1.5,0.6c-0.6,0-1.1-0.2-1.5-0.5
			c-0.4-0.4-0.7-1.1-0.7-1.9h1C398.9,98.7,399,99.1,399.3,99.4z"/>
		<path class="st13" d="M406.3,100.5v-1v-1h-2.9v-0.8l2.9-5.7h1v5.7h0.9v0.8h-0.9v2H406.3z M406.3,97.7v-3.9l-2,3.9H406.3z"/>
		<path class="st13" d="M410.5,99.4c0.2,0.2,0.5,0.3,0.8,0.3c0.3,0,0.6-0.1,0.8-0.4s0.4-0.7,0.4-1.3c0-0.5-0.2-0.9-0.5-1.2
			c-0.2-0.2-0.6-0.3-1.1-0.3v-0.7c0.5,0,0.8-0.2,1.1-0.4s0.4-0.6,0.4-1.1c0-0.6-0.1-1-0.4-1.3c-0.2-0.2-0.4-0.3-0.7-0.3
			s-0.5,0.1-0.7,0.3c-0.3,0.3-0.5,0.7-0.5,1.3h-1c0-0.8,0.3-1.4,0.7-1.8c0.4-0.4,0.8-0.5,1.4-0.5c0.6,0,1.1,0.2,1.4,0.5
			c0.4,0.4,0.6,1,0.6,1.6c0,0.6-0.2,1.1-0.5,1.4c-0.3,0.3-0.6,0.5-0.8,0.6c0.4,0.1,0.7,0.3,0.9,0.5c0.4,0.4,0.6,0.9,0.6,1.5
			c0,0.8-0.2,1.4-0.7,1.8c-0.4,0.4-0.9,0.6-1.5,0.6c-0.7,0-1.2-0.2-1.6-0.6c-0.4-0.4-0.7-1.1-0.7-2h1
			C410.1,98.6,410.2,99.1,410.5,99.4z"/>
		<path class="st13" d="M419.3,99.7v0.8h-4.5v-0.7c0.7-1.3,1.5-2.5,2.5-3.6c0.6-0.6,0.8-1.3,0.8-2c0-0.5-0.1-0.9-0.4-1.1
			c-0.2-0.2-0.4-0.3-0.7-0.3c-0.2,0-0.5,0.1-0.7,0.4c-0.3,0.3-0.4,0.8-0.4,1.6h-1c0-1.1,0.3-1.8,0.7-2.3c0.4-0.4,0.8-0.5,1.4-0.5
			c0.6,0,1,0.2,1.4,0.6c0.4,0.4,0.6,1,0.6,1.7c0,0.8-0.4,1.7-1.2,2.6c-0.9,1-1.6,1.9-2.1,2.8H419.3z"/>
		<path class="st13" d="M422.3,100.5v-3.4v-3.4H421v-0.5c1,0,1.6-0.4,1.8-1.2h0.5v8.6H422.3z"/>
		<path class="st13" d="M430.5,96.1c0,1.8-0.4,3.1-1.2,3.9c-0.4,0.4-0.8,0.5-1.3,0.5c-0.4,0-0.8-0.1-1.1-0.4c-0.5-0.5-0.7-1-0.7-1.6
			h1c0,0.4,0.1,0.7,0.4,1c0.1,0.1,0.3,0.2,0.5,0.2c0.2,0,0.4-0.1,0.6-0.3c0.4-0.4,0.7-1.4,0.8-2.8c-0.3,0.7-0.8,1-1.5,1
			c-0.4,0-0.8-0.2-1.2-0.5c-0.5-0.5-0.7-1.2-0.7-2.3c0-1,0.3-1.8,0.8-2.3c0.4-0.4,0.8-0.6,1.3-0.6s0.9,0.2,1.3,0.5
			C430.2,93.2,430.5,94.4,430.5,96.1z M428.2,92.8c-0.2,0-0.4,0.1-0.6,0.3c-0.3,0.3-0.5,0.9-0.5,1.8c0,0.9,0.1,1.5,0.4,1.8
			c0.2,0.2,0.4,0.3,0.6,0.3c0.3,0,0.5-0.1,0.7-0.3c0.4-0.4,0.5-0.9,0.5-1.6c0-0.9-0.2-1.6-0.6-2C428.6,92.8,428.4,92.8,428.2,92.8z"
			/>
	</g>
	<g>
		<path class="st21" d="M403.1,150.7c0.1,0.8,0.2,2,0.7,2.5c0.3,0.3,1.1,0.7,1.6,0.7c0.5,0,0.9-0.5,1.2-0.7l1-0.9l11.7-11.5l8.3-8
			l4.4-3.7c0.8-0.6,1.2-0.8,2.2-0.8c1.8,0,1.8,0.3,1.8,2v3.7c0,1.7-0.3,1.7-1.6,2.9l-4,4.4l-14,14.7l-7.5,7.2
			c-1.4,1.3-6.4,6.4-8.4,6.4l-1.3-0.1c-0.9-0.1-3.2-1.7-3.9-2.3c-0.8-0.6-1.7-1.5-2.3-2.3c-0.5-0.5-0.5-1.5-0.5-2.1l-0.8-7
			c-0.3-2.5-0.4-4.4-0.3-6.9c0.2-3.1-0.1-2.5,1.9-4.8c0.8-0.9,1.8-2.4,3-2.8c0.8-0.3,2.1-0.5,2.9-0.5c0.7,0,1.2,0.2,1.8,0.6
			c0.8,0.6,0.8,0.9,0.8,1.8c0,1.1,0.4,3.1,0.6,4.3L403.1,150.7z"/>
	</g>
	<g>
		<path class="st21" d="M112.1,150.4c0.1,0.8,0.2,2,0.7,2.5c0.3,0.3,1.1,0.7,1.6,0.7c0.5,0,0.9-0.5,1.2-0.7l1-0.9l11.7-11.5l8.3-8
			l4.4-3.7c0.8-0.6,1.2-0.8,2.2-0.8c1.8,0,1.8,0.3,1.8,2v3.7c0,1.7-0.3,1.7-1.6,2.9l-4,4.4l-14,14.7l-7.5,7.2
			c-1.4,1.3-6.4,6.4-8.4,6.4l-1.3-0.1c-0.9-0.1-3.2-1.7-3.9-2.3c-0.8-0.6-1.7-1.5-2.3-2.3c-0.5-0.5-0.5-1.5-0.5-2.1l-0.8-7
			c-0.3-2.5-0.4-4.4-0.3-6.9c0.2-3.1-0.1-2.5,1.9-4.8c0.8-0.9,1.8-2.4,3-2.8c0.8-0.3,2.1-0.5,2.9-0.5c0.7,0,1.2,0.2,1.8,0.6
			c0.8,0.6,0.8,0.9,0.8,1.8c0,1.1,0.4,3.1,0.6,4.3L112.1,150.4z"/>
	</g>
	<g>
	</g>
	<g>
	</g>
	<g>
	</g>
	<g>
	</g>
	<g>
	</g>
	<g>
	</g>
	<g>
	</g>
	<g>
	</g>
	<g>
	</g>
	<g>
	</g>
	<g>
	</g>
	<g>
	</g>
	<g>
	</g>
	<g>
	</g>
	<g>
	</g>
	<g>
	</g>
	<g>
	</g>
	<g>
	</g>
</g>
</svg>
