<?xml version="1.0" encoding="utf-8"?>
<!-- Generator: Adobe Illustrator 26.3.1, SVG Export Plug-In . SVG Version: 6.00 Build 0)  -->
<svg version="1.1" id="ipWarn" xmlns="http://www.w3.org/2000/svg" xmlns:xlink="http://www.w3.org/1999/xlink" x="0px" y="0px"
	 width="44px" height="44px" viewBox="0 0 44 44" style="enable-background:new 0 0 44 44;" xml:space="preserve">
<style type="text/css">
	.st0{fill:none;}
	.st1{fill:#54575E;}
	.st2{fill:#E69A37;}
</style>
<rect id="rect" x="2" y="2" class="st0" width="40" height="40"/>
<path id="path" class="st1" d="M4.7,33.4c-0.1-0.1-0.2-0.3-0.2-0.5V13.1c0-0.2,0.1-0.4,0.2-0.5c0.1-0.1,0.3-0.2,0.4-0.2h2.5
	c0.2,0,0.3,0.1,0.5,0.2c0.1,0.2,0.2,0.3,0.2,0.5v19.7c0,0.2-0.1,0.4-0.2,0.5c-0.1,0.1-0.3,0.2-0.5,0.2H5.1C5,33.6,4.8,33.5,4.7,33.4
	 M12.8,33.4c-0.1-0.1-0.2-0.3-0.2-0.5V13.2c0-0.2,0-0.4,0.2-0.5c0-0.2,0.2-0.3,0.4-0.3h7c1.8-0.1,3.6,0.5,4.9,1.7
	c1.3,1.3,1.9,3.2,1.8,5c0.1,1.8-0.5,3.6-1.8,5c-1.4,1.2-3.1,1.8-5,1.7h-3.8v7.1c0,0.2-0.1,0.4-0.2,0.5c-0.1,0.1-0.3,0.2-0.5,0.2
	h-2.5C13,33.6,12.9,33.5,12.8,33.4 M20.1,22.4c0.9,0.1,1.7-0.2,2.3-0.8c0.6-0.7,0.9-1.6,0.8-2.5c0.1-0.9-0.2-1.7-0.8-2.4
	c-0.6-0.7-1.5-1-2.3-0.9h-3.8v6.7L20.1,22.4z"/>
<path id="path-warning" class="st2" d="M29.5,6.9h10l-2.8,18.8h-4.5L29.5,6.9z M34.5,38.1c2.1,0,3.8-1.7,3.8-3.8s-1.7-3.8-3.8-3.8
	s-3.8,1.7-3.8,3.8S32.4,38.1,34.5,38.1"/>
</svg>
