<?xml version="1.0" encoding="utf-8"?>
<!-- Generator: Adobe Illustrator 26.3.1, SVG Export Plug-In . SVG Version: 6.00 Build 0)  -->
<svg version="1.1" xmlns="http://www.w3.org/2000/svg" xmlns:xlink="http://www.w3.org/1999/xlink" x="0px" y="0px" width="185px"
	 height="171.9px" viewBox="0 0 185 171.9" style="enable-background:new 0 0 185 171.9;" xml:space="preserve">
<style type="text/css">
	.st0{fill:none;stroke:#000000;stroke-linecap:round;stroke-linejoin:round;stroke-miterlimit:10;}
	.st1{fill:#FFFFFF;stroke:#000000;stroke-width:0.5;stroke-linecap:round;stroke-linejoin:round;stroke-miterlimit:10;}
	.st2{fill:none;stroke:#000000;stroke-width:0.25;stroke-linecap:round;stroke-linejoin:round;stroke-miterlimit:10;}
</style>
<g id="_x33_30_xD7_330">
</g>
<g id="レイヤー_3">
	<path class="st0" d="M31.9,119.6c-5.7-3.7-1.1-11.9,6.1-7.7"/>
	<path class="st0" d="M31.6,119.4c-3.8-2.6,0-8.4,4.9-5.7"/>
	<g>
		<path class="st1" d="M114.7,98l-17.5,8.6c0,0-2.3,0-6-0.1l-0.3,2.3h-4.4l-0.3-2.3c-12.8-0.2-33.6-0.5-45.3-0.7l-0.2,1.8h-4.4
			l-0.3-1.9c-2.2,0-3.6-0.1-3.7-0.1c-0.9,0-1.1-0.1-1.9-0.7c-0.6-0.5-0.7-1-0.7-1.8c0-0.5,0-27.7,0-27.7c-0.3-0.3-0.4-0.7-0.4-1.1
			s0-36.1,0-36.1c0.1-1,0.3-6.7,0.3-7.2s0-1.8,0-1.8l0.6-1.2c0.1-0.2,0.2-0.3,0.3-0.3c1.9-0.9,14.6-7.2,14.7-7.3
			c0.2-0.1,0.3-0.1,0.5-0.1s67.5,1.1,67.5,1.1c0.4,0,0.6,0.3,0.7,0.8s1.3,14.4,1.3,14.4v60.7C115.2,97.6,115,97.9,114.7,98z"/>
		<path class="st2" d="M36.1,105.7c1.3,0,3,0,4.9,0.1"/>
		<path class="st2" d="M86.2,106.5c1.9,0,3.5,0.1,5,0.1"/>
		<polygon class="st2" points="47.8,67 31.6,66.8 31.6,40.4 47.8,40.6 		"/>
		<polygon class="st2" points="40.2,100.6 34,100.6 34,97.4 40.2,97.4 		"/>
		<path class="st2" d="M29.7,75.5l67.1,1c0.3,0,0.6-0.1,0.8-0.2l17.6-8.9"/>
		<path class="st2" d="M50,105.9V66.3l2.3-2.6V31.9c0-0.6,0.1-1.2,0.3-1.8l0.4-1c0.2-0.5,0.5-0.9,1-1.1l14.9-7.3"/>
		<line class="st2" x1="97.2" y1="30.6" x2="97.2" y2="106.5"/>
		<path class="st2" d="M30.7,28.4c11.3,0.4,51,1.1,65.1,0.6"/>
		<line class="st2" x1="97.8" y1="28.7" x2="113.1" y2="21.8"/>
		<path class="st2" d="M101.3,63.8l7.6-3.7c0.8-0.4,1.2-1.1,1.2-2V34.2c0-0.4-0.4-0.6-0.7-0.5l-7.4,3.6c-0.8,0.4-1.4,1.3-1.4,2.2
			v23.7C100.6,63.7,101,63.9,101.3,63.8z"/>
		<path class="st2" d="M55,75.8v5.4c0,0.6,0.5,1.1,1.1,1.1l41.1,0.8"/>
	</g>
	<g>
		<polygon class="st1" points="34,97.4 40.2,97.4 40.2,100.6 32.5,104.1 26.4,104.1 26.4,100.8 		"/>
		<polyline class="st2" points="26.4,100.8 32.5,100.9 32.5,104.1 		"/>
		<line class="st2" x1="32.5" y1="100.9" x2="40.2" y2="97.4"/>
	</g>
	<path class="st0" d="M29.3,102.5c-8.3,3.7-9.2,11.2,4,17.7"/>
	<g>
		<path class="st1" d="M37.3,115.8c-0.8-0.4-1.8-0.4-3,0.3c-2.3,1.3-4.2,4.6-4.2,7.2c0,1.3,0.5,2.3,1.2,2.7c0,0,10.8,6.2,10.8,6.2
			c0.8,0.4,1.8,0.4,3-0.3c2.3-1.3,4.2-4.6,4.2-7.2c0-1.3-0.5-2.3-1.2-2.7C48.1,122,37.3,115.8,37.3,115.8z"/>
		<ellipse transform="matrix(0.5 -0.866 0.866 0.5 -87.5689 102.6395)" class="st2" cx="45.1" cy="127.2" rx="2.1" ry="1.2"/>
		<path class="st2" d="M42.1,132.3c-0.8-0.4-1.2-1.4-1.2-2.7c0-2.7,1.9-5.9,4.2-7.2c1.2-0.7,2.2-0.7,3-0.3"/>
		<polyline class="st2" points="40.9,129.6 38.8,128.3 38.8,128.3 38.8,127.5 37.2,126.6 37.2,127.4 37.2,127.4 33.5,125.3 
			33.5,124.5 31.9,123.6 31.9,124.3 30.1,123.3 		"/>
		<polyline class="st2" points="37,118 36.2,117.6 37.8,116.7 38.6,117.1 		"/>
		<polyline class="st2" points="41.9,120.9 42.8,121.4 44.4,120.5 43.5,120 		"/>
		<line class="st2" x1="46.6" y1="126.3" x2="49.3" y2="124.7"/>
		<line class="st2" x1="40.9" y1="129.6" x2="43.6" y2="128"/>
	</g>
	<path class="st0" d="M45.1,127.2c4.8,3.5,23.2,11,28.5,12.8c7.6,2.6,24.5,8.4,28.8-4.5c3.4-10.3,20.7-12.3,35.2-2.9"/>
	<g>
		<path class="st1" d="M130,136.2c0,1.2-0.1,2.7,1.9,4.1s11.1,5.6,15.6,8.9c4.1,3.1,8.4,3.3,11.1,1.8c1.7-0.9,4.8-3.8,5.7-5.6
			c1.3-2.6,0.7-6.6-2.6-9.6c-4.2-3.8-11.6-8.7-16.4-9.5c-3.9-0.6-5.9,0.3-8.3,1.6c-2,1.1-4.4,3.3-5.6,4.8
			C130.2,134.2,130,135.2,130,136.2z"/>
		<path class="st2" d="M134.2,130c0.9-0.1,1.5-0.3,2.4-0.2"/>
		<path class="st2" d="M141.1,129.6l-1.2,1.1c-0.9-0.1-3-0.3-3.5-0.3c0.1-0.7,0.7-1,1-1.3C138.5,128.4,140.1,128.7,141.1,129.6z"/>
		<line class="st2" x1="141.1" y1="129.6" x2="141.4" y2="129.3"/>
		<line class="st2" x1="136.4" y1="130.4" x2="135.9" y2="130.4"/>
		<path class="st2" d="M130.1,135.4c-0.1,0.7,0.5,1.2,2,1.5c4.4,0.8,6.3,1.5,10.3,2.8c4.9,1.5,8.8,4.6,11.1,6.7
			c1.5,1.3,3.7,1.7,5.2,0.8c2.1-1.3,4.5-3.6,5.4-6.1c0.3-0.9,0.1-1.7-0.4-2.7"/>
		<path class="st2" d="M139.6,138.8c0-0.7,3.9-5.2,5.8-7c2-1.8,3.7-3.2,4.8-3.7"/>
		<path class="st2" d="M140.8,129.9c1.2,0.1,2.4,0.4,5.4,1.3"/>
	</g>
	<path class="st0" d="M38,111.9c4.7,2.7,8,4.6,11.5,6.7c7.5,4.6,4.6,13.4-4.4,8.5"/>
	<path class="st0" d="M36.4,113.7c2.6,1.4,9.5,5.3,11.5,6.4c6.5,3.8,3,10.7-2.8,7"/>
	<g>
	</g>
	<g>
	</g>
	<g>
	</g>
	<g>
	</g>
	<g>
	</g>
	<g>
	</g>
</g>
</svg>
