<?xml version="1.0" encoding="utf-8"?>
<!-- Generator: Adobe Illustrator 26.3.1, SVG Export Plug-In . SVG Version: 6.00 Build 0)  -->
<svg version="1.1" id="レイヤー_1" xmlns="http://www.w3.org/2000/svg" xmlns:xlink="http://www.w3.org/1999/xlink" x="0px"
	 y="0px" width="44px" height="44px" viewBox="0 0 44 44" style="enable-background:new 0 0 44 44;" xml:space="preserve">
<style type="text/css">
	.st0{fill:none;}
	.st1{fill:#54575E;}
</style>
<g id="cleaning" transform="translate(0.005 0.005)">
	<rect id="rect" x="2" y="2" class="st0" width="40" height="40"/>
	<path id="path" class="st1" d="M33.7,11.6h-2.3c-1.6-3.9-5.5-6.4-9.8-6.2c-5-0.2-9.4,3.3-10.3,8.2h-1c-0.9,0-1.6,0.7-1.6,1.6
		c0,0.1,0,0.1,0,0.2l2.5,21.2c0.1,0.8,0.8,1.4,1.6,1.4h17.5c0.8,0,1.5-0.6,1.6-1.4l1.4-11.8h0.3c0.9,0,1.6-0.7,1.6-1.6v-10
		C35.3,12.4,34.6,11.6,33.7,11.6L33.7,11.6z M32,21.6h-6.7v-6.7H32V21.6z M21.6,8.6c2.4-0.1,4.7,1.1,6.1,3h-4
		c-0.9,0-1.7,0.8-1.7,1.7l0,0v0.4h-7.4C15.4,10.5,18.4,8.4,21.6,8.6L21.6,8.6z M28.9,34.9H14.3l-2.1-18H22v6.4
		c0,0.9,0.7,1.6,1.6,1.6H30L28.9,34.9z"/>
</g>
</svg>
