<?xml version="1.0" encoding="utf-8"?>
<!-- Generator: Adobe Illustrator 26.3.1, SVG Export Plug-In . SVG Version: 6.00 Build 0)  -->
<svg version="1.1" id="_x33_30_xD7_330" xmlns="http://www.w3.org/2000/svg" xmlns:xlink="http://www.w3.org/1999/xlink" x="0px"
	 y="0px" width="198px" height="155px" viewBox="0 0 198 155" style="enable-background:new 0 0 198 155;" xml:space="preserve">
<style type="text/css">
	.st0{fill:#FFFFFF;stroke:#000000;stroke-linecap:round;stroke-linejoin:round;stroke-miterlimit:10;}
	.st1{fill:none;stroke:#000000;stroke-width:0.5;stroke-linecap:round;stroke-linejoin:round;stroke-miterlimit:10;}
	.st2{fill:none;stroke:#000000;stroke-width:0.5;stroke-linecap:round;stroke-linejoin:round;stroke-dasharray:4,4,4,4,0,0;}
</style>
<polygon class="st0" points="177.5,69.4 84.6,45.2 20.5,60.9 20.5,110.6 113.4,134.8 177.5,119.1 "/>
<polyline class="st1" points="177.5,69.4 113.4,85.1 20.5,60.9 "/>
<polyline class="st1" points="177.5,76.5 113.4,92.2 20.5,68 "/>
<polyline class="st1" points="177.5,83.6 113.4,99.3 20.5,75.1 "/>
<polyline class="st1" points="177.5,90.7 113.4,106.4 20.5,82.2 "/>
<polyline class="st1" points="177.5,97.8 113.4,113.5 20.5,89.3 "/>
<polyline class="st1" points="177.5,104.9 113.4,120.6 20.5,96.4 "/>
<polyline class="st1" points="177.5,112 113.4,127.7 20.5,103.5 "/>
<path class="st0" d="M177.5,69.4c-29.5-9-73.3-33.5-91.1-49.2L22.3,35.9C40,51.7,83.8,76.1,113.4,85.1L177.5,69.4z"/>
<line class="st2" x1="125.6" y1="46.2" x2="61.4" y2="62.1"/>
<path class="st1" d="M74.9,62.1l47.7-11.7c1.4-0.4,2.9-0.2,4.3,0.5c11.7,6.2,24,11.9,35.1,16.1c0.9,0.3,0.8,1.6-0.1,1.8l-47.5,11.7
	c-1.2,0.3-2.4,0.2-3.5-0.2c-11.3-4.2-24-10.1-36.1-16.5C73.9,63.5,74,62.3,74.9,62.1z"/>
<path class="st1" d="M66.8,57.7L114.5,46c0.8-0.2,1-1.3,0.2-1.8c-10.2-5.9-19.5-11.9-26.7-17.4c-1.4-1.1-3.3-1.5-5.1-1.1L35.4,37.6
	c-0.8,0.2-1,1.2-0.4,1.7c7.3,5.6,16.9,11.8,27.4,17.9C63.8,57.9,65.3,58.1,66.8,57.7z"/>
<g>
</g>
<g>
</g>
<g>
</g>
<g>
</g>
<g>
</g>
<g>
</g>
</svg>
