<?xml version="1.0" encoding="utf-8"?>
<!-- Generator: Adobe Illustrator 26.3.1, SVG Export Plug-In . SVG Version: 6.00 Build 0)  -->
<svg version="1.1" id="wifiLevel1" xmlns="http://www.w3.org/2000/svg" xmlns:xlink="http://www.w3.org/1999/xlink" x="0px" y="0px"
	 width="44px" height="44px" viewBox="0 0 44 44" style="enable-background:new 0 0 44 44;" xml:space="preserve">
<style type="text/css">
	.st0{fill:none;}
	.st1{opacity:0.3;fill:#54575E;enable-background:new    ;}
	.st2{fill:#54575E;}
</style>
<rect id="rect" x="2" y="2" class="st0" width="40" height="40"/>
<g id="path">
	<path id="path4" class="st1" d="M39.4,16c-9.6-9.7-25.2-9.7-34.8,0l-2.3-2.3c10.9-10.9,28.5-10.9,39.4,0l0,0L39.4,16z"/>
	<path id="path3" class="st1" d="M34.1,21.3c-6.7-6.7-17.5-6.7-24.2,0L7.6,19c8-8,20.8-8,28.8,0L34.1,21.3z"/>
	<path id="path2" class="st1" d="M28.8,26.6c-3.8-3.8-9.8-3.8-13.6,0l-2.3-2.3c5-5,13.2-5,18.2,0L28.8,26.6z"/>
	<path id="path1" class="st2" d="M27,33.4c0,2.8-2.2,5-5,5s-5-2.2-5-5c0-2.8,2.2-5,5-5S27,30.6,27,33.4"/>
</g>
</svg>
