<?xml version="1.0" encoding="UTF-8"?>
<svg id="_レイヤー_1" data-name="レイヤー 1" xmlns="http://www.w3.org/2000/svg" width="172.2" height="123.6" viewBox="0 0 172.2 123.6">
  <defs>
    <style>
      .cls-1 {
        stroke: blue;
        stroke-miterlimit: 10;
        stroke-width: 2px;
      }

      .cls-1, .cls-2, .cls-3 {
        fill: none;
      }

      .cls-2 {
        stroke-dasharray: 4 4 4 4 0 0;
      }

      .cls-2, .cls-4, .cls-3 {
        stroke: #000;
        stroke-linecap: round;
        stroke-linejoin: round;
      }

      .cls-2, .cls-3 {
        stroke-width: .5px;
      }

      .cls-5 {
        fill: blue;
      }

      .cls-4 {
        fill: #fff;
      }

      .cls-6 {
        font-family: ArialMT, Arial;
        font-size: 12px;
      }
    </style>
  </defs>
  <g id="_330_330" data-name="330×330">
    <polygon class="cls-4" points="171.7 57.7 78.8 33.4 14.6 49.2 14.6 98.9 107.5 123.1 171.7 107.4 171.7 57.7"/>
    <polyline class="cls-3" points="171.7 57.7 107.5 73.4 14.6 49.2"/>
    <polyline class="cls-3" points="171.7 64.8 107.5 80.5 14.6 56.3"/>
    <polyline class="cls-3" points="171.7 71.9 107.5 87.6 14.6 63.4"/>
    <polyline class="cls-3" points="171.7 79 107.5 94.7 14.6 70.5"/>
    <polyline class="cls-3" points="171.7 86.1 107.5 101.8 14.6 77.6"/>
    <polyline class="cls-3" points="171.7 93.2 107.5 108.9 14.6 84.7"/>
    <polyline class="cls-3" points="171.7 100.3 107.5 116 14.6 91.8"/>
    <path class="cls-4" d="M171.7,57.7c-29.5-9-73.3-33.5-91.1-49.2L16.4,24.2c17.8,15.8,61.6,40.2,91.1,49.2l64.2-15.7Z"/>
    <line class="cls-2" x1="119.7" y1="34.5" x2="55.6" y2="50.3"/>
    <path class="cls-3" d="M69,50.4l47.7-11.7c1.4-.4,2.9-.2,4.3.5,11.7,6.2,24,11.9,35.1,16.1.9.3.8,1.6-.1,1.8l-47.5,11.7c-1.2.3-2.4.2-3.5-.2-11.3-4.2-24-10.1-36.1-16.5-.9-.4-.7-1.5.1-1.7Z"/>
    <path class="cls-3" d="M61,46l47.7-11.7c.8-.2,1-1.3.2-1.8-10.2-5.9-19.5-11.9-26.7-17.4-1.4-1.1-3.3-1.5-5.1-1.1l-47.6,11.8c-.8.2-1,1.2-.4,1.7,7.3,5.6,16.9,11.8,27.4,17.9,1.4.8,3,1,4.5.6Z"/>
  </g>
  <g id="_レイヤー_2" data-name="レイヤー 2">
    <g>
      <line class="cls-1" x1="6.2" y1="30.3" x2="91.3" y2="78.3"/>
      <polygon class="cls-5" points="8 40.7 9.9 40.1 6.9 30.7 16.5 28.4 16 26.4 4.4 29.2 8 40.7"/>
      <polygon class="cls-5" points="81.5 82.2 81 80.2 90.6 77.9 87.6 68.5 89.5 67.9 93.2 79.4 81.5 82.2"/>
    </g>
    <g>
      <path d="M0,50.7l.3-.8c.6.2,1.1.4,1.4.6-.1-.7-.1-1.2-.1-1.5h.8c0,.4-.1.9-.1,1.5.4-.2.9-.4,1.4-.6l.3.8c-.5.2-1,.3-1.5.3.2.2.6.6,1,1.1l-.7.5c-.3-.3-.6-.7-.9-1.3-.3.6-.5,1-.8,1.3l-.7-.5c.5-.6.8-.9,1-1.1-.5-.1-1-.2-1.4-.3Z"/>
      <text class="cls-6" transform="translate(4.0001 58.6999)"><tspan x="0" y="0">1</tspan></text>
    </g>
  </g>
</svg>