<?xml version="1.0" encoding="utf-8"?>
<!-- Generator: Adobe Illustrator 26.3.1, SVG Export Plug-In . SVG Version: 6.00 Build 0)  -->
<svg version="1.1" id="nfcActive" xmlns="http://www.w3.org/2000/svg" xmlns:xlink="http://www.w3.org/1999/xlink" x="0px" y="0px"
	 width="44px" height="44px" viewBox="0 0 44 44" style="enable-background:new 0 0 44 44;" xml:space="preserve">
<style type="text/css">
	.st0{fill:none;}
	.st1{fill:#54575E;}
</style>
<rect id="rect" x="2" y="2" class="st0" width="40" height="40"/>
<path id="path" class="st1" d="M3.7,37.4c-0.1-0.1-0.1-0.2-0.1-0.4V22.7c0-0.1,0-0.3,0.1-0.4c0.1-0.1,0.2-0.2,0.3-0.2h2
	c0.3,0,0.5,0.2,0.6,0.4l4.6,8.4v-8.2c0-0.1,0-0.3,0.1-0.4c0.1-0.1,0.2-0.2,0.3-0.2h2.3c0.1,0,0.3,0.1,0.3,0.2
	c0.1,0.1,0.1,0.3,0.1,0.4V37c0,0.1,0,0.3-0.1,0.4c-0.1,0.1-0.2,0.2-0.3,0.2h-2c-0.3,0-0.5-0.2-0.6-0.4L6.8,29v8c0,0.1,0,0.3-0.1,0.4
	c-0.1,0.1-0.2,0.2-0.3,0.2H4.1C3.9,37.6,3.8,37.5,3.7,37.4 M17.6,37.4c-0.1-0.1-0.1-0.2-0.1-0.4V22.7c0-0.1,0-0.3,0.1-0.4
	c0.1-0.1,0.2-0.2,0.3-0.2h8.8c0.1,0,0.3,0.1,0.3,0.2c0.1,0.1,0.1,0.3,0.1,0.4V25c0,0.1,0,0.3-0.1,0.4s-0.2,0.2-0.3,0.2h-5.9v3.2h5.5
	c0.1,0,0.3,0.1,0.3,0.2c0.1,0.1,0.1,0.3,0.1,0.4v2.2c0,0.1,0,0.3-0.1,0.4s-0.2,0.2-0.3,0.2h-5.5v5c0,0.1,0,0.3-0.1,0.4
	c-0.1,0.1-0.2,0.2-0.3,0.2h-2.5C17.8,37.6,17.7,37.5,17.6,37.4 M30.8,36.3c-1.1-1.2-1.7-2.8-1.6-4.4c0-0.4,0-1,0-1.9s0-1.6,0-2
	c0-1.6,0.5-3.2,1.7-4.4c1-1.2,2.6-1.7,4.1-1.6c1,0,2.1,0.2,3,0.6s1.6,1,2.1,1.8c0.5,0.8,0.8,1.8,0.8,2.8l0,0c0,0.1,0,0.2-0.1,0.3
	c-0.1,0.1-0.2,0.1-0.3,0.1h-2.6c-0.1,0-0.3,0-0.4-0.1c-0.1-0.1-0.2-0.3-0.2-0.5c-0.1-0.6-0.4-1.2-0.8-1.6c-0.4-0.3-1-0.5-1.5-0.5
	c-1.5,0-2.3,1-2.3,2.9c0,0.4,0,1,0,1.8c0,0.8,0,1.4,0,1.9c0.1,1.9,0.8,2.9,2.3,2.9c0.5,0,1.1-0.1,1.5-0.5s0.7-1,0.8-1.5
	c0-0.2,0.1-0.3,0.2-0.5c0.1-0.1,0.3-0.1,0.4-0.1h2.6c0.1,0,0.2,0,0.3,0.1c0.1,0.1,0.1,0.2,0.1,0.3c0,1-0.3,2-0.8,2.8
	s-1.2,1.4-2.1,1.8s-2,0.7-3,0.6C33.5,37.9,31.9,37.3,30.8,36.3 M33.8,10.6c-6.5-6.5-17-6.5-23.5,0l2.3,2.3c5.2-5.2,13.7-5.2,18.9,0
	L33.8,10.6z M28.5,15.9c-3.6-3.4-9.3-3.4-12.9,0l2.3,2.3c2.3-2.2,6-2.2,8.3,0L28.5,15.9z"/>
</svg>
