<?xml version="1.0" encoding="utf-8"?>
<!-- Generator: Adobe Illustrator 26.3.1, SVG Export Plug-In . SVG Version: 6.00 Build 0)  -->
<svg version="1.1" id="sosCloudRealTime" xmlns="http://www.w3.org/2000/svg" xmlns:xlink="http://www.w3.org/1999/xlink" x="0px"
	 y="0px" width="44px" height="44px" viewBox="0 0 44 44" style="enable-background:new 0 0 44 44;" xml:space="preserve">
<style type="text/css">
	.st0{fill:none;}
	.st1{fill:#54575E;}
</style>
<rect id="rect" x="2" y="2" class="st0" width="40" height="40"/>
<path id="path" class="st1" d="M41.1,24.7c0,3.9-2.7,7.2-6.5,8v-3.4c2.5-0.9,3.9-3.7,2.9-6.2s-3.7-3.9-6.2-2.9c-1,0.3-1.8,1-2.4,1.9
	l-2.7-1.8c1.4-2,3.6-3.3,6-3.5c-0.7-5.7-5.8-9.6-11.4-8.8c-3.5,0.5-6.5,2.7-8,6c2.4,0,4.6,1,6.3,2.6l-2.3,2.3
	c-2.4-2.5-6.4-2.5-8.9-0.2S5.3,25,7.7,27.5C8,27.8,8.3,28,8.6,28.3V32c-4.8-2.1-7-7.6-5-12.4c1-2.5,3.1-4.4,5.6-5.2
	C11.2,7.2,18.6,3,25.8,5c5.5,1.5,9.4,6.3,9.8,12C38.9,18.2,41.1,21.3,41.1,24.7 M22.5,29.8l-5-5c-0.5-0.5-1.4-0.5-1.9,0l0,0l-5,5
	l1.9,1.9l2.7-2.7v9.2h2.7V29l2.7,2.7L22.5,29.8z M31.8,32.2l-2.7,2.7v-9.2h-2.8v9.2l-2.7-2.7l-1.9,1.9l5,5c0.5,0.5,1.4,0.5,1.9,0
	l0,0l5-5L31.8,32.2z"/>
</svg>
