<?xml version="1.0" encoding="utf-8"?>
<!-- Generator: Adobe Illustrator 26.3.1, SVG Export Plug-In . SVG Version: 6.00 Build 0)  -->
<svg version="1.1" id="sosCloudError" xmlns="http://www.w3.org/2000/svg" xmlns:xlink="http://www.w3.org/1999/xlink" x="0px"
	 y="0px" width="44px" height="44px" viewBox="0 0 44 44" style="enable-background:new 0 0 44 44;" xml:space="preserve">
<style type="text/css">
	.st0{fill:none;}
	.st1{fill:#54575E;}
	.st2{fill:#E54C41;}
</style>
<rect id="rect" x="2" y="2" class="st0" width="40" height="40"/>
<path id="path" class="st1" d="M19.1,32.1h-6.8c-3.5,0-6.3-2.8-6.3-6.2c0-3.5,2.8-6.3,6.2-6.3c1.6,0,3.2,0.6,4.4,1.8l2.3-2.3
	c-1.5-1.6-3.7-2.6-6-2.7c1.7-3.7,5.3-6,9.3-6c3.9,0,7.5,2.3,9.2,5.9c0.1,0,0.2,0,0.3,0c1.2,0,2.3,0.2,3.5,0.5
	C33,9.7,25.6,5.6,18.4,7.6c-4.4,1.3-7.9,4.9-9.2,9.3C4.3,18.6,1.6,24,3.3,29c1.3,3.8,4.9,6.4,9,6.4h8.1
	C19.9,34.4,19.4,33.3,19.1,32.1"/>
<path id="path-error" class="st2" d="M31.6,18.7c-5.7,0-10.4,4.6-10.4,10.4c0,5.7,4.6,10.4,10.4,10.4c5.7,0,10.4-4.6,10.4-10.4
	C42,23.4,37.3,18.8,31.6,18.7 M35.8,23.4l-4.2,3.9l-4.2-3.9C29.9,21.5,33.3,21.5,35.8,23.4 M25.6,25.4l4,3.7l-4,3.7
	C24.1,30.6,24.1,27.7,25.6,25.4 M27.4,34.9l4.2-3.9l4.2,3.9C33.3,36.7,29.9,36.7,27.4,34.9 M37.7,32.8l-4-3.7l4-3.7
	C39.1,27.7,39.1,30.6,37.7,32.8"/>
</svg>
