<?xml version="1.0" encoding="utf-8"?>
<!-- Generator: Adobe Illustrator 26.3.1, SVG Export Plug-In . SVG Version: 6.00 Build 0)  -->
<svg version="1.1" id="ribbonWarn" xmlns="http://www.w3.org/2000/svg" xmlns:xlink="http://www.w3.org/1999/xlink" x="0px" y="0px"
	 width="32px" height="32px" viewBox="0 0 32 32" style="enable-background:new 0 0 32 32;" xml:space="preserve">
<style type="text/css">
	.st0{fill:none;}
	.st1{fill:#54575E;}
	.st2{fill:#E69A37;}
</style>
<rect id="rect" class="st0" width="32" height="32"/>
<path id="path" class="st1" d="M16,14.6c-2.4,0-4.3,1.9-4.3,4.3s1.9,4.3,4.3,4.3s4.3-1.9,4.3-4.3C20.3,16.5,18.4,14.6,16,14.6
	 M16,20.6c-0.9,0-1.7-0.8-1.7-1.7c0-0.9,0.8-1.7,1.7-1.7c0.9,0,1.7,0.8,1.7,1.7C17.7,19.8,16.9,20.6,16,20.6 M8.1,11.2l-3.5-2
	l1.3-2.3l3.5,2L8.1,11.2z M13.5,8h-2.6V4h2.6V8z M21,26.7c-1.5,1-3.2,1.5-5,1.5H2v-4h6.4c-2.9-4.2-1.9-10,2.3-12.9
	C13.7,9.1,17.8,9,21,11.1v3.4c-2.4-2.8-6.7-3.1-9.5-0.6s-3.1,6.7-0.6,9.5s6.7,3.1,9.5,0.6c0.2-0.2,0.4-0.4,0.6-0.6L21,26.7z"/>
<path id="path-warning" class="st2" d="M23,3.9h8l-2.2,15h-3.6L23,3.9z M27,28.9c1.7,0,3-1.3,3-3s-1.3-3-3-3s-3,1.3-3,3
	S25.3,28.9,27,28.9"/>
</svg>
