<?xml version="1.0" encoding="utf-8"?>
<!-- Generator: Adobe Illustrator 26.3.1, SVG Export Plug-In . SVG Version: 6.00 Build 0)  -->
<svg version="1.1" xmlns="http://www.w3.org/2000/svg" xmlns:xlink="http://www.w3.org/1999/xlink" x="0px" y="0px" width="480px"
	 height="250px" viewBox="0 0 480 250" style="enable-background:new 0 0 480 250;" xml:space="preserve">
<style type="text/css">
	.st0{clip-path:url(#SVGID_00000023265737504947818370000018170818606354667415_);fill:#CCFFFF;}
	
		.st1{clip-path:url(#SVGID_00000023265737504947818370000018170818606354667415_);fill:none;stroke:#000000;stroke-width:0.75;stroke-linejoin:round;stroke-miterlimit:10;}
	
		.st2{clip-path:url(#SVGID_00000023265737504947818370000018170818606354667415_);fill:#FFFFFF;stroke:#000000;stroke-width:1.5;stroke-linecap:round;stroke-linejoin:round;stroke-miterlimit:10;}
	.st3{clip-path:url(#SVGID_00000125592230444845466050000009983297976750336914_);fill:#CCFFFF;}
	
		.st4{clip-path:url(#SVGID_00000125592230444845466050000009983297976750336914_);fill:none;stroke:#000000;stroke-width:0.75;stroke-linejoin:round;stroke-miterlimit:10;}
	
		.st5{clip-path:url(#SVGID_00000125592230444845466050000009983297976750336914_);fill:#FFFFFF;stroke:#000000;stroke-width:1.5;stroke-linecap:round;stroke-linejoin:round;stroke-miterlimit:10;}
	.st6{clip-path:url(#SVGID_00000048480484516096720150000017414710419878869896_);}
	.st7{fill:#FFFFFF;}
	.st8{fill:none;stroke:#000000;stroke-width:0.4572;}
	.st9{fill:none;stroke:#000000;stroke-width:1.1887;}
	.st10{clip-path:url(#SVGID_00000082349671911015146990000003861517142223437954_);}
	.st11{fill:#A6A6A6;}
	.st12{fill:#5DC2D0;}
	.st13{fill:#040000;}
	.st14{fill:#FFFFFF;stroke:#000000;stroke-width:2;stroke-linecap:round;stroke-linejoin:round;stroke-miterlimit:10;}
	.st15{fill:url(#SVGID_00000033342694561114273780000001378142549445230478_);}
	.st16{fill:#FFFFFF;stroke:#000000;stroke-linejoin:round;stroke-miterlimit:10;}
	.st17{fill:url(#SVGID_00000071530537918115305550000012006772822051508110_);}
	.st18{fill:#C0DD98;}
	.st19{fill:#72AF43;}
	.st20{fill:#FF0000;}
</style>
<g id="Layer_1">
	<g>
		<defs>
			<rect id="SVGID_1_" x="255.6" y="90.1" width="221.7" height="105.3"/>
		</defs>
		<clipPath id="SVGID_00000021802722641489862250000007975531663339510690_">
			<use xlink:href="#SVGID_1_"  style="overflow:visible;"/>
		</clipPath>
		<polyline style="clip-path:url(#SVGID_00000021802722641489862250000007975531663339510690_);fill:#CCFFFF;" points="479.2,195 
			254.4,195 254.4,90.5 479.2,90.5 		"/>
		
			<line style="clip-path:url(#SVGID_00000021802722641489862250000007975531663339510690_);fill:none;stroke:#000000;stroke-width:0.75;stroke-linejoin:round;stroke-miterlimit:10;" x1="254.4" y1="195" x2="480.5" y2="195"/>
		
			<path style="clip-path:url(#SVGID_00000021802722641489862250000007975531663339510690_);fill:#FFFFFF;stroke:#000000;stroke-width:1.5;stroke-linecap:round;stroke-linejoin:round;stroke-miterlimit:10;" d="
			M257.2,189.7c-5.6,0-10.1-4.5-10.1-10.1v-74.2c0-5.6,4.5-10.1,10.1-10.1h171.2c5.6,0,10.1,4.5,10.1,10.1v74.2
			c0,5.6-4.5,10.1-10.1,10.1H257.2z"/>
		
			<path style="clip-path:url(#SVGID_00000021802722641489862250000007975531663339510690_);fill:#FFFFFF;stroke:#000000;stroke-width:1.5;stroke-linecap:round;stroke-linejoin:round;stroke-miterlimit:10;" d="
			M457.3,189.7c-5.6,0-10.1-4.5-10.1-10.1v-74.2c0-5.6,4.5-10.1,10.1-10.1h64c5.6,0,10.1,4.5,10.1,10.1v74.2
			c0,5.6-4.5,10.1-10.1,10.1H457.3z"/>
		
			<line style="clip-path:url(#SVGID_00000021802722641489862250000007975531663339510690_);fill:none;stroke:#000000;stroke-width:0.75;stroke-linejoin:round;stroke-miterlimit:10;" x1="254.4" y1="90.5" x2="477.9" y2="90.5"/>
	</g>
	<g>
		<defs>
			<rect id="SVGID_00000121266011165428626160000010523950960661851544_" x="2.7" y="90.1" width="221.9" height="105.3"/>
		</defs>
		<clipPath id="SVGID_00000145039496204010323120000006265645359888163996_">
			<use xlink:href="#SVGID_00000121266011165428626160000010523950960661851544_"  style="overflow:visible;"/>
		</clipPath>
		<polyline style="clip-path:url(#SVGID_00000145039496204010323120000006265645359888163996_);fill:#CCFFFF;" points="239.5,195 
			0.7,195 0.7,90.5 239.5,90.5 		"/>
		
			<line style="clip-path:url(#SVGID_00000145039496204010323120000006265645359888163996_);fill:none;stroke:#000000;stroke-width:0.75;stroke-linejoin:round;stroke-miterlimit:10;" x1="-4" y1="195" x2="234.7" y2="195"/>
		
			<path style="clip-path:url(#SVGID_00000145039496204010323120000006265645359888163996_);fill:#FFFFFF;stroke:#000000;stroke-width:1.5;stroke-linecap:round;stroke-linejoin:round;stroke-miterlimit:10;" d="
			M-39.6,189.6c-5.6,0-10.1-4.5-10.1-10.1v-74.2c0-5.6,4.5-10.1,10.1-10.1H0.9c5.6,0,10.1,4.5,10.1,10.1v74.2
			c0,5.6-4.5,10.1-10.1,10.1H-39.6z"/>
		
			<path style="clip-path:url(#SVGID_00000145039496204010323120000006265645359888163996_);fill:#FFFFFF;stroke:#000000;stroke-width:1.5;stroke-linecap:round;stroke-linejoin:round;stroke-miterlimit:10;" d="
			M29.5,189.6c-5.6,0-10.1-4.5-10.1-10.1v-74.2c0-5.6,4.5-10.1,10.1-10.1h171.2c5.6,0,10.1,4.5,10.1,10.1v74.2
			c0,5.6-4.5,10.1-10.1,10.1H29.5z"/>
		
			<path style="clip-path:url(#SVGID_00000145039496204010323120000006265645359888163996_);fill:#FFFFFF;stroke:#000000;stroke-width:1.5;stroke-linecap:round;stroke-linejoin:round;stroke-miterlimit:10;" d="
			M229.6,189.6c-5.6,0-10.1-4.5-10.1-10.1v-74.2c0-5.6,4.5-10.1,10.1-10.1h40.5c5.6,0,10.1,4.5,10.1,10.1v74.2
			c0,5.6-4.5,10.1-10.1,10.1H229.6z"/>
		
			<line style="clip-path:url(#SVGID_00000145039496204010323120000006265645359888163996_);fill:none;stroke:#000000;stroke-width:0.75;stroke-linejoin:round;stroke-miterlimit:10;" x1="-4" y1="90.5" x2="234.7" y2="90.5"/>
	</g>
	<g>
		<defs>
			<path id="SVGID_00000091729581171946098560000004343009541044363909_" d="M257.3,189.6c-5.6,0-10.1-4.5-10.1-10.1v-74.2
				c0-5.6,4.5-10.1,10.1-10.1h171.2c5.6,0,10.1,4.5,10.1,10.1v74.2c0,5.6-4.5,10.1-10.1,10.1H257.3z"/>
		</defs>
		<clipPath id="SVGID_00000106108832833914333540000008907597177376479656_">
			<use xlink:href="#SVGID_00000091729581171946098560000004343009541044363909_"  style="overflow:visible;"/>
		</clipPath>
		<g style="clip-path:url(#SVGID_00000106108832833914333540000008907597177376479656_);">
			<g>
				<rect x="279.1" y="106.9" class="st7" width="15" height="74.6"/>
				<line class="st8" x1="279.1" y1="181.3" x2="293.8" y2="181.3"/>
				<line class="st8" x1="279.1" y1="179.8" x2="293.8" y2="179.8"/>
				<line class="st9" x1="279.1" y1="178.7" x2="293.8" y2="178.7"/>
				<line class="st9" x1="279.1" y1="177.2" x2="293.8" y2="177.2"/>
				<line class="st8" x1="279.1" y1="176.1" x2="293.8" y2="176.1"/>
				<line class="st9" x1="279.1" y1="174.7" x2="293.8" y2="174.7"/>
				<line class="st8" x1="279.1" y1="173.6" x2="293.8" y2="173.6"/>
				<line class="st8" x1="279.1" y1="172.1" x2="293.8" y2="172.1"/>
				<line class="st8" x1="279.1" y1="171.3" x2="293.8" y2="171.3"/>
				<line class="st9" x1="279.1" y1="170.1" x2="293.8" y2="170.1"/>
				<line class="st8" x1="279.1" y1="168.8" x2="293.8" y2="168.8"/>
				<line class="st9" x1="279.1" y1="167.6" x2="293.8" y2="167.6"/>
				<line class="st8" x1="279.1" y1="165.8" x2="293.8" y2="165.8"/>
				<line class="st8" x1="279.1" y1="165" x2="293.8" y2="165"/>
				<line class="st9" x1="279.1" y1="163.9" x2="293.8" y2="163.9"/>
				<line class="st9" x1="279.1" y1="162.2" x2="293.8" y2="162.2"/>
				<line class="st9" x1="279.1" y1="160.7" x2="293.8" y2="160.7"/>
				<line class="st8" x1="279.1" y1="158.9" x2="293.8" y2="158.9"/>
				<line class="st8" x1="279.1" y1="158.1" x2="293.8" y2="158.1"/>
				<line class="st8" x1="279.1" y1="157.3" x2="293.8" y2="157.3"/>
				<line class="st8" x1="279.1" y1="156.2" x2="293.8" y2="156.2"/>
				<line class="st8" x1="279.1" y1="155.4" x2="293.8" y2="155.4"/>
				<line class="st9" x1="279.1" y1="153.6" x2="293.8" y2="153.6"/>
				<line class="st8" x1="279.1" y1="152.5" x2="293.8" y2="152.5"/>
				<line class="st9" x1="279.1" y1="151.3" x2="293.8" y2="151.3"/>
				<line class="st9" x1="279.1" y1="149.6" x2="293.8" y2="149.6"/>
				<line class="st8" x1="279.1" y1="148.5" x2="293.8" y2="148.5"/>
				<line class="st9" x1="279.1" y1="146.7" x2="293.8" y2="146.7"/>
				<line class="st8" x1="279.1" y1="145.5" x2="293.8" y2="145.5"/>
				<line class="st8" x1="279.1" y1="144.7" x2="293.8" y2="144.7"/>
				<line class="st8" x1="279.1" y1="143.7" x2="293.8" y2="143.7"/>
				<line class="st9" x1="279.1" y1="142.5" x2="293.8" y2="142.5"/>
				<line class="st9" x1="279.1" y1="140.4" x2="293.8" y2="140.4"/>
				<line class="st8" x1="279.1" y1="139.3" x2="293.8" y2="139.3"/>
				<line class="st8" x1="279.1" y1="138.4" x2="293.8" y2="138.4"/>
				<line class="st8" x1="279.1" y1="137.4" x2="293.8" y2="137.4"/>
				<line class="st8" x1="279.1" y1="136.6" x2="293.8" y2="136.6"/>
				<line class="st8" x1="279.1" y1="135.1" x2="293.8" y2="135.1"/>
				<line class="st9" x1="279.1" y1="134" x2="293.8" y2="134"/>
				<line class="st9" x1="279.1" y1="132.5" x2="293.8" y2="132.5"/>
				<line class="st9" x1="279.1" y1="130.8" x2="293.8" y2="130.8"/>
				<line class="st8" x1="279.1" y1="129.7" x2="293.8" y2="129.7"/>
				<line class="st8" x1="279.1" y1="128.2" x2="293.8" y2="128.2"/>
				<line class="st9" x1="279.1" y1="127" x2="293.8" y2="127"/>
				<line class="st8" x1="279.1" y1="125.9" x2="293.8" y2="125.9"/>
				<line class="st8" x1="279.1" y1="124.9" x2="293.8" y2="124.9"/>
				<line class="st9" x1="279.1" y1="123.7" x2="293.8" y2="123.7"/>
				<line class="st8" x1="279.1" y1="121.9" x2="293.8" y2="121.9"/>
				<line class="st9" x1="279.1" y1="120.8" x2="293.8" y2="120.8"/>
				<line class="st8" x1="279.1" y1="119.6" x2="293.8" y2="119.6"/>
				<line class="st8" x1="279.1" y1="118.6" x2="293.8" y2="118.6"/>
				<line class="st9" x1="279.1" y1="117.5" x2="293.8" y2="117.5"/>
				<line class="st8" x1="279.1" y1="115.7" x2="293.8" y2="115.7"/>
				<line class="st8" x1="279.1" y1="114.8" x2="293.8" y2="114.8"/>
				<line class="st9" x1="279.1" y1="113.7" x2="293.8" y2="113.7"/>
				<line class="st8" x1="279.1" y1="112.3" x2="293.8" y2="112.3"/>
				<line class="st8" x1="279.1" y1="110.9" x2="293.8" y2="110.9"/>
				<line class="st9" x1="279.1" y1="109.7" x2="293.8" y2="109.7"/>
				<line class="st9" x1="279.1" y1="108.2" x2="293.8" y2="108.2"/>
				<line class="st8" x1="279.1" y1="107.1" x2="293.8" y2="107.1"/>
			</g>
		</g>
		<g style="clip-path:url(#SVGID_00000106108832833914333540000008907597177376479656_);">
			<g>
				<rect x="335.5" y="106.9" class="st7" width="15" height="74.6"/>
				<line class="st8" x1="335.5" y1="181.3" x2="350.3" y2="181.3"/>
				<line class="st8" x1="335.5" y1="179.8" x2="350.3" y2="179.8"/>
				<line class="st9" x1="335.5" y1="178.7" x2="350.3" y2="178.7"/>
				<line class="st9" x1="335.5" y1="177.2" x2="350.3" y2="177.2"/>
				<line class="st8" x1="335.5" y1="176.1" x2="350.3" y2="176.1"/>
				<line class="st9" x1="335.5" y1="174.7" x2="350.3" y2="174.7"/>
				<line class="st8" x1="335.5" y1="173.6" x2="350.3" y2="173.6"/>
				<line class="st8" x1="335.5" y1="172.1" x2="350.3" y2="172.1"/>
				<line class="st8" x1="335.5" y1="171.3" x2="350.3" y2="171.3"/>
				<line class="st9" x1="335.5" y1="170.1" x2="350.3" y2="170.1"/>
				<line class="st8" x1="335.5" y1="168.8" x2="350.3" y2="168.8"/>
				<line class="st9" x1="335.5" y1="167.6" x2="350.3" y2="167.6"/>
				<line class="st8" x1="335.5" y1="165.8" x2="350.3" y2="165.8"/>
				<line class="st8" x1="335.5" y1="165" x2="350.3" y2="165"/>
				<line class="st9" x1="335.5" y1="163.9" x2="350.3" y2="163.9"/>
				<line class="st9" x1="335.5" y1="162.2" x2="350.3" y2="162.2"/>
				<line class="st9" x1="335.5" y1="160.7" x2="350.3" y2="160.7"/>
				<line class="st8" x1="335.5" y1="158.9" x2="350.3" y2="158.9"/>
				<line class="st8" x1="335.5" y1="158.1" x2="350.3" y2="158.1"/>
				<line class="st8" x1="335.5" y1="157.3" x2="350.3" y2="157.3"/>
				<line class="st8" x1="335.5" y1="156.2" x2="350.3" y2="156.2"/>
				<line class="st8" x1="335.5" y1="155.4" x2="350.3" y2="155.4"/>
				<line class="st9" x1="335.5" y1="153.6" x2="350.3" y2="153.6"/>
				<line class="st8" x1="335.5" y1="152.5" x2="350.3" y2="152.5"/>
				<line class="st9" x1="335.5" y1="151.3" x2="350.3" y2="151.3"/>
				<line class="st9" x1="335.5" y1="149.6" x2="350.3" y2="149.6"/>
				<line class="st8" x1="335.5" y1="148.5" x2="350.3" y2="148.5"/>
				<line class="st9" x1="335.5" y1="146.7" x2="350.3" y2="146.7"/>
				<line class="st8" x1="335.5" y1="145.5" x2="350.3" y2="145.5"/>
				<line class="st8" x1="335.5" y1="144.7" x2="350.3" y2="144.7"/>
				<line class="st8" x1="335.5" y1="143.7" x2="350.3" y2="143.7"/>
				<line class="st9" x1="335.5" y1="142.5" x2="350.3" y2="142.5"/>
				<line class="st9" x1="335.5" y1="140.4" x2="350.3" y2="140.4"/>
				<line class="st8" x1="335.5" y1="139.3" x2="350.3" y2="139.3"/>
				<line class="st8" x1="335.5" y1="138.4" x2="350.3" y2="138.4"/>
				<line class="st8" x1="335.5" y1="137.4" x2="350.3" y2="137.4"/>
				<line class="st8" x1="335.5" y1="136.6" x2="350.3" y2="136.6"/>
				<line class="st8" x1="335.5" y1="135.1" x2="350.3" y2="135.1"/>
				<line class="st9" x1="335.5" y1="134" x2="350.3" y2="134"/>
				<line class="st9" x1="335.5" y1="132.5" x2="350.3" y2="132.5"/>
				<line class="st9" x1="335.5" y1="130.8" x2="350.3" y2="130.8"/>
				<line class="st8" x1="335.5" y1="129.7" x2="350.3" y2="129.7"/>
				<line class="st8" x1="335.5" y1="128.2" x2="350.3" y2="128.2"/>
				<line class="st9" x1="335.5" y1="127" x2="350.3" y2="127"/>
				<line class="st8" x1="335.5" y1="125.9" x2="350.3" y2="125.9"/>
				<line class="st8" x1="335.5" y1="124.9" x2="350.3" y2="124.9"/>
				<line class="st9" x1="335.5" y1="123.7" x2="350.3" y2="123.7"/>
				<line class="st8" x1="335.5" y1="121.9" x2="350.3" y2="121.9"/>
				<line class="st9" x1="335.5" y1="120.8" x2="350.3" y2="120.8"/>
				<line class="st8" x1="335.5" y1="119.6" x2="350.3" y2="119.6"/>
				<line class="st8" x1="335.5" y1="118.6" x2="350.3" y2="118.6"/>
				<line class="st9" x1="335.5" y1="117.5" x2="350.3" y2="117.5"/>
				<line class="st8" x1="335.5" y1="115.7" x2="350.3" y2="115.7"/>
				<line class="st8" x1="335.5" y1="114.8" x2="350.3" y2="114.8"/>
				<line class="st9" x1="335.5" y1="113.7" x2="350.3" y2="113.7"/>
				<line class="st8" x1="335.5" y1="112.3" x2="350.3" y2="112.3"/>
				<line class="st8" x1="335.5" y1="110.9" x2="350.3" y2="110.9"/>
				<line class="st9" x1="335.5" y1="109.7" x2="350.3" y2="109.7"/>
				<line class="st9" x1="335.5" y1="108.2" x2="350.3" y2="108.2"/>
				<line class="st8" x1="335.5" y1="107.1" x2="350.3" y2="107.1"/>
			</g>
		</g>
		<g style="clip-path:url(#SVGID_00000106108832833914333540000008907597177376479656_);">
			<g>
				<rect x="392" y="106.9" class="st7" width="15" height="74.6"/>
				<line class="st8" x1="392" y1="181.3" x2="406.7" y2="181.3"/>
				<line class="st8" x1="392" y1="179.8" x2="406.7" y2="179.8"/>
				<line class="st9" x1="392" y1="178.7" x2="406.7" y2="178.7"/>
				<line class="st9" x1="392" y1="177.2" x2="406.7" y2="177.2"/>
				<line class="st8" x1="392" y1="176.1" x2="406.7" y2="176.1"/>
				<line class="st9" x1="392" y1="174.7" x2="406.7" y2="174.7"/>
				<line class="st8" x1="392" y1="173.6" x2="406.7" y2="173.6"/>
				<line class="st8" x1="392" y1="172.1" x2="406.7" y2="172.1"/>
				<line class="st8" x1="392" y1="171.3" x2="406.7" y2="171.3"/>
				<line class="st9" x1="392" y1="170.1" x2="406.7" y2="170.1"/>
				<line class="st8" x1="392" y1="168.8" x2="406.7" y2="168.8"/>
				<line class="st9" x1="392" y1="167.6" x2="406.7" y2="167.6"/>
				<line class="st8" x1="392" y1="165.8" x2="406.7" y2="165.8"/>
				<line class="st8" x1="392" y1="165" x2="406.7" y2="165"/>
				<line class="st9" x1="392" y1="163.9" x2="406.7" y2="163.9"/>
				<line class="st9" x1="392" y1="162.2" x2="406.7" y2="162.2"/>
				<line class="st9" x1="392" y1="160.7" x2="406.7" y2="160.7"/>
				<line class="st8" x1="392" y1="158.9" x2="406.7" y2="158.9"/>
				<line class="st8" x1="392" y1="158.1" x2="406.7" y2="158.1"/>
				<line class="st8" x1="392" y1="157.3" x2="406.7" y2="157.3"/>
				<line class="st8" x1="392" y1="156.2" x2="406.7" y2="156.2"/>
				<line class="st8" x1="392" y1="155.4" x2="406.7" y2="155.4"/>
				<line class="st9" x1="392" y1="153.6" x2="406.7" y2="153.6"/>
				<line class="st8" x1="392" y1="152.5" x2="406.7" y2="152.5"/>
				<line class="st9" x1="392" y1="151.3" x2="406.7" y2="151.3"/>
				<line class="st9" x1="392" y1="149.6" x2="406.7" y2="149.6"/>
				<line class="st8" x1="392" y1="148.5" x2="406.7" y2="148.5"/>
				<line class="st9" x1="392" y1="146.7" x2="406.7" y2="146.7"/>
				<line class="st8" x1="392" y1="145.5" x2="406.7" y2="145.5"/>
				<line class="st8" x1="392" y1="144.7" x2="406.7" y2="144.7"/>
				<line class="st8" x1="392" y1="143.7" x2="406.7" y2="143.7"/>
				<line class="st9" x1="392" y1="142.5" x2="406.7" y2="142.5"/>
				<line class="st9" x1="392" y1="140.4" x2="406.7" y2="140.4"/>
				<line class="st8" x1="392" y1="139.3" x2="406.7" y2="139.3"/>
				<line class="st8" x1="392" y1="138.4" x2="406.7" y2="138.4"/>
				<line class="st8" x1="392" y1="137.4" x2="406.7" y2="137.4"/>
				<line class="st8" x1="392" y1="136.6" x2="406.7" y2="136.6"/>
				<line class="st8" x1="392" y1="135.1" x2="406.7" y2="135.1"/>
				<line class="st9" x1="392" y1="134" x2="406.7" y2="134"/>
				<line class="st9" x1="392" y1="132.5" x2="406.7" y2="132.5"/>
				<line class="st9" x1="392" y1="130.8" x2="406.7" y2="130.8"/>
				<line class="st8" x1="392" y1="129.7" x2="406.7" y2="129.7"/>
				<line class="st8" x1="392" y1="128.2" x2="406.7" y2="128.2"/>
				<line class="st9" x1="392" y1="127" x2="406.7" y2="127"/>
				<line class="st8" x1="392" y1="125.9" x2="406.7" y2="125.9"/>
				<line class="st8" x1="392" y1="124.9" x2="406.7" y2="124.9"/>
				<line class="st9" x1="392" y1="123.7" x2="406.7" y2="123.7"/>
				<line class="st8" x1="392" y1="121.9" x2="406.7" y2="121.9"/>
				<line class="st9" x1="392" y1="120.8" x2="406.7" y2="120.8"/>
				<line class="st8" x1="392" y1="119.6" x2="406.7" y2="119.6"/>
				<line class="st8" x1="392" y1="118.6" x2="406.7" y2="118.6"/>
				<line class="st9" x1="392" y1="117.5" x2="406.7" y2="117.5"/>
				<line class="st8" x1="392" y1="115.7" x2="406.7" y2="115.7"/>
				<line class="st8" x1="392" y1="114.8" x2="406.7" y2="114.8"/>
				<line class="st9" x1="392" y1="113.7" x2="406.7" y2="113.7"/>
				<line class="st8" x1="392" y1="112.3" x2="406.7" y2="112.3"/>
				<line class="st8" x1="392" y1="110.9" x2="406.7" y2="110.9"/>
				<line class="st9" x1="392" y1="109.7" x2="406.7" y2="109.7"/>
				<line class="st9" x1="392" y1="108.2" x2="406.7" y2="108.2"/>
				<line class="st8" x1="392" y1="107.1" x2="406.7" y2="107.1"/>
			</g>
		</g>
	</g>
	<g>
		<defs>
			<path id="SVGID_00000128448423084261600540000012709916494440655035_" d="M29.5,189.6c-5.6,0-10.1-4.5-10.1-10.1v-74.2
				c0-5.6,4.5-10.1,10.1-10.1h171.2c5.6,0,10.1,4.5,10.1,10.1v74.2c0,5.6-4.5,10.1-10.1,10.1H29.5z"/>
		</defs>
		<clipPath id="SVGID_00000053503643992711382760000018355351508622839460_">
			<use xlink:href="#SVGID_00000128448423084261600540000012709916494440655035_"  style="overflow:visible;"/>
		</clipPath>
		<g style="clip-path:url(#SVGID_00000053503643992711382760000018355351508622839460_);">
			<g>
				<rect x="53.7" y="106.8" class="st7" width="15" height="74.6"/>
				<line class="st8" x1="53.7" y1="181.3" x2="68.5" y2="181.3"/>
				<line class="st8" x1="53.7" y1="179.8" x2="68.5" y2="179.8"/>
				<line class="st9" x1="53.7" y1="178.7" x2="68.5" y2="178.7"/>
				<line class="st9" x1="53.7" y1="177.2" x2="68.5" y2="177.2"/>
				<line class="st8" x1="53.7" y1="176" x2="68.5" y2="176"/>
				<line class="st9" x1="53.7" y1="174.7" x2="68.5" y2="174.7"/>
				<line class="st8" x1="53.7" y1="173.5" x2="68.5" y2="173.5"/>
				<line class="st8" x1="53.7" y1="172.1" x2="68.5" y2="172.1"/>
				<line class="st8" x1="53.7" y1="171.2" x2="68.5" y2="171.2"/>
				<line class="st9" x1="53.7" y1="170.1" x2="68.5" y2="170.1"/>
				<line class="st8" x1="53.7" y1="168.7" x2="68.5" y2="168.7"/>
				<line class="st9" x1="53.7" y1="167.6" x2="68.5" y2="167.6"/>
				<line class="st8" x1="53.7" y1="165.8" x2="68.5" y2="165.8"/>
				<line class="st8" x1="53.7" y1="165" x2="68.5" y2="165"/>
				<line class="st9" x1="53.7" y1="163.8" x2="68.5" y2="163.8"/>
				<line class="st9" x1="53.7" y1="162.1" x2="68.5" y2="162.1"/>
				<line class="st9" x1="53.7" y1="160.7" x2="68.5" y2="160.7"/>
				<line class="st8" x1="53.7" y1="158.9" x2="68.5" y2="158.9"/>
				<line class="st8" x1="53.7" y1="158" x2="68.5" y2="158"/>
				<line class="st8" x1="53.7" y1="157.2" x2="68.5" y2="157.2"/>
				<line class="st8" x1="53.7" y1="156.2" x2="68.5" y2="156.2"/>
				<line class="st8" x1="53.7" y1="155.4" x2="68.5" y2="155.4"/>
				<line class="st9" x1="53.7" y1="153.6" x2="68.5" y2="153.6"/>
				<line class="st8" x1="53.7" y1="152.4" x2="68.5" y2="152.4"/>
				<line class="st9" x1="53.7" y1="151.3" x2="68.5" y2="151.3"/>
				<line class="st9" x1="53.7" y1="149.6" x2="68.5" y2="149.6"/>
				<line class="st8" x1="53.7" y1="148.5" x2="68.5" y2="148.5"/>
				<line class="st9" x1="53.7" y1="146.6" x2="68.5" y2="146.6"/>
				<line class="st8" x1="53.7" y1="145.5" x2="68.5" y2="145.5"/>
				<line class="st8" x1="53.7" y1="144.7" x2="68.5" y2="144.7"/>
				<line class="st8" x1="53.7" y1="143.7" x2="68.5" y2="143.7"/>
				<line class="st9" x1="53.7" y1="142.5" x2="68.5" y2="142.5"/>
				<line class="st9" x1="53.7" y1="140.4" x2="68.5" y2="140.4"/>
				<line class="st8" x1="53.7" y1="139.2" x2="68.5" y2="139.2"/>
				<line class="st8" x1="53.7" y1="138.4" x2="68.5" y2="138.4"/>
				<line class="st8" x1="53.7" y1="137.4" x2="68.5" y2="137.4"/>
				<line class="st8" x1="53.7" y1="136.6" x2="68.5" y2="136.6"/>
				<line class="st8" x1="53.7" y1="135.1" x2="68.5" y2="135.1"/>
				<line class="st9" x1="53.7" y1="133.9" x2="68.5" y2="133.9"/>
				<line class="st9" x1="53.7" y1="132.5" x2="68.5" y2="132.5"/>
				<line class="st9" x1="53.7" y1="130.8" x2="68.5" y2="130.8"/>
				<line class="st8" x1="53.7" y1="129.6" x2="68.5" y2="129.6"/>
				<line class="st8" x1="53.7" y1="128.2" x2="68.5" y2="128.2"/>
				<line class="st9" x1="53.7" y1="127" x2="68.5" y2="127"/>
				<line class="st8" x1="53.7" y1="125.9" x2="68.5" y2="125.9"/>
				<line class="st8" x1="53.7" y1="124.8" x2="68.5" y2="124.8"/>
				<line class="st9" x1="53.7" y1="123.7" x2="68.5" y2="123.7"/>
				<line class="st8" x1="53.7" y1="121.9" x2="68.5" y2="121.9"/>
				<line class="st9" x1="53.7" y1="120.7" x2="68.5" y2="120.7"/>
				<line class="st8" x1="53.7" y1="119.6" x2="68.5" y2="119.6"/>
				<line class="st8" x1="53.7" y1="118.6" x2="68.5" y2="118.6"/>
				<line class="st9" x1="53.7" y1="117.4" x2="68.5" y2="117.4"/>
				<line class="st8" x1="53.7" y1="115.6" x2="68.5" y2="115.6"/>
				<line class="st8" x1="53.7" y1="114.8" x2="68.5" y2="114.8"/>
				<line class="st9" x1="53.7" y1="113.6" x2="68.5" y2="113.6"/>
				<line class="st8" x1="53.7" y1="112.3" x2="68.5" y2="112.3"/>
				<line class="st8" x1="53.7" y1="110.8" x2="68.5" y2="110.8"/>
				<line class="st9" x1="53.7" y1="109.7" x2="68.5" y2="109.7"/>
				<line class="st9" x1="53.7" y1="108.2" x2="68.5" y2="108.2"/>
				<line class="st8" x1="53.7" y1="107" x2="68.5" y2="107"/>
			</g>
		</g>
		<g style="clip-path:url(#SVGID_00000053503643992711382760000018355351508622839460_);">
			<g>
				<rect x="110.1" y="106.8" class="st7" width="15" height="74.6"/>
				<line class="st8" x1="110.1" y1="181.3" x2="124.9" y2="181.3"/>
				<line class="st8" x1="110.1" y1="179.8" x2="124.9" y2="179.8"/>
				<line class="st9" x1="110.1" y1="178.7" x2="124.9" y2="178.7"/>
				<line class="st9" x1="110.1" y1="177.2" x2="124.9" y2="177.2"/>
				<line class="st8" x1="110.1" y1="176" x2="124.9" y2="176"/>
				<line class="st9" x1="110.1" y1="174.7" x2="124.9" y2="174.7"/>
				<line class="st8" x1="110.1" y1="173.5" x2="124.9" y2="173.5"/>
				<line class="st8" x1="110.1" y1="172.1" x2="124.9" y2="172.1"/>
				<line class="st8" x1="110.1" y1="171.2" x2="124.9" y2="171.2"/>
				<line class="st9" x1="110.1" y1="170.1" x2="124.9" y2="170.1"/>
				<line class="st8" x1="110.1" y1="168.7" x2="124.9" y2="168.7"/>
				<line class="st9" x1="110.1" y1="167.6" x2="124.9" y2="167.6"/>
				<line class="st8" x1="110.1" y1="165.8" x2="124.9" y2="165.8"/>
				<line class="st8" x1="110.1" y1="165" x2="124.9" y2="165"/>
				<line class="st9" x1="110.1" y1="163.8" x2="124.9" y2="163.8"/>
				<line class="st9" x1="110.1" y1="162.1" x2="124.9" y2="162.1"/>
				<line class="st9" x1="110.1" y1="160.7" x2="124.9" y2="160.7"/>
				<line class="st8" x1="110.1" y1="158.9" x2="124.9" y2="158.9"/>
				<line class="st8" x1="110.1" y1="158" x2="124.9" y2="158"/>
				<line class="st8" x1="110.1" y1="157.2" x2="124.9" y2="157.2"/>
				<line class="st8" x1="110.1" y1="156.2" x2="124.9" y2="156.2"/>
				<line class="st8" x1="110.1" y1="155.4" x2="124.9" y2="155.4"/>
				<line class="st9" x1="110.1" y1="153.6" x2="124.9" y2="153.6"/>
				<line class="st8" x1="110.1" y1="152.4" x2="124.9" y2="152.4"/>
				<line class="st9" x1="110.1" y1="151.3" x2="124.9" y2="151.3"/>
				<line class="st9" x1="110.1" y1="149.6" x2="124.9" y2="149.6"/>
				<line class="st8" x1="110.1" y1="148.5" x2="124.9" y2="148.5"/>
				<line class="st9" x1="110.1" y1="146.6" x2="124.9" y2="146.6"/>
				<line class="st8" x1="110.1" y1="145.5" x2="124.9" y2="145.5"/>
				<line class="st8" x1="110.1" y1="144.7" x2="124.9" y2="144.7"/>
				<line class="st8" x1="110.1" y1="143.7" x2="124.9" y2="143.7"/>
				<line class="st9" x1="110.1" y1="142.5" x2="124.9" y2="142.5"/>
				<line class="st9" x1="110.1" y1="140.4" x2="124.9" y2="140.4"/>
				<line class="st8" x1="110.1" y1="139.2" x2="124.9" y2="139.2"/>
				<line class="st8" x1="110.1" y1="138.4" x2="124.9" y2="138.4"/>
				<line class="st8" x1="110.1" y1="137.4" x2="124.9" y2="137.4"/>
				<line class="st8" x1="110.1" y1="136.6" x2="124.9" y2="136.6"/>
				<line class="st8" x1="110.1" y1="135.1" x2="124.9" y2="135.1"/>
				<line class="st9" x1="110.1" y1="133.9" x2="124.9" y2="133.9"/>
				<line class="st9" x1="110.1" y1="132.5" x2="124.9" y2="132.5"/>
				<line class="st9" x1="110.1" y1="130.8" x2="124.9" y2="130.8"/>
				<line class="st8" x1="110.1" y1="129.6" x2="124.9" y2="129.6"/>
				<line class="st8" x1="110.1" y1="128.2" x2="124.9" y2="128.2"/>
				<line class="st9" x1="110.1" y1="127" x2="124.9" y2="127"/>
				<line class="st8" x1="110.1" y1="125.9" x2="124.9" y2="125.9"/>
				<line class="st8" x1="110.1" y1="124.8" x2="124.9" y2="124.8"/>
				<line class="st9" x1="110.1" y1="123.7" x2="124.9" y2="123.7"/>
				<line class="st8" x1="110.1" y1="121.9" x2="124.9" y2="121.9"/>
				<line class="st9" x1="110.1" y1="120.7" x2="124.9" y2="120.7"/>
				<line class="st8" x1="110.1" y1="119.6" x2="124.9" y2="119.6"/>
				<line class="st8" x1="110.1" y1="118.6" x2="124.9" y2="118.6"/>
				<line class="st9" x1="110.1" y1="117.4" x2="124.9" y2="117.4"/>
				<line class="st8" x1="110.1" y1="115.6" x2="124.9" y2="115.6"/>
				<line class="st8" x1="110.1" y1="114.8" x2="124.9" y2="114.8"/>
				<line class="st9" x1="110.1" y1="113.6" x2="124.9" y2="113.6"/>
				<line class="st8" x1="110.1" y1="112.3" x2="124.9" y2="112.3"/>
				<line class="st8" x1="110.1" y1="110.8" x2="124.9" y2="110.8"/>
				<line class="st9" x1="110.1" y1="109.7" x2="124.9" y2="109.7"/>
				<line class="st9" x1="110.1" y1="108.2" x2="124.9" y2="108.2"/>
				<line class="st8" x1="110.1" y1="107" x2="124.9" y2="107"/>
			</g>
		</g>
		<g style="clip-path:url(#SVGID_00000053503643992711382760000018355351508622839460_);">
			<g>
				<rect x="166.6" y="106.8" class="st7" width="15" height="74.6"/>
				<line class="st8" x1="166.6" y1="181.3" x2="181.4" y2="181.3"/>
				<line class="st8" x1="166.6" y1="179.8" x2="181.4" y2="179.8"/>
				<line class="st9" x1="166.6" y1="178.7" x2="181.4" y2="178.7"/>
				<line class="st9" x1="166.6" y1="177.2" x2="181.4" y2="177.2"/>
				<line class="st8" x1="166.6" y1="176" x2="181.4" y2="176"/>
				<line class="st9" x1="166.6" y1="174.7" x2="181.4" y2="174.7"/>
				<line class="st8" x1="166.6" y1="173.5" x2="181.4" y2="173.5"/>
				<line class="st8" x1="166.6" y1="172.1" x2="181.4" y2="172.1"/>
				<line class="st8" x1="166.6" y1="171.2" x2="181.4" y2="171.2"/>
				<line class="st9" x1="166.6" y1="170.1" x2="181.4" y2="170.1"/>
				<line class="st8" x1="166.6" y1="168.7" x2="181.4" y2="168.7"/>
				<line class="st9" x1="166.6" y1="167.6" x2="181.4" y2="167.6"/>
				<line class="st8" x1="166.6" y1="165.8" x2="181.4" y2="165.8"/>
				<line class="st8" x1="166.6" y1="165" x2="181.4" y2="165"/>
				<line class="st9" x1="166.6" y1="163.8" x2="181.4" y2="163.8"/>
				<line class="st9" x1="166.6" y1="162.1" x2="181.4" y2="162.1"/>
				<line class="st9" x1="166.6" y1="160.7" x2="181.4" y2="160.7"/>
				<line class="st8" x1="166.6" y1="158.9" x2="181.4" y2="158.9"/>
				<line class="st8" x1="166.6" y1="158" x2="181.4" y2="158"/>
				<line class="st8" x1="166.6" y1="157.2" x2="181.4" y2="157.2"/>
				<line class="st8" x1="166.6" y1="156.2" x2="181.4" y2="156.2"/>
				<line class="st8" x1="166.6" y1="155.4" x2="181.4" y2="155.4"/>
				<line class="st9" x1="166.6" y1="153.6" x2="181.4" y2="153.6"/>
				<line class="st8" x1="166.6" y1="152.4" x2="181.4" y2="152.4"/>
				<line class="st9" x1="166.6" y1="151.3" x2="181.4" y2="151.3"/>
				<line class="st9" x1="166.6" y1="149.6" x2="181.4" y2="149.6"/>
				<line class="st8" x1="166.6" y1="148.5" x2="181.4" y2="148.5"/>
				<line class="st9" x1="166.6" y1="146.6" x2="181.4" y2="146.6"/>
				<line class="st8" x1="166.6" y1="145.5" x2="181.4" y2="145.5"/>
				<line class="st8" x1="166.6" y1="144.7" x2="181.4" y2="144.7"/>
				<line class="st8" x1="166.6" y1="143.7" x2="181.4" y2="143.7"/>
				<line class="st9" x1="166.6" y1="142.5" x2="181.4" y2="142.5"/>
				<line class="st9" x1="166.6" y1="140.4" x2="181.4" y2="140.4"/>
				<line class="st8" x1="166.6" y1="139.2" x2="181.4" y2="139.2"/>
				<line class="st8" x1="166.6" y1="138.4" x2="181.4" y2="138.4"/>
				<line class="st8" x1="166.6" y1="137.4" x2="181.4" y2="137.4"/>
				<line class="st8" x1="166.6" y1="136.6" x2="181.4" y2="136.6"/>
				<line class="st8" x1="166.6" y1="135.1" x2="181.4" y2="135.1"/>
				<line class="st9" x1="166.6" y1="133.9" x2="181.4" y2="133.9"/>
				<line class="st9" x1="166.6" y1="132.5" x2="181.4" y2="132.5"/>
				<line class="st9" x1="166.6" y1="130.8" x2="181.4" y2="130.8"/>
				<line class="st8" x1="166.6" y1="129.6" x2="181.4" y2="129.6"/>
				<line class="st8" x1="166.6" y1="128.2" x2="181.4" y2="128.2"/>
				<line class="st9" x1="166.6" y1="127" x2="181.4" y2="127"/>
				<line class="st8" x1="166.6" y1="125.9" x2="181.4" y2="125.9"/>
				<line class="st8" x1="166.6" y1="124.8" x2="181.4" y2="124.8"/>
				<line class="st9" x1="166.6" y1="123.7" x2="181.4" y2="123.7"/>
				<line class="st8" x1="166.6" y1="121.9" x2="181.4" y2="121.9"/>
				<line class="st9" x1="166.6" y1="120.7" x2="181.4" y2="120.7"/>
				<line class="st8" x1="166.6" y1="119.6" x2="181.4" y2="119.6"/>
				<line class="st8" x1="166.6" y1="118.6" x2="181.4" y2="118.6"/>
				<line class="st9" x1="166.6" y1="117.4" x2="181.4" y2="117.4"/>
				<line class="st8" x1="166.6" y1="115.6" x2="181.4" y2="115.6"/>
				<line class="st8" x1="166.6" y1="114.8" x2="181.4" y2="114.8"/>
				<line class="st9" x1="166.6" y1="113.6" x2="181.4" y2="113.6"/>
				<line class="st8" x1="166.6" y1="112.3" x2="181.4" y2="112.3"/>
				<line class="st8" x1="166.6" y1="110.8" x2="181.4" y2="110.8"/>
				<line class="st9" x1="166.6" y1="109.7" x2="181.4" y2="109.7"/>
				<line class="st9" x1="166.6" y1="108.2" x2="181.4" y2="108.2"/>
				<line class="st8" x1="166.6" y1="107" x2="181.4" y2="107"/>
			</g>
		</g>
	</g>
</g>
<g id="Layer_2">
	<polygon class="st11" points="202.5,206.6 189.5,215.6 202.5,224.5 202.5,218.8 476.2,218.8 476.2,212.8 202.5,212.8 	"/>
	<path class="st12" d="M233,136.5c0-2.7,1.6-3.3,3.5-1.4l10.9,10.9c1.9,1.9,1.9,5,0,6.9l-10.9,10.9c-1.9,1.9-3.5,1.3-3.5-1.4V136.5z
		"/>
	<g>
		<path class="st13" d="M420.2,228.2h-2.9v3.3h-0.9v-3.3h-2.6c-0.1,1.5-0.5,2.7-1.4,3.6l-0.7-0.7c0.8-0.9,1.2-1.9,1.2-3.1v-5.6h8.1
			v8.4c0,0.5-0.2,0.7-0.7,0.7h-1.2l-0.2-1h1.1c0.1,0,0.2-0.1,0.2-0.2V228.2z M413.9,223.3v1.6h2.6v-1.6H413.9z M413.9,225.8v1.6h2.6
			v-1.6H413.9z M417.4,223.3v1.6h2.9v-1.6H417.4z M417.4,225.8v1.6h2.9v-1.6H417.4z"/>
		<path class="st13" d="M424.6,224.4c0.2,0.2,0.4,0.4,0.7,0.6l1.4-1.8l0.7,0.4c0.3,0.1,0.2,0.2-0.1,0.3l-2.2,2.7l1.7-0.1
			c-0.2-0.3-0.4-0.6-0.5-0.9l0.7-0.4c0.5,0.6,0.8,1.3,1.1,2l-0.8,0.3l-0.1-0.4l-1.1,0.1v4.7H425v-4.7l-1.6,0.1
			c-0.1,0.3-0.2,0.3-0.3,0l-0.2-0.8l1.1,0l0.7-0.8c-0.4-0.4-1-0.8-1.5-1.3l0.5-0.7l0.4,0.3c0.5-0.7,0.9-1.4,1.2-2.2l0.7,0.4
			c0.3,0.1,0.2,0.2-0.1,0.3C425.5,223.1,425.1,223.8,424.6,224.4z M423.9,231.2l-0.8-0.4c0.4-0.9,0.6-1.9,0.7-2.8l0.8,0.2
			c0.2,0.1,0.2,0.1,0,0.3C424.4,229.3,424.2,230.2,423.9,231.2z M427,228c0.3,0.6,0.5,1.2,0.6,1.9l-0.8,0.2
			c-0.1-0.7-0.2-1.4-0.5-1.9L427,228z M433.3,229.8c-0.2,1.8-0.7,2.3-1.5,1.5c-0.7-0.7-1.2-2.2-1.4-4.7h-1.3v3.6l1.4-0.4l0.2,0.7
			l-2.9,0.9c-0.1,0.3-0.2,0.3-0.3,0l-0.3-0.9l1.1-0.2v-7.7l0.8,0.2c1-0.3,1.9-0.6,2.8-0.9l0.6,0.9c-0.4,0.1-0.8,0.2-1.2,0.3v2.6h1.8
			v0.8h-1.7c0.1,1.5,0.4,2.6,0.8,3.5c0.2,0.4,0.3,0.1,0.4-0.8L433.3,229.8z M430.4,225.9v-2.4c-0.4,0.1-0.9,0.2-1.2,0.3v2.2H430.4z"
			/>
		<path class="st13" d="M434.2,230.9l1.5-0.9v-2.9h-1.4v-0.8h2.3v3.6c0.7,0.7,1.5,1,2.4,1h5.4l-0.2,0.8h-5.4c-1,0-1.9-0.4-2.7-1.2
			l-1.4,1.5L434.2,230.9z M436.2,224.4c-0.4-0.6-0.8-1.1-1.3-1.5l0.7-0.7c0.6,0.5,1.1,0.9,1.3,1.4L436.2,224.4z M443.8,227.1h-3
			l0,0.4c1.2,0.5,2.1,1.1,2.9,1.8l-0.6,1c-1-1-1.8-1.7-2.5-2c-0.4,0.8-1.2,1.5-2.5,2.2l-0.5-0.9c1.5-0.8,2.4-1.6,2.5-2.5h-2.8v-0.8
			h2.8v-1.5h-2.5V224h1.5c-0.3-0.6-0.7-1-1.1-1.5l0.8-0.5c0.4,0.4,0.8,0.9,1.1,1.5l-0.7,0.5h1.5l1.1-2.2l1,0.4
			c0.1,0.1,0.1,0.2-0.1,0.2l-1,1.5h1.9v0.8h-2.6v1.5h2.9V227.1z"/>
		<path class="st13" d="M448.6,228.6c-0.2,0-0.4-0.1-0.6-0.3c-0.2-0.2-0.3-1.1-0.3-2.6c0-1.2,0.1-2.2,0.2-3.2h1
			c0.2,0.1,0.2,0.2,0,0.3c-0.1,0.7-0.2,1.7-0.2,2.9c0,1.3,0.1,1.9,0.2,1.9c0.1,0,0.2-0.1,0.4-0.2c0.2-0.2,0.5-0.6,1-1.2l0.7,0.7
			c-0.5,0.6-1,1.1-1.4,1.4C449.2,228.5,449,228.6,448.6,228.6z M452.3,222.2h0.9c0.3,0,0.4,0.1,0.1,0.4c0.1,0.9,0.1,2.4,0.1,4.3
			c0,2.2-1,3.9-3.1,5l-0.7-0.7c2-0.9,2.9-2.4,2.9-4.3C452.5,224.9,452.4,223.3,452.3,222.2z"/>
		<path class="st13" d="M461.4,226.2h4.1l-0.4,4c-0.1,1.1-0.5,1.6-1.3,1.6H462l-0.2-1h1.9c0.2,0,0.3-0.2,0.4-0.7l0.4-3.1h-3.2
			c-0.4,1.9-1.6,3.5-3.8,4.8l-0.6-0.9c2.3-1.2,3.5-3,3.6-5.5l0-0.8h-3.7v-1h4.3v-1.8h1c0.3,0.1,0.3,0.2,0,0.4v1.4h4.4v1h-5.1
			L461.4,226.2z"/>
		<path class="st13" d="M469.6,224.3v7.4h-0.9v-8.2h3.1l0.7-1.6l1.1,0.4c0.1,0.1,0.1,0.2-0.1,0.2l-0.7,1h4.5v7.6
			c0,0.5-0.2,0.7-0.7,0.7h-1.3l-0.1-1h1c0.1,0,0.2-0.1,0.2-0.2v-6.3H469.6z M474.2,229.7v-0.5h-2.3v0.8H471v-4.3h4.1v4H474.2z
			 M471.8,226.5v1.8h2.3v-1.8H471.8z"/>
	</g>
	<g>
		<path class="st13" d="M413.7,175.4l1.8-1.1l0.4,0.8l-1.9,1l1.9,1l-0.4,0.8l-1.8-1.1l0.1,2.2h-0.4h-0.4l0.1-2.2l-1.8,1.1l-0.4-0.8
			l1.9-1l-1.9-1l0.4-0.8l1.8,1.1l-0.1-2.1h0.9L413.7,175.4z"/>
		<path class="st13" d="M418.6,179.9v-3.4v-3.4h-1.3v-0.5c1,0,1.6-0.4,1.8-1.2h0.5v8.6H418.6z"/>
	</g>
	<g>
		<polygon class="st14" points="27.3,118.9 27.3,123.1 23.6,123.1 23.6,163.4 27.3,163.4 27.3,167.6 44.4,167.6 44.4,118.9 		"/>
		
			<linearGradient id="SVGID_00000108267201655310953640000011468849915924958895_" gradientUnits="userSpaceOnUse" x1="43.6992" y1="143.5195" x2="59.2392" y2="143.5195">
			<stop  offset="0" style="stop-color:#FF4C4C"/>
			<stop  offset="1" style="stop-color:#FF4C4C;stop-opacity:0"/>
		</linearGradient>
		<polygon style="fill:url(#SVGID_00000108267201655310953640000011468849915924958895_);" points="59.2,183.1 43.7,166.8 
			43.7,118.5 59.2,103.9 		"/>
		<path class="st16" d="M35.6,123.1h-12v40.4h12V123.1z"/>
		<rect x="27.3" y="118.9" class="st16" width="17" height="48.8"/>
	</g>
	<g>
		<polygon class="st14" points="308.4,118.9 308.4,123.1 304.7,123.1 304.7,163.5 308.4,163.5 308.4,167.7 325.5,167.7 325.5,118.9 
					"/>
		
			<linearGradient id="SVGID_00000057133523269245983590000012040637483784075929_" gradientUnits="userSpaceOnUse" x1="324.8057" y1="143.5527" x2="340.3457" y2="143.5527">
			<stop  offset="0" style="stop-color:#FF4C4C"/>
			<stop  offset="1" style="stop-color:#FF4C4C;stop-opacity:0"/>
		</linearGradient>
		<polygon style="fill:url(#SVGID_00000057133523269245983590000012040637483784075929_);" points="340.3,183.1 324.8,166.9 
			324.8,118.6 340.3,104 		"/>
		<path class="st16" d="M316.7,123.1h-12v40.4h12V123.1z"/>
		<rect x="308.4" y="118.9" class="st16" width="17" height="48.8"/>
	</g>
	<g>
		<polygon class="st18" points="86.3,35 142.8,35 114.5,68.3 		"/>
		<polygon class="st18" points="338.4,35 395,35 366.7,68.3 		"/>
		<rect x="2" y="17" class="st18" width="475.5" height="35"/>
		<polygon class="st19" points="470.9,35.3 8.7,35.3 8.7,22.3 470.9,22.3 470.9,35.3 		"/>
		<g>
			<path class="st13" d="M73.7,42.1c0.2,0.1,0.2,0.3-0.1,0.4c-0.5,1.8-1.4,3.5-2.5,5.1l-1-0.7c1.3-1.6,2.2-3.3,2.6-5.3L73.7,42.1z
				 M77.1,41.1c1.5,1.8,2.5,3.8,3.1,5.8L79,47.3c-0.7-2.3-1.7-4.2-2.9-5.5L77.1,41.1z M79.4,40.8l-0.7,0.5c-0.4-0.6-0.9-1.1-1.4-1.5
				l0.6-0.5C78.4,39.7,78.9,40.2,79.4,40.8z M80.4,40l-0.6,0.5c-0.5-0.6-1-1.1-1.4-1.4l0.6-0.5C79.4,39,79.9,39.4,80.4,40z"/>
			<path class="st13" d="M81.5,44.3v-1h9.8v1H81.5z"/>
			<path class="st13" d="M99.9,42.3h-6.1v-1h7.1v6.3h-1v-0.5h-6.1v-1h6.1V42.3z"/>
			<path class="st13" d="M104,44.3v-1h9.8v1H104z"/>
			<path class="st13" d="M123.5,45.4c-1.6-0.8-2.8-1.3-3.8-1.6v4.6h-1v-8.8h0.9c0.4,0,0.4,0.1,0.1,0.4v2.8c1.4,0.4,2.9,1,4.4,1.7
				L123.5,45.4z M123.4,41.5c-0.5-0.6-1-1.1-1.5-1.5l0.6-0.4c0.5,0.4,1,0.9,1.5,1.5L123.4,41.5z M124.5,40.6c-0.4-0.5-0.9-1-1.5-1.5
				l0.6-0.4c0.5,0.4,1,0.8,1.5,1.5L124.5,40.6z"/>
			<path class="st13" d="M133.8,47.9v-3.4V41h-1.3v-0.5c1,0,1.6-0.4,1.8-1.2h0.5v8.6H133.8z"/>
			<path class="st13" d="M141.2,46.6c2.2,0,3.6-0.4,4.4-1.1c0.4-0.4,0.7-1,0.7-1.6c0-0.7-0.2-1.2-0.7-1.7c-0.4-0.4-1-0.5-1.8-0.5
				c-0.7,0-1.6,0.2-2.6,0.5c-0.8,0.3-1.6,0.6-2.5,1l-0.5-1.1l2.5-0.7c1.4-0.4,2.5-0.6,3.3-0.6c1.2,0,2,0.3,2.6,0.8
				c0.6,0.6,0.8,1.3,0.8,2.2c0,1-0.3,1.8-0.8,2.3c-1,1-2.7,1.5-5,1.5L141.2,46.6z"/>
			<path class="st13" d="M157.6,42.1c0.6,0.6,1,1.5,1,2.6c0,1-0.3,1.8-0.9,2.4c-0.5,0.5-1.3,1-2.2,1.3l-0.6-0.8
				c1-0.3,1.7-0.7,2.1-1.1c0.4-0.4,0.7-1,0.7-1.8c0-0.8-0.2-1.5-0.7-1.9c-0.6-0.6-1.3-0.9-2.2-0.9c-0.3,1.2-0.8,2.5-1.5,3.8l0.8,1
				l-0.7,0.5l-0.6-0.7c-0.2,0.4-0.5,0.7-0.7,1c-0.4,0.4-0.8,0.6-1.1,0.6c-0.4,0-0.8-0.2-1.1-0.5c-0.4-0.4-0.6-0.9-0.6-1.6
				c0-1.1,0.6-2.2,1.7-3.3c-0.2-0.9-0.4-1.7-0.4-2.5h0.8c0.3,0.1,0.3,0.2,0.1,0.4c0.1,0.6,0.1,1.2,0.3,1.6c0.8-0.5,1.5-0.8,2.3-0.9
				c0.1-0.4,0.2-1.1,0.4-2l0.9,0.2c0.3,0.1,0.3,0.2,0,0.4l-0.3,1.4C156.1,41.1,156.9,41.5,157.6,42.1z M151.3,43.5
				c-0.7,0.9-1.1,1.7-1.1,2.5c0,0.4,0.1,0.7,0.4,1c0.1,0.1,0.3,0.2,0.5,0.2c0.1,0,0.3-0.1,0.5-0.3c0.2-0.2,0.4-0.5,0.7-1.1
				C151.9,45.1,151.6,44.4,151.3,43.5z M152,42.8c0.3,1,0.6,1.7,0.8,2.1c0.5-1,0.9-1.9,1.1-2.9C153.2,42.1,152.6,42.4,152,42.8z"/>
		</g>
		<g>
			<path class="st13" d="M325.9,42.1c0.2,0.1,0.2,0.3-0.1,0.4c-0.5,1.8-1.4,3.5-2.5,5.1l-1-0.7c1.3-1.6,2.2-3.3,2.6-5.3L325.9,42.1z
				 M329.3,41.1c1.5,1.8,2.5,3.8,3.1,5.8l-1.2,0.4c-0.7-2.3-1.7-4.2-2.9-5.5L329.3,41.1z M331.6,40.8l-0.7,0.5
				c-0.4-0.6-0.9-1.1-1.4-1.5l0.6-0.5C330.6,39.7,331.1,40.2,331.6,40.8z M332.6,40l-0.6,0.5c-0.5-0.6-1-1.1-1.4-1.4l0.6-0.5
				C331.6,39,332,39.4,332.6,40z"/>
			<path class="st13" d="M333.7,44.3v-1h9.8v1H333.7z"/>
			<path class="st13" d="M352.1,42.3H346v-1h7.1v6.3h-1v-0.5H346v-1h6.1V42.3z"/>
			<path class="st13" d="M356.2,44.3v-1h9.8v1H356.2z"/>
			<path class="st13" d="M375.7,45.4c-1.6-0.8-2.8-1.3-3.8-1.6v4.6h-1v-8.8h0.9c0.4,0,0.4,0.1,0.1,0.4v2.8c1.4,0.4,2.9,1,4.4,1.7
				L375.7,45.4z M375.6,41.5c-0.5-0.6-1-1.1-1.5-1.5l0.6-0.4c0.5,0.4,1,0.9,1.5,1.5L375.6,41.5z M376.7,40.6c-0.4-0.5-0.9-1-1.5-1.5
				l0.6-0.4c0.5,0.4,1,0.8,1.5,1.5L376.7,40.6z"/>
			<path class="st13" d="M388.6,47v0.8h-4.5v-0.7c0.7-1.3,1.5-2.5,2.5-3.6c0.6-0.6,0.8-1.3,0.8-2c0-0.5-0.1-0.9-0.4-1.1
				c-0.2-0.2-0.4-0.3-0.7-0.3c-0.2,0-0.5,0.1-0.7,0.4c-0.3,0.3-0.4,0.8-0.4,1.6h-1c0-1.1,0.3-1.8,0.7-2.3c0.4-0.4,0.8-0.5,1.4-0.5
				c0.6,0,1,0.2,1.4,0.6c0.4,0.4,0.6,1,0.6,1.7c0,0.8-0.4,1.7-1.2,2.6c-0.8,1-1.6,1.9-2.1,2.8H388.6z"/>
			<path class="st13" d="M393.4,46.6c2.2,0,3.6-0.4,4.4-1.1c0.4-0.4,0.7-1,0.7-1.6c0-0.7-0.2-1.2-0.7-1.7c-0.4-0.4-1-0.5-1.8-0.5
				c-0.7,0-1.6,0.2-2.6,0.5c-0.8,0.3-1.6,0.6-2.5,1l-0.5-1.1l2.5-0.7c1.4-0.4,2.5-0.6,3.3-0.6c1.2,0,2,0.3,2.6,0.8
				c0.6,0.6,0.8,1.3,0.8,2.2c0,1-0.3,1.8-0.8,2.3c-1,1-2.7,1.5-5,1.5L393.4,46.6z"/>
			<path class="st13" d="M409.8,42.1c0.6,0.6,1,1.5,1,2.6c0,1-0.3,1.8-0.9,2.4c-0.5,0.5-1.3,1-2.2,1.3l-0.6-0.8
				c1-0.3,1.7-0.7,2.1-1.1c0.4-0.4,0.7-1,0.7-1.8c0-0.8-0.2-1.5-0.7-1.9c-0.6-0.6-1.3-0.9-2.2-0.9c-0.3,1.2-0.8,2.5-1.5,3.8l0.8,1
				l-0.7,0.5l-0.6-0.7c-0.2,0.4-0.5,0.7-0.7,1c-0.4,0.4-0.8,0.6-1.1,0.6c-0.4,0-0.8-0.2-1.1-0.5c-0.4-0.4-0.6-0.9-0.6-1.6
				c0-1.1,0.6-2.2,1.7-3.3c-0.2-0.9-0.4-1.7-0.4-2.5h0.8c0.3,0.1,0.3,0.2,0.1,0.4c0.1,0.6,0.1,1.2,0.3,1.6c0.8-0.5,1.5-0.8,2.3-0.9
				c0.1-0.4,0.2-1.1,0.4-2l0.9,0.2c0.3,0.1,0.3,0.2,0,0.4l-0.3,1.4C408.3,41.1,409.1,41.5,409.8,42.1z M403.4,43.5
				c-0.7,0.9-1.1,1.7-1.1,2.5c0,0.4,0.1,0.7,0.4,1c0.1,0.1,0.3,0.2,0.5,0.2c0.1,0,0.3-0.1,0.5-0.3c0.2-0.2,0.4-0.5,0.7-1.1
				C404.1,45.1,403.7,44.4,403.4,43.5z M404.1,42.8c0.3,1,0.6,1.7,0.8,2.1c0.5-1,0.9-1.9,1.1-2.9C405.4,42.1,404.7,42.4,404.1,42.8z
				"/>
		</g>
		<g>
			<path class="st7" d="M215.1,25.2c0.1,0.2,0,0.3-0.2,0.1c-1,0.2-2.1,0.3-3.1,0.5v2.2h3.1V29h-3.1v2.5h3.1v0.9h-3.1v1.2h-0.9v-8.7
				l0.8,0.2c0.8-0.1,1.8-0.4,3-0.8L215.1,25.2z M216.5,25.9v8.7h-0.9V25h4.6v7c0,0.5-0.2,0.8-0.7,0.8h-1.4l-0.3-1h1.3
				c0.1,0,0.2-0.1,0.2-0.2v-5.7H216.5z"/>
			<path class="st7" d="M228,29.4V30h4.6v0.9H228v2.7c0,0.5-0.2,0.8-0.8,0.8H226l-0.2-0.9h1.1c0.1,0,0.2-0.1,0.2-0.2v-2.4h-4.9V30
				h4.9v-1.2l0.5,0.1l1.3-0.9h-4.5v-0.9h5.4l0.2-0.2l0.8,0.8l-0.3,0.1L228,29.4z M227.9,25.2h4.4v2.3h-0.9v-1.5h-7.9v1.5h-0.9v-2.4
				h4.4V24h1c0.3,0.1,0.3,0.2,0,0.4V25.2z"/>
			<path class="st7" d="M239.3,28.9h-4.7v-1h9.6v1h-3.8v0.6c0,2-0.7,3.6-2.1,4.9l-0.9-0.7c1.3-1,2-2.4,2-4.2V28.9z M236.3,26.1v-1
				h5.8v1H236.3z M244,25.8l-0.7,0.5c-0.4-0.6-0.9-1.2-1.3-1.7l0.7-0.4C243.1,24.5,243.5,25.1,244,25.8z M245.1,25.1l-0.7,0.5
				c-0.5-0.7-0.9-1.2-1.3-1.6l0.7-0.5C244.2,24,244.6,24.5,245.1,25.1z"/>
			<path class="st7" d="M246.2,29.8v-1h10.5v1H246.2z"/>
			<path class="st7" d="M262.5,26h3.1l0.5-0.2l0.6,0.6c0.1,0.2,0.1,0.3-0.2,0.4c-0.2,1.2-0.6,2.4-1.1,3.4l1.1,0.8l-0.7,1l-1-0.8
				c-0.9,1.3-2.2,2.4-3.9,3.2l-1.1-0.8c1.9-0.8,3.2-1.8,4-3.1c-0.8-0.5-1.5-1-2.3-1.4l0.6-0.8c1,0.4,1.8,0.8,2.4,1.2
				c0.5-1,0.8-1.8,0.8-2.6H262c-0.6,1.1-1.3,2-2.2,2.9l-0.9-0.6c1.6-1.7,2.6-3.4,3.1-5.2l1.1,0.5c0.2,0.1,0.2,0.2-0.2,0.4
				C262.8,25.3,262.7,25.6,262.5,26z"/>
		</g>
	</g>
	<g>
		<path class="st20" d="M395.8,101.7c0.2,1.1,0.3,2.7,1,3.6c0.4,0.5,1.5,1,2.2,1c0.7,0,1.3-0.6,1.7-1l1.4-1.3l16.5-16.2l11.6-11.2
			l6.2-5.2c1.1-0.8,1.7-1.1,3.2-1.1c2.6,0,2.6,0.5,2.6,2.8v5.3c0,2.3-0.4,2.3-2.2,4.1l-5.7,6.1l-19.6,20.7l-10.5,10.1
			c-2,1.9-9,9-11.8,9l-1.9-0.2c-1.2-0.1-4.5-2.4-5.5-3.2c-1.1-0.9-2.3-2.1-3.2-3.2c-0.6-0.7-0.7-2.1-0.7-3l-1.1-9.8
			c-0.4-3.5-0.6-6.2-0.4-9.7c0.3-4.4-0.2-3.5,2.7-6.8c1.1-1.3,2.6-3.4,4.3-3.9c1.1-0.4,3-0.7,4.1-0.7c1,0,1.7,0.3,2.5,0.8
			c1.1,0.9,1.1,1.3,1.1,2.6c0,1.6,0.6,4.4,0.8,6L395.8,101.7z"/>
	</g>
	<g>
	</g>
	<g>
	</g>
	<g>
	</g>
	<g>
	</g>
	<g>
	</g>
	<g>
	</g>
	<g>
	</g>
	<g>
	</g>
	<g>
	</g>
	<g>
	</g>
	<g>
	</g>
	<g>
	</g>
	<g>
	</g>
	<g>
	</g>
	<g>
	</g>
	<g>
	</g>
	<g>
	</g>
	<g>
	</g>
</g>
</svg>
