<?xml version="1.0" encoding="utf-8"?>
<!-- Generator: Adobe Illustrator 26.3.1, SVG Export Plug-In . SVG Version: 6.00 Build 0)  -->
<svg version="1.1" id="replacePrinthead" xmlns="http://www.w3.org/2000/svg" xmlns:xlink="http://www.w3.org/1999/xlink" x="0px"
	 y="0px" width="44px" height="44px" viewBox="0 0 44 44" style="enable-background:new 0 0 44 44;" xml:space="preserve">
<style type="text/css">
	.st0{fill:none;}
	.st1{fill:#54575E;}
	.st2{fill:#E54C41;}
</style>
<rect id="rect" x="2" y="2" class="st0" width="40" height="40"/>
<path id="path" class="st1" d="M23.2,36.5H6.1c-0.9,0-1.6-0.7-1.6-1.6V7.4c0-0.9,0.7-1.6,1.6-1.6l0,0h25c0.9,0,1.6,0.7,1.6,1.6l0,0
	v8.4h-3.2V9H7.7v24.2h15.5V36.5z M14,19.2l-3.9,9.2L10,28.6c0,0.1,0.1,0.3,0.2,0.4c0.1,0.1,0.2,0.1,0.4,0.1h2.3
	c0.3,0,0.6-0.1,0.8-0.4l0.3-0.8V19.2z M27.7,28.4l-6.4-15.1c-0.2-0.4-0.6-0.6-1-0.6h-2.6v5.9l1.1-2.7l2.9,7h-4v3.3H23l1.1,2.6
	c0.1,0.1,0.1,0.2,0.3,0.3c0.2,0.1,0.3,0.2,0.5,0.1h2.3c0.1,0,0.3,0,0.4-0.1c0.1-0.1,0.2-0.2,0.2-0.4C27.7,28.5,27.7,28.4,27.7,28.4"
	/>
<path id="path-error" class="st2" d="M33.9,31.2l6,4.8l-6,4.7v-3.4h-2c-3.3,0-6.1-2.6-6.3-5.9h2.8c0.2,1.8,1.8,3.1,3.6,3.1h2
	L33.9,31.2z M35.6,20.9h-2v-3.4l-6,4.7l6,4.7v-3.3h2c2,0,3.6,1.6,3.6,3.6v3H42v-3C42,23.7,39.1,20.9,35.6,20.9"/>
</svg>
