<?xml version="1.0" encoding="utf-8"?>
<!-- Generator: Adobe Illustrator 26.3.1, SVG Export Plug-In . SVG Version: 6.00 Build 0)  -->
<svg version="1.1" id="sosCloudConnected" xmlns="http://www.w3.org/2000/svg" xmlns:xlink="http://www.w3.org/1999/xlink" x="0px"
	 y="0px" width="44px" height="44px" viewBox="0 0 44 44" style="enable-background:new 0 0 44 44;" xml:space="preserve">
<style type="text/css">
	.st0{fill:none;}
	.st1{fill:#54575E;}
</style>
<rect id="rect" x="2" y="2" class="st0" width="40" height="40"/>
<path id="path" class="st1" d="M35.6,19.6c-0.5-7.4-7-13-14.4-12.4c-5.6,0.4-10.4,4.3-12,9.7C4.3,18.6,1.7,24,3.4,29
	c1.3,3.8,4.9,6.4,9,6.4H33c4.5,0,8.1-3.6,8.1-8.1C41.1,23.8,38.9,20.7,35.6,19.6L35.6,19.6z M33,32.1H12.4c-3.5,0-6.2-2.8-6.2-6.3
	s2.8-6.2,6.3-6.2c1.6,0,3.2,0.6,4.4,1.8l2.1-2.3c-1.6-1.6-3.8-2.6-6.1-2.7c2.2-5.1,8.3-7.4,13.4-5.2c3.2,1.4,5.5,4.5,6,8
	c-2.4,0.2-4.6,1.5-6,3.5l2.7,1.8c1.5-2.2,4.5-2.8,6.8-1.3c2.2,1.5,2.8,4.5,1.3,6.8C36.1,31.3,34.6,32.1,33,32.1L33,32.1z"/>
</svg>
