<?xml version="1.0" encoding="utf-8"?>
<!-- Generator: Adobe Illustrator 26.3.1, SVG Export Plug-In . SVG Version: 6.00 Build 0)  -->
<svg version="1.1" id="nonStandard" xmlns="http://www.w3.org/2000/svg" xmlns:xlink="http://www.w3.org/1999/xlink" x="0px"
	 y="0px" width="44px" height="44px" viewBox="0 0 44 44" style="enable-background:new 0 0 44 44;" xml:space="preserve">
<style type="text/css">
	.st0{fill:none;}
	.st1{fill:#54575E;}
	.st2{fill:#E54C41;}
</style>
<rect id="rect" x="2" y="2" class="st0" width="40" height="40"/>
<path id="path" class="st1" d="M40.1,18.2c-0.2,0.3-0.4,0.5-0.6,0.7c-1-0.7-2-1.3-3.1-1.8c0.1,0,0.1,0,0.2-0.1
	c0.4-0.4,0.7-1,0.8-1.5c0-0.2,0.1-0.3,0.2-0.5c0.1-0.1,0.3-0.1,0.4-0.1h2.6c0.1,0,0.2,0,0.3,0.1c0.1,0.1,0.1,0.2,0.1,0.3
	C40.9,16.4,40.6,17.4,40.1,18.2 M29.3,16.5c0.8-0.1,1.5-0.2,2.3-0.2c0.5,0,0.9,0.1,1.4,0.1c-0.3-0.5-0.4-1.1-0.4-1.7
	c0-0.4,0-1,0-1.9c0-0.9,0-1.4,0-1.8c0.1-2,0.8-3,2.3-3c0.5,0,1.1,0.1,1.5,0.5c0.4,0.4,0.7,1,0.8,1.6c0,0.2,0.1,0.3,0.2,0.5
	c0.1,0.1,0.2,0.1,0.4,0.1h2.6c0.1,0,0.2,0,0.3-0.1c0.1-0.1,0.1-0.2,0.1-0.3l0,0c0-1-0.3-2-0.8-2.8s-1.2-1.4-2.1-1.8
	c-0.9-0.4-2-0.7-3-0.6c-1.6-0.1-3.1,0.5-4.2,1.6C29.6,7.9,29,9.5,29,11.1c0,0.4,0,1.1,0,2s0,1.6,0,1.9
	C29.1,15.3,29.2,15.9,29.3,16.5 M13.3,17.3H7.1v-3h5.6c0.1,0,0.3-0.1,0.3-0.2c0.2-0.1,0.2-0.2,0.2-0.4v-1.9c0-0.1,0-0.3-0.1-0.4
	c-0.1-0.1-0.2-0.2-0.4-0.2H7.1v-3h6.1c0.1,0,0.3-0.1,0.3-0.2c0.1,0,0.1-0.2,0.1-0.3V5.6c0-0.1,0-0.3-0.1-0.4C13.4,5.1,13.3,5,13.2,5
	H4.3C4.2,5,4,5.1,4,5.2C3.9,5.3,3.9,5.5,3.9,5.6v14.3c0,0.1,0,0.3,0.1,0.4c0.1,0.1,0.2,0.2,0.3,0.2h9c0.1,0,0.3-0.1,0.3-0.2
	c0.1-0.1,0.1-0.2,0.1-0.4v-2c0-0.1,0-0.3-0.1-0.4C13.6,17.4,13.4,17.3,13.3,17.3 M22,20.6c1.3-1.5,3-2.7,4.9-3.5
	c0.1-0.3,0.1-0.8,0.1-1.2c0-0.8-0.1-1.5-0.5-2.2c-0.3-0.7-0.9-1.2-1.5-1.5c-0.9-0.4-1.8-0.8-2.8-0.9c-0.6-0.2-1.2-0.3-1.7-0.5
	c-0.3-0.2-0.6-0.4-0.8-0.6c-0.2-0.2-0.3-0.5-0.3-0.8c0-0.4,0.1-0.8,0.5-1C20.3,8.1,20.7,8,21.2,8c0.4,0,0.9,0.1,1.3,0.4
	c0.2,0.2,0.5,0.5,0.6,0.8c0.1,0.1,0.1,0.2,0.3,0.3c0.1,0.1,0.2,0.1,0.4,0.1h2.5c0.1,0,0.2,0,0.3-0.1s0.1-0.2,0.1-0.3
	c0-0.7-0.3-1.4-0.7-2c-0.5-0.7-1.1-1.3-1.9-1.7c-0.9-0.4-1.9-0.7-2.9-0.6c-1,0-1.9,0.2-2.8,0.6c-0.8,0.3-1.4,0.9-1.9,1.6
	c-0.4,0.7-0.6,1.6-0.6,2.4c-0.1,1.1,0.3,2.2,1.1,3.1c1,0.8,2.2,1.4,3.4,1.6c0.6,0.1,1.3,0.3,1.9,0.5c0.3,0.1,0.7,0.3,0.9,0.6
	c0.2,0.2,0.3,0.5,0.3,0.8c0,0.4-0.2,0.8-0.6,1.1c-0.4,0.2-1,0.4-1.6,0.3c-0.5,0-1-0.1-1.5-0.4c-0.3-0.2-0.6-0.5-0.8-0.9
	c0-0.1-0.1-0.2-0.3-0.3c-0.1,0-0.2-0.1-0.3-0.1H16c-0.1,0-0.2,0.1-0.3,0.2c-0.1,0.1-0.1,0.2-0.1,0.3c0,0.8,0.3,1.5,0.7,2.2
	c0.5,0.7,1.2,1.3,1.9,1.6c1,0.4,2,0.6,3.1,0.6C21.5,20.7,21.8,20.7,22,20.6"/>
<path id="path-error" class="st2" d="M31.6,18.7c-5.7,0-10.4,4.6-10.4,10.4c0,5.7,4.6,10.4,10.4,10.4c5.7,0,10.4-4.6,10.4-10.4
	C42,23.4,37.3,18.8,31.6,18.7 M38.7,29.1c0,1.4-0.4,2.8-1.2,4l-9.9-9.9c3.3-2.2,7.7-1.3,9.9,2C38.3,26.3,38.7,27.7,38.7,29.1
	 M24.5,29.1c0-1.4,0.4-2.8,1.2-4l9.9,9.9c-3.3,2.2-7.7,1.3-9.9-1.9C24.9,31.9,24.5,30.5,24.5,29.1"/>
</svg>
