<?xml version="1.0" encoding="utf-8"?>
<!-- Generator: Adobe Illustrator 27.9.0, SVG Export Plug-In . SVG Version: 6.00 Build 0)  -->
<svg version="1.1" id="レイヤー_1" xmlns="http://www.w3.org/2000/svg" xmlns:xlink="http://www.w3.org/1999/xlink" x="0px"
	 y="0px" width="53.7px" height="70.1px" viewBox="0 0 53.7 70.1" style="enable-background:new 0 0 53.7 70.1;"
	 xml:space="preserve">
<style type="text/css">
	.アーチ_x0020__x0028_グリーン_x0029_{fill:url(#SVGID_1_);stroke:#FFFFFF;stroke-width:0.25;stroke-miterlimit:1;}
	.st0{fill:#030000;}
</style>
<linearGradient id="SVGID_1_" gradientUnits="userSpaceOnUse" x1="-157.5713" y1="484.2074" x2="-156.8642" y2="483.5003">
	<stop  offset="0" style="stop-color:#00A43B"/>
	<stop  offset="0.9831" style="stop-color:#133617"/>
</linearGradient>
<g>
	<g>
		<polyline class="st0" points="11.1,49.4 26.9,36 11.1,22.5 11.1,49.4 		"/>
		<rect x="26.9" y="22.6" class="st0" width="5.7" height="26.8"/>
		<rect x="36.3" y="22.6" class="st0" width="5.7" height="26.8"/>
	</g>
	<path class="st0" d="M11.7,66.3c-4.4,0-7.9-3.5-7.9-7.9V11.7c0-4.4,3.5-7.9,7.9-7.9h30.2c4.4,0,7.9,3.5,7.9,7.9v46.6
		c0,4.4-3.5,7.9-7.9,7.9H11.7z M11.7,5.5c-3.5,0-6.3,2.8-6.3,6.3v46.6c0,3.5,2.8,6.3,6.3,6.3h30.2c3.5,0,6.3-2.8,6.3-6.3V11.7
		c0-3.5-2.8-6.3-6.3-6.3H11.7z"/>
	<path class="st0" d="M41.9,65.8H11.7c-4.1,0-7.5-3.4-7.5-7.5V11.7c0-4.1,3.4-7.5,7.5-7.5h30.2c4.1,0,7.5,3.4,7.5,7.5v46.6
		C49.4,62.5,46.1,65.8,41.9,65.8L41.9,65.8z M11.7,5.1c-3.7,0-6.7,3-6.7,6.7v46.6c0,3.7,3,6.7,6.7,6.7h30.2c3.7,0,6.7-3,6.7-6.7
		V11.7c0-3.7-3-6.7-6.7-6.7H11.7L11.7,5.1z"/>
</g>
<g>
</g>
<g>
</g>
<g>
</g>
<g>
</g>
<g>
</g>
<g>
</g>
</svg>
