<?xml version="1.0" encoding="utf-8"?>
<!-- Generator: Adobe Illustrator 27.9.0, SVG Export Plug-In . SVG Version: 6.00 Build 0)  -->
<svg version="1.1" id="レイヤー_1" xmlns="http://www.w3.org/2000/svg" xmlns:xlink="http://www.w3.org/1999/xlink" x="0px"
	 y="0px" width="142.4px" height="47.7px" viewBox="0 0 142.4 47.7" style="enable-background:new 0 0 142.4 47.7;"
	 xml:space="preserve">
<style type="text/css">
	.アーチ_x0020__x0028_グリーン_x0029_{fill:url(#SVGID_1_);stroke:#FFFFFF;stroke-width:0.25;stroke-miterlimit:1;}
</style>
<linearGradient id="SVGID_1_" gradientUnits="userSpaceOnUse" x1="-113.9957" y1="471.5993" x2="-113.2886" y2="470.8922">
	<stop  offset="0" style="stop-color:#00A43B"/>
	<stop  offset="0.9831" style="stop-color:#133617"/>
</linearGradient>
<g>
	<path d="M126.9,43.5H15.4c-6.2,0-11.2-5-11.2-11.2V15.4c0-6.2,5-11.2,11.2-11.2h111.5c6.2,0,11.2,5,11.2,11.2v16.9
		C138.1,38.5,133.1,43.5,126.9,43.5L126.9,43.5z M15.4,5.1C9.7,5.1,5.1,9.7,5.1,15.4v16.9c0,5.7,4.6,10.4,10.4,10.4h111.5
		c5.7,0,10.4-4.6,10.4-10.4V15.4c0-5.7-4.6-10.4-10.4-10.4H15.4L15.4,5.1z"/>
	<g>
		<rect x="69.6" y="8.4" width="3.1" height="16.5"/>
		<path d="M76.9,13.2l-1.2,2.5c3.5,1.7,5.9,5.3,6,9.4c0,5.8-4.7,10.5-10.5,10.5c-5.8,0-10.5-4.7-10.5-10.5c0-4.2,2.4-7.8,6-9.4
			l-1.2-2.5C61,15.3,58,19.9,58,25.2c0,7.3,5.9,13.2,13.2,13.2c7.3,0,13.2-5.9,13.2-13.2C84.4,19.9,81.4,15.3,76.9,13.2"/>
	</g>
</g>
<g>
</g>
<g>
</g>
<g>
</g>
<g>
</g>
<g>
</g>
<g>
</g>
</svg>
