<?xml version="1.0" encoding="utf-8"?>
<!-- Generator: Adobe Illustrator 27.9.0, SVG Export Plug-In . SVG Version: 6.00 Build 0)  -->
<svg version="1.1" id="レイヤー_1" xmlns="http://www.w3.org/2000/svg" xmlns:xlink="http://www.w3.org/1999/xlink" x="0px"
	 y="0px" width="40px" height="30px" viewBox="0 0 40 30" style="enable-background:new 0 0 40 30;" xml:space="preserve">
<path d="M5,15c0-4.1,1.5-7.7,4.4-10.6C12.3,1.5,15.9,0,20,0c4.1,0,7.7,1.5,10.6,4.4C33.5,7.3,35,10.9,35,15c0,4.1-1.5,7.7-4.4,10.6
	C27.7,28.5,24.1,30,20,30c-4.1,0-7.7-1.5-10.6-4.4C6.5,22.7,5,19.1,5,15z M18.4,24.4h3.8V5.2l-6.4,0.5l0.1,1.9h2.5V24.4z"/>
<g>
</g>
<g>
</g>
<g>
</g>
<g>
</g>
<g>
</g>
<g>
</g>
</svg>
