<?xml version="1.0" encoding="utf-8"?>
<!-- Generator: Adobe Illustrator 26.3.1, SVG Export Plug-In . SVG Version: 6.00 Build 0)  -->
<svg version="1.1" id="sotiWarn" xmlns="http://www.w3.org/2000/svg" xmlns:xlink="http://www.w3.org/1999/xlink" x="0px" y="0px"
	 width="44px" height="44px" viewBox="0 0 44 44" style="enable-background:new 0 0 44 44;" xml:space="preserve">
<style type="text/css">
	.st0{fill:none;}
	.st1{fill:#54575E;}
	.st2{fill:#E69A37;}
</style>
<rect id="rect" x="2" y="2" class="st0" width="40" height="40"/>
<path id="path" class="st1" d="M9.4,23.6c0.2,1,0.4,2,0.3,3c0,1.2-0.1,2.3-0.5,3.4c-0.2,0.9-0.7,1.6-1.4,2.2c-0.6,0.5-1.3,0.8-2,0.8
	c-0.8,0-1.5-0.3-2.1-0.9c-0.6-0.6-1.1-1.4-1.3-2.2C2.2,29,2,28,2,27.1c0-0.2,0-0.3,0.1-0.5s0.2-0.3,0.3-0.3h1.2
	c0.1,0,0.3,0.1,0.4,0.2c0.1,0.1,0.1,0.3,0.2,0.5c0.1,0.6,0.3,1.2,0.6,1.7c0.3,0.4,0.7,0.7,1.2,0.6c0.5,0,1-0.2,1.3-0.7
	c0.3-0.6,0.5-1.2,0.5-1.9c0-0.5-0.1-0.9-0.2-1.3C7.3,25,7,24.7,6.7,24.5c-0.5-0.3-0.9-0.7-1.4-1c-1-0.5-1.8-1.3-2.3-2.3
	c-0.6-1.3-0.8-2.7-0.8-4.1c0-1.1,0.1-2.1,0.4-3.2c0.2-0.8,0.6-1.6,1.2-2.2c0.6-0.4,1.3-0.7,2-0.7c0.8,0,1.5,0.3,2,0.9
	c0.6,0.7,1,1.4,1.2,2.3c0.3,0.8,0.4,1.7,0.5,2.6c0,0.2,0,0.3-0.1,0.5c-0.1,0.2-0.2,0.2-0.3,0.2H7.9c-0.4,0-0.5-0.5-0.5-0.7
	c0-0.6-0.2-1.1-0.5-1.6c-0.3-0.6-1.1-0.8-1.6-0.4C5,15,4.9,15.1,4.8,15.3c-0.3,0.5-0.4,1.2-0.4,1.8c0,0.5,0.1,0.9,0.2,1.3
	c0.1,0.4,0.4,0.7,0.6,0.9c0.4,0.4,0.8,0.7,1.3,1c0.7,0.3,1.3,0.8,1.9,1.4C8.9,22.2,9.2,22.9,9.4,23.6 M18.9,22c0,0.5,0,1.4,0,2.6
	c0.1,2.1-0.3,4.3-1.1,6.2c-0.5,1.3-1.6,2.2-2.9,2.2c-1.3-0.1-2.5-0.9-2.9-2.2c-0.8-2-1.1-4.1-1.1-6.2c0-0.6,0-1.4,0-2.6s0-2,0-2.6
	c-0.1-2.1,0.3-4.2,1.1-6.2c0.4-1.2,1.5-2.1,2.8-2.2c1.3,0.1,2.5,1,2.9,2.2c0.8,2,1.2,4.1,1.1,6.2C18.8,20.6,18.9,21.5,18.9,22
	 M16.1,28.1c0.4-1.2,0.6-2.4,0.6-3.7c0-1.2,0-2,0-2.4c0-0.5,0-1.3,0-2.4c0-1.3-0.2-2.5-0.6-3.7c-0.3-0.8-0.7-1.2-1.3-1.2
	c-0.6,0-1,0.4-1.3,1.2c-0.4,1.2-0.5,2.4-0.5,3.7c0,0.5,0,1.4,0,2.4s0,1.9,0,2.4c0,1.3,0.1,2.5,0.5,3.7c0.3,0.8,0.8,1.1,1.3,1.1
	S15.8,28.9,16.1,28.1z M26.6,11.2h-6.2c-0.4,0-0.7,0.3-0.7,0.7v2.5c0,0.3,0.3,0.6,0.7,0.6h1.9v17.3C22.2,32.7,22.6,33,23,33l0,0h1
	c0.4,0,0.8-0.3,0.8-0.8l0,0V15h1.9c0.3,0,0.6-0.3,0.6-0.6v-2.5C27.2,11.5,27,11.2,26.6,11.2 M31.6,32.2V12c0-0.4-0.3-0.8-0.8-0.8
	l0,0h-1c-0.4,0-0.8,0.3-0.8,0.7l0,0v20.3c0,0.4,0.3,0.8,0.8,0.8l0,0h1C31.2,33,31.6,32.7,31.6,32.2L31.6,32.2"/>
<path id="path-warning" class="st2" d="M32,6.9h10l-2.8,18.8h-4.5L32,6.9z M37,38.1c2.1,0,3.8-1.7,3.8-3.8s-1.7-3.8-3.8-3.8
	s-3.8,1.7-3.8,3.8S34.9,38.1,37,38.1"/>
</svg>
