<?xml version="1.0" encoding="utf-8"?>
<!-- Generator: Adobe Illustrator 27.9.0, SVG Export Plug-In . SVG Version: 6.00 Build 0)  -->
<svg version="1.1" id="レイヤー_1" xmlns="http://www.w3.org/2000/svg" xmlns:xlink="http://www.w3.org/1999/xlink" x="0px"
	 y="0px" width="40px" height="30px" viewBox="0 0 40 30" style="enable-background:new 0 0 40 30;" xml:space="preserve">
<path d="M5,15c0-4.1,1.5-7.7,4.4-10.6C12.3,1.5,15.9,0,20,0c4.2,0,7.7,1.5,10.6,4.4C33.5,7.3,35,10.9,35,15c0,4.1-1.5,7.7-4.4,10.6
	C27.7,28.5,24.2,30,20,30c-4.1,0-7.7-1.5-10.6-4.4C6.5,22.7,5,19.1,5,15z M14.1,24.2h12.6v-3h-8.4c0.3-1.2,1.4-2.6,3.2-4l1.3-1
	c2.7-2.1,4-4.2,4-6.1c0-1.6-0.6-2.9-1.8-3.8c-1.2-1-2.8-1.4-4.8-1.4c-0.9,0-1.8,0.1-2.7,0.3c-0.9,0.2-1.9,0.4-2.8,0.8v2.8
	c1.8-0.9,3.4-1.4,4.8-1.4c2.3,0,3.4,1,3.4,3c0,1.7-1.3,3.7-3.8,5.9l-1.6,1.4c-1.1,1-2.2,2.2-3.3,3.7V24.2z"/>
<g>
</g>
<g>
</g>
<g>
</g>
<g>
</g>
<g>
</g>
<g>
</g>
</svg>
