<?xml version="1.0" encoding="utf-8"?>
<!-- Generator: Adobe Illustrator 26.3.1, SVG Export Plug-In . SVG Version: 6.00 Build 0)  -->
<svg version="1.1" id="labelWarn" xmlns="http://www.w3.org/2000/svg" xmlns:xlink="http://www.w3.org/1999/xlink" x="0px" y="0px"
	 width="44px" height="44px" viewBox="0 0 44 44" style="enable-background:new 0 0 44 44;" xml:space="preserve">
<style type="text/css">
	.st0{fill:none;}
	.st1{fill:#54575E;}
	.st2{fill:#E69A37;}
</style>
<rect id="rect" x="2" y="2" class="st0" width="40" height="40"/>
<path id="path" class="st1" d="M26,12.5l-1.6-2.8l4.3-2.5l1.6,2.8L26,12.5z M22.5,4.1h-3.3v5h3.2v-5H22.5z M25.2,15.8v18.4
	c0,2.8-3.5,4.9-8.2,4.9S8.8,37,8.8,34.2v-1.7H2v-3.2h6.8V15.8c0-0.6,0.2-1.2,0.5-1.7H2v-3.2h15C21.7,10.9,25.2,13,25.2,15.8
	 M12,15.8c0,0.9,2.2,1.7,5,1.7s5-0.8,5-1.7l0,0c0-0.9-2.2-1.7-5-1.7S12,14.9,12,15.8 M21.9,34.2V19.7c-1.6,0.7-3.3,1-5,1
	s-3.4-0.3-4.9-1v14.5c0,0.4,1.7,1.7,5,1.7S22,34.6,21.9,34.2"/>
<path id="path-warning" class="st2" d="M32,6.9h10l-2.8,18.8h-4.5L32,6.9z M37,38.1c2.1,0,3.8-1.7,3.8-3.8s-1.7-3.8-3.8-3.8
	s-3.8,1.7-3.8,3.8S34.9,38.1,37,38.1"/>
</svg>
