<?xml version="1.0" encoding="utf-8"?>
<!-- Generator: Adobe Illustrator 26.3.1, SVG Export Plug-In . SVG Version: 6.00 Build 0)  -->
<svg version="1.1" id="bufferWarn" xmlns="http://www.w3.org/2000/svg" xmlns:xlink="http://www.w3.org/1999/xlink" x="0px" y="0px"
	 width="44px" height="44px" viewBox="0 0 44 44" style="enable-background:new 0 0 44 44;" xml:space="preserve">
<style type="text/css">
	.st0{fill:none;}
	.st1{fill:#54575E;}
	.st2{fill:#E69A37;}
</style>
<rect id="rect" class="st0" width="44" height="44"/>
<path id="path" class="st1" d="M27.5,33.6c-3.1,1.7-6.5,2.5-10,2.2c-6.8,0-10.5-2.1-10.6-2.9v-6c3.4,1.4,7,2.1,10.6,2
	c3.4,0.1,6.8-0.5,10-1.8v-4c-3.1,1.7-6.6,2.4-10,2.2c-6.9,0-10.6-2.1-10.6-2.9v-6c3.4,1.4,7,2.1,10.6,2c3.4,0.1,6.8-0.5,10-1.8v-3.8
	c-3.1,1.6-6.6,2.3-10,2c-5.8,0-10.6-1.3-10.6-2.9s4.7-2.9,10.6-2.9c3.5-0.3,6.9,0.4,10,2V7.4c-3.2-1.2-6.6-1.8-10-1.7
	c-6.8,0-14.2,2-14.2,6.4V33c0,4.4,7.3,6.4,14.2,6.4c3.4,0.1,6.8-0.5,10-1.7V33.6z"/>
<path id="path-warning" class="st2" d="M30.2,5.4h11l-3,20.6h-5L30.2,5.4z M35.8,39.7c2.3,0,4.1-1.8,4.1-4.1s-1.8-4.1-4.1-4.1
	s-4.1,1.8-4.1,4.1S33.5,39.7,35.8,39.7"/>
</svg>
