<?xml version="1.0" encoding="utf-8"?>
<!-- Generator: Adobe Illustrator 26.3.1, SVG Export Plug-In . SVG Version: 6.00 Build 0)  -->
<svg version="1.1" id="レイヤー_1" xmlns="http://www.w3.org/2000/svg" xmlns:xlink="http://www.w3.org/1999/xlink" x="0px"
	 y="0px" width="562.9px" height="36.5px" viewBox="0 0 562.9 36.5" style="enable-background:new 0 0 562.9 36.5;"
	 xml:space="preserve">
<g>
	<path d="M4.5,7.4v3H6c0.1,0,0.2,0,0.3,0.1s0.1,0.1,0.1,0.2c0,0.1,0,0.2-0.1,0.2S6.1,11,6,11H2.4c-0.1,0-0.2,0-0.3-0.1
		s-0.1-0.1-0.1-0.2c0-0.1,0-0.2,0.1-0.2s0.2-0.1,0.3-0.1h1.5v-3L1.4,3.6H1.1c-0.1,0-0.2,0-0.3-0.1S0.7,3.4,0.7,3.3s0-0.2,0.1-0.2
		S0.9,3,1.1,3h1.6c0.1,0,0.2,0,0.3,0.1S3,3.2,3,3.3s0,0.2-0.1,0.2S2.8,3.6,2.6,3.6H2.1l2.1,3.2l2.1-3.2H5.8c-0.1,0-0.2,0-0.3-0.1
		S5.4,3.4,5.4,3.3s0-0.2,0.1-0.2S5.6,3,5.8,3h1.6c0.1,0,0.2,0,0.3,0.1s0.1,0.1,0.1,0.2s0,0.2-0.1,0.2S7.5,3.6,7.3,3.6H7L4.5,7.4z"/>
	<path d="M12.9,7.4v3h1.5c0.1,0,0.2,0,0.3,0.1s0.1,0.1,0.1,0.2c0,0.1,0,0.2-0.1,0.2S14.5,11,14.4,11h-3.6c-0.1,0-0.2,0-0.3-0.1
		s-0.1-0.1-0.1-0.2c0-0.1,0-0.2,0.1-0.2s0.2-0.1,0.3-0.1h1.5v-3L9.8,3.6H9.5c-0.1,0-0.2,0-0.3-0.1S9.1,3.4,9.1,3.3s0-0.2,0.1-0.2
		S9.3,3,9.5,3H11c0.1,0,0.2,0,0.3,0.1s0.1,0.1,0.1,0.2s0,0.2-0.1,0.2S11.2,3.6,11,3.6h-0.6l2.1,3.2l2.1-3.2h-0.6
		c-0.1,0-0.2,0-0.3-0.1s-0.1-0.1-0.1-0.2s0-0.2,0.1-0.2S14,3,14.2,3h1.6C15.9,3,16,3,16,3.1c0.1,0.1,0.1,0.1,0.1,0.2s0,0.2-0.1,0.2
		c-0.1,0.1-0.2,0.1-0.3,0.1h-0.3L12.9,7.4z"/>
	<path d="M21.3,7.4v3h1.5c0.1,0,0.2,0,0.3,0.1s0.1,0.1,0.1,0.2c0,0.1,0,0.2-0.1,0.2S22.9,11,22.8,11h-3.6c-0.1,0-0.2,0-0.3-0.1
		s-0.1-0.1-0.1-0.2c0-0.1,0-0.2,0.1-0.2s0.2-0.1,0.3-0.1h1.5v-3l-2.5-3.8h-0.3c-0.1,0-0.2,0-0.3-0.1s-0.1-0.1-0.1-0.2s0-0.2,0.1-0.2
		S17.7,3,17.9,3h1.6c0.1,0,0.2,0,0.3,0.1s0.1,0.1,0.1,0.2s0,0.2-0.1,0.2s-0.2,0.1-0.3,0.1h-0.6L21,6.8l2.1-3.2h-0.6
		c-0.1,0-0.2,0-0.3-0.1s-0.1-0.1-0.1-0.2s0-0.2,0.1-0.2S22.4,3,22.6,3h1.6c0.1,0,0.2,0,0.3,0.1s0.1,0.1,0.1,0.2s0,0.2-0.1,0.2
		s-0.2,0.1-0.3,0.1h-0.3L21.3,7.4z"/>
	<path d="M29.7,7.4v3h1.5c0.1,0,0.2,0,0.3,0.1s0.1,0.1,0.1,0.2c0,0.1,0,0.2-0.1,0.2S31.3,11,31.2,11h-3.6c-0.1,0-0.2,0-0.3-0.1
		s-0.1-0.1-0.1-0.2c0-0.1,0-0.2,0.1-0.2s0.2-0.1,0.3-0.1h1.5v-3l-2.5-3.8h-0.3c-0.1,0-0.2,0-0.3-0.1s-0.1-0.1-0.1-0.2s0-0.2,0.1-0.2
		S26.1,3,26.3,3h1.6c0.1,0,0.2,0,0.3,0.1s0.1,0.1,0.1,0.2s0,0.2-0.1,0.2S28,3.6,27.8,3.6h-0.6l2.1,3.2l2.1-3.2H31
		c-0.1,0-0.2,0-0.3-0.1s-0.1-0.1-0.1-0.2s0-0.2,0.1-0.2S30.8,3,31,3h1.6c0.1,0,0.2,0,0.3,0.1s0.1,0.1,0.1,0.2s0,0.2-0.1,0.2
		s-0.2,0.1-0.3,0.1h-0.3L29.7,7.4z"/>
	<path d="M40.4,2l-4.6,9.9c-0.1,0.2-0.2,0.3-0.3,0.3c-0.1,0-0.1,0-0.2-0.1s-0.1-0.1-0.1-0.2c0-0.1,0-0.1,0.1-0.2l4.6-9.9
		C39.9,1.7,40,1.6,40,1.6s0.1,0,0.2,0c0.1,0,0.1,0,0.2,0.1s0.1,0.1,0.1,0.2C40.5,1.8,40.4,1.9,40.4,2z"/>
	<path d="M46.6,8.6h-0.7l-2.2-5h-0.1v6.8h1.1c0.1,0,0.2,0,0.3,0.1s0.1,0.1,0.1,0.2c0,0.1,0,0.2-0.1,0.2S44.8,11,44.7,11h-2.1
		c-0.1,0-0.2,0-0.3-0.1s-0.1-0.1-0.1-0.2c0-0.1,0-0.2,0.1-0.2s0.2-0.1,0.3-0.1H43V3.6h-0.4c-0.1,0-0.2,0-0.3-0.1s-0.1-0.1-0.1-0.2
		s0-0.2,0.1-0.2S42.5,3,42.7,3h1.4L46.3,8L48.4,3h1.4c0.1,0,0.2,0,0.3,0.1s0.1,0.1,0.1,0.2s0,0.2-0.1,0.2s-0.2,0.1-0.3,0.1h-0.4v6.8
		h0.5c0.1,0,0.2,0,0.3,0.1s0.1,0.1,0.1,0.2c0,0.1,0,0.2-0.1,0.2S50.1,11,49.9,11h-2.1c-0.1,0-0.2,0-0.3-0.1s-0.1-0.1-0.1-0.2
		c0-0.1,0-0.2,0.1-0.2s0.2-0.1,0.3-0.1h1.1V3.6h-0.1L46.6,8.6z"/>
	<path d="M55,8.6h-0.7l-2.2-5H52v6.8h1.1c0.1,0,0.2,0,0.3,0.1s0.1,0.1,0.1,0.2c0,0.1,0,0.2-0.1,0.2S53.2,11,53.1,11H51
		c-0.1,0-0.2,0-0.3-0.1s-0.1-0.1-0.1-0.2c0-0.1,0-0.2,0.1-0.2s0.2-0.1,0.3-0.1h0.5V3.6h-0.4c-0.1,0-0.2,0-0.3-0.1s-0.1-0.1-0.1-0.2
		s0-0.2,0.1-0.2S50.9,3,51.1,3h1.4L54.7,8L56.8,3h1.4c0.1,0,0.2,0,0.3,0.1s0.1,0.1,0.1,0.2s0,0.2-0.1,0.2s-0.2,0.1-0.3,0.1h-0.4v6.8
		h0.5c0.1,0,0.2,0,0.3,0.1s0.1,0.1,0.1,0.2c0,0.1,0,0.2-0.1,0.2S58.5,11,58.3,11h-2.1c-0.1,0-0.2,0-0.3-0.1s-0.1-0.1-0.1-0.2
		c0-0.1,0-0.2,0.1-0.2s0.2-0.1,0.3-0.1h1.1V3.6h-0.1L55,8.6z"/>
	<path d="M65.6,2L61,11.9c-0.1,0.2-0.2,0.3-0.3,0.3c-0.1,0-0.1,0-0.2-0.1s-0.1-0.1-0.1-0.2c0-0.1,0-0.1,0.1-0.2l4.6-9.9
		c0.1-0.1,0.1-0.2,0.1-0.2s0.1,0,0.2,0c0.1,0,0.1,0,0.2,0.1s0.1,0.1,0.1,0.2C65.7,1.8,65.6,1.9,65.6,2z"/>
	<path d="M69.2,10.4V3.6h-0.5c-0.1,0-0.2,0-0.3-0.1s-0.1-0.1-0.1-0.2s0-0.2,0.1-0.2S68.5,3,68.7,3h3.1c0.5,0,0.9,0.1,1.3,0.3
		S73.8,3.7,74,4c0.4,0.4,0.6,0.9,0.8,1.4C75,5.7,75,6.1,75,6.6v0.8c0,0.6-0.1,1.2-0.4,1.7s-0.7,1-1.3,1.4c-0.5,0.3-1,0.5-1.6,0.5
		h-3.1c-0.1,0-0.2,0-0.3-0.1s-0.1-0.1-0.1-0.2c0-0.1,0-0.2,0.1-0.2s0.2-0.1,0.3-0.1H69.2z M69.7,10.4h2.1c0.5,0,0.9-0.2,1.4-0.5
		s0.7-0.7,1-1.1s0.3-0.9,0.3-1.3v-1c0-0.4-0.1-0.7-0.2-1c-0.2-0.4-0.4-0.8-0.7-1.2c-0.2-0.2-0.4-0.4-0.7-0.6s-0.7-0.2-1-0.2h-2.1
		V10.4z"/>
	<path d="M77.6,10.4V3.6h-0.5c-0.1,0-0.2,0-0.3-0.1s-0.1-0.1-0.1-0.2s0-0.2,0.1-0.2S76.9,3,77.1,3h3.1c0.5,0,0.9,0.1,1.3,0.3
		s0.7,0.4,0.9,0.7c0.4,0.4,0.6,0.9,0.8,1.4c0.1,0.4,0.2,0.8,0.2,1.2v0.8c0,0.6-0.1,1.2-0.4,1.7s-0.7,1-1.3,1.4
		c-0.5,0.3-1,0.5-1.6,0.5h-3.1c-0.1,0-0.2,0-0.3-0.1s-0.1-0.1-0.1-0.2c0-0.1,0-0.2,0.1-0.2s0.2-0.1,0.3-0.1H77.6z M78.1,10.4h2.1
		c0.5,0,0.9-0.2,1.4-0.5s0.7-0.7,1-1.1s0.3-0.9,0.3-1.3v-1c0-0.4-0.1-0.7-0.2-1c-0.2-0.4-0.4-0.8-0.7-1.2c-0.2-0.2-0.4-0.4-0.7-0.6
		s-0.7-0.2-1-0.2h-2.1V10.4z"/>
	<path d="M94.7,2.4V6c0.4-0.4,0.7-0.7,1-0.8s0.7-0.2,1.1-0.2c0.4,0,0.8,0.1,1.1,0.2s0.6,0.4,0.8,0.7s0.3,0.7,0.3,1v3.6h0.6
		c0.1,0,0.2,0,0.3,0.1s0.1,0.1,0.1,0.2c0,0.1,0,0.2-0.1,0.2S99.9,11,99.8,11h-1.9c-0.1,0-0.2,0-0.3-0.1s-0.1-0.1-0.1-0.2
		c0-0.1,0-0.2,0.1-0.2s0.2-0.1,0.3-0.1h0.6V6.9c0-0.4-0.1-0.8-0.4-1s-0.7-0.4-1.2-0.4c-0.4,0-0.8,0.1-1.1,0.3
		c-0.2,0.1-0.6,0.5-1.1,1v3.6h0.6c0.1,0,0.2,0,0.3,0.1s0.1,0.1,0.1,0.2c0,0.1,0,0.2-0.1,0.2S95.5,11,95.4,11h-1.9
		c-0.1,0-0.2,0-0.3-0.1s-0.1-0.1-0.1-0.2c0-0.1,0-0.2,0.1-0.2s0.2-0.1,0.3-0.1h0.6V3h-0.8c-0.1,0-0.2,0-0.3-0.1S93,2.8,93,2.7
		c0-0.1,0-0.2,0.1-0.2s0.2-0.1,0.3-0.1H94.7z"/>
	<path d="M103.1,2.4V6c0.4-0.4,0.7-0.7,1-0.8s0.7-0.2,1.1-0.2c0.4,0,0.8,0.1,1.1,0.2s0.6,0.4,0.8,0.7s0.3,0.7,0.3,1v3.6h0.6
		c0.1,0,0.2,0,0.3,0.1s0.1,0.1,0.1,0.2c0,0.1,0,0.2-0.1,0.2s-0.2,0.1-0.3,0.1h-1.9c-0.1,0-0.2,0-0.3-0.1s-0.1-0.1-0.1-0.2
		c0-0.1,0-0.2,0.1-0.2s0.2-0.1,0.3-0.1h0.6V6.9c0-0.4-0.1-0.8-0.4-1s-0.7-0.4-1.2-0.4c-0.4,0-0.8,0.1-1.1,0.3
		c-0.2,0.1-0.6,0.5-1.1,1v3.6h0.6c0.1,0,0.2,0,0.3,0.1s0.1,0.1,0.1,0.2c0,0.1,0,0.2-0.1,0.2s-0.2,0.1-0.3,0.1h-1.9
		c-0.1,0-0.2,0-0.3-0.1s-0.1-0.1-0.1-0.2c0-0.1,0-0.2,0.1-0.2s0.2-0.1,0.3-0.1h0.6V3h-0.8c-0.1,0-0.2,0-0.3-0.1s-0.1-0.1-0.1-0.2
		c0-0.1,0-0.2,0.1-0.2s0.2-0.1,0.3-0.1H103.1z"/>
	<path d="M113.3,5.1h0.2c0.3,0,0.5,0.1,0.7,0.3s0.3,0.4,0.3,0.6c0,0.3-0.1,0.5-0.3,0.7s-0.4,0.3-0.7,0.3h-0.2
		c-0.3,0-0.5-0.1-0.7-0.3s-0.3-0.4-0.3-0.6c0-0.3,0.1-0.5,0.3-0.7S113,5.1,113.3,5.1z M113.3,9.4h0.2c0.3,0,0.5,0.1,0.7,0.3
		s0.3,0.4,0.3,0.7c0,0.3-0.1,0.5-0.3,0.7s-0.4,0.3-0.7,0.3h-0.2c-0.3,0-0.5-0.1-0.7-0.3s-0.3-0.4-0.3-0.7c0-0.3,0.1-0.5,0.3-0.7
		S113,9.4,113.3,9.4z"/>
	<path d="M119.2,5.1v0.6c0.5-0.5,1-0.8,1.5-0.8c0.3,0,0.6,0.1,0.8,0.2s0.4,0.4,0.6,0.7c0.3-0.3,0.5-0.6,0.8-0.7s0.5-0.2,0.8-0.2
		c0.4,0,0.7,0.1,1,0.4c0.3,0.3,0.5,0.7,0.5,1.1v4h0.5c0.1,0,0.2,0,0.3,0.1s0.1,0.1,0.1,0.2c0,0.1,0,0.2-0.1,0.2s-0.2,0.1-0.3,0.1
		h-1.1V6.5c0-0.3-0.1-0.5-0.3-0.7s-0.4-0.3-0.6-0.3c-0.2,0-0.4,0.1-0.7,0.2s-0.5,0.5-0.8,0.9v3.8h0.5c0.1,0,0.2,0,0.3,0.1
		s0.1,0.1,0.1,0.2c0,0.1,0,0.2-0.1,0.2s-0.2,0.1-0.3,0.1h-1.1V6.5c0-0.3-0.1-0.6-0.3-0.8s-0.4-0.3-0.6-0.3c-0.2,0-0.4,0.1-0.6,0.2
		c-0.3,0.2-0.6,0.5-0.9,1v3.8h0.5c0.1,0,0.2,0,0.3,0.1s0.1,0.1,0.1,0.2c0,0.1,0,0.2-0.1,0.2s-0.2,0.1-0.3,0.1h-1.5
		c-0.1,0-0.2,0-0.3-0.1s-0.1-0.1-0.1-0.2c0-0.1,0-0.2,0.1-0.2s0.2-0.1,0.3-0.1h0.5V5.7h-0.5c-0.1,0-0.2,0-0.3-0.1s-0.1-0.1-0.1-0.2
		c0-0.1,0-0.2,0.1-0.2s0.2-0.1,0.3-0.1H119.2z"/>
	<path d="M127.6,5.1v0.6c0.5-0.5,1-0.8,1.5-0.8c0.3,0,0.6,0.1,0.8,0.2s0.4,0.4,0.6,0.7c0.3-0.3,0.5-0.6,0.8-0.7s0.5-0.2,0.8-0.2
		c0.4,0,0.7,0.1,1,0.4c0.3,0.3,0.5,0.7,0.5,1.1v4h0.5c0.1,0,0.2,0,0.3,0.1s0.1,0.1,0.1,0.2c0,0.1,0,0.2-0.1,0.2s-0.2,0.1-0.3,0.1
		h-1.1V6.5c0-0.3-0.1-0.5-0.3-0.7s-0.4-0.3-0.6-0.3c-0.2,0-0.4,0.1-0.7,0.2s-0.5,0.5-0.8,0.9v3.8h0.5c0.1,0,0.2,0,0.3,0.1
		s0.1,0.1,0.1,0.2c0,0.1,0,0.2-0.1,0.2S131.2,11,131,11H130V6.5c0-0.3-0.1-0.6-0.3-0.8s-0.4-0.3-0.6-0.3c-0.2,0-0.4,0.1-0.6,0.2
		c-0.3,0.2-0.6,0.5-0.9,1v3.8h0.5c0.1,0,0.2,0,0.3,0.1s0.1,0.1,0.1,0.2c0,0.1,0,0.2-0.1,0.2s-0.2,0.1-0.3,0.1h-1.5
		c-0.1,0-0.2,0-0.3-0.1s-0.1-0.1-0.1-0.2c0-0.1,0-0.2,0.1-0.2s0.2-0.1,0.3-0.1h0.5V5.7h-0.5c-0.1,0-0.2,0-0.3-0.1s-0.1-0.1-0.1-0.2
		c0-0.1,0-0.2,0.1-0.2s0.2-0.1,0.3-0.1H127.6z"/>
	<path d="M138.5,5.1h0.2c0.3,0,0.5,0.1,0.7,0.3s0.3,0.4,0.3,0.6c0,0.3-0.1,0.5-0.3,0.7s-0.4,0.3-0.7,0.3h-0.2
		c-0.3,0-0.5-0.1-0.7-0.3s-0.3-0.4-0.3-0.6c0-0.3,0.1-0.5,0.3-0.7S138.3,5.1,138.5,5.1z M138.5,9.4h0.2c0.3,0,0.5,0.1,0.7,0.3
		s0.3,0.4,0.3,0.7c0,0.3-0.1,0.5-0.3,0.7s-0.4,0.3-0.7,0.3h-0.2c-0.3,0-0.5-0.1-0.7-0.3s-0.3-0.4-0.3-0.7c0-0.3,0.1-0.5,0.3-0.7
		S138.3,9.4,138.5,9.4z"/>
	<path d="M148.9,5.5c0-0.1,0-0.2,0.1-0.3s0.1-0.1,0.2-0.1c0.1,0,0.2,0,0.2,0.1s0.1,0.2,0.1,0.3v1c0,0.1,0,0.2-0.1,0.3
		s-0.1,0.1-0.2,0.1c-0.1,0-0.1,0-0.2-0.1s-0.1-0.1-0.1-0.2c0-0.3-0.2-0.5-0.4-0.7c-0.4-0.3-0.9-0.4-1.5-0.4c-0.6,0-1.1,0.1-1.5,0.4
		c-0.3,0.2-0.4,0.4-0.4,0.7c0,0.3,0.2,0.5,0.5,0.7c0.2,0.1,0.6,0.2,1.2,0.3c0.8,0.1,1.4,0.2,1.7,0.3c0.4,0.2,0.8,0.4,1,0.7
		s0.3,0.6,0.3,0.9c0,0.5-0.2,0.9-0.7,1.3s-1.2,0.6-2.1,0.6s-1.6-0.2-2.2-0.7c0,0.2,0,0.3,0,0.3s-0.1,0.1-0.1,0.1s-0.1,0-0.2,0
		c-0.1,0-0.2,0-0.2-0.1s-0.1-0.2-0.1-0.3V9.4c0-0.1,0-0.2,0.1-0.3s0.1-0.1,0.2-0.1c0.1,0,0.2,0,0.2,0.1s0.1,0.1,0.1,0.2
		c0,0.2,0.1,0.4,0.2,0.5c0.2,0.2,0.4,0.4,0.8,0.5s0.8,0.2,1.3,0.2c0.7,0,1.3-0.1,1.7-0.4s0.5-0.6,0.5-0.9c0-0.4-0.2-0.6-0.6-0.9
		c-0.4-0.2-0.9-0.4-1.6-0.4c-0.7-0.1-1.2-0.2-1.5-0.3s-0.6-0.3-0.7-0.5s-0.3-0.5-0.3-0.8c0-0.5,0.2-0.9,0.7-1.2s1.1-0.4,1.7-0.4
		C147.8,4.9,148.4,5.1,148.9,5.5z"/>
	<path d="M157.3,5.5c0-0.1,0-0.2,0.1-0.3s0.1-0.1,0.2-0.1c0.1,0,0.2,0,0.2,0.1s0.1,0.2,0.1,0.3v1c0,0.1,0,0.2-0.1,0.3
		s-0.1,0.1-0.2,0.1c-0.1,0-0.1,0-0.2-0.1s-0.1-0.1-0.1-0.2c0-0.3-0.2-0.5-0.4-0.7c-0.4-0.3-0.9-0.4-1.5-0.4c-0.6,0-1.1,0.1-1.5,0.4
		c-0.3,0.2-0.4,0.4-0.4,0.7c0,0.3,0.2,0.5,0.5,0.7c0.2,0.1,0.6,0.2,1.2,0.3c0.8,0.1,1.4,0.2,1.7,0.3c0.4,0.2,0.8,0.4,1,0.7
		s0.3,0.6,0.3,0.9c0,0.5-0.2,0.9-0.7,1.3s-1.2,0.6-2.1,0.6s-1.6-0.2-2.2-0.7c0,0.2,0,0.3,0,0.3s-0.1,0.1-0.1,0.1s-0.1,0-0.2,0
		c-0.1,0-0.2,0-0.2-0.1s-0.1-0.2-0.1-0.3V9.4c0-0.1,0-0.2,0.1-0.3s0.1-0.1,0.2-0.1c0.1,0,0.2,0,0.2,0.1s0.1,0.1,0.1,0.2
		c0,0.2,0.1,0.4,0.2,0.5c0.2,0.2,0.4,0.4,0.8,0.5s0.8,0.2,1.3,0.2c0.7,0,1.3-0.1,1.7-0.4s0.5-0.6,0.5-0.9c0-0.4-0.2-0.6-0.6-0.9
		c-0.4-0.2-0.9-0.4-1.6-0.4c-0.7-0.1-1.2-0.2-1.5-0.3s-0.6-0.3-0.7-0.5s-0.3-0.5-0.3-0.8c0-0.5,0.2-0.9,0.7-1.2s1.1-0.4,1.7-0.4
		C156.2,4.9,156.8,5.1,157.3,5.5z"/>
	<path d="M163.8,7.6c0-0.5,0.1-1.1,0.2-1.7s0.4-1.3,0.8-2s0.7-1.2,0.8-1.4c0.1-0.1,0.1-0.1,0.2-0.1c0.1,0,0.2,0,0.2,0.1
		s0.1,0.1,0.1,0.2c0,0,0,0.1,0,0.2c-0.5,0.9-0.9,1.8-1.1,2.5s-0.3,1.5-0.3,2.2c0,0.8,0.1,1.5,0.3,2.2s0.6,1.6,1.1,2.5
		c0,0.1,0,0.1,0,0.2c0,0.1,0,0.1-0.1,0.2s-0.1,0.1-0.2,0.1c-0.1,0-0.1,0-0.2-0.1c-0.2-0.2-0.4-0.6-0.8-1.4s-0.6-1.4-0.8-2
		S163.8,8.2,163.8,7.6z"/>
	<path d="M175,11h-5.5v-0.8l4.7-6.5v0h-3.8v1.7c0,0.1,0,0.2-0.1,0.3s-0.1,0.1-0.2,0.1c-0.1,0-0.2,0-0.2-0.1s-0.1-0.2-0.1-0.3V3h5
		v0.8l-4.7,6.5v0.1h4.4v-2c0-0.1,0-0.2,0.1-0.3s0.1-0.1,0.2-0.1s0.2,0,0.2,0.1s0.1,0.2,0.1,0.3V11z"/>
	<path d="M183.4,11h-5.5v-0.8l4.7-6.5v0h-3.8v1.7c0,0.1,0,0.2-0.1,0.3s-0.1,0.1-0.2,0.1c-0.1,0-0.2,0-0.2-0.1s-0.1-0.2-0.1-0.3V3h5
		v0.8l-4.7,6.5v0.1h4.4v-2c0-0.1,0-0.2,0.1-0.3S183,8,183.1,8s0.2,0,0.2,0.1s0.1,0.2,0.1,0.3V11z"/>
	<path d="M191.8,11h-5.5v-0.8l4.7-6.5v0h-3.8v1.7c0,0.1,0,0.2-0.1,0.3s-0.1,0.1-0.2,0.1c-0.1,0-0.2,0-0.2-0.1s-0.1-0.2-0.1-0.3V3h5
		v0.8l-4.7,6.5v0.1h4.4v-2c0-0.1,0-0.2,0.1-0.3s0.1-0.1,0.2-0.1s0.2,0,0.2,0.1s0.1,0.2,0.1,0.3V11z"/>
	<path d="M197.6,7.6c0,0.5-0.1,1.1-0.2,1.7s-0.4,1.3-0.8,2s-0.7,1.2-0.8,1.4c-0.1,0.1-0.1,0.1-0.2,0.1c-0.1,0-0.2,0-0.2-0.1
		s-0.1-0.1-0.1-0.2c0,0,0-0.1,0-0.2c0.5-0.9,0.9-1.7,1.1-2.5s0.3-1.5,0.3-2.2c0-0.8-0.1-1.5-0.3-2.2s-0.6-1.6-1.1-2.5
		c0-0.1,0-0.1,0-0.2c0-0.1,0-0.1,0.1-0.2s0.1-0.1,0.2-0.1c0.1,0,0.1,0,0.2,0.1c0.2,0.2,0.4,0.6,0.8,1.4s0.6,1.4,0.8,2
		S197.6,7,197.6,7.6z"/>
	<path d="M214.5,3v9.2h1.4c0.1,0,0.2,0,0.3,0.1c0.1,0.1,0.1,0.1,0.1,0.2s0,0.2-0.1,0.2c-0.1,0.1-0.2,0.1-0.3,0.1h-2V2.4h2
		c0.1,0,0.2,0,0.3,0.1c0.1,0.1,0.1,0.1,0.1,0.2c0,0.1,0,0.2-0.1,0.2C216.2,3,216.1,3,215.9,3H214.5z"/>
	<path d="M222.9,3.6v6.8h1.5c0.1,0,0.2,0,0.3,0.1s0.1,0.1,0.1,0.2c0,0.1,0,0.2-0.1,0.2s-0.2,0.1-0.3,0.1h-3.6c-0.1,0-0.2,0-0.3-0.1
		s-0.1-0.1-0.1-0.2c0-0.1,0-0.2,0.1-0.2s0.2-0.1,0.3-0.1h1.5V3.6H220v2c0,0.1,0,0.2-0.1,0.3c-0.1,0.1-0.1,0.1-0.2,0.1
		c-0.1,0-0.2,0-0.2-0.1s-0.1-0.2-0.1-0.3V3h6.4v2.6c0,0.1,0,0.2-0.1,0.3c-0.1,0.1-0.1,0.1-0.2,0.1s-0.2,0-0.2-0.1
		c-0.1-0.1-0.1-0.2-0.1-0.3v-2H222.9z"/>
	<path d="M231.3,3.6v6.8h1.5c0.1,0,0.2,0,0.3,0.1s0.1,0.1,0.1,0.2c0,0.1,0,0.2-0.1,0.2s-0.2,0.1-0.3,0.1h-3.6c-0.1,0-0.2,0-0.3-0.1
		s-0.1-0.1-0.1-0.2c0-0.1,0-0.2,0.1-0.2s0.2-0.1,0.3-0.1h1.5V3.6h-2.4v2c0,0.1,0,0.2-0.1,0.3c-0.1,0.1-0.1,0.1-0.2,0.1
		c-0.1,0-0.2,0-0.2-0.1s-0.1-0.2-0.1-0.3V3h6.4v2.6c0,0.1,0,0.2-0.1,0.3C234.1,5.9,234,6,234,6s-0.2,0-0.2-0.1
		c-0.1-0.1-0.1-0.2-0.1-0.3v-2H231.3z"/>
	<path d="M239.7,3.6v6.8h1.5c0.1,0,0.2,0,0.3,0.1s0.1,0.1,0.1,0.2c0,0.1,0,0.2-0.1,0.2s-0.2,0.1-0.3,0.1h-3.6c-0.1,0-0.2,0-0.3-0.1
		s-0.1-0.1-0.1-0.2c0-0.1,0-0.2,0.1-0.2s0.2-0.1,0.3-0.1h1.5V3.6h-2.4v2c0,0.1,0,0.2-0.1,0.3c-0.1,0.1-0.1,0.1-0.2,0.1
		c-0.1,0-0.2,0-0.2-0.1s-0.1-0.2-0.1-0.3V3h6.4v2.6c0,0.1,0,0.2-0.1,0.3c-0.1,0.1-0.1,0.1-0.2,0.1s-0.2,0-0.2-0.1
		c-0.1-0.1-0.1-0.2-0.1-0.3v-2H239.7z"/>
	<path d="M248.1,3.6v6.8h1.5c0.1,0,0.2,0,0.3,0.1s0.1,0.1,0.1,0.2c0,0.1,0,0.2-0.1,0.2s-0.2,0.1-0.3,0.1h-3.6c-0.1,0-0.2,0-0.3-0.1
		s-0.1-0.1-0.1-0.2c0-0.1,0-0.2,0.1-0.2s0.2-0.1,0.3-0.1h1.5V3.6h-2.4v2c0,0.1,0,0.2-0.1,0.3C245.1,5.9,245,6,244.9,6
		c-0.1,0-0.2,0-0.2-0.1s-0.1-0.2-0.1-0.3V3h6.4v2.6c0,0.1,0,0.2-0.1,0.3c-0.1,0.1-0.1,0.1-0.2,0.1s-0.2,0-0.2-0.1
		c-0.1-0.1-0.1-0.2-0.1-0.3v-2H248.1z"/>
	<path d="M256.5,3.6v6.8h1.5c0.1,0,0.2,0,0.3,0.1s0.1,0.1,0.1,0.2c0,0.1,0,0.2-0.1,0.2S258.2,11,258,11h-3.6c-0.1,0-0.2,0-0.3-0.1
		s-0.1-0.1-0.1-0.2c0-0.1,0-0.2,0.1-0.2s0.2-0.1,0.3-0.1h1.5V3.6h-2.4v2c0,0.1,0,0.2-0.1,0.3c-0.1,0.1-0.1,0.1-0.2,0.1
		c-0.1,0-0.2,0-0.2-0.1S253,5.7,253,5.6V3h6.4v2.6c0,0.1,0,0.2-0.1,0.3c-0.1,0.1-0.1,0.1-0.2,0.1s-0.2,0-0.2-0.1
		c-0.1-0.1-0.1-0.2-0.1-0.3v-2H256.5z"/>
	<path d="M264.9,3.6v6.8h1.5c0.1,0,0.2,0,0.3,0.1s0.1,0.1,0.1,0.2c0,0.1,0,0.2-0.1,0.2s-0.2,0.1-0.3,0.1h-3.6c-0.1,0-0.2,0-0.3-0.1
		s-0.1-0.1-0.1-0.2c0-0.1,0-0.2,0.1-0.2s0.2-0.1,0.3-0.1h1.5V3.6H262v2c0,0.1,0,0.2-0.1,0.3c-0.1,0.1-0.1,0.1-0.2,0.1
		c-0.1,0-0.2,0-0.2-0.1s-0.1-0.2-0.1-0.3V3h6.4v2.6c0,0.1,0,0.2-0.1,0.3c-0.1,0.1-0.1,0.1-0.2,0.1s-0.2,0-0.2-0.1
		c-0.1-0.1-0.1-0.2-0.1-0.3v-2H264.9z"/>
	<path d="M273.3,3.6v6.8h1.5c0.1,0,0.2,0,0.3,0.1s0.1,0.1,0.1,0.2c0,0.1,0,0.2-0.1,0.2S275,11,274.8,11h-3.6c-0.1,0-0.2,0-0.3-0.1
		s-0.1-0.1-0.1-0.2c0-0.1,0-0.2,0.1-0.2s0.2-0.1,0.3-0.1h1.5V3.6h-2.4v2c0,0.1,0,0.2-0.1,0.3c-0.1,0.1-0.1,0.1-0.2,0.1
		c-0.1,0-0.2,0-0.2-0.1s-0.1-0.2-0.1-0.3V3h6.4v2.6c0,0.1,0,0.2-0.1,0.3C276.1,5.9,276.1,6,276,6s-0.2,0-0.2-0.1
		c-0.1-0.1-0.1-0.2-0.1-0.3v-2H273.3z"/>
	<path d="M281.2,12.2V3h-1.4c-0.1,0-0.2,0-0.3-0.1s-0.1-0.1-0.1-0.2c0-0.1,0-0.2,0.1-0.2s0.2-0.1,0.3-0.1h2v10.3h-2
		c-0.1,0-0.2,0-0.3-0.1s-0.1-0.1-0.1-0.2c0-0.1,0-0.2,0.1-0.2s0.2-0.1,0.3-0.1H281.2z"/>
	<path d="M296.4,7.4v3h1.1c0.1,0,0.2,0,0.3,0.1s0.1,0.1,0.1,0.2c0,0.1,0,0.2-0.1,0.2s-0.2,0.1-0.3,0.1H295c-0.1,0-0.2,0-0.3-0.1
		s-0.1-0.1-0.1-0.2c0-0.1,0-0.2,0.1-0.2s0.2-0.1,0.3-0.1h0.8V3.6H295c-0.1,0-0.2,0-0.3-0.1s-0.1-0.1-0.1-0.2s0-0.2,0.1-0.2
		S294.9,3,295,3h3.5c0.7,0,1.3,0.2,1.8,0.7c0.5,0.5,0.7,1,0.7,1.5c0,0.4-0.2,0.8-0.5,1.2c-0.3,0.4-0.8,0.7-1.5,0.9
		c0.4,0.3,0.8,0.6,1.1,1c0.3,0.4,0.8,1.1,1.4,2.2h0.4c0.1,0,0.2,0,0.3,0.1s0.1,0.1,0.1,0.2c0,0.1,0,0.2-0.1,0.2S302.1,11,302,11
		h-0.8c-0.7-1.3-1.3-2.1-1.7-2.6c-0.4-0.4-0.8-0.8-1.3-1H296.4z M296.4,6.9h1.6c0.5,0,1-0.1,1.4-0.3c0.4-0.2,0.7-0.4,0.9-0.6
		c0.2-0.2,0.3-0.5,0.3-0.8c0-0.4-0.2-0.7-0.6-1.1c-0.4-0.3-0.9-0.5-1.4-0.5h-2.1V6.9z"/>
	<path d="M304.8,7.1v3.3h4.4V8.7c0-0.1,0-0.2,0.1-0.3c0.1-0.1,0.1-0.1,0.2-0.1s0.2,0,0.2,0.1c0.1,0.1,0.1,0.2,0.1,0.3V11h-6.3
		c-0.1,0-0.2,0-0.3-0.1s-0.1-0.1-0.1-0.2c0-0.1,0-0.2,0.1-0.2s0.2-0.1,0.3-0.1h0.8V3.6h-0.8c-0.1,0-0.2,0-0.3-0.1s-0.1-0.1-0.1-0.2
		s0-0.2,0.1-0.2s0.2-0.1,0.3-0.1h6v2c0,0.1,0,0.2-0.1,0.3c-0.1,0.1-0.1,0.1-0.2,0.1s-0.2,0-0.2-0.1c-0.1-0.1-0.1-0.2-0.1-0.3V3.6
		h-4.1v3h2.1V5.9c0-0.1,0-0.2,0.1-0.3s0.1-0.1,0.2-0.1c0.1,0,0.2,0,0.2,0.1s0.1,0.2,0.1,0.3v1.9c0,0.1,0,0.2-0.1,0.3
		s-0.1,0.1-0.2,0.1c-0.1,0-0.2,0-0.2-0.1s-0.1-0.2-0.1-0.3V7.1H304.8z"/>
	<path d="M316.9,8.3h-3.8l-0.8,2.1h1.1c0.1,0,0.2,0,0.3,0.1s0.1,0.1,0.1,0.2c0,0.1,0,0.2-0.1,0.2s-0.2,0.1-0.3,0.1h-2.1
		c-0.1,0-0.2,0-0.3-0.1s-0.1-0.1-0.1-0.2c0-0.1,0-0.2,0.1-0.2s0.2-0.1,0.3-0.1h0.4l2.5-6.8h-1.7c-0.1,0-0.2,0-0.3-0.1
		s-0.1-0.1-0.1-0.2s0-0.2,0.1-0.2s0.2-0.1,0.3-0.1h2.9l2.8,7.4h0.4c0.1,0,0.2,0,0.3,0.1s0.1,0.1,0.1,0.2c0,0.1,0,0.2-0.1,0.2
		s-0.2,0.1-0.3,0.1h-2.1c-0.1,0-0.2,0-0.3-0.1s-0.1-0.1-0.1-0.2c0-0.1,0-0.2,0.1-0.2s0.2-0.1,0.3-0.1h1.1L316.9,8.3z M316.7,7.8
		l-1.6-4.2h-0.2l-1.5,4.2H316.7z"/>
	<path d="M321.2,10.4V3.6h-0.5c-0.1,0-0.2,0-0.3-0.1s-0.1-0.1-0.1-0.2s0-0.2,0.1-0.2s0.2-0.1,0.3-0.1h3.1c0.5,0,0.9,0.1,1.3,0.3
		c0.4,0.2,0.7,0.4,0.9,0.7c0.4,0.4,0.6,0.9,0.8,1.4c0.1,0.4,0.2,0.8,0.2,1.2v0.8c0,0.6-0.1,1.2-0.4,1.7s-0.7,1-1.3,1.4
		c-0.5,0.3-1,0.5-1.6,0.5h-3.1c-0.1,0-0.2,0-0.3-0.1s-0.1-0.1-0.1-0.2c0-0.1,0-0.2,0.1-0.2s0.2-0.1,0.3-0.1H321.2z M321.8,10.4h2.1
		c0.5,0,0.9-0.2,1.4-0.5c0.4-0.3,0.7-0.7,0.9-1.1c0.2-0.4,0.3-0.9,0.3-1.3v-1c0-0.4-0.1-0.7-0.2-1c-0.2-0.4-0.4-0.8-0.7-1.2
		c-0.2-0.2-0.4-0.4-0.7-0.6s-0.7-0.2-1-0.2h-2.1V10.4z"/>
	<path d="M332.1,3.6v6.8h2c0.1,0,0.2,0,0.3,0.1s0.1,0.1,0.1,0.2c0,0.1,0,0.2-0.1,0.2s-0.2,0.1-0.3,0.1h-4.5c-0.1,0-0.2,0-0.3-0.1
		s-0.1-0.1-0.1-0.2c0-0.1,0-0.2,0.1-0.2s0.2-0.1,0.3-0.1h2V3.6h-2c-0.1,0-0.2,0-0.3-0.1s-0.1-0.1-0.1-0.2s0-0.2,0.1-0.2
		s0.2-0.1,0.3-0.1h4.5c0.1,0,0.2,0,0.3,0.1s0.1,0.1,0.1,0.2s0,0.2-0.1,0.2s-0.2,0.1-0.3,0.1H332.1z"/>
	<path d="M343.1,11h-0.7l-4.2-7.2v6.6h1.1c0.1,0,0.2,0,0.3,0.1s0.1,0.1,0.1,0.2c0,0.1,0,0.2-0.1,0.2s-0.2,0.1-0.3,0.1H337
		c-0.1,0-0.2,0-0.3-0.1s-0.1-0.1-0.1-0.2c0-0.1,0-0.2,0.1-0.2s0.2-0.1,0.3-0.1h0.5V3.6h-0.8c-0.1,0-0.2,0-0.3-0.1s-0.1-0.1-0.1-0.2
		s0-0.2,0.1-0.2s0.2-0.1,0.3-0.1h1.5l4.2,7.2V3.6h-1.1c-0.1,0-0.2,0-0.3-0.1s-0.1-0.1-0.1-0.2s0-0.2,0.1-0.2
		c0.1-0.1,0.2-0.1,0.3-0.1h2.1c0.1,0,0.2,0,0.3,0.1s0.1,0.1,0.1,0.2s0,0.2-0.1,0.2s-0.2,0.1-0.3,0.1h-0.5V11z"/>
	<path d="M351.8,8v2.5c-0.4,0.2-0.9,0.4-1.3,0.5c-0.4,0.1-0.9,0.2-1.3,0.2c-0.6,0-1.2-0.1-1.6-0.3c-0.5-0.2-0.9-0.4-1.2-0.8
		s-0.6-0.7-0.8-1.1c-0.2-0.4-0.3-0.9-0.3-1.5V6.5c0-0.6,0.2-1.2,0.5-1.8c0.3-0.6,0.7-1,1.3-1.4s1.1-0.5,1.8-0.5
		c0.9,0,1.7,0.3,2.3,0.8c0-0.2,0-0.4,0-0.4c0,0,0-0.1,0.1-0.1s0.1-0.1,0.2-0.1c0.1,0,0.2,0,0.2,0.1s0.1,0.2,0.1,0.3v1.3
		c0,0.1,0,0.2-0.1,0.3s-0.1,0.1-0.2,0.1c-0.1,0-0.1,0-0.2-0.1c-0.1-0.1-0.1-0.1-0.1-0.3c0-0.4-0.3-0.7-0.8-1c-0.5-0.2-1-0.4-1.6-0.4
		c-0.5,0-1,0.1-1.4,0.3c-0.4,0.2-0.8,0.7-1.2,1.3c-0.2,0.4-0.4,0.9-0.4,1.4v1c0,1,0.3,1.7,0.9,2.3s1.4,0.8,2.4,0.8
		c0.3,0,0.7,0,1-0.1s0.6-0.2,1-0.4V8h-2c-0.1,0-0.2,0-0.3-0.1c-0.1-0.1-0.1-0.1-0.1-0.2s0-0.2,0.1-0.2s0.2-0.1,0.3-0.1l2.8,0
		c0.1,0,0.2,0,0.3,0.1s0.1,0.1,0.1,0.2c0,0.1,0,0.1-0.1,0.2S352.2,8,352.2,8C352.1,8,352,8,351.8,8z"/>
	<path d="M357.3,3v9.2h1.4c0.1,0,0.2,0,0.3,0.1s0.1,0.1,0.1,0.2s0,0.2-0.1,0.2s-0.2,0.1-0.3,0.1h-2V2.4h2c0.1,0,0.2,0,0.3,0.1
		s0.1,0.1,0.1,0.2c0,0.1,0,0.2-0.1,0.2S358.9,3,358.7,3H357.3z"/>
	<path d="M365.8,3.6v6.8h2c0.1,0,0.2,0,0.3,0.1s0.1,0.1,0.1,0.2c0,0.1,0,0.2-0.1,0.2s-0.2,0.1-0.3,0.1h-4.5c-0.1,0-0.2,0-0.3-0.1
		s-0.1-0.1-0.1-0.2c0-0.1,0-0.2,0.1-0.2s0.2-0.1,0.3-0.1h2V3.6h-2c-0.1,0-0.2,0-0.3-0.1s-0.1-0.1-0.1-0.2s0-0.2,0.1-0.2
		s0.2-0.1,0.3-0.1h4.5c0.1,0,0.2,0,0.3,0.1s0.1,0.1,0.1,0.2s0,0.2-0.1,0.2s-0.2,0.1-0.3,0.1H365.8z"/>
	<path d="M372,7.4v3h1.1c0.1,0,0.2,0,0.3,0.1s0.1,0.1,0.1,0.2c0,0.1,0,0.2-0.1,0.2s-0.2,0.1-0.3,0.1h-2.4c-0.1,0-0.2,0-0.3-0.1
		s-0.1-0.1-0.1-0.2c0-0.1,0-0.2,0.1-0.2s0.2-0.1,0.3-0.1h0.8V3.6h-0.8c-0.1,0-0.2,0-0.3-0.1s-0.1-0.1-0.1-0.2s0-0.2,0.1-0.2
		s0.2-0.1,0.3-0.1h3.5c0.7,0,1.3,0.2,1.8,0.7c0.5,0.5,0.7,1,0.7,1.5c0,0.4-0.2,0.8-0.5,1.2c-0.3,0.4-0.8,0.7-1.5,0.9
		c0.4,0.3,0.8,0.6,1.1,1c0.3,0.4,0.8,1.1,1.4,2.2h0.4c0.1,0,0.2,0,0.3,0.1s0.1,0.1,0.1,0.2c0,0.1,0,0.2-0.1,0.2s-0.2,0.1-0.3,0.1
		h-0.8c-0.7-1.3-1.3-2.1-1.7-2.6c-0.4-0.4-0.8-0.8-1.3-1H372z M372,6.9h1.6c0.5,0,1-0.1,1.4-0.3c0.4-0.2,0.7-0.4,0.9-0.6
		c0.2-0.2,0.3-0.5,0.3-0.8c0-0.4-0.2-0.7-0.6-1.1c-0.4-0.3-0.9-0.5-1.4-0.5H372V6.9z"/>
	<path d="M382,12.2V3h-1.4c-0.1,0-0.2,0-0.3-0.1s-0.1-0.1-0.1-0.2c0-0.1,0-0.2,0.1-0.2s0.2-0.1,0.3-0.1h2v10.3h-2
		c-0.1,0-0.2,0-0.3-0.1s-0.1-0.1-0.1-0.2c0-0.1,0-0.2,0.1-0.2s0.2-0.1,0.3-0.1H382z"/>
	<path d="M390.5,5.1h0.2c0.3,0,0.5,0.1,0.7,0.3s0.3,0.4,0.3,0.6c0,0.3-0.1,0.5-0.3,0.7c-0.2,0.2-0.4,0.3-0.7,0.3h-0.2
		c-0.3,0-0.5-0.1-0.7-0.3s-0.3-0.4-0.3-0.6c0-0.3,0.1-0.5,0.3-0.7C390.1,5.2,390.3,5.1,390.5,5.1z M390.5,9.4h0.2
		c0.3,0,0.5,0.1,0.7,0.3s0.3,0.4,0.3,0.7c0,0.3-0.1,0.5-0.3,0.7c-0.2,0.2-0.4,0.3-0.7,0.3h-0.2c-0.3,0-0.5-0.1-0.7-0.3
		s-0.3-0.4-0.3-0.7c0-0.3,0.1-0.5,0.3-0.7C390.1,9.4,390.3,9.4,390.5,9.4z"/>
	<path d="M401.1,3.6V3.4c0-0.1,0-0.2,0.1-0.3c0.1-0.1,0.1-0.1,0.2-0.1s0.2,0,0.2,0.1c0.1,0.1,0.1,0.2,0.1,0.3v1.5
		c0,0.1,0,0.2-0.1,0.3c-0.1,0.1-0.1,0.1-0.2,0.1c-0.1,0-0.1,0-0.2-0.1c-0.1-0.1-0.1-0.1-0.1-0.3c0-0.4-0.2-0.7-0.6-1
		c-0.4-0.3-0.9-0.5-1.5-0.5c-0.6,0-1.1,0.2-1.5,0.5S397,4.6,397,5c0,0.2,0.1,0.4,0.2,0.6s0.2,0.3,0.4,0.5s0.4,0.2,0.6,0.3
		s0.6,0.1,1,0.2c0.8,0.1,1.3,0.3,1.6,0.4c0.4,0.2,0.7,0.4,0.9,0.7c0.2,0.3,0.3,0.7,0.3,1.1c0,0.7-0.3,1.2-0.8,1.7s-1.2,0.7-2.1,0.7
		c-1,0-1.8-0.3-2.4-0.9v0.3c0,0.1,0,0.2-0.1,0.3c-0.1,0.1-0.1,0.1-0.2,0.1c-0.1,0-0.2,0-0.2-0.1s-0.1-0.2-0.1-0.3V9
		c0-0.1,0-0.2,0.1-0.3c0.1-0.1,0.1-0.1,0.2-0.1c0.1,0,0.1,0,0.2,0.1c0.1,0.1,0.1,0.1,0.1,0.3c0,0.4,0.2,0.8,0.7,1.1
		c0.4,0.3,1,0.5,1.7,0.5s1.3-0.2,1.7-0.5c0.4-0.4,0.6-0.8,0.6-1.3c0-0.3-0.1-0.6-0.2-0.8c-0.2-0.2-0.4-0.4-0.7-0.6
		c-0.2-0.1-0.7-0.2-1.4-0.3c-1-0.2-1.6-0.4-2.1-0.7s-0.6-0.8-0.6-1.4c0-0.6,0.2-1.1,0.7-1.6c0.5-0.4,1.1-0.6,1.9-0.6
		C399.8,2.8,400.5,3.1,401.1,3.6z"/>
	<path d="M405.6,7.4v3h1.1c0.1,0,0.2,0,0.3,0.1s0.1,0.1,0.1,0.2c0,0.1,0,0.2-0.1,0.2s-0.2,0.1-0.3,0.1h-2.4c-0.1,0-0.2,0-0.3-0.1
		s-0.1-0.1-0.1-0.2c0-0.1,0-0.2,0.1-0.2s0.2-0.1,0.3-0.1h0.8V3.6h-0.8c-0.1,0-0.2,0-0.3-0.1s-0.1-0.1-0.1-0.2s0-0.2,0.1-0.2
		s0.2-0.1,0.3-0.1h3.5c0.7,0,1.3,0.2,1.8,0.7c0.5,0.5,0.7,1,0.7,1.5c0,0.4-0.2,0.8-0.5,1.2c-0.3,0.4-0.8,0.7-1.5,0.9
		c0.4,0.3,0.8,0.6,1.1,1c0.3,0.4,0.8,1.1,1.4,2.2h0.4c0.1,0,0.2,0,0.3,0.1s0.1,0.1,0.1,0.2c0,0.1,0,0.2-0.1,0.2s-0.2,0.1-0.3,0.1
		h-0.8c-0.7-1.3-1.3-2.1-1.7-2.6c-0.4-0.4-0.8-0.8-1.3-1H405.6z M405.6,6.9h1.6c0.5,0,1-0.1,1.4-0.3c0.4-0.2,0.7-0.4,0.9-0.6
		c0.2-0.2,0.3-0.5,0.3-0.8c0-0.4-0.2-0.7-0.6-1.1c-0.4-0.3-0.9-0.5-1.4-0.5h-2.1V6.9z"/>
	<path d="M417.9,3.6V3.4c0-0.1,0-0.2,0.1-0.3c0.1-0.1,0.1-0.1,0.2-0.1s0.2,0,0.2,0.1c0.1,0.1,0.1,0.2,0.1,0.3v1.5
		c0,0.1,0,0.2-0.1,0.3c-0.1,0.1-0.1,0.1-0.2,0.1c-0.1,0-0.1,0-0.2-0.1c-0.1-0.1-0.1-0.1-0.1-0.3c0-0.4-0.2-0.7-0.6-1
		c-0.4-0.3-0.9-0.5-1.5-0.5c-0.6,0-1.1,0.2-1.5,0.5s-0.6,0.7-0.6,1.2c0,0.2,0.1,0.4,0.2,0.6s0.2,0.3,0.4,0.5s0.4,0.2,0.6,0.3
		s0.6,0.1,1,0.2c0.8,0.1,1.3,0.3,1.6,0.4c0.4,0.2,0.7,0.4,0.9,0.7c0.2,0.3,0.3,0.7,0.3,1.1c0,0.7-0.3,1.2-0.8,1.7s-1.2,0.7-2.1,0.7
		c-1,0-1.8-0.3-2.4-0.9v0.3c0,0.1,0,0.2-0.1,0.3c-0.1,0.1-0.1,0.1-0.2,0.1c-0.1,0-0.2,0-0.2-0.1s-0.1-0.2-0.1-0.3V9
		c0-0.1,0-0.2,0.1-0.3c0.1-0.1,0.1-0.1,0.2-0.1c0.1,0,0.1,0,0.2,0.1c0.1,0.1,0.1,0.1,0.1,0.3c0,0.4,0.2,0.8,0.7,1.1
		c0.4,0.3,1,0.5,1.7,0.5s1.3-0.2,1.7-0.5c0.4-0.4,0.6-0.8,0.6-1.3c0-0.3-0.1-0.6-0.2-0.8c-0.2-0.2-0.4-0.4-0.7-0.6
		c-0.2-0.1-0.7-0.2-1.4-0.3c-1-0.2-1.6-0.4-2.1-0.7s-0.6-0.8-0.6-1.4c0-0.6,0.2-1.1,0.7-1.6c0.5-0.4,1.1-0.6,1.9-0.6
		C416.7,2.8,417.3,3.1,417.9,3.6z"/>
	<path d="M422.4,7.4v3h1.1c0.1,0,0.2,0,0.3,0.1s0.1,0.1,0.1,0.2c0,0.1,0,0.2-0.1,0.2s-0.2,0.1-0.3,0.1h-2.4c-0.1,0-0.2,0-0.3-0.1
		s-0.1-0.1-0.1-0.2c0-0.1,0-0.2,0.1-0.2s0.2-0.1,0.3-0.1h0.8V3.6h-0.8c-0.1,0-0.2,0-0.3-0.1s-0.1-0.1-0.1-0.2s0-0.2,0.1-0.2
		s0.2-0.1,0.3-0.1h3.5c0.7,0,1.3,0.2,1.8,0.7c0.5,0.5,0.7,1,0.7,1.5c0,0.4-0.2,0.8-0.5,1.2c-0.3,0.4-0.8,0.7-1.5,0.9
		c0.4,0.3,0.8,0.6,1.1,1c0.3,0.4,0.8,1.1,1.4,2.2h0.4c0.1,0,0.2,0,0.3,0.1s0.1,0.1,0.1,0.2c0,0.1,0,0.2-0.1,0.2S428.1,11,428,11
		h-0.8c-0.7-1.3-1.3-2.1-1.7-2.6c-0.4-0.4-0.8-0.8-1.3-1H422.4z M422.4,6.9h1.6c0.5,0,1-0.1,1.4-0.3c0.4-0.2,0.7-0.4,0.9-0.6
		c0.2-0.2,0.3-0.5,0.3-0.8c0-0.4-0.2-0.7-0.6-1.1c-0.4-0.3-0.9-0.5-1.4-0.5h-2.1V6.9z"/>
	<path d="M432.6,5.1h0.2c0.3,0,0.5,0.1,0.7,0.3s0.3,0.4,0.3,0.6c0,0.3-0.1,0.5-0.3,0.7c-0.2,0.2-0.4,0.3-0.7,0.3h-0.2
		c-0.3,0-0.5-0.1-0.7-0.3s-0.3-0.4-0.3-0.6c0-0.3,0.1-0.5,0.3-0.7C432.1,5.2,432.3,5.1,432.6,5.1z M432.6,9.4h0.2
		c0.3,0,0.5,0.1,0.7,0.3s0.3,0.4,0.3,0.7c0,0.3-0.1,0.5-0.3,0.7c-0.2,0.2-0.4,0.3-0.7,0.3h-0.2c-0.3,0-0.5-0.1-0.7-0.3
		s-0.3-0.4-0.3-0.7c0-0.3,0.1-0.5,0.3-0.7C432.1,9.4,432.3,9.4,432.6,9.4z"/>
	<path d="M443.9,2.4v8h0.8c0.1,0,0.2,0,0.3,0.1s0.1,0.1,0.1,0.2c0,0.1,0,0.2-0.1,0.2s-0.2,0.1-0.3,0.1h-1.3V9.9
		c-0.7,0.9-1.5,1.4-2.5,1.4c-0.5,0-1-0.1-1.5-0.4c-0.5-0.3-0.9-0.7-1.1-1.2c-0.3-0.5-0.4-1-0.4-1.6c0-0.5,0.1-1.1,0.4-1.6
		c0.3-0.5,0.7-0.9,1.1-1.2c0.5-0.3,1-0.4,1.5-0.4c1,0,1.8,0.5,2.5,1.4V3h-0.8c-0.1,0-0.2,0-0.3-0.1s-0.1-0.1-0.1-0.2
		c0-0.1,0-0.2,0.1-0.2s0.2-0.1,0.3-0.1H443.9z M443.3,8.1c0-0.7-0.2-1.3-0.7-1.8s-1.1-0.8-1.8-0.8c-0.7,0-1.3,0.3-1.8,0.8
		s-0.7,1.1-0.7,1.8c0,0.7,0.2,1.3,0.7,1.8s1.1,0.8,1.8,0.8c0.7,0,1.3-0.3,1.8-0.8S443.3,8.8,443.3,8.1z"/>
	<path d="M448.8,5.1v1.4c0.7-0.7,1.3-1.1,1.7-1.3c0.4-0.2,0.7-0.3,1-0.3c0.3,0,0.7,0.1,1,0.3c0.3,0.2,0.4,0.4,0.4,0.5
		c0,0.1,0,0.2-0.1,0.2c-0.1,0.1-0.1,0.1-0.2,0.1c0,0-0.1,0-0.1,0s-0.1-0.1-0.2-0.2c-0.2-0.2-0.3-0.3-0.4-0.3s-0.2-0.1-0.3-0.1
		c-0.3,0-0.6,0.1-0.9,0.3c-0.4,0.2-1,0.7-1.8,1.5v3.1h2.5c0.1,0,0.2,0,0.3,0.1s0.1,0.1,0.1,0.2c0,0.1,0,0.2-0.1,0.2
		s-0.2,0.1-0.3,0.1h-4.5c-0.1,0-0.2,0-0.3-0.1s-0.1-0.1-0.1-0.2c0-0.1,0-0.1,0.1-0.2c0.1-0.1,0.2-0.1,0.3-0.1h1.4V5.7h-1.1
		c-0.1,0-0.2,0-0.3-0.1s-0.1-0.1-0.1-0.2c0-0.1,0-0.2,0.1-0.2c0.1-0.1,0.2-0.1,0.3-0.1H448.8z"/>
	<path d="M460.7,2.4v8h0.8c0.1,0,0.2,0,0.3,0.1s0.1,0.1,0.1,0.2c0,0.1,0,0.2-0.1,0.2s-0.2,0.1-0.3,0.1h-1.3V9.9
		c-0.7,0.9-1.5,1.4-2.5,1.4c-0.5,0-1-0.1-1.5-0.4c-0.5-0.3-0.9-0.7-1.1-1.2c-0.3-0.5-0.4-1-0.4-1.6c0-0.5,0.1-1.1,0.4-1.6
		c0.3-0.5,0.7-0.9,1.1-1.2c0.5-0.3,1-0.4,1.5-0.4c1,0,1.8,0.5,2.5,1.4V3h-0.8c-0.1,0-0.2,0-0.3-0.1S459,2.8,459,2.7
		c0-0.1,0-0.2,0.1-0.2s0.2-0.1,0.3-0.1H460.7z M460.1,8.1c0-0.7-0.2-1.3-0.7-1.8s-1.1-0.8-1.8-0.8c-0.7,0-1.3,0.3-1.8,0.8
		s-0.7,1.1-0.7,1.8c0,0.7,0.2,1.3,0.7,1.8s1.1,0.8,1.8,0.8c0.7,0,1.3-0.3,1.8-0.8S460.1,8.8,460.1,8.1z"/>
	<path d="M465.6,5.1v1.4c0.7-0.7,1.3-1.1,1.7-1.3c0.4-0.2,0.7-0.3,1-0.3c0.3,0,0.7,0.1,1,0.3c0.3,0.2,0.4,0.4,0.4,0.5
		c0,0.1,0,0.2-0.1,0.2c-0.1,0.1-0.1,0.1-0.2,0.1c0,0-0.1,0-0.1,0s-0.1-0.1-0.2-0.2c-0.2-0.2-0.3-0.3-0.4-0.3s-0.2-0.1-0.3-0.1
		c-0.3,0-0.6,0.1-0.9,0.3c-0.4,0.2-1,0.7-1.8,1.5v3.1h2.5c0.1,0,0.2,0,0.3,0.1s0.1,0.1,0.1,0.2c0,0.1,0,0.2-0.1,0.2
		s-0.2,0.1-0.3,0.1h-4.5c-0.1,0-0.2,0-0.3-0.1s-0.1-0.1-0.1-0.2c0-0.1,0-0.1,0.1-0.2c0.1-0.1,0.2-0.1,0.3-0.1h1.4V5.7H464
		c-0.1,0-0.2,0-0.3-0.1s-0.1-0.1-0.1-0.2c0-0.1,0-0.2,0.1-0.2c0.1-0.1,0.2-0.1,0.3-0.1H465.6z"/>
	<path d="M474.6,9.4h0.2c0.3,0,0.5,0.1,0.7,0.3s0.3,0.4,0.3,0.7c0,0.3-0.1,0.5-0.3,0.7c-0.2,0.2-0.4,0.3-0.7,0.3h-0.2
		c-0.3,0-0.5-0.1-0.7-0.3s-0.3-0.4-0.3-0.7c0-0.3,0.1-0.5,0.3-0.7C474.1,9.4,474.3,9.4,474.6,9.4z"/>
	<path d="M483,9.4h0.2c0.3,0,0.5,0.1,0.7,0.3s0.3,0.4,0.3,0.7c0,0.3-0.1,0.5-0.3,0.7c-0.2,0.2-0.4,0.3-0.7,0.3H483
		c-0.3,0-0.5-0.1-0.7-0.3s-0.3-0.4-0.3-0.7c0-0.3,0.1-0.5,0.3-0.7C482.5,9.4,482.7,9.4,483,9.4z"/>
	<path d="M491.4,9.4h0.2c0.3,0,0.5,0.1,0.7,0.3s0.3,0.4,0.3,0.7c0,0.3-0.1,0.5-0.3,0.7c-0.2,0.2-0.4,0.3-0.7,0.3h-0.2
		c-0.3,0-0.5-0.1-0.7-0.3s-0.3-0.4-0.3-0.7c0-0.3,0.1-0.5,0.3-0.7C490.9,9.4,491.1,9.4,491.4,9.4z"/>
	<path d="M496.4,7l6.2-3.5c0.1-0.1,0.2-0.1,0.2-0.1c0.1,0,0.1,0,0.2,0.1c0.1,0.1,0.1,0.1,0.1,0.2c0,0.1-0.1,0.2-0.2,0.3l-5.3,3
		l5.3,3c0.2,0.1,0.2,0.2,0.2,0.3c0,0.1,0,0.1-0.1,0.2c-0.1,0.1-0.1,0.1-0.2,0.1c0,0-0.1,0-0.2-0.1L496.4,7z"/>
	<path d="M510.8,3.8V3.4c0-0.1,0-0.2,0.1-0.3C510.9,3,511,3,511.1,3s0.2,0,0.2,0.1c0.1,0.1,0.1,0.2,0.1,0.3V5c0,0.1,0,0.2-0.1,0.3
		c-0.1,0.1-0.1,0.1-0.2,0.1c-0.1,0-0.1,0-0.2-0.1c-0.1-0.1-0.1-0.1-0.1-0.3c0-0.4-0.2-0.7-0.6-1c-0.5-0.4-1.1-0.6-1.8-0.6
		c-0.4,0-0.9,0.1-1.3,0.3c-0.3,0.1-0.5,0.3-0.7,0.5c-0.3,0.4-0.5,0.7-0.7,1.2c-0.1,0.3-0.2,0.7-0.2,1.1v1c0,0.9,0.3,1.6,0.9,2.2
		s1.3,0.9,2.2,0.9c0.5,0,0.9-0.1,1.3-0.3c0.4-0.2,0.8-0.5,1.1-1c0.1-0.1,0.2-0.1,0.3-0.1c0.1,0,0.1,0,0.2,0.1s0.1,0.1,0.1,0.2
		c0,0.1-0.1,0.3-0.3,0.5c-0.4,0.4-0.8,0.7-1.3,0.9c-0.5,0.2-0.9,0.3-1.4,0.3c-0.4,0-0.8-0.1-1.3-0.2c-0.3-0.1-0.6-0.3-0.8-0.4
		s-0.5-0.4-0.8-0.8c-0.3-0.4-0.5-0.7-0.6-1.1S505,8,505,7.6V6.4c0-0.6,0.2-1.1,0.5-1.7c0.3-0.6,0.7-1,1.2-1.4
		c0.5-0.3,1.1-0.5,1.7-0.5C509.3,2.8,510.1,3.1,510.8,3.8z"/>
	<path d="M514.8,7.4v3h1.1c0.1,0,0.2,0,0.3,0.1s0.1,0.1,0.1,0.2c0,0.1,0,0.2-0.1,0.2S516,11,515.9,11h-2.4c-0.1,0-0.2,0-0.3-0.1
		s-0.1-0.1-0.1-0.2c0-0.1,0-0.2,0.1-0.2s0.2-0.1,0.3-0.1h0.8V3.6h-0.8c-0.1,0-0.2,0-0.3-0.1s-0.1-0.1-0.1-0.2s0-0.2,0.1-0.2
		s0.2-0.1,0.3-0.1h3.5c0.7,0,1.3,0.2,1.8,0.7c0.5,0.5,0.7,1,0.7,1.5c0,0.4-0.2,0.8-0.5,1.2c-0.3,0.4-0.8,0.7-1.5,0.9
		c0.4,0.3,0.8,0.6,1.1,1c0.3,0.4,0.8,1.1,1.4,2.2h0.4c0.1,0,0.2,0,0.3,0.1s0.1,0.1,0.1,0.2c0,0.1,0,0.2-0.1,0.2s-0.2,0.1-0.3,0.1
		h-0.8c-0.7-1.3-1.3-2.1-1.7-2.6c-0.4-0.4-0.8-0.8-1.3-1H514.8z M514.8,6.9h1.6c0.5,0,1-0.1,1.4-0.3c0.4-0.2,0.7-0.4,0.9-0.6
		c0.2-0.2,0.3-0.5,0.3-0.8c0-0.4-0.2-0.7-0.6-1.1c-0.4-0.3-0.9-0.5-1.4-0.5h-2.1V6.9z"/>
	<path d="M528.6,7l-6.2,3.5c-0.1,0.1-0.2,0.1-0.2,0.1c-0.1,0-0.1,0-0.2-0.1c-0.1-0.1-0.1-0.1-0.1-0.2c0-0.1,0.1-0.2,0.2-0.3l5.3-3
		l-5.3-3c-0.2-0.1-0.2-0.2-0.2-0.3c0-0.1,0-0.1,0.1-0.2c0.1-0.1,0.1-0.1,0.2-0.1c0,0,0.1,0,0.2,0.1L528.6,7z"/>
	<path d="M530,7l6.2-3.5c0.1-0.1,0.2-0.1,0.2-0.1c0.1,0,0.1,0,0.2,0.1c0.1,0.1,0.1,0.1,0.1,0.2c0,0.1-0.1,0.2-0.2,0.3l-5.3,3l5.3,3
		c0.2,0.1,0.2,0.2,0.2,0.3c0,0.1,0,0.1-0.1,0.2c-0.1,0.1-0.1,0.1-0.2,0.1c0,0-0.1,0-0.2-0.1L530,7z"/>
	<path d="M540.9,3.6v6.8h3.8V8.1c0-0.1,0-0.2,0.1-0.3s0.1-0.1,0.2-0.1c0.1,0,0.2,0,0.2,0.1s0.1,0.2,0.1,0.3V11h-6.3
		c-0.1,0-0.2,0-0.3-0.1s-0.1-0.1-0.1-0.2c0-0.1,0-0.2,0.1-0.2s0.2-0.1,0.3-0.1h1.4V3.6h-1.4c-0.1,0-0.2,0-0.3-0.1s-0.1-0.1-0.1-0.2
		s0-0.2,0.1-0.2s0.2-0.1,0.3-0.1h3.3c0.1,0,0.2,0,0.3,0.1s0.1,0.1,0.1,0.2s0,0.2-0.1,0.2s-0.2,0.1-0.3,0.1H540.9z"/>
	<path d="M548.9,7.1v3.3h2c0.1,0,0.2,0,0.3,0.1s0.1,0.1,0.1,0.2c0,0.1,0,0.2-0.1,0.2S551,11,550.9,11h-3.3c-0.1,0-0.2,0-0.3-0.1
		s-0.1-0.1-0.1-0.2c0-0.1,0-0.2,0.1-0.2s0.2-0.1,0.3-0.1h0.8V3.6h-0.8c-0.1,0-0.2,0-0.3-0.1s-0.1-0.1-0.1-0.2s0-0.2,0.1-0.2
		c0,0,0.1-0.1,0.3-0.1h6.3v2c0,0.1,0,0.2-0.1,0.3s-0.1,0.1-0.2,0.1c-0.1,0-0.2,0-0.2-0.1s-0.1-0.2-0.1-0.3V3.6h-4.4v3h2.1V5.9
		c0-0.1,0-0.2,0.1-0.3s0.1-0.1,0.2-0.1c0.1,0,0.2,0,0.2,0.1s0.1,0.2,0.1,0.3v1.9c0,0.1,0,0.2-0.1,0.3s-0.1,0.1-0.2,0.1
		c-0.1,0-0.2,0-0.2-0.1S551,7.9,551,7.8V7.1H548.9z"/>
	<path d="M562.2,7l-6.2,3.5c-0.1,0.1-0.2,0.1-0.2,0.1c-0.1,0-0.1,0-0.2-0.1c-0.1-0.1-0.1-0.1-0.1-0.2c0-0.1,0.1-0.2,0.2-0.3l5.3-3
		l-5.3-3c-0.2-0.1-0.2-0.2-0.2-0.3c0-0.1,0-0.1,0.1-0.2c0.1-0.1,0.1-0.1,0.2-0.1c0,0,0.1,0,0.2,0.1L562.2,7z"/>
</g>
<g>
	<path d="M214.5,19v9.2h1.4c0.1,0,0.2,0,0.3,0.1c0.1,0.1,0.1,0.1,0.1,0.2s0,0.2-0.1,0.2c-0.1,0.1-0.2,0.1-0.3,0.1h-2V18.4h2
		c0.1,0,0.2,0,0.3,0.1c0.1,0.1,0.1,0.1,0.1,0.2c0,0.1,0,0.2-0.1,0.2c-0.1,0.1-0.2,0.1-0.3,0.1H214.5z"/>
	<path d="M220.8,23.4v3h1.1c0.1,0,0.2,0,0.3,0.1c0.1,0.1,0.1,0.1,0.1,0.2c0,0.1,0,0.2-0.1,0.2c-0.1,0.1-0.2,0.1-0.3,0.1h-2.4
		c-0.1,0-0.2,0-0.3-0.1c-0.1-0.1-0.1-0.1-0.1-0.2c0-0.1,0-0.2,0.1-0.2c0.1-0.1,0.2-0.1,0.3-0.1h0.8v-6.8h-0.8c-0.1,0-0.2,0-0.3-0.1
		c-0.1-0.1-0.1-0.1-0.1-0.2s0-0.2,0.1-0.2c0.1-0.1,0.2-0.1,0.3-0.1h3.5c0.7,0,1.3,0.2,1.8,0.7s0.7,1,0.7,1.5c0,0.4-0.2,0.8-0.5,1.2
		s-0.8,0.7-1.5,0.9c0.4,0.3,0.8,0.6,1.1,1c0.3,0.4,0.8,1.1,1.4,2.2h0.4c0.1,0,0.2,0,0.3,0.1c0.1,0.1,0.1,0.1,0.1,0.2
		c0,0.1,0,0.2-0.1,0.2c-0.1,0.1-0.2,0.1-0.3,0.1h-0.8c-0.7-1.3-1.3-2.1-1.7-2.6s-0.8-0.8-1.3-1H220.8z M220.8,22.9h1.6
		c0.5,0,1-0.1,1.4-0.3s0.7-0.4,0.9-0.6s0.3-0.5,0.3-0.8c0-0.4-0.2-0.7-0.6-1.1s-0.9-0.5-1.4-0.5h-2.1V22.9z"/>
	<path d="M229.2,23.4v3h1.1c0.1,0,0.2,0,0.3,0.1c0.1,0.1,0.1,0.1,0.1,0.2c0,0.1,0,0.2-0.1,0.2c-0.1,0.1-0.2,0.1-0.3,0.1h-2.4
		c-0.1,0-0.2,0-0.3-0.1c-0.1-0.1-0.1-0.1-0.1-0.2c0-0.1,0-0.2,0.1-0.2c0.1-0.1,0.2-0.1,0.3-0.1h0.8v-6.8h-0.8c-0.1,0-0.2,0-0.3-0.1
		c-0.1-0.1-0.1-0.1-0.1-0.2s0-0.2,0.1-0.2c0.1-0.1,0.2-0.1,0.3-0.1h3.5c0.7,0,1.3,0.2,1.8,0.7s0.7,1,0.7,1.5c0,0.4-0.2,0.8-0.5,1.2
		s-0.8,0.7-1.5,0.9c0.4,0.3,0.8,0.6,1.1,1c0.3,0.4,0.8,1.1,1.4,2.2h0.4c0.1,0,0.2,0,0.3,0.1c0.1,0.1,0.1,0.1,0.1,0.2
		c0,0.1,0,0.2-0.1,0.2c-0.1,0.1-0.2,0.1-0.3,0.1H234c-0.7-1.3-1.3-2.1-1.7-2.6s-0.8-0.8-1.3-1H229.2z M229.2,22.9h1.6
		c0.5,0,1-0.1,1.4-0.3s0.7-0.4,0.9-0.6s0.3-0.5,0.3-0.8c0-0.4-0.2-0.7-0.6-1.1s-0.9-0.5-1.4-0.5h-2.1V22.9z"/>
	<path d="M237.6,23.4v3h1.1c0.1,0,0.2,0,0.3,0.1c0.1,0.1,0.1,0.1,0.1,0.2c0,0.1,0,0.2-0.1,0.2c-0.1,0.1-0.2,0.1-0.3,0.1h-2.4
		c-0.1,0-0.2,0-0.3-0.1c-0.1-0.1-0.1-0.1-0.1-0.2c0-0.1,0-0.2,0.1-0.2c0.1-0.1,0.2-0.1,0.3-0.1h0.8v-6.8h-0.8c-0.1,0-0.2,0-0.3-0.1
		c-0.1-0.1-0.1-0.1-0.1-0.2s0-0.2,0.1-0.2c0.1-0.1,0.2-0.1,0.3-0.1h3.5c0.7,0,1.3,0.2,1.8,0.7s0.7,1,0.7,1.5c0,0.4-0.2,0.8-0.5,1.2
		s-0.8,0.7-1.5,0.9c0.4,0.3,0.8,0.6,1.1,1c0.3,0.4,0.8,1.1,1.4,2.2h0.4c0.1,0,0.2,0,0.3,0.1c0.1,0.1,0.1,0.1,0.1,0.2
		c0,0.1,0,0.2-0.1,0.2c-0.1,0.1-0.2,0.1-0.3,0.1h-0.8c-0.7-1.3-1.3-2.1-1.7-2.6s-0.8-0.8-1.3-1H237.6z M237.6,22.9h1.6
		c0.5,0,1-0.1,1.4-0.3s0.7-0.4,0.9-0.6s0.3-0.5,0.3-0.8c0-0.4-0.2-0.7-0.6-1.1s-0.9-0.5-1.4-0.5h-2.1V22.9z"/>
	<path d="M246,23.4v3h1.1c0.1,0,0.2,0,0.3,0.1c0.1,0.1,0.1,0.1,0.1,0.2c0,0.1,0,0.2-0.1,0.2c-0.1,0.1-0.2,0.1-0.3,0.1h-2.4
		c-0.1,0-0.2,0-0.3-0.1c-0.1-0.1-0.1-0.1-0.1-0.2c0-0.1,0-0.2,0.1-0.2c0.1-0.1,0.2-0.1,0.3-0.1h0.8v-6.8h-0.8c-0.1,0-0.2,0-0.3-0.1
		c-0.1-0.1-0.1-0.1-0.1-0.2s0-0.2,0.1-0.2c0.1-0.1,0.2-0.1,0.3-0.1h3.5c0.7,0,1.3,0.2,1.8,0.7s0.7,1,0.7,1.5c0,0.4-0.2,0.8-0.5,1.2
		s-0.8,0.7-1.5,0.9c0.4,0.3,0.8,0.6,1.1,1c0.3,0.4,0.8,1.1,1.4,2.2h0.4c0.1,0,0.2,0,0.3,0.1c0.1,0.1,0.1,0.1,0.1,0.2
		c0,0.1,0,0.2-0.1,0.2c-0.1,0.1-0.2,0.1-0.3,0.1h-0.8c-0.7-1.3-1.3-2.1-1.7-2.6s-0.8-0.8-1.3-1H246z M246,22.9h1.6
		c0.5,0,1-0.1,1.4-0.3s0.7-0.4,0.9-0.6s0.3-0.5,0.3-0.8c0-0.4-0.2-0.7-0.6-1.1s-0.9-0.5-1.4-0.5H246V22.9z"/>
	<path d="M254.4,23.4v3h1.1c0.1,0,0.2,0,0.3,0.1c0.1,0.1,0.1,0.1,0.1,0.2c0,0.1,0,0.2-0.1,0.2c-0.1,0.1-0.2,0.1-0.3,0.1H253
		c-0.1,0-0.2,0-0.3-0.1c-0.1-0.1-0.1-0.1-0.1-0.2c0-0.1,0-0.2,0.1-0.2c0.1-0.1,0.2-0.1,0.3-0.1h0.8v-6.8H253c-0.1,0-0.2,0-0.3-0.1
		c-0.1-0.1-0.1-0.1-0.1-0.2s0-0.2,0.1-0.2c0.1-0.1,0.2-0.1,0.3-0.1h3.5c0.7,0,1.3,0.2,1.8,0.7s0.7,1,0.7,1.5c0,0.4-0.2,0.8-0.5,1.2
		s-0.8,0.7-1.5,0.9c0.4,0.3,0.8,0.6,1.1,1c0.3,0.4,0.8,1.1,1.4,2.2h0.4c0.1,0,0.2,0,0.3,0.1c0.1,0.1,0.1,0.1,0.1,0.2
		c0,0.1,0,0.2-0.1,0.2c-0.1,0.1-0.2,0.1-0.3,0.1h-0.8c-0.7-1.3-1.3-2.1-1.7-2.6s-0.8-0.8-1.3-1H254.4z M254.4,22.9h1.6
		c0.5,0,1-0.1,1.4-0.3s0.7-0.4,0.9-0.6s0.3-0.5,0.3-0.8c0-0.4-0.2-0.7-0.6-1.1s-0.9-0.5-1.4-0.5h-2.1V22.9z"/>
	<path d="M262.8,23.4v3h1.1c0.1,0,0.2,0,0.3,0.1c0.1,0.1,0.1,0.1,0.1,0.2c0,0.1,0,0.2-0.1,0.2c-0.1,0.1-0.2,0.1-0.3,0.1h-2.4
		c-0.1,0-0.2,0-0.3-0.1c-0.1-0.1-0.1-0.1-0.1-0.2c0-0.1,0-0.2,0.1-0.2c0.1-0.1,0.2-0.1,0.3-0.1h0.8v-6.8h-0.8c-0.1,0-0.2,0-0.3-0.1
		c-0.1-0.1-0.1-0.1-0.1-0.2s0-0.2,0.1-0.2c0.1-0.1,0.2-0.1,0.3-0.1h3.5c0.7,0,1.3,0.2,1.8,0.7s0.7,1,0.7,1.5c0,0.4-0.2,0.8-0.5,1.2
		s-0.8,0.7-1.5,0.9c0.4,0.3,0.8,0.6,1.1,1c0.3,0.4,0.8,1.1,1.4,2.2h0.4c0.1,0,0.2,0,0.3,0.1c0.1,0.1,0.1,0.1,0.1,0.2
		c0,0.1,0,0.2-0.1,0.2c-0.1,0.1-0.2,0.1-0.3,0.1h-0.8c-0.7-1.3-1.3-2.1-1.7-2.6s-0.8-0.8-1.3-1H262.8z M262.8,22.9h1.6
		c0.5,0,1-0.1,1.4-0.3s0.7-0.4,0.9-0.6s0.3-0.5,0.3-0.8c0-0.4-0.2-0.7-0.6-1.1s-0.9-0.5-1.4-0.5h-2.1V22.9z"/>
	<path d="M271.2,23.4v3h1.1c0.1,0,0.2,0,0.3,0.1c0.1,0.1,0.1,0.1,0.1,0.2c0,0.1,0,0.2-0.1,0.2c-0.1,0.1-0.2,0.1-0.3,0.1h-2.4
		c-0.1,0-0.2,0-0.3-0.1c-0.1-0.1-0.1-0.1-0.1-0.2c0-0.1,0-0.2,0.1-0.2c0.1-0.1,0.2-0.1,0.3-0.1h0.8v-6.8h-0.8c-0.1,0-0.2,0-0.3-0.1
		c-0.1-0.1-0.1-0.1-0.1-0.2s0-0.2,0.1-0.2c0.1-0.1,0.2-0.1,0.3-0.1h3.5c0.7,0,1.3,0.2,1.8,0.7s0.7,1,0.7,1.5c0,0.4-0.2,0.8-0.5,1.2
		s-0.8,0.7-1.5,0.9c0.4,0.3,0.8,0.6,1.1,1c0.3,0.4,0.8,1.1,1.4,2.2h0.4c0.1,0,0.2,0,0.3,0.1c0.1,0.1,0.1,0.1,0.1,0.2
		c0,0.1,0,0.2-0.1,0.2c-0.1,0.1-0.2,0.1-0.3,0.1H276c-0.7-1.3-1.3-2.1-1.7-2.6s-0.8-0.8-1.3-1H271.2z M271.2,22.9h1.6
		c0.5,0,1-0.1,1.4-0.3s0.7-0.4,0.9-0.6s0.3-0.5,0.3-0.8c0-0.4-0.2-0.7-0.6-1.1s-0.9-0.5-1.4-0.5h-2.1V22.9z"/>
	<path d="M281.2,28.2V19h-1.4c-0.1,0-0.2,0-0.3-0.1c-0.1-0.1-0.1-0.1-0.1-0.2c0-0.1,0-0.2,0.1-0.2c0.1-0.1,0.2-0.1,0.3-0.1h2v10.3
		h-2c-0.1,0-0.2,0-0.3-0.1c-0.1-0.1-0.1-0.1-0.1-0.2c0-0.1,0-0.2,0.1-0.2c0.1-0.1,0.2-0.1,0.3-0.1H281.2z"/>
	<path d="M300.8,19.8v-0.4c0-0.1,0-0.2,0.1-0.3s0.1-0.1,0.2-0.1c0.1,0,0.2,0,0.2,0.1s0.1,0.2,0.1,0.3V21c0,0.1,0,0.2-0.1,0.3
		s-0.1,0.1-0.2,0.1c-0.1,0-0.1,0-0.2-0.1s-0.1-0.1-0.1-0.3c0-0.4-0.2-0.7-0.6-1c-0.5-0.4-1.1-0.6-1.8-0.6c-0.4,0-0.9,0.1-1.3,0.3
		c-0.3,0.1-0.5,0.3-0.7,0.5c-0.3,0.4-0.5,0.7-0.7,1.2c-0.1,0.3-0.2,0.7-0.2,1.1v1c0,0.9,0.3,1.6,0.9,2.2c0.6,0.6,1.3,0.9,2.2,0.9
		c0.5,0,0.9-0.1,1.3-0.3s0.8-0.5,1.1-1c0.1-0.1,0.2-0.1,0.3-0.1c0.1,0,0.1,0,0.2,0.1c0,0.1,0.1,0.1,0.1,0.2c0,0.1-0.1,0.3-0.3,0.5
		c-0.4,0.4-0.8,0.7-1.3,0.9s-0.9,0.3-1.4,0.3c-0.4,0-0.8-0.1-1.3-0.2c-0.3-0.1-0.6-0.3-0.8-0.4c-0.2-0.2-0.5-0.4-0.8-0.8
		s-0.5-0.7-0.6-1.1c-0.1-0.3-0.2-0.7-0.2-1.1v-1.2c0-0.6,0.2-1.1,0.5-1.7s0.7-1,1.2-1.4s1.1-0.5,1.7-0.5
		C299.3,18.8,300.1,19.1,300.8,19.8z"/>
	<path d="M310.2,23c0,0.8-0.2,1.5-0.5,2.1c-0.3,0.7-0.7,1.2-1.3,1.5s-1.1,0.5-1.8,0.5c-0.9,0-1.7-0.4-2.4-1.2s-1.1-1.8-1.1-3
		c0-1.2,0.4-2.2,1.1-3s1.5-1.2,2.4-1.2c0.6,0,1.2,0.2,1.8,0.5c0.5,0.4,1,0.9,1.3,1.5S310.2,22.3,310.2,23z M309.6,23
		c0-0.9-0.3-1.8-0.8-2.5c-0.5-0.7-1.2-1.1-2.1-1.1c-0.8,0-1.5,0.4-2.1,1.1s-0.9,1.6-0.9,2.6c0,1.1,0.3,1.9,0.9,2.6s1.3,1,2,1
		c0.9,0,1.6-0.4,2.1-1.1C309.3,24.8,309.6,24,309.6,23z"/>
	<path d="M315.4,24.6h-0.7l-2.2-5h-0.1v6.8h1.1c0.1,0,0.2,0,0.3,0.1s0.1,0.1,0.1,0.2c0,0.1,0,0.2-0.1,0.2s-0.2,0.1-0.3,0.1h-2.1
		c-0.1,0-0.2,0-0.3-0.1c-0.1-0.1-0.1-0.1-0.1-0.2c0-0.1,0-0.2,0.1-0.2c0.1-0.1,0.2-0.1,0.3-0.1h0.5v-6.8h-0.4c-0.1,0-0.2,0-0.3-0.1
		c-0.1-0.1-0.1-0.1-0.1-0.2s0-0.2,0.1-0.2c0.1-0.1,0.2-0.1,0.3-0.1h1.4l2.2,4.9l2.1-4.9h1.4c0.1,0,0.2,0,0.3,0.1
		c0.1,0.1,0.1,0.1,0.1,0.2s0,0.2-0.1,0.2c-0.1,0.1-0.2,0.1-0.3,0.1h-0.4v6.8h0.5c0.1,0,0.2,0,0.3,0.1c0.1,0.1,0.1,0.1,0.1,0.2
		c0,0.1,0,0.2-0.1,0.2c-0.1,0.1-0.2,0.1-0.3,0.1h-2.1c-0.1,0-0.2,0-0.3-0.1c-0.1-0.1-0.1-0.1-0.1-0.2c0-0.1,0-0.2,0.1-0.2
		c0.1-0.1,0.2-0.1,0.3-0.1h1.1v-6.8h-0.1L315.4,24.6z"/>
	<path d="M323.8,24.6h-0.7l-2.2-5h-0.1v6.8h1.1c0.1,0,0.2,0,0.3,0.1c0.1,0.1,0.1,0.1,0.1,0.2c0,0.1,0,0.2-0.1,0.2
		c-0.1,0.1-0.2,0.1-0.3,0.1h-2.1c-0.1,0-0.2,0-0.3-0.1c-0.1-0.1-0.1-0.1-0.1-0.2c0-0.1,0-0.2,0.1-0.2c0.1-0.1,0.2-0.1,0.3-0.1h0.5
		v-6.8h-0.4c-0.1,0-0.2,0-0.3-0.1c-0.1-0.1-0.1-0.1-0.1-0.2s0-0.2,0.1-0.2c0.1-0.1,0.2-0.1,0.3-0.1h1.4l2.2,4.9l2.1-4.9h1.4
		c0.1,0,0.2,0,0.3,0.1c0.1,0.1,0.1,0.1,0.1,0.2s0,0.2-0.1,0.2c-0.1,0.1-0.2,0.1-0.3,0.1h-0.4v6.8h0.5c0.1,0,0.2,0,0.3,0.1
		c0.1,0.1,0.1,0.1,0.1,0.2c0,0.1,0,0.2-0.1,0.2c-0.1,0.1-0.2,0.1-0.3,0.1h-2.1c-0.1,0-0.2,0-0.3-0.1c-0.1-0.1-0.1-0.1-0.1-0.2
		c0-0.1,0-0.2,0.1-0.2c0.1-0.1,0.2-0.1,0.3-0.1h1.1v-6.8H326L323.8,24.6z"/>
	<path d="M333.7,24.3H330l-0.8,2.1h1.1c0.1,0,0.2,0,0.3,0.1c0.1,0.1,0.1,0.1,0.1,0.2c0,0.1,0,0.2-0.1,0.2c-0.1,0.1-0.2,0.1-0.3,0.1
		h-2.1c-0.1,0-0.2,0-0.3-0.1c-0.1-0.1-0.1-0.1-0.1-0.2c0-0.1,0-0.2,0.1-0.2c0.1-0.1,0.2-0.1,0.3-0.1h0.4l2.5-6.8h-1.7
		c-0.1,0-0.2,0-0.3-0.1c-0.1-0.1-0.1-0.1-0.1-0.2s0-0.2,0.1-0.2c0.1-0.1,0.2-0.1,0.3-0.1h2.9l2.8,7.4h0.4c0.1,0,0.2,0,0.3,0.1
		c0.1,0.1,0.1,0.1,0.1,0.2c0,0.1,0,0.2-0.1,0.2c-0.1,0.1-0.2,0.1-0.3,0.1h-2.1c-0.1,0-0.2,0-0.3-0.1c-0.1-0.1-0.1-0.1-0.1-0.2
		c0-0.1,0-0.2,0.1-0.2c0.1-0.1,0.2-0.1,0.3-0.1h1.1L333.7,24.3z M333.5,23.8l-1.6-4.2h-0.2l-1.5,4.2H333.5z"/>
	<path d="M343.1,27h-0.7l-4.2-7.2v6.6h1.1c0.1,0,0.2,0,0.3,0.1c0.1,0.1,0.1,0.1,0.1,0.2c0,0.1,0,0.2-0.1,0.2
		c-0.1,0.1-0.2,0.1-0.3,0.1H337c-0.1,0-0.2,0-0.3-0.1c-0.1-0.1-0.1-0.1-0.1-0.2c0-0.1,0-0.2,0.1-0.2c0.1-0.1,0.2-0.1,0.3-0.1h0.5
		v-6.8h-0.8c-0.1,0-0.2,0-0.3-0.1c-0.1-0.1-0.1-0.1-0.1-0.2s0-0.2,0.1-0.2c0.1-0.1,0.2-0.1,0.3-0.1h1.5l4.2,7.2v-6.6h-1.1
		c-0.1,0-0.2,0-0.3-0.1c-0.1-0.1-0.1-0.1-0.1-0.2s0-0.2,0.1-0.2s0.2-0.1,0.3-0.1h2.1c0.1,0,0.2,0,0.3,0.1c0.1,0.1,0.1,0.1,0.1,0.2
		s0,0.2-0.1,0.2c-0.1,0.1-0.2,0.1-0.3,0.1h-0.5V27z"/>
	<path d="M346.4,26.4v-6.8h-0.5c-0.1,0-0.2,0-0.3-0.1c-0.1-0.1-0.1-0.1-0.1-0.2s0-0.2,0.1-0.2c0.1-0.1,0.2-0.1,0.3-0.1h3.1
		c0.5,0,0.9,0.1,1.3,0.3c0.4,0.2,0.7,0.4,0.9,0.7c0.4,0.4,0.6,0.9,0.8,1.4c0.1,0.4,0.2,0.8,0.2,1.2v0.8c0,0.6-0.1,1.2-0.4,1.7
		s-0.7,1-1.3,1.4c-0.5,0.3-1,0.5-1.6,0.5h-3.1c-0.1,0-0.2,0-0.3-0.1c-0.1-0.1-0.1-0.1-0.1-0.2c0-0.1,0-0.2,0.1-0.2
		c0.1-0.1,0.2-0.1,0.3-0.1H346.4z M347,26.4h2.1c0.5,0,0.9-0.2,1.4-0.5s0.7-0.7,0.9-1.1c0.2-0.4,0.3-0.9,0.3-1.3v-1
		c0-0.4-0.1-0.7-0.2-1c-0.2-0.4-0.4-0.8-0.7-1.2c-0.2-0.2-0.4-0.4-0.7-0.6c-0.3-0.2-0.7-0.2-1-0.2H347V26.4z"/>
	<path d="M357.3,19v9.2h1.4c0.1,0,0.2,0,0.3,0.1c0.1,0.1,0.1,0.1,0.1,0.2s0,0.2-0.1,0.2c-0.1,0.1-0.2,0.1-0.3,0.1h-2V18.4h2
		c0.1,0,0.2,0,0.3,0.1c0.1,0.1,0.1,0.1,0.1,0.2c0,0.1,0,0.2-0.1,0.2c-0.1,0.1-0.2,0.1-0.3,0.1H357.3z"/>
	<path d="M365.8,19.6v6.8h2c0.1,0,0.2,0,0.3,0.1c0.1,0.1,0.1,0.1,0.1,0.2c0,0.1,0,0.2-0.1,0.2c-0.1,0.1-0.2,0.1-0.3,0.1h-4.5
		c-0.1,0-0.2,0-0.3-0.1c-0.1-0.1-0.1-0.1-0.1-0.2c0-0.1,0-0.2,0.1-0.2c0.1-0.1,0.2-0.1,0.3-0.1h2v-6.8h-2c-0.1,0-0.2,0-0.3-0.1
		c-0.1-0.1-0.1-0.1-0.1-0.2s0-0.2,0.1-0.2c0.1-0.1,0.2-0.1,0.3-0.1h4.5c0.1,0,0.2,0,0.3,0.1c0.1,0.1,0.1,0.1,0.1,0.2s0,0.2-0.1,0.2
		c-0.1,0.1-0.2,0.1-0.3,0.1H365.8z"/>
	<path d="M376.4,19.8v-0.4c0-0.1,0-0.2,0.1-0.3s0.1-0.1,0.2-0.1c0.1,0,0.2,0,0.2,0.1c0.1,0.1,0.1,0.2,0.1,0.3V21
		c0,0.1,0,0.2-0.1,0.3c-0.1,0.1-0.1,0.1-0.2,0.1c-0.1,0-0.1,0-0.2-0.1s-0.1-0.1-0.1-0.3c0-0.4-0.2-0.7-0.6-1
		c-0.5-0.4-1.1-0.6-1.8-0.6c-0.4,0-0.9,0.1-1.2,0.3c-0.3,0.1-0.5,0.3-0.7,0.5c-0.3,0.4-0.5,0.7-0.7,1.2c-0.1,0.3-0.2,0.7-0.2,1.1v1
		c0,0.9,0.3,1.6,0.9,2.2c0.6,0.6,1.3,0.9,2.2,0.9c0.5,0,0.9-0.1,1.3-0.3c0.4-0.2,0.8-0.5,1.1-1c0.1-0.1,0.2-0.1,0.3-0.1
		c0.1,0,0.1,0,0.2,0.1c0.1,0.1,0.1,0.1,0.1,0.2c0,0.1-0.1,0.3-0.3,0.5c-0.4,0.4-0.8,0.7-1.3,0.9c-0.5,0.2-0.9,0.3-1.4,0.3
		c-0.4,0-0.8-0.1-1.3-0.2c-0.3-0.1-0.6-0.3-0.8-0.4c-0.2-0.2-0.5-0.4-0.8-0.8s-0.5-0.7-0.6-1.1c-0.1-0.3-0.2-0.7-0.2-1.1v-1.2
		c0-0.6,0.2-1.1,0.5-1.7s0.7-1,1.2-1.4c0.5-0.3,1.1-0.5,1.7-0.5C374.9,18.8,375.7,19.1,376.4,19.8z"/>
	<path d="M382,28.2V19h-1.4c-0.1,0-0.2,0-0.3-0.1c-0.1-0.1-0.1-0.1-0.1-0.2c0-0.1,0-0.2,0.1-0.2c0.1-0.1,0.2-0.1,0.3-0.1h2v10.3h-2
		c-0.1,0-0.2,0-0.3-0.1c-0.1-0.1-0.1-0.1-0.1-0.2c0-0.1,0-0.2,0.1-0.2c0.1-0.1,0.2-0.1,0.3-0.1H382z"/>
	<path d="M390.5,21.1h0.2c0.3,0,0.5,0.1,0.7,0.3c0.2,0.2,0.3,0.4,0.3,0.6c0,0.3-0.1,0.5-0.3,0.7c-0.2,0.2-0.4,0.3-0.7,0.3h-0.2
		c-0.3,0-0.5-0.1-0.7-0.3c-0.2-0.2-0.3-0.4-0.3-0.6c0-0.3,0.1-0.5,0.3-0.7C390.1,21.2,390.3,21.1,390.5,21.1z M390.5,25.4h0.2
		c0.3,0,0.5,0.1,0.7,0.3c0.2,0.2,0.3,0.4,0.3,0.7c0,0.3-0.1,0.5-0.3,0.7c-0.2,0.2-0.4,0.3-0.7,0.3h-0.2c-0.3,0-0.5-0.1-0.7-0.3
		c-0.2-0.2-0.3-0.4-0.3-0.7c0-0.3,0.1-0.5,0.3-0.7C390.1,25.4,390.3,25.4,390.5,25.4z"/>
	<path d="M401.1,19.6v-0.2c0-0.1,0-0.2,0.1-0.3s0.1-0.1,0.2-0.1c0.1,0,0.2,0,0.2,0.1c0.1,0.1,0.1,0.2,0.1,0.3v1.5
		c0,0.1,0,0.2-0.1,0.3c-0.1,0.1-0.1,0.1-0.2,0.1c-0.1,0-0.2,0-0.2-0.1c-0.1-0.1-0.1-0.1-0.1-0.3c0-0.4-0.2-0.7-0.6-1
		s-0.9-0.5-1.5-0.5c-0.6,0-1.1,0.2-1.5,0.5c-0.4,0.3-0.6,0.7-0.6,1.2c0,0.2,0.1,0.4,0.2,0.6c0.1,0.2,0.2,0.3,0.4,0.5
		c0.2,0.1,0.4,0.2,0.6,0.3s0.6,0.1,1,0.2c0.8,0.1,1.3,0.3,1.6,0.4c0.4,0.2,0.7,0.4,0.9,0.7c0.2,0.3,0.3,0.7,0.3,1.1
		c0,0.7-0.3,1.2-0.8,1.7c-0.5,0.5-1.2,0.7-2.1,0.7c-1,0-1.8-0.3-2.4-0.9v0.3c0,0.1,0,0.2-0.1,0.3c-0.1,0.1-0.1,0.1-0.2,0.1
		c-0.1,0-0.2,0-0.2-0.1s-0.1-0.2-0.1-0.3V25c0-0.1,0-0.2,0.1-0.3s0.1-0.1,0.2-0.1c0.1,0,0.1,0,0.2,0.1s0.1,0.1,0.1,0.3
		c0,0.4,0.2,0.8,0.7,1.1c0.4,0.3,1,0.5,1.7,0.5c0.7,0,1.3-0.2,1.7-0.5c0.4-0.4,0.6-0.8,0.6-1.3c0-0.3-0.1-0.6-0.2-0.8
		c-0.2-0.2-0.4-0.4-0.7-0.6c-0.2-0.1-0.7-0.2-1.4-0.3c-1-0.2-1.6-0.4-2.1-0.7c-0.4-0.3-0.6-0.8-0.6-1.4c0-0.6,0.2-1.1,0.7-1.6
		c0.5-0.4,1.1-0.6,1.9-0.6C399.8,18.8,400.5,19.1,401.1,19.6z"/>
	<path d="M410,19.8v-0.4c0-0.1,0-0.2,0.1-0.3s0.1-0.1,0.2-0.1c0.1,0,0.2,0,0.2,0.1c0.1,0.1,0.1,0.2,0.1,0.3V21c0,0.1,0,0.2-0.1,0.3
		c-0.1,0.1-0.1,0.1-0.2,0.1c-0.1,0-0.1,0-0.2-0.1S410,21.1,410,21c0-0.4-0.2-0.7-0.6-1c-0.5-0.4-1.1-0.6-1.8-0.6
		c-0.4,0-0.9,0.1-1.2,0.3c-0.3,0.1-0.5,0.3-0.7,0.5c-0.3,0.4-0.5,0.7-0.7,1.2c-0.1,0.3-0.2,0.7-0.2,1.1v1c0,0.9,0.3,1.6,0.9,2.2
		c0.6,0.6,1.3,0.9,2.2,0.9c0.5,0,0.9-0.1,1.3-0.3c0.4-0.2,0.8-0.5,1.1-1c0.1-0.1,0.2-0.1,0.3-0.1c0.1,0,0.1,0,0.2,0.1
		c0.1,0.1,0.1,0.1,0.1,0.2c0,0.1-0.1,0.3-0.3,0.5c-0.4,0.4-0.8,0.7-1.3,0.9c-0.5,0.2-0.9,0.3-1.4,0.3c-0.4,0-0.8-0.1-1.3-0.2
		c-0.3-0.1-0.6-0.3-0.8-0.4c-0.2-0.2-0.5-0.4-0.8-0.8s-0.5-0.7-0.6-1.1c-0.1-0.3-0.2-0.7-0.2-1.1v-1.2c0-0.6,0.2-1.1,0.5-1.7
		s0.7-1,1.2-1.4c0.5-0.3,1.1-0.5,1.7-0.5C408.5,18.8,409.3,19.1,410,19.8z"/>
	<path d="M417.9,19.6v-0.2c0-0.1,0-0.2,0.1-0.3s0.1-0.1,0.2-0.1c0.1,0,0.2,0,0.2,0.1c0.1,0.1,0.1,0.2,0.1,0.3v1.5
		c0,0.1,0,0.2-0.1,0.3c-0.1,0.1-0.1,0.1-0.2,0.1c-0.1,0-0.2,0-0.2-0.1c-0.1-0.1-0.1-0.1-0.1-0.3c0-0.4-0.2-0.7-0.6-1
		s-0.9-0.5-1.5-0.5c-0.6,0-1.1,0.2-1.5,0.5c-0.4,0.3-0.6,0.7-0.6,1.2c0,0.2,0.1,0.4,0.2,0.6c0.1,0.2,0.2,0.3,0.4,0.5
		c0.2,0.1,0.4,0.2,0.6,0.3s0.6,0.1,1,0.2c0.8,0.1,1.3,0.3,1.6,0.4c0.4,0.2,0.7,0.4,0.9,0.7c0.2,0.3,0.3,0.7,0.3,1.1
		c0,0.7-0.3,1.2-0.8,1.7c-0.5,0.5-1.2,0.7-2.1,0.7c-1,0-1.8-0.3-2.4-0.9v0.3c0,0.1,0,0.2-0.1,0.3c-0.1,0.1-0.1,0.1-0.2,0.1
		c-0.1,0-0.2,0-0.2-0.1s-0.1-0.2-0.1-0.3V25c0-0.1,0-0.2,0.1-0.3s0.1-0.1,0.2-0.1c0.1,0,0.1,0,0.2,0.1s0.1,0.1,0.1,0.3
		c0,0.4,0.2,0.8,0.7,1.1c0.4,0.3,1,0.5,1.7,0.5c0.7,0,1.3-0.2,1.7-0.5c0.4-0.4,0.6-0.8,0.6-1.3c0-0.3-0.1-0.6-0.2-0.8
		c-0.2-0.2-0.4-0.4-0.7-0.6c-0.2-0.1-0.7-0.2-1.4-0.3c-1-0.2-1.6-0.4-2.1-0.7c-0.4-0.3-0.6-0.8-0.6-1.4c0-0.6,0.2-1.1,0.7-1.6
		c0.5-0.4,1.1-0.6,1.9-0.6C416.7,18.8,417.3,19.1,417.9,19.6z"/>
	<path d="M426.8,19.8v-0.4c0-0.1,0-0.2,0.1-0.3s0.1-0.1,0.2-0.1c0.1,0,0.2,0,0.2,0.1c0.1,0.1,0.1,0.2,0.1,0.3V21
		c0,0.1,0,0.2-0.1,0.3c-0.1,0.1-0.1,0.1-0.2,0.1c-0.1,0-0.1,0-0.2-0.1s-0.1-0.1-0.1-0.3c0-0.4-0.2-0.7-0.6-1
		c-0.5-0.4-1.1-0.6-1.8-0.6c-0.4,0-0.9,0.1-1.2,0.3c-0.3,0.1-0.5,0.3-0.7,0.5c-0.3,0.4-0.5,0.7-0.7,1.2c-0.1,0.3-0.2,0.7-0.2,1.1v1
		c0,0.9,0.3,1.6,0.9,2.2c0.6,0.6,1.3,0.9,2.2,0.9c0.5,0,0.9-0.1,1.3-0.3c0.4-0.2,0.8-0.5,1.1-1c0.1-0.1,0.2-0.1,0.3-0.1
		c0.1,0,0.1,0,0.2,0.1c0.1,0.1,0.1,0.1,0.1,0.2c0,0.1-0.1,0.3-0.3,0.5c-0.4,0.4-0.8,0.7-1.3,0.9c-0.5,0.2-0.9,0.3-1.4,0.3
		c-0.4,0-0.8-0.1-1.3-0.2c-0.3-0.1-0.6-0.3-0.8-0.4c-0.2-0.2-0.5-0.4-0.8-0.8s-0.5-0.7-0.6-1.1c-0.1-0.3-0.2-0.7-0.2-1.1v-1.2
		c0-0.6,0.2-1.1,0.5-1.7s0.7-1,1.2-1.4c0.5-0.3,1.1-0.5,1.7-0.5C425.3,18.8,426.1,19.1,426.8,19.8z"/>
	<path d="M432.6,21.1h0.2c0.3,0,0.5,0.1,0.7,0.3c0.2,0.2,0.3,0.4,0.3,0.6c0,0.3-0.1,0.5-0.3,0.7c-0.2,0.2-0.4,0.3-0.7,0.3h-0.2
		c-0.3,0-0.5-0.1-0.7-0.3c-0.2-0.2-0.3-0.4-0.3-0.6c0-0.3,0.1-0.5,0.3-0.7C432.1,21.2,432.3,21.1,432.6,21.1z M432.6,25.4h0.2
		c0.3,0,0.5,0.1,0.7,0.3c0.2,0.2,0.3,0.4,0.3,0.7c0,0.3-0.1,0.5-0.3,0.7c-0.2,0.2-0.4,0.3-0.7,0.3h-0.2c-0.3,0-0.5-0.1-0.7-0.3
		c-0.2-0.2-0.3-0.4-0.3-0.7c0-0.3,0.1-0.5,0.3-0.7C432.1,25.4,432.3,25.4,432.6,25.4z"/>
	<path d="M443.9,18.4v8h0.8c0.1,0,0.2,0,0.3,0.1c0.1,0.1,0.1,0.1,0.1,0.2c0,0.1,0,0.2-0.1,0.2c-0.1,0.1-0.2,0.1-0.3,0.1h-1.3v-1.1
		c-0.7,0.9-1.5,1.4-2.5,1.4c-0.5,0-1-0.1-1.5-0.4s-0.9-0.7-1.1-1.2c-0.3-0.5-0.4-1-0.4-1.6c0-0.5,0.1-1.1,0.4-1.6
		c0.3-0.5,0.7-0.9,1.1-1.2s1-0.4,1.5-0.4c1,0,1.8,0.5,2.5,1.4V19h-0.8c-0.1,0-0.2,0-0.3-0.1c-0.1-0.1-0.1-0.1-0.1-0.2
		c0-0.1,0-0.2,0.1-0.2c0.1-0.1,0.2-0.1,0.3-0.1H443.9z M443.3,24.1c0-0.7-0.2-1.3-0.7-1.8s-1.1-0.8-1.8-0.8c-0.7,0-1.3,0.3-1.8,0.8
		s-0.7,1.1-0.7,1.8c0,0.7,0.2,1.3,0.7,1.8s1.1,0.8,1.8,0.8c0.7,0,1.3-0.3,1.8-0.8S443.3,24.8,443.3,24.1z"/>
	<path d="M451.9,21.7v-0.2c0-0.1,0-0.2,0.1-0.3s0.1-0.1,0.2-0.1c0.1,0,0.2,0,0.2,0.1s0.1,0.2,0.1,0.3v1.3c0,0.1,0,0.2-0.1,0.3
		c-0.1,0.1-0.1,0.1-0.2,0.1c-0.1,0-0.1,0-0.2-0.1s-0.1-0.1-0.1-0.3c0-0.3-0.2-0.6-0.6-0.9c-0.4-0.3-0.9-0.4-1.6-0.4
		c-0.9,0-1.5,0.3-1.9,0.8c-0.4,0.5-0.7,1.1-0.7,1.8c0,0.7,0.2,1.4,0.7,1.8c0.5,0.5,1.1,0.7,1.9,0.7c0.4,0,0.9-0.1,1.4-0.2
		s0.9-0.4,1.3-0.8c0.1-0.1,0.2-0.1,0.3-0.1c0.1,0,0.1,0,0.2,0.1c0.1,0.1,0.1,0.1,0.1,0.2c0,0.2-0.2,0.4-0.7,0.7
		c-0.7,0.5-1.6,0.7-2.5,0.7c-0.9,0-1.7-0.3-2.3-0.9c-0.6-0.6-0.9-1.3-0.9-2.2c0-0.9,0.3-1.7,0.9-2.3c0.6-0.6,1.4-0.9,2.3-0.9
		C450.5,20.9,451.3,21.1,451.9,21.7z"/>
	<path d="M460.7,18.4v8h0.8c0.1,0,0.2,0,0.3,0.1c0.1,0.1,0.1,0.1,0.1,0.2c0,0.1,0,0.2-0.1,0.2c-0.1,0.1-0.2,0.1-0.3,0.1h-1.3v-1.1
		c-0.7,0.9-1.5,1.4-2.5,1.4c-0.5,0-1-0.1-1.5-0.4s-0.9-0.7-1.1-1.2c-0.3-0.5-0.4-1-0.4-1.6c0-0.5,0.1-1.1,0.4-1.6
		c0.3-0.5,0.7-0.9,1.1-1.2s1-0.4,1.5-0.4c1,0,1.8,0.5,2.5,1.4V19h-0.8c-0.1,0-0.2,0-0.3-0.1c-0.1-0.1-0.1-0.1-0.1-0.2
		c0-0.1,0-0.2,0.1-0.2c0.1-0.1,0.2-0.1,0.3-0.1H460.7z M460.1,24.1c0-0.7-0.2-1.3-0.7-1.8s-1.1-0.8-1.8-0.8c-0.7,0-1.3,0.3-1.8,0.8
		s-0.7,1.1-0.7,1.8c0,0.7,0.2,1.3,0.7,1.8s1.1,0.8,1.8,0.8c0.7,0,1.3-0.3,1.8-0.8S460.1,24.8,460.1,24.1z"/>
	<path d="M468.7,21.7v-0.2c0-0.1,0-0.2,0.1-0.3s0.1-0.1,0.2-0.1c0.1,0,0.2,0,0.2,0.1s0.1,0.2,0.1,0.3v1.3c0,0.1,0,0.2-0.1,0.3
		c-0.1,0.1-0.1,0.1-0.2,0.1c-0.1,0-0.1,0-0.2-0.1s-0.1-0.1-0.1-0.3c0-0.3-0.2-0.6-0.6-0.9c-0.4-0.3-0.9-0.4-1.6-0.4
		c-0.9,0-1.5,0.3-1.9,0.8c-0.4,0.5-0.7,1.1-0.7,1.8c0,0.7,0.2,1.4,0.7,1.8c0.5,0.5,1.1,0.7,1.9,0.7c0.4,0,0.9-0.1,1.4-0.2
		s0.9-0.4,1.3-0.8c0.1-0.1,0.2-0.1,0.3-0.1c0.1,0,0.1,0,0.2,0.1c0.1,0.1,0.1,0.1,0.1,0.2c0,0.2-0.2,0.4-0.7,0.7
		c-0.7,0.5-1.6,0.7-2.5,0.7c-0.9,0-1.7-0.3-2.3-0.9c-0.6-0.6-0.9-1.3-0.9-2.2c0-0.9,0.3-1.7,0.9-2.3c0.6-0.6,1.4-0.9,2.3-0.9
		C467.3,20.9,468.1,21.1,468.7,21.7z"/>
	<path d="M474.6,25.4h0.2c0.3,0,0.5,0.1,0.7,0.3c0.2,0.2,0.3,0.4,0.3,0.7c0,0.3-0.1,0.5-0.3,0.7c-0.2,0.2-0.4,0.3-0.7,0.3h-0.2
		c-0.3,0-0.5-0.1-0.7-0.3c-0.2-0.2-0.3-0.4-0.3-0.7c0-0.3,0.1-0.5,0.3-0.7C474.1,25.4,474.3,25.4,474.6,25.4z"/>
	<path d="M483,25.4h0.2c0.3,0,0.5,0.1,0.7,0.3c0.2,0.2,0.3,0.4,0.3,0.7c0,0.3-0.1,0.5-0.3,0.7c-0.2,0.2-0.4,0.3-0.7,0.3H483
		c-0.3,0-0.5-0.1-0.7-0.3c-0.2-0.2-0.3-0.4-0.3-0.7c0-0.3,0.1-0.5,0.3-0.7C482.5,25.4,482.7,25.4,483,25.4z"/>
	<path d="M491.4,25.4h0.2c0.3,0,0.5,0.1,0.7,0.3c0.2,0.2,0.3,0.4,0.3,0.7c0,0.3-0.1,0.5-0.3,0.7c-0.2,0.2-0.4,0.3-0.7,0.3h-0.2
		c-0.3,0-0.5-0.1-0.7-0.3c-0.2-0.2-0.3-0.4-0.3-0.7c0-0.3,0.1-0.5,0.3-0.7C490.9,25.4,491.1,25.4,491.4,25.4z"/>
	<path d="M496.3,23l6.2-3.5c0.1-0.1,0.2-0.1,0.2-0.1c0.1,0,0.1,0,0.2,0.1s0.1,0.1,0.1,0.2c0,0.1-0.1,0.2-0.2,0.3l-5.3,3l5.3,3
		c0.2,0.1,0.2,0.2,0.2,0.3c0,0.1,0,0.1-0.1,0.2c-0.1,0.1-0.1,0.1-0.2,0.1c0,0-0.1,0-0.2-0.1L496.3,23z"/>
	<path d="M510.8,19.8v-0.4c0-0.1,0-0.2,0.1-0.3s0.1-0.1,0.2-0.1c0.1,0,0.2,0,0.2,0.1c0.1,0.1,0.1,0.2,0.1,0.3V21
		c0,0.1,0,0.2-0.1,0.3c-0.1,0.1-0.1,0.1-0.2,0.1c-0.1,0-0.1,0-0.2-0.1s-0.1-0.1-0.1-0.3c0-0.4-0.2-0.7-0.6-1
		c-0.5-0.4-1.1-0.6-1.8-0.6c-0.4,0-0.9,0.1-1.2,0.3c-0.3,0.1-0.5,0.3-0.7,0.5c-0.3,0.4-0.5,0.7-0.7,1.2c-0.1,0.3-0.2,0.7-0.2,1.1v1
		c0,0.9,0.3,1.6,0.9,2.2c0.6,0.6,1.3,0.9,2.2,0.9c0.5,0,0.9-0.1,1.3-0.3c0.4-0.2,0.8-0.5,1.1-1c0.1-0.1,0.2-0.1,0.3-0.1
		c0.1,0,0.1,0,0.2,0.1c0.1,0.1,0.1,0.1,0.1,0.2c0,0.1-0.1,0.3-0.3,0.5c-0.4,0.4-0.8,0.7-1.3,0.9c-0.5,0.2-0.9,0.3-1.4,0.3
		c-0.4,0-0.8-0.1-1.3-0.2c-0.3-0.1-0.6-0.3-0.8-0.4c-0.2-0.2-0.5-0.4-0.8-0.8s-0.5-0.7-0.6-1.1c-0.1-0.3-0.2-0.7-0.2-1.1v-1.2
		c0-0.6,0.2-1.1,0.5-1.7s0.7-1,1.2-1.4c0.5-0.3,1.1-0.5,1.7-0.5C509.3,18.8,510.1,19.1,510.8,19.8z"/>
	<path d="M514.8,23.4v3h1.1c0.1,0,0.2,0,0.3,0.1c0.1,0.1,0.1,0.1,0.1,0.2c0,0.1,0,0.2-0.1,0.2c-0.1,0.1-0.2,0.1-0.3,0.1h-2.4
		c-0.1,0-0.2,0-0.3-0.1c-0.1-0.1-0.1-0.1-0.1-0.2c0-0.1,0-0.2,0.1-0.2c0.1-0.1,0.2-0.1,0.3-0.1h0.8v-6.8h-0.8c-0.1,0-0.2,0-0.3-0.1
		c-0.1-0.1-0.1-0.1-0.1-0.2s0-0.2,0.1-0.2c0.1-0.1,0.2-0.1,0.3-0.1h3.5c0.7,0,1.3,0.2,1.8,0.7s0.7,1,0.7,1.5c0,0.4-0.2,0.8-0.5,1.2
		c-0.3,0.4-0.8,0.7-1.5,0.9c0.4,0.3,0.8,0.6,1.1,1c0.3,0.4,0.8,1.1,1.4,2.2h0.4c0.1,0,0.2,0,0.3,0.1c0.1,0.1,0.1,0.1,0.1,0.2
		c0,0.1,0,0.2-0.1,0.2c-0.1,0.1-0.2,0.1-0.3,0.1h-0.8c-0.7-1.3-1.3-2.1-1.7-2.6c-0.4-0.4-0.8-0.8-1.3-1H514.8z M514.8,22.9h1.6
		c0.5,0,1-0.1,1.4-0.3c0.4-0.2,0.7-0.4,0.9-0.6c0.2-0.2,0.3-0.5,0.3-0.8c0-0.4-0.2-0.7-0.6-1.1c-0.4-0.3-0.9-0.5-1.4-0.5h-2.1V22.9z
		"/>
	<path d="M528.6,23l-6.2,3.5c-0.1,0.1-0.2,0.1-0.2,0.1c-0.1,0-0.1,0-0.2-0.1c-0.1-0.1-0.1-0.1-0.1-0.2c0-0.1,0.1-0.2,0.2-0.3l5.3-3
		l-5.3-3c-0.2-0.1-0.2-0.2-0.2-0.3c0-0.1,0-0.1,0.1-0.2s0.1-0.1,0.2-0.1c0.1,0,0.1,0,0.2,0.1L528.6,23z"/>
	<path d="M530,23l6.2-3.5c0.1-0.1,0.2-0.1,0.2-0.1c0.1,0,0.1,0,0.2,0.1s0.1,0.1,0.1,0.2c0,0.1-0.1,0.2-0.2,0.3l-5.3,3l5.3,3
		c0.2,0.1,0.2,0.2,0.2,0.3c0,0.1,0,0.1-0.1,0.2c-0.1,0.1-0.1,0.1-0.2,0.1c0,0-0.1,0-0.2-0.1L530,23z"/>
	<path d="M540.9,19.6v6.8h3.8v-2.3c0-0.1,0-0.2,0.1-0.3s0.1-0.1,0.2-0.1c0.1,0,0.2,0,0.2,0.1s0.1,0.2,0.1,0.3V27h-6.3
		c-0.1,0-0.2,0-0.3-0.1c-0.1-0.1-0.1-0.1-0.1-0.2c0-0.1,0-0.2,0.1-0.2c0.1-0.1,0.2-0.1,0.3-0.1h1.4v-6.8h-1.4c-0.1,0-0.2,0-0.3-0.1
		c-0.1-0.1-0.1-0.1-0.1-0.2s0-0.2,0.1-0.2c0.1-0.1,0.2-0.1,0.3-0.1h3.3c0.1,0,0.2,0,0.3,0.1c0.1,0.1,0.1,0.1,0.1,0.2s0,0.2-0.1,0.2
		c-0.1,0.1-0.2,0.1-0.3,0.1H540.9z"/>
	<path d="M548.9,23.1v3.3h2c0.1,0,0.2,0,0.3,0.1c0.1,0.1,0.1,0.1,0.1,0.2c0,0.1,0,0.2-0.1,0.2c-0.1,0.1-0.2,0.1-0.3,0.1h-3.3
		c-0.1,0-0.2,0-0.3-0.1c-0.1-0.1-0.1-0.1-0.1-0.2c0-0.1,0-0.2,0.1-0.2c0.1-0.1,0.2-0.1,0.3-0.1h0.8v-6.8h-0.8c-0.1,0-0.2,0-0.3-0.1
		c-0.1-0.1-0.1-0.1-0.1-0.2s0-0.2,0.1-0.2c0.1,0,0.1-0.1,0.3-0.1h6.3v2c0,0.1,0,0.2-0.1,0.3s-0.1,0.1-0.2,0.1c-0.1,0-0.2,0-0.2-0.1
		s-0.1-0.2-0.1-0.3v-1.4h-4.4v3h2.1v-0.6c0-0.1,0-0.2,0.1-0.3s0.1-0.1,0.2-0.1c0.1,0,0.2,0,0.2,0.1s0.1,0.2,0.1,0.3v1.9
		c0,0.1,0,0.2-0.1,0.3s-0.1,0.1-0.2,0.1c-0.1,0-0.2,0-0.2-0.1s-0.1-0.2-0.1-0.3v-0.6H548.9z"/>
	<path d="M562.2,23l-6.2,3.5c-0.1,0.1-0.2,0.1-0.2,0.1c-0.1,0-0.1,0-0.2-0.1c-0.1-0.1-0.1-0.1-0.1-0.2c0-0.1,0.1-0.2,0.2-0.3l5.3-3
		l-5.3-3c-0.2-0.1-0.2-0.2-0.2-0.3c0-0.1,0-0.1,0.1-0.2s0.1-0.1,0.2-0.1c0.1,0,0.1,0,0.2,0.1L562.2,23z"/>
</g>
<g>
</g>
<g>
</g>
<g>
</g>
<g>
</g>
<g>
</g>
<g>
</g>
<g>
</g>
<g>
</g>
<g>
</g>
<g>
</g>
<g>
</g>
<g>
</g>
<g>
</g>
<g>
</g>
<g>
</g>
</svg>
