<?xml version="1.0" encoding="utf-8"?>
<!-- Generator: Adobe Illustrator 26.3.1, SVG Export Plug-In . SVG Version: 6.00 Build 0)  -->
<svg version="1.1" id="sosActive" xmlns="http://www.w3.org/2000/svg" xmlns:xlink="http://www.w3.org/1999/xlink" x="0px" y="0px"
	 width="44px" height="44px" viewBox="0 0 44 44" style="enable-background:new 0 0 44 44;" xml:space="preserve">
<style type="text/css">
	.st0{fill:none;}
	.st1{fill:#54575E;}
</style>
<rect id="rect" x="2" y="2" class="st0" width="40" height="40"/>
<path id="path" class="st1" d="M13.8,23.6c0.4,0.9,0.6,2,0.5,3c0,1.2-0.2,2.4-0.8,3.4c-0.5,0.9-1.2,1.7-2.1,2.2
	c-1,0.5-2,0.8-3.1,0.8s-2.2-0.3-3.2-0.8c-0.9-0.5-1.6-1.3-2-2.2c-0.5-0.9-0.7-1.9-0.7-2.9c0-0.2,0-0.4,0.1-0.5s0.2-0.2,0.4-0.2h1.8
	c0.2,0,0.3,0.1,0.5,0.2c0.1,0.1,0.2,0.3,0.3,0.5c0.1,0.6,0.4,1.2,0.9,1.7s1.2,0.7,1.9,0.7c0.8,0.1,1.5-0.2,2.1-0.7
	c0.5-0.5,0.7-1.2,0.7-1.9c0-0.5-0.1-0.9-0.4-1.3c-0.3-0.4-0.7-0.7-1.1-0.9c-0.5-0.3-1.2-0.6-2.2-1c-1.4-0.4-2.6-1.2-3.6-2.3
	c-0.8-1.2-1.2-2.6-1.2-4.1c0-1.1,0.2-2.2,0.7-3.2c0.4-0.9,1.1-1.7,1.9-2.2c1-0.6,2-0.9,3-0.9c1.1,0,2.1,0.3,3,0.9
	c0.8,0.6,1.5,1.3,2,2.2c0.4,0.9,0.6,1.8,0.7,2.7c0,0.2,0,0.4-0.1,0.5c-0.1,0.1-0.2,0.2-0.4,0.2h-1.9c-0.2,0-0.6-0.1-0.7-0.7
	c-0.1-0.6-0.3-1.2-0.8-1.6c-0.4-0.4-1-0.6-1.6-0.6c-0.6,0-1.3,0.2-1.7,0.6c-0.4,0.5-0.7,1.1-0.6,1.7C5.9,17.5,6,18,6.2,18.4
	c0.3,0.4,0.6,0.7,1,0.9c0.7,0.4,1.3,0.7,2,0.9c1,0.3,2,0.8,2.9,1.4C12.9,22.1,13.4,22.8,13.8,23.6 M28.3,19.4c0,1.2,0,2,0,2.6
	s0,1.4,0,2.6c0.1,2.2-0.5,4.4-1.7,6.3c-1,1.4-2.7,2.2-4.5,2.1c-1.8,0.1-3.4-0.7-4.5-2.1c-1.1-1.9-1.7-4.1-1.6-6.3c0-0.6,0-1.5,0-2.6
	s0-2,0-2.6c-0.1-2.2,0.5-4.4,1.7-6.2c1-1.4,2.7-2.2,4.4-2.2c1.8,0,3.4,0.8,4.4,2.2C27.8,15,28.4,17.2,28.3,19.4 M19.1,22
	c0,1.1,0,1.9,0,2.4c0,1.3,0.3,2.6,0.9,3.7c0.7,1.2,2.2,1.5,3.4,0.8c0.3-0.2,0.6-0.5,0.8-0.8c0.6-1.1,0.9-2.4,0.9-3.7
	c0-1.2,0-2,0-2.4c0-0.5,0-1.3,0-2.4c0.1-1.3-0.2-2.5-0.9-3.7c-0.7-1.2-2.2-1.5-3.4-0.8c-0.3,0.2-0.6,0.5-0.8,0.8
	c-0.6,1.1-0.9,2.4-0.8,3.7C19.1,20.1,19.1,20.9,19.1,22 M41.2,23.6c-0.4-0.8-0.9-1.5-1.6-2c-0.9-0.6-1.9-1.1-2.9-1.4
	c-0.7-0.3-1.4-0.6-2-0.9c-0.4-0.2-0.7-0.5-1-0.9c-0.2-0.4-0.3-0.9-0.3-1.3c0-0.6,0.2-1.3,0.6-1.7c0.5-0.4,1.1-0.6,1.7-0.6
	c0.6,0,1.2,0.2,1.6,0.6c0.4,0.4,0.7,1,0.8,1.6c0.2,0.6,0.5,0.7,0.7,0.7h1.9c0.2,0,0.3-0.1,0.4-0.2c0.1-0.2,0.2-0.3,0.1-0.5
	c0-0.9-0.3-1.8-0.7-2.7c-0.4-0.9-1.1-1.7-1.9-2.3c-0.9-0.6-1.9-0.9-3-0.9c-1,0-2,0.3-2.9,0.8c-0.8,0.5-1.5,1.3-1.9,2.2
	c-0.5,1-0.7,2.1-0.7,3.2c-0.1,1.5,0.3,2.9,1.2,4.1c1,1.1,2.2,1.9,3.6,2.3c1,0.4,1.7,0.7,2.2,1c0.4,0.2,0.8,0.5,1.1,0.9
	c0.3,0.4,0.4,0.9,0.4,1.3c0,0.7-0.2,1.4-0.7,1.9c-0.6,0.5-1.4,0.7-2.1,0.7s-1.4-0.2-1.9-0.7c-0.5-0.4-0.8-1-0.9-1.7
	c-0.1-0.2-0.2-0.3-0.3-0.5c-0.1-0.1-0.3-0.2-0.5-0.2h-1.9c-0.2,0-0.3,0.1-0.4,0.2c-0.1,0.2-0.2,0.3-0.1,0.5c0,1,0.3,2,0.7,2.9
	c0.5,0.9,1.2,1.7,2,2.2c1,0.6,2.1,0.9,3.2,0.8c1.1,0,2.2-0.2,3.1-0.8c0.9-0.5,1.6-1.3,2.1-2.2c0.5-1.1,0.8-2.2,0.8-3.4
	C41.7,25.5,41.5,24.5,41.2,23.6"/>
</svg>
