<?xml version="1.0" encoding="utf-8"?>
<!-- Generator: Adobe Illustrator 26.3.1, SVG Export Plug-In . SVG Version: 6.00 Build 0)  -->
<svg version="1.1" id="downloading" xmlns="http://www.w3.org/2000/svg" xmlns:xlink="http://www.w3.org/1999/xlink" x="0px"
	 y="0px" width="44px" height="44px" viewBox="0 0 44 44" style="enable-background:new 0 0 44 44;" xml:space="preserve">
<style type="text/css">
	.st0{fill:none;}
	.st1{fill:#54575E;}
</style>
<rect id="rect" x="2" y="2" class="st0" width="40" height="40"/>
<path id="path" class="st1" d="M20.7,28l-10-10l2.6-2.7l6.8,6.8V6.7h3.7v15.5l6.8-6.8l2.7,2.6l-10,10C22.6,28.7,21.4,28.7,20.7,28
	L20.7,28 M31.4,26.6v6.9H12.6v-6.9H8.9v8.8c0,1,0.8,1.9,1.9,1.9h22.5c1,0,1.9-0.8,1.9-1.9v-8.8C35.2,26.6,31.4,26.6,31.4,26.6z"/>
</svg>
