<?xml version="1.0" encoding="utf-8"?>
<!-- Generator: Adobe Illustrator 27.9.0, SVG Export Plug-In . SVG Version: 6.00 Build 0)  -->
<svg version="1.1" id="レイヤー_1" xmlns="http://www.w3.org/2000/svg" xmlns:xlink="http://www.w3.org/1999/xlink" x="0px"
	 y="0px" width="140px" height="116px" viewBox="0 0 140 116" style="enable-background:new 0 0 140 116;" xml:space="preserve">
<style type="text/css">
	.st0{fill:#FFFFFF;}
	.st1{fill:none;stroke:#000000;stroke-width:1.531;stroke-linecap:round;stroke-linejoin:round;stroke-miterlimit:500;}
	.st2{fill:none;stroke:#000000;stroke-width:0.383;stroke-linecap:round;stroke-linejoin:round;stroke-miterlimit:500;}
	.st3{fill:none;stroke:#000000;stroke-width:0.255;stroke-linecap:round;stroke-linejoin:round;stroke-miterlimit:500;}
	.st4{fill:none;stroke:#000000;stroke-width:0.765;stroke-linecap:round;stroke-linejoin:round;}
	.st5{fill:none;stroke:#000000;stroke-width:0.255;stroke-linecap:round;stroke-linejoin:round;}
	.st6{fill:none;stroke:#000000;stroke-width:0.383;stroke-linecap:round;stroke-linejoin:round;}
	.st7{fill:none;stroke:#000000;stroke-width:0.306;stroke-linecap:round;stroke-linejoin:round;}
</style>
<g>
	<path class="st0" d="M56.1,37.3l-4.8-1.5c0,0-2.5,0.8-5,2.2l-1.7-0.7L43,38.4l0.4,1.4c-2,1.1-9.2,5.7-6.9,10.4l2.9,2
		c0,0-1.3-2.6,3.1-6.7l1.9,1.9c0,0-0.2-2.5,2.9-5.3l1.8,1l1-0.9l-0.7-1.8C51.2,39.4,53.3,38.3,56.1,37.3"/>
	<path class="st1" d="M56.1,37.3l-4.8-1.5c0,0-2.5,0.8-5,2.2l-1.7-0.7L43,38.4l0.4,1.4c-2,1.1-9.2,5.7-6.9,10.4l2.9,2
		c0,0-1.3-2.6,3.1-6.7l1.9,1.9c0,0-0.2-2.5,2.9-5.3l1.8,1l1-0.9l-0.7-1.8C51.2,39.4,53.3,38.3,56.1,37.3z"/>
	<path class="st0" d="M42.1,44.9l2.5,2.5c0,0-0.4-5.9,11.5-10.1l-4.8-1.5C51.3,35.8,40.5,39.1,42.1,44.9"/>
	<path class="st2" d="M42.1,44.9l2.5,2.5c0,0-0.4-5.9,11.5-10.1l-4.8-1.5C51.3,35.8,40.5,39.1,42.1,44.9z"/>
	<polyline class="st0" points="43.5,40 43,38.4 44.6,37.3 49.1,39.1 50.3,42.2 49.3,43.1 	"/>
	<polyline class="st2" points="43.5,40 43,38.4 44.6,37.3 49.1,39.1 50.3,42.2 49.3,43.1 	"/>
	<path class="st0" d="M112.3,60.1c-0.6-0.5-13.9-12.4-38.2-11.5c-7.4,0.3-15.2-1.6-21-3.5l-0.1,0C44,41.5,36.6,34.7,36.5,34.6
		c0,0,0,0,0,0l-4.1-3.5C21,21.7,11.2,13.5,5.9,18.5c-1.1,1-1.8,2.1-2.1,3.3c-0.8,1.1-1.1,2.3-1,3.5C3,26.9,4,28.5,5.5,30.1
		c2.5,5.6,12.6,10.4,21.7,14.6c4.1,1.9,8,3.7,10.3,5.3c2.5,1.7,5.9,4.8,9.4,8.2c6.8,6.4,14.3,13.6,20.4,14.8
		c11.6,12.4,23.4,15.2,24,15.4c0.6,0.1,1.4-0.2,1.6-0.9c0.2-0.6-0.1-1.2-0.8-1.4c-0.1,0-10.7-2.6-21.4-13.1c0,0,0.1,0,0.1,0
		c0.2-0.1,0.4-0.1,0.6-0.2c1.1,0.2,2.2,0.3,3.3,0.1c1.9-0.4,3.5-1.4,4.7-3.2c0.4-0.6,0.6-1.2,0.8-1.8c0,0,0.1-0.1,0.1-0.1
		c0.9-1.4,1.1-2.9,0.7-4.4c-1.3-4.4-8.1-8.9-15.4-12.6c2.8,0.4,5.7,0.6,8.5,0.5c23.4-0.8,36.6,10.8,36.7,11c0.5,0.4,1.2,0.4,1.6-0.2
		C112.9,61.4,112.8,60.6,112.3,60.1 M11.3,22.6c0.7-0.1,1.6,0,2.5,0.2c4.5,2.5,10.2,7.2,15.9,12c0,0,2.6,2.2,3.7,3.1
		c0.5,0.6,1.1,1.2,1.6,1.8l0.1,0.1c0.8,0.9,1.7,1.8,2.6,2.7c-0.1,0.2,0,0.5,0,0.7c-2.4-1.3-5.3-2.7-8.3-4.1
		c-8.3-4-18.3-8.8-21.9-13.2c0.2-0.6,0.6-1.3,1.2-1.9C9.4,23.2,10.3,22.8,11.3,22.6z M73.6,68.3c-0.1,0.1-0.1,0.2-0.2,0.3
		c-3-0.5-6.9-2.8-10.8-5.8c-0.1-0.2-0.2-0.3-0.3-0.5c-2.3-3.6-5.3-6.9-8.3-9.8c0.6,0.3,1,0.5,1,0.5C65.4,58.3,76.2,63.8,73.6,68.3z
		 M6.7,22c0.6-0.5,1.3-0.8,2.1-0.8c-0.6,0.4-1.1,0.8-1.6,1.3c-0.3,0.4-0.6,0.7-0.9,1.1c-0.1-0.2-0.1-0.4-0.1-0.6c0-0.2,0-0.3,0-0.5
		C6.3,22.3,6.5,22.1,6.7,22z M75.9,68.5c1.7-3.7-1.2-7-6.2-10.4c4.6,2.9,7.5,5.6,8.1,7.9c0.1,0.4,0.1,0.8,0.1,1.2
		C77.3,67.8,76.7,68.3,75.9,68.5z"/>
	<path class="st1" d="M112.3,60.1c-0.6-0.5-13.9-12.4-38.2-11.5c-7.4,0.3-15.2-1.6-21-3.5l-0.1,0C44,41.5,36.6,34.7,36.5,34.6
		c0,0,0,0,0,0l-4.1-3.5C21,21.7,11.2,13.5,5.9,18.5c-1.1,1-1.8,2.1-2.1,3.3c-0.8,1.1-1.1,2.3-1,3.5C3,26.9,4,28.5,5.5,30.1
		c2.5,5.6,12.6,10.4,21.7,14.6c4.1,1.9,8,3.7,10.3,5.3c2.5,1.7,5.9,4.8,9.4,8.2c6.8,6.4,14.3,13.6,20.4,14.8
		c11.6,12.4,23.4,15.2,24,15.4c0.6,0.1,1.4-0.2,1.6-0.9c0.2-0.6-0.1-1.2-0.8-1.4c-0.1,0-10.7-2.6-21.4-13.1c0,0,0.1,0,0.1,0
		c0.2-0.1,0.4-0.1,0.6-0.2c1.1,0.2,2.2,0.3,3.3,0.1c1.9-0.4,3.5-1.4,4.7-3.2c0.4-0.6,0.6-1.2,0.8-1.8c0,0,0.1-0.1,0.1-0.1
		c0.9-1.4,1.1-2.9,0.7-4.4c-1.3-4.4-8.1-8.9-15.4-12.6c2.8,0.4,5.7,0.6,8.5,0.5c23.4-0.8,36.6,10.8,36.7,11c0.5,0.4,1.2,0.4,1.6-0.2
		C112.9,61.4,112.8,60.6,112.3,60.1z M11.3,22.6c0.7-0.1,1.6,0,2.5,0.2c4.5,2.5,10.2,7.2,15.9,12c0,0,2.6,2.2,3.7,3.1
		c0.5,0.6,1.1,1.2,1.6,1.8l0.1,0.1c0.8,0.9,1.7,1.8,2.6,2.7c-0.1,0.2,0,0.5,0,0.7c-2.4-1.3-5.3-2.7-8.3-4.1
		c-8.3-4-18.3-8.8-21.9-13.2c0.2-0.6,0.6-1.3,1.2-1.9C9.4,23.2,10.3,22.8,11.3,22.6z M73.6,68.3c-0.1,0.1-0.1,0.2-0.2,0.3
		c-3-0.5-6.9-2.8-10.8-5.8c-0.1-0.2-0.2-0.3-0.3-0.5c-2.3-3.6-5.3-6.9-8.3-9.8c0.6,0.3,1,0.5,1,0.5C65.4,58.3,76.2,63.8,73.6,68.3z
		 M6.7,22c0.6-0.5,1.3-0.8,2.1-0.8c-0.6,0.4-1.1,0.8-1.6,1.3c-0.3,0.4-0.6,0.7-0.9,1.1c-0.1-0.2-0.1-0.4-0.1-0.6c0-0.2,0-0.3,0-0.5
		C6.3,22.3,6.5,22.1,6.7,22z M75.9,68.5c1.7-3.7-1.2-7-6.2-10.4c4.6,2.9,7.5,5.6,8.1,7.9c0.1,0.4,0.1,0.8,0.1,1.2
		C77.3,67.8,76.7,68.3,75.9,68.5z"/>
	<path class="st0" d="M44.7,44.6l-0.3-0.1c-0.6-0.3-0.9-1-0.7-1.7c0.2-0.7,0.8-1,1.4-0.8l0.4,0.2c4.8,2,17.1,6.7,28.5,6.3
		c24.4-0.9,37.7,11,38.2,11.5c0.5,0.4,0.6,1.2,0.2,1.8c-0.4,0.5-1.1,0.6-1.6,0.2c-0.1-0.1-13.3-11.8-36.7-11
		C62.8,51.5,50.8,47.2,44.7,44.6"/>
	<path class="st2" d="M44.7,44.6l-0.3-0.1c-0.6-0.3-0.9-1-0.7-1.7c0.2-0.7,0.8-1,1.4-0.8l0.4,0.2c4.8,2,17.1,6.7,28.5,6.3
		c24.4-0.9,37.7,11,38.2,11.5c0.5,0.4,0.6,1.2,0.2,1.8c-0.4,0.5-1.1,0.6-1.6,0.2c-0.1-0.1-13.3-11.8-36.7-11
		C62.8,51.5,50.8,47.2,44.7,44.6z"/>
	<path class="st3" d="M73.7,49.9c24.4-0.9,37.7,11,38.2,11.5"/>
	<path class="st0" d="M40,41.9l-0.3-0.2c-0.5-0.3-1.4-0.2-1.8,0.3c-0.4,0.5-0.4,1.2,0.2,1.6l0.4,0.2C42.9,46.6,53.8,54,60,63.6
		c13.2,20.5,30.6,24.6,31.4,24.8c0.6,0.1,1.4-0.2,1.6-0.9c0.2-0.6-0.1-1.2-0.8-1.4c-0.2,0-17.3-4.1-30-23.8
		C56,52.7,45.6,45.4,40,41.9"/>
	<path class="st2" d="M40,41.9l-0.3-0.2c-0.5-0.3-1.4-0.2-1.8,0.3c-0.4,0.5-0.4,1.2,0.2,1.6l0.4,0.2C42.9,46.6,53.8,54,60,63.6
		c13.2,20.5,30.6,24.6,31.4,24.8c0.6,0.1,1.4-0.2,1.6-0.9c0.2-0.6-0.1-1.2-0.8-1.4c-0.2,0-17.3-4.1-30-23.8
		C56,52.7,45.6,45.4,40,41.9z"/>
	<path class="st3" d="M60.8,62.6C74.1,83,91.5,87.2,92.2,87.3"/>
	<path class="st0" d="M5.9,18.5c-1.6,1.5-2.4,3.2-2.2,4.9C4.3,29.7,17,35.8,28.2,41.1c4.9,2.3,9.4,4.5,12.1,6.3
		c2.5,1.7,5.9,4.7,9.4,7.8c8.9,7.9,19,16.9,26,15.6c1.9-0.4,3.5-1.4,4.7-3.2c0.9-1.4,1.1-2.9,0.7-4.4c-2-7.1-18.4-14.4-28-18.2
		L52.9,45C44,41.5,36.6,34.7,36.5,34.6c0,0,0,0,0,0l-4.1-3.5C21,21.7,11.2,13.5,5.9,18.5 M6.2,23c-0.1-1,0.3-2,1.4-2.9
		c3.6-3.4,13.5,4.9,23,12.8c0,0,4.1,3.4,4.1,3.4c0.4,0.4,7.8,7.2,17.1,10.8l0.2,0.1c15.4,6,25.4,12.3,26.7,16.8
		c0.3,0.9,0.2,1.8-0.4,2.6c-0.7,1.1-1.7,1.8-2.8,2c-5.7,1-16.3-8.3-24-15.1c-3.6-3.2-7-6.2-9.7-8c-2.8-1.9-7.5-4.1-12.4-6.5
		C19.3,34.2,6.7,28.1,6.2,23z"/>
	<path class="st2" d="M5.9,18.5c-1.6,1.5-2.4,3.2-2.2,4.9C4.3,29.7,17,35.8,28.2,41.1c4.9,2.3,9.4,4.5,12.1,6.3
		c2.5,1.7,5.9,4.7,9.4,7.8c8.9,7.9,19,16.9,26,15.6c1.9-0.4,3.5-1.4,4.7-3.2c0.9-1.4,1.1-2.9,0.7-4.4c-2-7.1-18.4-14.4-28-18.2
		L52.9,45C44,41.5,36.6,34.7,36.5,34.6c0,0,0,0,0,0l-4.1-3.5C21,21.7,11.2,13.5,5.9,18.5z M6.2,23c-0.1-1,0.3-2,1.4-2.9
		c3.6-3.4,13.5,4.9,23,12.8c0,0,4.1,3.4,4.1,3.4c0.4,0.4,7.8,7.2,17.1,10.8l0.2,0.1c15.4,6,25.4,12.3,26.7,16.8
		c0.3,0.9,0.2,1.8-0.4,2.6c-0.7,1.1-1.7,1.8-2.8,2c-5.7,1-16.3-8.3-24-15.1c-3.6-3.2-7-6.2-9.7-8c-2.8-1.9-7.5-4.1-12.4-6.5
		C19.3,34.2,6.7,28.1,6.2,23z"/>
	<path class="st0" d="M56.3,50.8l-4.5-2.3c0,0,0,0-0.1,0c-0.1,0-8.9-3.9-14.7-10.4l-0.1-0.1c-6.1-7-17.5-18.5-25.4-17.6
		c-1.7,0.2-3.2,1-4.4,2.3c-1.6,1.7-2.3,3.5-2.2,5.3c0.3,6.6,12,12,22.2,16.9c4.1,1.9,8,3.7,10.3,5.3c2.5,1.7,5.9,4.8,9.4,8.2
		C55.1,66,64.4,74.8,71,72.9c1.9-0.5,3.4-1.8,4.6-3.8C79.5,62.5,68.7,57.1,56.3,50.8 M48.8,56.3c-3.6-3.4-7-6.7-9.6-8.4
		c-2.5-1.6-6.4-3.5-10.6-5.4c-8.9-4.1-21-9.8-21.2-15.3c-0.1-1.1,0.4-2.2,1.4-3.3c0.7-0.7,1.5-1.2,2.6-1.3c5-0.6,13.8,5.8,23.7,17
		l0.1,0.1c5.9,6.8,14.7,10.6,15.2,10.9c0,0,4.5,2.3,4.5,2.3c10.5,5.3,21.3,10.8,18.7,15.3c-0.7,1.3-1.6,2-2.7,2.3
		C65.4,72.1,56.2,63.3,48.8,56.3z"/>
	<path class="st2" d="M56.3,50.8l-4.5-2.3c0,0,0,0-0.1,0c-0.1,0-8.9-3.9-14.7-10.4l-0.1-0.1c-6.1-7-17.5-18.5-25.4-17.6
		c-1.7,0.2-3.2,1-4.4,2.3c-1.6,1.7-2.3,3.5-2.2,5.3c0.3,6.6,12,12,22.2,16.9c4.1,1.9,8,3.7,10.3,5.3c2.5,1.7,5.9,4.8,9.4,8.2
		C55.1,66,64.4,74.8,71,72.9c1.9-0.5,3.4-1.8,4.6-3.8C79.5,62.5,68.7,57.1,56.3,50.8z M48.8,56.3c-3.6-3.4-7-6.7-9.6-8.4
		c-2.5-1.6-6.4-3.5-10.6-5.4c-8.9-4.1-21-9.8-21.2-15.3c-0.1-1.1,0.4-2.2,1.4-3.3c0.7-0.7,1.5-1.2,2.6-1.3c5-0.6,13.8,5.8,23.7,17
		l0.1,0.1c5.9,6.8,14.7,10.6,15.2,10.9c0,0,4.5,2.3,4.5,2.3c10.5,5.3,21.3,10.8,18.7,15.3c-0.7,1.3-1.6,2-2.7,2.3
		C65.4,72.1,56.2,63.3,48.8,56.3z"/>
	<path class="st0" d="M5,20.4c-1.6,1.5-2.3,3.2-2.2,4.9C3.4,31.6,16.1,37.7,27.3,43c4.9,2.3,9.4,4.5,12.1,6.3
		c2.5,1.7,5.9,4.7,9.4,7.8c8.9,7.9,19,16.9,26,15.6c1.9-0.4,3.5-1.4,4.7-3.2c0.9-1.4,1.1-2.9,0.7-4.4c-2-7.1-18.4-14.4-28-18.2
		l-0.2-0.1c-9-3.5-16.4-10.4-16.4-10.4c0,0,0,0-0.1,0L31.4,33C20.1,23.6,10.4,15.4,5,20.4 M5.3,24.9c-0.1-1,0.3-2,1.4-2.9
		c3.6-3.4,13.5,4.9,23,12.9c0,0,4.1,3.4,4.1,3.4c0.4,0.4,7.8,7.2,17.1,10.9l0.2,0.1c15.4,6,25.4,12.3,26.7,16.8
		c0.3,0.9,0.2,1.8-0.4,2.6c-0.7,1.1-1.7,1.8-2.8,2c-5.7,1-16.3-8.3-24-15.1c-3.6-3.2-7-6.2-9.7-8c-2.8-1.9-7.5-4.1-12.4-6.5
		C18.4,36.1,5.8,30,5.3,24.9z"/>
	<path class="st2" d="M5,20.4c-1.6,1.5-2.3,3.2-2.2,4.9C3.4,31.6,16.1,37.7,27.3,43c4.9,2.3,9.4,4.5,12.1,6.3
		c2.5,1.7,5.9,4.7,9.4,7.8c8.9,7.9,19,16.9,26,15.6c1.9-0.4,3.5-1.4,4.7-3.2c0.9-1.4,1.1-2.9,0.7-4.4c-2-7.1-18.4-14.4-28-18.2
		l-0.2-0.1c-9-3.5-16.4-10.4-16.4-10.4c0,0,0,0-0.1,0L31.4,33C20.1,23.6,10.4,15.4,5,20.4z M5.3,24.9c-0.1-1,0.3-2,1.4-2.9
		c3.6-3.4,13.5,4.9,23,12.9c0,0,4.1,3.4,4.1,3.4c0.4,0.4,7.8,7.2,17.1,10.9l0.2,0.1c15.4,6,25.4,12.3,26.7,16.8
		c0.3,0.9,0.2,1.8-0.4,2.6c-0.7,1.1-1.7,1.8-2.8,2c-5.7,1-16.3-8.3-24-15.1c-3.6-3.2-7-6.2-9.7-8c-2.8-1.9-7.5-4.1-12.4-6.5
		C18.4,36.1,5.8,30,5.3,24.9z"/>
	<path class="st3" d="M27.8,41.7c4.9,2.3,9.4,4.5,12.1,6.3c2.5,1.7,5.9,4.7,9.4,7.8l5.2,4.6c7.5,6.4,15.2,12.2,20.9,11.1
		c1.9-0.3,3.5-1.4,4.7-3.2 M80.7,64.3c-2-7.1-18.4-14.4-28-18.1L52.5,46c-9-3.5-16.4-10.4-16.4-10.4 M9.1,20.3c0,0,3.3-1.3,13.3,7.1
		"/>
	<path class="st2" d="M51.5,50.1c0,0,4.5,2.3,4.5,2.3c10.5,5.3,21.3,10.8,18.7,15.3"/>
	<path class="st0" d="M87.5,95.1l-5.2-6.8c0,0-1.5-1.5-0.5-2.6c1-1.1,2.9-3.1,2.9-3.1s0.7-1,2.3-0.5c2,0.7,5.8,2.2,5.8,2.2"/>
	<path class="st4" d="M87.5,95.1l-5.2-6.8c0,0-1.5-1.5-0.5-2.6c1-1.1,2.9-3.1,2.9-3.1s0.7-1,2.3-0.5c2,0.7,5.8,2.2,5.8,2.2"/>
	<path class="st5" d="M87.3,82l-4.2,4.3c-0.7,0.7-0.9,1.9-0.6,2.8 M88.8,82.8l-4.4,4.5c-0.7,0.7-1,2-0.6,3 M90.5,83.7l-4.6,4.7
		c-0.7,0.7-1,2.2-0.6,3.1"/>
	<path class="st0" d="M105.5,89.6L105.5,89.6l-6.8-4.1c-2.5-1.4-5.2-1.1-5.9-1.1c-0.5,0-1,0.1-1.4,0.5l-4.6,4.7
		c-0.7,0.7-1,2.2-0.6,3.1c0,0,0.7,1.5,0.9,1.9c0.5,0.7,1.3,1.9,1.7,2.4c0.7,0.7,8,7.5,8,7.5l0,0c0.6,0.9,1.7,0.9,2.6,0l7.3-7.4
		c1-1.1,1.5-3.1,0.9-4.5l-0.8-1.9C106.5,90.1,106,89.6,105.5,89.6"/>
	<path class="st4" d="M105.5,89.6L105.5,89.6l-6.8-4.1c-2.5-1.4-5.2-1.1-5.9-1.1c-0.5,0-1,0.1-1.4,0.5l-4.6,4.7
		c-0.7,0.7-1,2.2-0.6,3.1c0,0,0.7,1.5,0.9,1.9c0.5,0.7,1.3,1.9,1.7,2.4c0.7,0.7,8,7.5,8,7.5l0,0c0.6,0.9,1.7,0.9,2.6,0l7.3-7.4
		c1-1.1,1.5-3.1,0.9-4.5l-0.8-1.9C106.5,90.1,106,89.6,105.5,89.6z"/>
	<path class="st0" d="M98.7,85.5c-2.5-1.4-5.2-1.1-5.9-1.1c-0.5,0-1,0.1-1.4,0.5l-4.6,4.7c-0.7,0.7-1,2.2-0.6,3.1
		c0,0,0.7,1.5,0.9,1.9c0.5,0.7,1.3,1.9,1.7,2.4c0.7,0.7,8,7.5,8,7.5l8.8-15.1L98.7,85.5"/>
	<path class="st6" d="M98.7,85.5c-2.5-1.4-5.2-1.1-5.9-1.1c-0.5,0-1,0.1-1.4,0.5l-4.6,4.7c-0.7,0.7-1,2.2-0.6,3.1
		c0,0,0.7,1.5,0.9,1.9c0.5,0.7,1.3,1.9,1.7,2.4c0.7,0.7,8,7.5,8,7.5l8.8-15.1L98.7,85.5z"/>
	<path class="st0" d="M103.9,90.2l-0.7,0.8c0,0-2.9-1.7-5.4,1.9c-1.4,2-0.9,4.5-0.9,4.5l-0.3,0.3c-1,1.1-1.5,3.1-0.9,4.5l0.8,1.9
		c0.5,1.4,1.8,1.7,2.9,0.6l7.3-7.4c1-1.1,1.5-3.1,0.9-4.5l-0.8-1.9C106.3,89.4,105,89.1,103.9,90.2"/>
	<path class="st6" d="M103.9,90.2l-0.7,0.8c0,0-2.9-1.7-5.4,1.9c-1.4,2-0.9,4.5-0.9,4.5l-0.3,0.3c-1,1.1-1.5,3.1-0.9,4.5l0.8,1.9
		c0.5,1.4,1.8,1.7,2.9,0.6l7.3-7.4c1-1.1,1.5-3.1,0.9-4.5l-0.8-1.9C106.3,89.4,105,89.1,103.9,90.2z"/>
	<path class="st0" d="M101.7,89c0,0-4.4-2.5-5.8-3c-1.6-0.6-5-0.3-5-0.3"/>
	<path class="st6" d="M101.7,89c0,0-4.4-2.5-5.8-3c-1.6-0.6-5-0.3-5-0.3"/>
	<line class="st0" x1="96.5" y1="97.2" x2="87.5" y2="90.3"/>
	<line class="st6" x1="96.5" y1="97.2" x2="87.5" y2="90.3"/>
	<path class="st4" d="M105.5,89.6L105.5,89.6l-6.8-4.1c-2.5-1.4-5.2-1.1-5.9-1.1c-0.5,0-1,0.1-1.4,0.5l-4.6,4.7
		c-0.7,0.7-1,2.2-0.6,3.1c0,0,0.7,1.5,0.9,1.9c0.5,0.7,1.3,1.9,1.7,2.4c0.7,0.7,8,7.5,8,7.5l0,0c0.6,0.9,1.7,0.9,2.6,0l7.3-7.4
		c1-1.1,1.5-3.1,0.9-4.5l-0.8-1.9C106.5,90.1,106,89.6,105.5,89.6z"/>
	<polyline class="st0" points="106.6,105.2 105.5,106.1 101.2,101.4 98.6,98.4 99.7,97.5 105.1,101.3 106.6,105.2 	"/>
	<polygon class="st6" points="106.6,105.2 105.5,106.1 101.2,101.4 98.6,98.4 99.7,97.5 105.1,101.3 	"/>
	<polyline class="st0" points="105.5,106.1 100.1,102.3 98.6,98.4 104,102.2 105.5,106.1 	"/>
	<polygon class="st5" points="105.5,106.1 100.1,102.3 98.6,98.4 104,102.2 	"/>
	<polyline class="st0" points="111.5,100 110.5,100.9 106.1,96.2 103.5,93.2 104.6,92.3 110,96.1 111.5,100 	"/>
	<polygon class="st6" points="111.5,100 110.5,100.9 106.1,96.2 103.5,93.2 104.6,92.3 110,96.1 	"/>
	<polyline class="st0" points="110.5,100.9 105,97.1 103.5,93.2 108.9,97 110.5,100.9 	"/>
	<polygon class="st5" points="110.5,100.9 105,97.1 103.5,93.2 108.9,97 	"/>
	<path class="st4" d="M105,97.1l5.4,3.8l1.1-0.9l-1.5-3.9l-5.4-3.8 M100.1,102.3l5.4,3.8l1.1-0.9l-1.5-3.9l-5.4-3.8"/>
	<path class="st0" d="M100.6,92.9l6.9,5c0.4,0.3,0.5,0.9,0.2,1.3c-0.3,0.4-0.9,0.5-1.3,0.2l-6.9-5"/>
	<path class="st4" d="M100.6,92.9l6.9,5c0.4,0.3,0.5,0.9,0.2,1.3c-0.3,0.4-0.9,0.5-1.3,0.2l-6.9-5"/>
	<path class="st6" d="M99.5,94.5c-0.4-0.3-0.5-0.9-0.2-1.3c0.3-0.4,0.9-0.5,1.3-0.2"/>
	<path class="st0" d="M36.6,50.2l2.9,2c0,0-2.2-4.4,8.7-10.8L44,39.6C44,39.6,33.9,44.8,36.6,50.2"/>
	<path class="st2" d="M36.6,50.2l2.9,2c0,0-2.2-4.4,8.7-10.8L44,39.6C44,39.6,33.9,44.8,36.6,50.2z"/>
	<path class="st3" d="M39.5,44.1l2.1,0.9l-1.2,1.2 M48.7,37.8l2.4,0.8L49.9,39 M50.6,36.8l2.4,0.8L51.8,38 M41.8,42.2l2.1,0.9
		l-1.4,1 M43.7,40.8l2.1,0.9l-1,0.6"/>
	<path class="st0" d="M113.4,69.4l-5-6.5c0,0-1.4-1.4-0.5-2.5c0.9-1,2.8-3,2.8-3s0.7-1,2.2-0.5c1.9,0.6,5.5,2.1,5.5,2.1"/>
	<path class="st4" d="M113.4,69.4l-5-6.5c0,0-1.4-1.4-0.5-2.5c0.9-1,2.8-3,2.8-3s0.7-1,2.2-0.5c1.9,0.6,5.5,2.1,5.5,2.1"/>
	<path class="st5" d="M113.2,56.9l-4,4.1c-0.6,0.6-0.9,1.9-0.6,2.7 M114.6,57.7l-4.2,4.3c-0.7,0.7-0.9,2-0.6,2.9 M116.3,58.5
		l-4.4,4.5c-0.7,0.7-1,2.1-0.6,3"/>
	<path class="st0" d="M128.8,62.5L128.8,62.5l-4.6-2.3c-2.4-1.3-4.9-1.1-5.6-1.1c-0.5,0-1,0.1-1.3,0.5l-4.4,4.5
		c-0.7,0.7-1,2.1-0.6,3c0,0,0.6,1.5,0.9,1.9c0.4,0.7,1.2,1.8,1.7,2.3c0.7,0.7,5.7,5.6,5.7,5.6l0,0c0.6,0.8,1.6,0.9,2.5,0l7-7.1
		c1-1,1.4-3,0.9-4.3l-0.7-1.9C129.8,62.9,129.3,62.5,128.8,62.5"/>
	<path class="st4" d="M128.8,62.5L128.8,62.5l-4.6-2.3c-2.4-1.3-4.9-1.1-5.6-1.1c-0.5,0-1,0.1-1.3,0.5l-4.4,4.5
		c-0.7,0.7-1,2.1-0.6,3c0,0,0.6,1.5,0.9,1.9c0.4,0.7,1.2,1.8,1.7,2.3c0.7,0.7,5.7,5.6,5.7,5.6l0,0c0.6,0.8,1.6,0.9,2.5,0l7-7.1
		c1-1,1.4-3,0.9-4.3l-0.7-1.9C129.8,62.9,129.3,62.5,128.8,62.5z"/>
	<path class="st0" d="M124.1,60.2c-2.4-1.3-4.9-1.1-5.6-1.1c-0.5,0-1,0.1-1.3,0.5l-4.4,4.5c-0.7,0.7-1,2.1-0.6,3
		c0,0,0.6,1.5,0.9,1.9c0.4,0.7,1.2,1.8,1.7,2.3c0.7,0.7,5.7,5.6,5.7,5.6l8.4-14.5L124.1,60.2"/>
	<path class="st6" d="M124.1,60.2c-2.4-1.3-4.9-1.1-5.6-1.1c-0.5,0-1,0.1-1.3,0.5l-4.4,4.5c-0.7,0.7-1,2.1-0.6,3
		c0,0,0.6,1.5,0.9,1.9c0.4,0.7,1.2,1.8,1.7,2.3c0.7,0.7,5.7,5.6,5.7,5.6l8.4-14.5L124.1,60.2z"/>
	<path class="st0" d="M127.2,63.1l-6.7,6.9l-0.2,0.3c-1,1-1.4,3-0.9,4.3l0.7,1.9c0.5,1.3,1.8,1.6,2.8,0.6l7-7.1c1-1,1.4-3,0.9-4.3
		l-0.7-1.9C129.5,62.3,128.3,62,127.2,63.1"/>
	<path class="st6" d="M127.2,63.1l-6.7,6.9l-0.2,0.3c-1,1-1.4,3-0.9,4.3l0.7,1.9c0.5,1.3,1.8,1.6,2.8,0.6l7-7.1c1-1,1.4-3,0.9-4.3
		l-0.7-1.9C129.5,62.3,128.3,62,127.2,63.1z"/>
	<polyline class="st0" points="127.6,64.4 122,70 121.3,73.5 122.6,77 131.1,68.3 129.8,64.8 127.6,64.4 	"/>
	<polygon class="st7" points="127.6,64.4 122,70 121.3,73.5 122.6,77 131.1,68.3 129.8,64.8 	"/>
	<polyline class="st0" points="134.8,68.8 129.2,74.5 128.5,77.9 129.9,81.4 138.4,72.8 137,69.3 134.8,68.8 	"/>
	<polygon class="st7" points="134.8,68.8 129.2,74.5 128.5,77.9 129.9,81.4 138.4,72.8 137,69.3 	"/>
	<polyline class="st0" points="122,70 129.2,74.5 134.8,68.8 127.6,64.4 122,70 	"/>
	<polygon class="st7" points="122,70 129.2,74.5 134.8,68.8 127.6,64.4 	"/>
	<polyline class="st0" points="122,70 129.2,74.5 128.5,77.9 121.3,73.5 122,70 	"/>
	<polygon class="st7" points="122,70 129.2,74.5 128.5,77.9 121.3,73.5 	"/>
	<polyline class="st0" points="122.6,77 129.9,81.4 128.5,77.9 121.3,73.5 122.6,77 	"/>
	<polygon class="st7" points="122.6,77 129.9,81.4 128.5,77.9 121.3,73.5 	"/>
	<polyline class="st0" points="135.6,71.2 134.9,71.9 135.7,74.1 	"/>
	<polyline class="st7" points="135.6,71.2 134.9,71.9 135.7,74.1 	"/>
	<polyline class="st0" points="131.2,75.4 130.5,76 131.4,78.2 	"/>
	<polyline class="st7" points="131.2,75.4 130.5,76 131.4,78.2 	"/>
	<polyline class="st0" points="133,72.1 132.3,72.8 133.1,74.9 	"/>
	<polyline class="st7" points="133,72.1 132.3,72.8 133.1,74.9 	"/>
	<path class="st4" d="M112.7,64.2l4.4-4.5c0.4-0.4,0.8-0.5,1.3-0.5c0.7,0,3.3-0.3,5.6,1.1l4.7,2.2l0,0c0.5,0.1,1,0.5,1.3,1.2
		l0.7,1.7l6.3,3.9l1.4,3.5l-8.5,8.7l-7.1-4.4c-0.8,0.7-1.8,0.6-2.3-0.2l0,0c0,0-5-4.9-5.7-5.6c-0.5-0.5-1.2-1.6-1.7-2.3
		c-0.2-0.4-0.9-1.9-0.9-1.9C111.8,66.2,112,64.9,112.7,64.2z"/>
	<polyline class="st0" points="129.8,64.8 137,69.3 134.8,68.8 127.6,64.4 129.8,64.8 	"/>
	<polygon class="st7" points="129.8,64.8 137,69.3 134.8,68.8 127.6,64.4 	"/>
</g>
<g>
</g>
<g>
</g>
<g>
</g>
<g>
</g>
<g>
</g>
<g>
</g>
</svg>
