<?xml version="1.0" encoding="utf-8"?>
<!-- Generator: Adobe Illustrator 26.3.1, SVG Export Plug-In . SVG Version: 6.00 Build 0)  -->
<svg version="1.1" id="watingForDispenser" xmlns="http://www.w3.org/2000/svg" xmlns:xlink="http://www.w3.org/1999/xlink" x="0px"
	 y="0px" width="44px" height="44px" viewBox="0 0 44 44" style="enable-background:new 0 0 44 44;" xml:space="preserve">
<style type="text/css">
	.st0{fill:none;}
	.st1{fill:#54575E;}
</style>
<rect id="rect" class="st0" width="44" height="44"/>
<path id="path" class="st1" d="M17.7,25.2H29v3.6H17.7L17.7,25.2z M29,18H17.7v3.6H29V18z M11.7,39.2l-3.1-1.8l-2.8,4.8L9,44
	L11.7,39.2z M7.4,31.8H1.9v3.6h5.5V31.8z M41.3,11.1h-5.1v23c0,1-0.8,1.8-1.8,1.8h-22c-1,0-1.8-0.8-1.8-1.8V11.1H5.5V7.6h35.8
	L41.3,11.1z M32.6,11.1H14.2v21.2h18.4V11.1z"/>
</svg>
