<?xml version="1.0" encoding="utf-8"?>
<!-- Generator: Adobe Illustrator 26.3.1, SVG Export Plug-In . SVG Version: 6.00 Build 0)  -->
<svg version="1.1" id="dispenserWarn" xmlns="http://www.w3.org/2000/svg" xmlns:xlink="http://www.w3.org/1999/xlink" x="0px"
	 y="0px" width="44px" height="44px" viewBox="0 0 44 44" style="enable-background:new 0 0 44 44;" xml:space="preserve">
<style type="text/css">
	.st0{fill:none;}
	.st1{fill:#54575E;}
	.st2{fill:#E69A37;}
</style>
<rect id="rect" class="st0" width="44" height="44"/>
<path id="path" class="st1" d="M13.9,25.2h11.3v3.6H13.9V25.2z M25.2,18H13.9v3.6h11.3V18z M28.6,32.3H10.3V11.1h18.3V7.6H1.7v3.6
	h5.1v22.9c0,1,0.8,1.8,1.8,1.8h20.1L28.6,32.3z"/>
<path id="path-warning" class="st2" d="M31.3,5.4h11l-3,20.6h-5L31.3,5.4z M36.8,39.7c2.3,0,4.1-1.8,4.1-4.1s-1.8-4.1-4.1-4.1
	s-4.1,1.8-4.1,4.1S34.6,39.7,36.8,39.7"/>
</svg>
