<?xml version="1.0" encoding="utf-8"?>
<!-- Generator: Adobe Illustrator 26.3.1, SVG Export Plug-In . SVG Version: 6.00 Build 0)  -->
<svg version="1.1" id="sotiNotEnrolled" xmlns="http://www.w3.org/2000/svg" xmlns:xlink="http://www.w3.org/1999/xlink" x="0px"
	 y="0px" width="44px" height="44px" viewBox="0 0 44 44" style="enable-background:new 0 0 44 44;" xml:space="preserve">
<style type="text/css">
	.st0{fill:none;}
	.st1{opacity:0.3;fill:#54575E;enable-background:new    ;}
</style>
<rect id="rect" x="2" y="2" class="st0" width="40" height="40"/>
<path id="path" class="st1" d="M12.7,23.6c0.4,1,0.5,2,0.5,3c0,1.2-0.2,2.4-0.7,3.4c-0.4,0.9-1.1,1.7-2,2.2C9.6,32.8,8.6,33,7.6,33
	c-1.1,0-2.1-0.3-3-0.8c-0.8-0.5-1.5-1.3-1.9-2.2C2.3,29.1,2,28.1,2,27.1c0-0.2,0-0.4,0.1-0.5s0.2-0.2,0.4-0.3h1.7
	c0.2,0,0.3,0.1,0.4,0.2c0.1,0.1,0.2,0.3,0.3,0.5c0.1,0.6,0.4,1.2,0.9,1.7s1.1,0.7,1.8,0.7c0.7,0.1,1.4-0.2,2-0.7
	c0.5-0.5,0.7-1.2,0.7-1.9c0-0.5-0.1-0.9-0.3-1.3c-0.3-0.4-0.6-0.7-1-0.9c-0.7-0.4-1.4-0.7-2.1-1c-1.3-0.4-2.5-1.2-3.4-2.3
	c-0.8-1.2-1.2-2.6-1.1-4.1C2.4,16.1,2.6,15,3,14c0.4-0.9,1-1.6,1.8-2.2C5.6,11.3,6.5,11,7.5,11s2,0.3,2.8,0.9
	c0.8,0.6,1.4,1.4,1.8,2.3c0.4,0.8,0.7,1.7,0.7,2.6c0,0.2,0,0.4-0.1,0.5c-0.1,0.1-0.2,0.2-0.4,0.2h-1.8c-0.2,0-0.5-0.1-0.7-0.7
	c-0.1-0.5-0.3-1-0.8-1.4c-0.4-0.4-1-0.6-1.5-0.6c-0.6,0-1.2,0.2-1.6,0.6c-0.4,0.5-0.6,1.1-0.6,1.7c0,0.5,0.1,0.9,0.3,1.3
	s0.5,0.7,0.9,0.9c0.6,0.4,1.3,0.7,1.9,1c1,0.3,1.9,0.8,2.7,1.4C11.8,22.2,12.4,22.8,12.7,23.6 M25.9,19.4c0,1.2,0,2.1,0,2.6
	s0,1.3,0,2.6c0.1,2.2-0.5,4.4-1.6,6.3c-0.9,1.4-2.5,2.2-4.2,2.1c-1.7,0.1-3.3-0.8-4.2-2.1c-1.1-1.9-1.7-4.1-1.6-6.3
	c0-0.6,0-1.5,0-2.6s0-2,0-2.6c0-2.2,0.5-4.3,1.6-6.2c1-1.4,2.5-2.2,4.2-2.2c1.7,0,3.2,0.8,4.2,2.2C25.4,15.1,25.9,17.2,25.9,19.4
	 M17.3,22c0,1,0,1.8,0,2.4c0,1.3,0.2,2.5,0.8,3.7c0.4,0.7,1.1,1.2,1.9,1.2s1.6-0.4,2-1.2c0.6-1.1,0.9-2.4,0.8-3.7c0-1.2,0-2,0-2.4
	c0-0.4,0-1.2,0-2.4c0.1-1.3-0.2-2.6-0.8-3.7c-0.5-1.1-1.9-1.5-2.9-0.9c-0.4,0.2-0.7,0.5-0.9,0.9c-0.6,1.1-0.9,2.4-0.9,3.6
	C17.3,20.1,17.3,21,17.3,22 M36.5,11.3h-9.8c-0.2,0-0.4,0.1-0.4,0.3c-0.1,0.2-0.2,0.4-0.1,0.6v2.2c0,0.2,0,0.4,0.2,0.6
	c0.1,0.2,0.3,0.3,0.4,0.3h3.4v16.6c0,0.2,0,0.4,0.2,0.6c0.1,0.2,0.2,0.3,0.4,0.3h1.8c0.2,0,0.4-0.1,0.5-0.3c0.1-0.2,0.2-0.4,0.2-0.6
	V15.2h3.4c0.2,0,0.4-0.1,0.5-0.3c0.1-0.2,0.2-0.4,0.2-0.6v-2.2c0-0.2,0-0.4-0.2-0.6C36.9,11.4,36.7,11.3,36.5,11.3 M41.8,11.5
	c-0.1-0.2-0.3-0.3-0.5-0.2h-1.9c-0.2,0-0.4,0.1-0.5,0.2c-0.1,0.2-0.2,0.4-0.2,0.6v19.7c0,0.2,0.1,0.4,0.2,0.6
	c0.1,0.2,0.3,0.3,0.5,0.3h1.9c0.2,0,0.4-0.1,0.5-0.3c0.1-0.2,0.2-0.4,0.2-0.6V12.1C41.9,11.9,41.9,11.7,41.8,11.5"/>
</svg>
