<?xml version="1.0" encoding="utf-8"?>
<!-- Generator: Adobe Illustrator 26.3.1, SVG Export Plug-In . SVG Version: 6.00 Build 0)  -->
<svg version="1.1" id="printheadWarn" xmlns="http://www.w3.org/2000/svg" xmlns:xlink="http://www.w3.org/1999/xlink" x="0px"
	 y="0px" width="44px" height="44px" viewBox="0 0 44 44" style="enable-background:new 0 0 44 44;" xml:space="preserve">
<style type="text/css">
	.st0{fill:none;}
	.st1{fill:#54575E;}
	.st2{fill:#E69A37;}
</style>
<rect id="rect" x="2" y="2" class="st0" width="40" height="40"/>
<path id="path" class="st1" d="M27,36.5H6.1c-0.9,0-1.6-0.7-1.6-1.6V7.4c0-0.9,0.7-1.6,1.6-1.6l0,0H27V9H7.8v24.2H27V36.5z M14,19.2
	l-3.9,9.2L10,28.6c0,0.1,0.1,0.3,0.2,0.4c0.1,0.1,0.2,0.1,0.4,0.1h2.3c0.3,0,0.6-0.1,0.8-0.4l0.3-0.8V19.2z M27.7,28.4l-6.4-15.1
	c-0.2-0.4-0.6-0.6-1-0.6h-2.6v5.9l1.1-2.7l2.9,7h-4v3.3H23l1.1,2.6c0.1,0.1,0.1,0.2,0.3,0.3c0.2,0.1,0.3,0.2,0.5,0.1h2.3
	c0.1,0,0.3,0,0.4-0.1c0.1-0.1,0.2-0.2,0.2-0.4C27.7,28.5,27.7,28.4,27.7,28.4"/>
<path id="path-warning" class="st2" d="M29.5,6.9h10l-2.8,18.8h-4.5L29.5,6.9z M34.5,38.1c2.1,0,3.8-1.7,3.8-3.8s-1.7-3.8-3.8-3.8
	s-3.8,1.7-3.8,3.8S32.4,38.1,34.5,38.1"/>
</svg>
