<?xml version="1.0" encoding="utf-8"?>
<!-- Generator: Adobe Illustrator 27.9.0, SVG Export Plug-In . SVG Version: 6.00 Build 0)  -->
<svg version="1.1" id="レイヤー_1" xmlns="http://www.w3.org/2000/svg" xmlns:xlink="http://www.w3.org/1999/xlink" x="0px"
	 y="0px" width="68.1px" height="68.1px" viewBox="0 0 68.1 68.1" style="enable-background:new 0 0 68.1 68.1;"
	 xml:space="preserve">
<style type="text/css">
	.アーチ_x0020__x0028_グリーン_x0029_{fill:url(#SVGID_1_);stroke:#FFFFFF;stroke-width:0.25;stroke-miterlimit:1;}
	.st0{fill:#030000;}
	.st1{fill:#040000;}
</style>
<linearGradient id="SVGID_1_" gradientUnits="userSpaceOnUse" x1="-156.3142" y1="473.5241" x2="-155.6071" y2="472.817">
	<stop  offset="0" style="stop-color:#00A43B"/>
	<stop  offset="0.9831" style="stop-color:#133617"/>
</linearGradient>
<g>
	<path class="st0" d="M34,64.2C17.4,64.2,3.8,50.7,3.8,34C3.8,17.4,17.4,3.8,34,3.8S64.2,17.4,64.2,34C64.2,50.7,50.7,64.2,34,64.2z
		 M34,5.5C18.3,5.5,5.5,18.3,5.5,34c0,15.7,12.8,28.6,28.5,28.6S62.6,49.8,62.6,34C62.6,18.3,49.8,5.5,34,5.5z"/>
	<path class="st0" d="M34,63.8C17.6,63.8,4.3,50.4,4.3,34C4.3,17.6,17.6,4.3,34,4.3S63.8,17.6,63.8,34C63.8,50.4,50.4,63.8,34,63.8
		L34,63.8z M34,5.1c-16,0-29,13-29,29c0,16,13,29,29,29c16,0,29-13,29-29C63,18.1,50,5.1,34,5.1L34,5.1z"/>
	<path id="path_2_" class="st1" d="M49.1,49.8h-10c-0.8,0-1.5-0.7-1.5-1.5v-9.4h-7.3v9.4c0,0.8-0.7,1.5-1.5,1.5h-10
		c-0.8,0-1.5-0.7-1.5-1.5V30.1c0-0.5,0.2-0.9,0.6-1.2L33.1,18c0.5-0.4,1.2-0.4,1.8,0L50,28.9c0.4,0.3,0.6,0.7,0.6,1.2v18.2
		C50.7,49.1,50,49.8,49.1,49.8 M40.7,46.8h7V30.9L34,21.1l-13.6,9.8v15.9h7v-9.4c0-0.8,0.7-1.5,1.5-1.5h10.3c0.8,0,1.5,0.7,1.5,1.5
		L40.7,46.8z"/>
</g>
<g>
</g>
<g>
</g>
<g>
</g>
<g>
</g>
<g>
</g>
<g>
</g>
</svg>
