<?xml version="1.0" encoding="utf-8"?>
<!-- Generator: Adobe Illustrator 26.3.1, SVG Export Plug-In . SVG Version: 6.00 Build 0)  -->
<svg version="1.1" id="bluetoothError" xmlns="http://www.w3.org/2000/svg" xmlns:xlink="http://www.w3.org/1999/xlink" x="0px"
	 y="0px" width="44px" height="44px" viewBox="0 0 44 44" style="enable-background:new 0 0 44 44;" xml:space="preserve">
<style type="text/css">
	.st0{fill:none;}
	.st1{fill:#54575E;}
	.st2{fill:#E54C41;}
</style>
<rect id="rect" x="2" y="2" class="st0" width="40" height="40"/>
<path id="path" class="st1" d="M19.4,33l-3.8,3.1V25.4l3.3,2.6c0.1-1.2,0.4-2.4,0.8-3.6L16.6,22l9.2-7.5c0.7-0.6,0.8-1.6,0.2-2.3
	c0-0.1-0.1-0.1-0.2-0.2L15,3.2c-0.7-0.6-1.7-0.5-2.3,0.2c-0.2,0.3-0.4,0.6-0.4,1v14.2l-8-6.6l-2,2.5l9.1,7.5l-9.2,7.5l2,2.5l8.1-6.6
	v14.1c0,0.9,0.7,1.6,1.6,1.6c0.4,0,0.7-0.1,1-0.4l5.8-4.7C20.2,35.1,19.7,34.1,19.4,33 M15.6,7.9l6.6,5.3l-6.6,5.4V7.9z"/>
<path id="path-error" class="st2" d="M31.6,18.7c-5.7,0-10.4,4.6-10.4,10.4c0,5.7,4.6,10.4,10.4,10.4c5.7,0,10.4-4.6,10.4-10.4
	C42,23.4,37.3,18.8,31.6,18.7 M35.8,23.4l-4.2,3.9l-4.2-3.9C29.9,21.5,33.3,21.5,35.8,23.4 M25.6,25.4l4,3.7l-4,3.7
	C24.1,30.6,24.1,27.7,25.6,25.4 M27.4,34.9l4.2-3.9l4.2,3.9C33.3,36.7,29.9,36.7,27.4,34.9 M37.7,32.8l-4-3.7l4-3.7
	C39.1,27.7,39.1,30.6,37.7,32.8"/>
</svg>
