<?xml version="1.0" encoding="utf-8"?>
<!-- Generator: Adobe Illustrator 27.9.0, SVG Export Plug-In . SVG Version: 6.00 Build 0)  -->
<svg version="1.1" id="レイヤー_1" xmlns="http://www.w3.org/2000/svg" xmlns:xlink="http://www.w3.org/1999/xlink" x="0px"
	 y="0px" width="140px" height="116px" viewBox="0 0 140 116" style="enable-background:new 0 0 140 116;" xml:space="preserve">
<style type="text/css">
	.st0{fill:#FFFFFF;}
	.st1{fill:none;stroke:#000000;}
	.st2{fill:none;stroke:#000000;stroke-width:3;}
	.st3{fill:none;stroke:#FFFFFF;stroke-width:1.199;}
	.st4{fill:none;stroke:#000000;stroke-width:0.719;}
	.st5{fill:none;stroke:#000000;stroke-width:0.36;}
	.st6{fill:none;stroke:#000000;stroke-width:0.7;stroke-linejoin:round;}
</style>
<path class="st0" d="M101.1,35.9l0-11.7c0,0,0-1.8-1.7-2.3l-3.9-1.2c-0.6-1.3-1-4.9-6.7-4.5l-20.6,2.3c-1.3,0.2-2.3,1.2-2.9,2.5
	l0-0.1l-6,0.7c-1,0.2-1.6,0.9-1.6,1.7l0,3.1l1.1,0.2l-5.3,0.5c-0.9,0.1-3,1.1-3,1.9l0,3.9l-0.1,0c0,0.9,2.1,1.4,3,1.2l4.7-0.7
	l-0.4,0.7v1c0.1,1.5,1.6,1.7,1.6,1.7l20.9,3.7c0,0,2.1,0.2,4.4-0.2l14.5-2.1C101.2,38,101.1,35.9,101.1,35.9"/>
<path class="st1" d="M101.1,35.9l0-11.7c0,0,0-1.8-1.7-2.3l-3.9-1.2c-0.6-1.3-1-4.9-6.7-4.5l-20.6,2.3c-1.3,0.2-2.3,1.2-2.9,2.5
	l0-0.1l-6,0.7c-1,0.2-1.6,0.9-1.6,1.7l0,3.1l1.1,0.2l-5.3,0.5c-0.9,0.1-3,1.1-3,1.9l0,3.9l-0.1,0c0,0.9,2.1,1.4,3,1.2l4.7-0.7
	l-0.4,0.7v1c0.1,1.5,1.6,1.7,1.6,1.7l20.9,3.7c0,0,2.1,0.2,4.4-0.2l14.5-2.1C101.2,38,101.1,35.9,101.1,35.9z"/>
<path class="st2" d="M69.6,73.7c0,0,16.9-8.7,16.7-33.4"/>
<path class="st3" d="M69.6,73.8c0,0,16.9-8.7,16.7-33.4"/>
<path class="st4" d="M55,82.1c1.2,2.1-0.9,3-0.9,3l-4.7,3.2l1.3,2.2l7.8-4.8c2.8-2.1,0.5-4.4,0.5-4.4l7.9-4.6l0.5,0.9l3.3-1.9
	l-2.4-4.3L65,73.4l0.5,0.9l-7.9,4.6c0,0-0.8-3.2-4-1.7L45.9,82l1.5,2.3l4.8-2.9C52.1,81.4,53.8,79.9,55,82.1z"/>
<path class="st5" d="M63.3,36.2c0,0.9,2.2,1.4,3.2,1.3l12.1-1.9 M78.6,35.7l0-7L77,28.6"/>
<path d="M66.8,35.9c0.8,0.3,1.8-0.4,2.1-1.6c0.3-1.2-0.2-2.4-1-2.7c-0.8-0.3-1.8,0.4-2.1,1.6C65.5,34.4,66,35.6,66.8,35.9"/>
<path class="st1" d="M64.8,26l-11.3,1.2c-0.9,0.1-3,1.1-3,1.9l0,4.2"/>
<path class="st5" d="M50.4,33c0,0.9,2.1,1.4,3,1.2l9.3-1.4 M65.3,29.1l0-2.9"/>
<path d="M53.4,32.7c0.8,0.3,1.7-0.4,2-1.5c0.3-1.1-0.2-2.3-1-2.6c-0.8-0.3-1.7,0.4-1.9,1.5C52.1,31.3,52.6,32.4,53.4,32.7"/>
<path class="st5" d="M64.6,22.9l-4.3-0.6 M76,24.3l4.5,0.6c0.8,0.1,1.4,0.9,1.4,1.7l0,12.8"/>
<path class="st4" d="M65.3,21l-6,0.7c-1,0.2-1.6,0.9-1.6,1.7l0,3.1 M64.8,22.9c0.3-2.2,1.6-4,3.4-4.3l20.6-2.3
	c5.7-0.4,6,3.2,6.7,4.5l3.9,1.2c1.7,0.5,1.7,2.3,1.7,2.3l0,11.7c0,0,0.1,2.1-2,2.5l-14.5,2.1c-2.3,0.4-4.4,0.2-4.4,0.2l-20.9-3.7
	c0,0-1.6-0.3-1.6-1.7v-1"/>
<path class="st5" d="M71.1,18.8c0,0,3.2,0.5,4,4.5 M77.4,22.9l16.7-2 M85.6,26l4.3-0.6 M98.2,24.3l1.4-0.2 M78.4,23.8l4.5,0.6
	c0.8,0.1,1.4,0.9,1.4,1.7l0,12.8 M73.8,18.4c0,0,3.2,0.5,4,4.5 M85.8,23.3l4.5,0.6c0.8,0.1,1.4,0.9,1.4,1.7l0,12.8 M81.3,17.9
	c0,0,3.2,0.5,4,4.5 M88.3,22.9l4.5,0.6c0.8,0.1,1.4,0.9,1.4,1.7l0,12.8 M83.7,17.5c0,0,3.2,0.5,4,4.5 M90.8,22.4l4.5,0.6
	c0.8,0.1,1.4,0.9,1.4,1.7l0.1,12.8 M86.2,17c0,0,3.2,0.5,4,4.5"/>
<path d="M69.2,67.7l-11.1,6.8c0,0-1.7-0.8-4-0.8c-1.4,0-2.9,0.3-4.5,1.2c-4.3,2.4-8.9,5.1-8.9,5.1l8.8,15.3c0,0,8.7-4.8,10.3-6
	c2.8-2.1,3.3-5.7,3.3-6.1c0,0,0,0,0,0l0,0c0,0,0,0,0,0v0l10.3-5.9l1-0.6L69.2,67.7 M58.1,75.7c0.2,0,0.4-0.1,0.6-0.2l10.1-6.2l4,6.9
	L62.6,82c-0.3,0.2-0.5,0.4-0.5,0.7c0,0.1,0,0.2,0,0.3c-0.1,0.6-0.7,3.5-2.9,5.2c-1.1,0.9-6.3,3.8-9.2,5.4l-7.6-13.3
	c1.6-0.9,4.8-2.8,7.9-4.5c1.2-0.7,2.5-1,3.9-1c2,0,3.5,0.7,3.5,0.7C57.8,75.6,58,75.7,58.1,75.7z M62,83.1C62,83.1,62,83.1,62,83.1
	C62,83.1,62,83.1,62,83.1z"/>
<path class="st1" d="M76.6,28.7l-10.1,1.1c-0.9,0.1-3.2,1.2-3.2,2.1l0,4.4"/>
<path class="st6" d="M70.9,70.5l-1.6-2.8l-11.1,6.8c0,0-1.7-0.8-4-0.8c-1.4,0-2.9,0.3-4.5,1.2c-4.3,2.4-8.9,5.1-8.9,5.1l8.8,15.3
	c0,0,8.7-4.8,10.3-6c2.8-2.1,3.3-5.7,3.3-6.1c0,0,0,0,0,0l0,0c0,0,0,0,0,0v0l10.3-5.9l1-0.6L72.9,74"/>
<g>
</g>
<g>
</g>
<g>
</g>
<g>
</g>
<g>
</g>
<g>
</g>
</svg>
