<?xml version="1.0" encoding="utf-8"?>
<!-- Generator: Adobe Illustrator 26.3.1, SVG Export Plug-In . SVG Version: 6.00 Build 0)  -->
<svg version="1.1" id="レイヤー_1" xmlns="http://www.w3.org/2000/svg" xmlns:xlink="http://www.w3.org/1999/xlink" x="0px"
	 y="0px" width="202.5px" height="359.8px" viewBox="0 0 202.5 359.8" enable-background="new 0 0 202.5 359.8"
	 xml:space="preserve">
<rect fill="#E4F3FC" width="202.5" height="359.8"/>
<g>
	<path d="M76,175.2l1.1,1c-0.6,2.9-1.7,5.2-3.4,6.9c-1,1-2.2,1.9-3.7,2.6c-0.7,0.3-1.5,0.6-2.3,0.8l-0.6-1.1
		c1.8-0.5,3.3-1.2,4.5-2.1c0.5-0.4,1-0.8,1.3-1.1c0.1-0.1,0.2-0.2,0.2-0.2c-1.2-1.1-2.5-2-3.8-2.8l0.7-0.9c1.4,0.8,2.7,1.7,3.9,2.7
		c1-1.6,1.7-3.2,2-4.8h-5.2c-1.1,1.7-2.4,3.1-4,4l-0.8-0.8c0.8-0.5,1.6-1.1,2.3-1.8c1.2-1.3,2.1-2.7,2.6-4.2l1.1,0.3
		c-0.2,0.6-0.5,1.1-0.7,1.5H76z M76.9,175.5c-0.3-0.8-0.7-1.6-1.2-2.3l0.9-0.3c0.5,0.7,0.9,1.5,1.2,2.3L76.9,175.5z M78.7,175.1
		c-0.3-0.8-0.7-1.6-1.2-2.4l0.9-0.3c0.5,0.7,0.9,1.5,1.2,2.3L78.7,175.1z"/>
	<path d="M91.1,186.2c-3.8-1.2-7.2-2.1-10.4-2.8l0.3-1.2c4.1,0.9,7.5,1.8,10.4,2.8L91.1,186.2z M90.8,176.7c-2.6-0.8-5.6-1.4-8.8-2
		l0.2-1.1c3.2,0.5,6.1,1.2,8.8,2L90.8,176.7z M90,181c-2.4-0.8-4.9-1.4-7.7-1.9l0.2-1.2c2.7,0.5,5.3,1.1,7.7,1.9L90,181z"/>
	<path d="M93.8,179.1h12.6v1.2H93.8V179.1z"/>
	<path d="M114.2,176.3v-1.7h-6.5v-1h14.1v1h-6.5v1.7h3.4v7.6h-7.9v-7.6H114.2z M109.4,185.2h10.8v-8.5h1.1V187h-1.1v-0.9h-10.8v0.9
		h-1.1v-10.3h1.1V185.2z M114.2,177.3h-2.3v2.3h2.3V177.3z M114.2,180.4h-2.3v2.5h2.3V180.4z M115.3,177.3v2.3h2.4v-2.3H115.3z
		 M115.3,180.4v2.5h2.4v-2.5H115.3z"/>
	<path d="M129.3,176.9h6.6V187h-1.2v-0.9h-9.8v0.9h-1.2v-10.2h4.4c0.3-0.9,0.6-1.6,0.8-2.2h-6.2v-1h14.2v1h-6.8
		C129.9,175.4,129.6,176.2,129.3,176.9z M127.3,177.8h-2.4v7.3h2.4V177.8z M128.4,177.8v1.8h2.8v-1.8H128.4z M128.4,180.6v1.8h2.8
		v-1.8H128.4z M128.4,183.2v1.9h2.8v-1.9H128.4z M132.3,177.8v7.3h2.4v-7.3H132.3z"/>
</g>
<g>
</g>
<g>
</g>
<g>
</g>
<g>
</g>
<g>
</g>
<g>
</g>
</svg>
