<?xml version="1.0" encoding="utf-8"?>
<!-- Generator: Adobe Illustrator 27.9.0, SVG Export Plug-In . SVG Version: 6.00 Build 0)  -->
<svg version="1.1" id="Layer_1" xmlns="http://www.w3.org/2000/svg" xmlns:xlink="http://www.w3.org/1999/xlink" x="0px" y="0px"
	 width="330px" height="151px" viewBox="0 0 330 151" style="enable-background:new 0 0 330 151;" xml:space="preserve">
<style type="text/css">
	
		.st0{clip-path:url(#SVGID_00000011727820539373316690000014187171989883794071_);fill:#DCDCDC;stroke:#000000;stroke-linecap:round;stroke-linejoin:round;}
	.st1{clip-path:url(#SVGID_00000011727820539373316690000014187171989883794071_);fill:#DCDCDC;}
	
		.st2{clip-path:url(#SVGID_00000011727820539373316690000014187171989883794071_);fill:none;stroke:#000000;stroke-linecap:round;stroke-linejoin:round;}
	
		.st3{clip-path:url(#SVGID_00000011727820539373316690000014187171989883794071_);fill:none;stroke:#000000;stroke-width:0.5;stroke-linecap:round;stroke-linejoin:round;}
	
		.st4{clip-path:url(#SVGID_00000011727820539373316690000014187171989883794071_);fill:none;stroke:#000000;stroke-width:0.25;stroke-linecap:round;stroke-linejoin:round;}
	.st5{clip-path:url(#SVGID_00000011727820539373316690000014187171989883794071_);}
	.st6{fill:none;stroke:#FFFFFF;stroke-width:0.5;stroke-linecap:round;stroke-linejoin:round;}
	.st7{fill:#B3B3B3;}
	.st8{fill:none;stroke:#666666;stroke-width:0.5;stroke-linecap:round;stroke-linejoin:round;}
	.st9{fill:none;stroke:#000000;stroke-linecap:round;stroke-linejoin:round;}
</style>
<g>
	<defs>
		<rect id="SVGID_1_" x="20" y="10.9" width="290" height="130.1"/>
	</defs>
	<clipPath id="SVGID_00000157992066878890620670000006341290216838082476_">
		<use xlink:href="#SVGID_1_"  style="overflow:visible;"/>
	</clipPath>
	
		<polygon style="clip-path:url(#SVGID_00000157992066878890620670000006341290216838082476_);fill:#DCDCDC;stroke:#000000;stroke-linecap:round;stroke-linejoin:round;" points="
		358.3,110.6 241.2,139.6 26.3,53.1 143.4,24.1 	"/>
	<path style="clip-path:url(#SVGID_00000157992066878890620670000006341290216838082476_);fill:#DCDCDC;" d="M162.3,27.3
		c17.3-3.7,27.7-25,23-47.6c-4.5-22.6-22.1-38-39.6-34.4L26.2-34.5C7.7-30.5-3.2-7,2.1,18c5.2,25.1,24.5,42.2,43.2,38.2"/>
	
		<path style="clip-path:url(#SVGID_00000157992066878890620670000006341290216838082476_);fill:none;stroke:#000000;stroke-linecap:round;stroke-linejoin:round;" d="
		M162.3,27.3c17.3-3.7,27.7-25,23-47.6c-4.5-22.6-22.1-38-39.6-34.4L26.2-34.5C7.7-30.5-3.2-7,2.1,18c5.2,25.1,24.5,42.2,43.2,38.2
		L162.3,27.3z"/>
	
		<path style="clip-path:url(#SVGID_00000157992066878890620670000006341290216838082476_);fill:none;stroke:#000000;stroke-width:0.5;stroke-linecap:round;stroke-linejoin:round;" d="
		M32.4-4.3c6.3-1.3,12.8,4.5,14.5,12.9c1.8,8.4-1.9,16.4-8.1,17.7c-6.3,1.3-12.7-4.4-14.5-12.8C22.6,4.9,26.1-3,32.4-4.3z
		 M26.2-34.5c18.6-4,37.9,13.1,43,38.2c5.3,25.1-5.6,48.6-24.1,52.5c-18.5,4-37.8-13.1-43-38.2C-3-7.1,7.6-30.5,26.2-34.5z"/>
	
		<path style="clip-path:url(#SVGID_00000157992066878890620670000006341290216838082476_);fill:none;stroke:#000000;stroke-width:0.25;stroke-linecap:round;stroke-linejoin:round;" d="
		M20.6,14.2c2.3,11.1,10.9,18.7,19.2,17C48,29.4,52.9,18.9,50.5,7.8C48.2-3.4,39.6-11,31.3-9.3C23.1-7.5,18.3,3,20.6,14.2z"/>
	<g style="clip-path:url(#SVGID_00000157992066878890620670000006341290216838082476_);">
		<g>
			<polyline class="st6" points="192.2,88.8 193.4,88.1 192.3,88.8 193.7,88 192.9,89 195.4,87.6 193.5,89.3 197.1,87.2 194.4,89.6 
				199.7,86.6 195,89.9 201.5,86.1 195.3,90 202.4,85.9 195.6,90.1 203.3,85.7 195.7,90.1 203.5,85.6 196,90.3 204.4,85.4 196,90.3 
				204.4,85.4 196,90.3 204.5,85.4 196.2,90.4 205.1,85.2 196.5,90.5 206,85 197.3,90.8 208.4,84.4 198.1,91.1 210.5,83.9 
				199.1,91.5 213.5,83.2 200.2,92 216.8,82.4 200.8,92.2 218.4,82 201.1,92.4 219.4,81.8 202,92.7 222,81.2 202.3,92.8 222.9,80.9 
				203.2,93.2 225.5,80.3 203.5,93.3 226.6,80 204.6,93.8 228,80.2 205.1,94 228.6,80.5 205.5,94.1 228.9,80.6 206.5,94.5 229.9,81 
				207.3,94.9 230.8,81.4 207.6,95 231.1,81.5 207.9,95.1 231.3,81.6 209,95.6 232.4,82 209.4,95.7 232.8,82.2 209.8,95.9 
				233.2,82.4 210.5,96.1 233.9,82.6 211.2,96.4 234.6,82.9 211.3,96.5 234.8,83 211.5,96.6 234.9,83 212.6,97 236,83.5 213.3,97.3 
				236.7,83.8 214.4,97.8 237.8,84.3 215.4,98.1 238.8,84.6 216.5,98.6 239.9,85.1 217.6,99.1 241,85.6 217.9,99.1 241.2,85.6 
				218.1,99.3 241.5,85.8 219.3,99.7 242.6,86.2 220.2,100.1 243.6,86.6 220.5,100.2 243.9,86.7 220.6,100.2 243.9,86.8 
				221.3,100.6 244.7,87.1 222.2,100.9 245.5,87.4 222.8,101.1 246.2,87.7 223.2,101.3 246.5,87.8 223.2,101.3 246.6,87.8 
				223.3,101.4 246.7,87.9 224.1,101.7 247.5,88.2 225.8,101.3 248.1,88.4 228.4,100.7 249,88.8 228.7,100.6 249,88.8 231,100 
				249.8,89.2 232.9,99.5 250.4,89.4 233.2,99.5 250.5,89.4 236.5,98.6 251.6,89.9 239.2,97.9 252.5,90.3 242.2,97.2 253.5,90.7 
				245.1,96.4 254.4,91 246.7,96 255,91.3 249.7,95.3 256,91.7 252.5,94.6 256.9,92 255.5,93.8 257.9,92.4 257.3,93.4 258.4,92.7 
							"/>
		</g>
		<path class="st7" d="M197.1,88.1c9.9-2.4,15.1-15.7,11.8-29.2l34.1-8.4c3.3,13.5-1.9,26.7-11.8,29.2L197.1,88.1z"/>
		<g>
			<polyline class="st8" points="210.4,60.6 211.7,59.9 210.5,61.6 214.8,59.1 210.5,62.5 217.8,58.4 210.6,63.6 221.2,57.5 
				210.6,63.9 222.1,57.3 210.7,64.4 223.5,56.9 210.7,64.4 223.6,56.9 210.7,65.5 226.9,56.1 210.7,65.8 227.9,55.9 210.7,66 
				228.6,55.7 210.7,66.6 230.5,55.2 210.7,67 231.5,55 210.7,67.8 233.9,54.4 210.7,68.4 235.9,53.9 210.7,69.5 239,53.1 
				210.7,70.4 241.9,52.4 210.6,71.2 242.3,52.9 210.5,71.9 242.4,53.5 210.5,72.5 242.5,54 210.4,73.4 242.7,54.7 210.3,74.1 
				242.8,55.3 210.2,74.3 242.8,55.5 210.1,74.9 242.9,55.9 209.9,75.6 242.9,56.6 209.7,76.2 242.9,57 209.7,76.4 242.9,57.2 
				209.2,77.7 243,58.2 209,78 243,58.4 208.8,78.6 243,58.9 208.5,79.2 243,59.3 207.5,80.9 243,60.4 207.4,81 242.9,60.5 
				206.9,81.8 242.9,61 206.5,82.3 242.9,61.3 206,82.9 242.8,61.6 205.7,83.3 242.8,61.8 204.8,84.3 242.8,62.4 204.2,84.9 
				242.8,62.6 202.9,86.2 242.7,63.3 203.5,86.1 242.6,63.5 205,85.7 242.5,64.1 207.8,85 242.3,65.1 209,84.7 242.2,65.5 
				209.9,84.5 242.1,65.9 212.1,83.9 241.8,66.8 214.4,83.4 241.5,67.7 216,83 241.3,68.4 219.1,82.2 240.7,69.7 222.5,81.4 
				239.8,71.4 224.1,81 239.4,72.1 226.1,80.5 238.6,73.3 228.7,79.8 237.4,74.8 229.1,79.7 237,75.2 229.6,79.6 236.6,75.6 
				231.5,78.9 235.5,76.6 			"/>
		</g>
		<path class="st7" d="M188.2,87.5c2.9,1.1,5.9,1.4,8.9,0.6c6.2-1.5,10.6-7.1,12.2-14.3l-29.8-12l-33.6,8.5L188.2,87.5L188.2,87.5z"
			/>
		<path class="st9" d="M243.1,50.9c3.3,13.5-2,26.4-11.9,28.8l-34.1,8.4c9.9-2.4,15.2-15.3,11.9-28.8"/>
		<path class="st9" d="M146.3,70.6l41.9,16.9l0,0c2.9,1.1,5.9,1.4,8.9,0.6c6.2-1.5,10.6-7.1,12.2-14.3l-28.9-11.6"/>
		<polyline class="st9" points="243.1,50.9 240.5,50.1 240,51.7 237.4,50.9 236.9,52.4 234.3,51.6 233.8,53.2 231.2,52.4 230.7,54 
			228.1,53.2 227.5,54.7 225,53.9 224.4,55.5 221.8,54.7 221.3,56.3 218.7,55.4 218.2,57 215.6,56.2 215.1,57.8 212.5,57 
			211.9,58.5 209.6,57.8 209,59.4 		"/>
		<polyline class="st9" points="180.6,62.2 176.8,61.5 177.2,63 173.7,62.2 174,63.7 170.6,63 170.9,64.5 167.5,63.7 167.8,65.2 
			164.4,64.5 164.7,66 161.3,65.3 161.6,66.7 158.2,66 158.5,67.5 155.1,66.8 155.4,68.2 152,67.5 152.3,69 148.9,68.3 149.2,69.7 
			146,69.1 146.3,70.6 		"/>
	</g>
</g>
<g>
</g>
<g>
</g>
<g>
</g>
<g>
</g>
<g>
</g>
<g>
</g>
<g>
</g>
<g>
</g>
<g>
</g>
<g>
</g>
<g>
</g>
<g>
</g>
<g>
</g>
<g>
</g>
<g>
</g>
<g>
</g>
<g>
</g>
<g>
</g>
</svg>
