<?xml version="1.0" encoding="utf-8"?>
<!-- Generator: Adobe Illustrator 26.3.1, SVG Export Plug-In . SVG Version: 6.00 Build 0)  -->
<svg version="1.1" xmlns="http://www.w3.org/2000/svg" xmlns:xlink="http://www.w3.org/1999/xlink" x="0px" y="0px" width="155px"
	 height="300px" viewBox="0 0 155 300" style="enable-background:new 0 0 155 300;" xml:space="preserve">
<style type="text/css">
	.st0{clip-path:url(#SVGID_00000058590471141087687930000005216564469653763469_);fill:#DCF0FA;}
	
		.st1{clip-path:url(#SVGID_00000058590471141087687930000005216564469653763469_);fill:none;stroke:#000000;stroke-width:0.75;stroke-linejoin:round;stroke-miterlimit:10;}
	
		.st2{clip-path:url(#SVGID_00000058590471141087687930000005216564469653763469_);fill:#FFFFFF;stroke:#000000;stroke-width:1.5;stroke-linejoin:round;stroke-miterlimit:10;}
	.st3{clip-path:url(#SVGID_00000058590471141087687930000005216564469653763469_);fill:none;}
	.st4{clip-path:url(#SVGID_00000139976080636132326150000007221526138932776595_);fill:#DCF0FA;}
	
		.st5{clip-path:url(#SVGID_00000139976080636132326150000007221526138932776595_);fill:none;stroke:#000000;stroke-width:0.75;stroke-linejoin:round;stroke-miterlimit:10;}
	
		.st6{clip-path:url(#SVGID_00000139976080636132326150000007221526138932776595_);fill:#FFFFFF;stroke:#000000;stroke-width:1.5;stroke-linejoin:round;stroke-miterlimit:10;}
	.st7{clip-path:url(#SVGID_00000139976080636132326150000007221526138932776595_);fill:none;}
	.st8{fill:#FFFFFF;}
	.st9{fill:none;stroke:#000000;stroke-width:0.5102;}
	.st10{fill:none;stroke:#000000;stroke-width:1.3266;}
	.st11{fill:#231815;}
	.st12{fill:#B5B5B6;}
	.st13{fill:none;stroke:#000000;stroke-width:2.2459;stroke-linecap:round;stroke-linejoin:round;stroke-miterlimit:10;}
</style>
<g id="Layer_1">
	<g>
		<defs>
			<rect id="SVGID_1_" x="14.1" y="180.2" width="126.8" height="104.5"/>
		</defs>
		<clipPath id="SVGID_00000131325673503533422720000013718139531135369137_">
			<use xlink:href="#SVGID_1_"  style="overflow:visible;"/>
		</clipPath>
		<polyline style="clip-path:url(#SVGID_00000131325673503533422720000013718139531135369137_);fill:#DCF0FA;" points="140.9,284.3 
			14.1,284.3 14.1,180.6 140.9,180.6 		"/>
		
			<line style="clip-path:url(#SVGID_00000131325673503533422720000013718139531135369137_);fill:none;stroke:#000000;stroke-width:0.75;stroke-linejoin:round;stroke-miterlimit:10;" x1="14.1" y1="284.3" x2="140.9" y2="284.3"/>
		
			<path style="clip-path:url(#SVGID_00000131325673503533422720000013718139531135369137_);fill:#FFFFFF;stroke:#000000;stroke-width:1.5;stroke-linejoin:round;stroke-miterlimit:10;" d="
			M-21.5,278.9c-5.6,0-10-4.5-10-10v-73.6c0-5.5,4.5-10,10-10h40.2c5.6,0,10.1,4.5,10.1,10v73.6c0,5.5-4.5,10-10.1,10H-21.5z"/>
		
			<path style="clip-path:url(#SVGID_00000131325673503533422720000013718139531135369137_);fill:#FFFFFF;stroke:#000000;stroke-width:1.5;stroke-linejoin:round;stroke-miterlimit:10;" d="
			M52,278.9c-5.5,0-10-4.5-10-10v-73.6c0-5.5,4.5-10,10-10h50.2c5.5,0,10,4.5,10,10v73.6c0,5.5-4.5,10-10,10H52z"/>
		
			<path style="clip-path:url(#SVGID_00000131325673503533422720000013718139531135369137_);fill:#FFFFFF;stroke:#000000;stroke-width:1.5;stroke-linejoin:round;stroke-miterlimit:10;" d="
			M135.8,278.9c-5.5,0-10-4.5-10-10v-73.6c0-5.5,4.5-10,10-10H176c5.5,0,10,4.5,10,10v73.6c0,5.5-4.5,10-10,10H135.8z"/>
		
			<rect x="41.5" y="185.5" style="clip-path:url(#SVGID_00000131325673503533422720000013718139531135369137_);fill:none;" width="71" height="94"/>
		
			<line style="clip-path:url(#SVGID_00000131325673503533422720000013718139531135369137_);fill:none;stroke:#000000;stroke-width:0.75;stroke-linejoin:round;stroke-miterlimit:10;" x1="14.1" y1="180.6" x2="140.9" y2="180.6"/>
	</g>
	<g>
		<defs>
			<rect id="SVGID_00000046308009347478668490000004220704726587913908_" x="14.1" y="47.2" width="126.8" height="104.5"/>
		</defs>
		<clipPath id="SVGID_00000155826032597794792770000013496125285756304570_">
			<use xlink:href="#SVGID_00000046308009347478668490000004220704726587913908_"  style="overflow:visible;"/>
		</clipPath>
		<polyline style="clip-path:url(#SVGID_00000155826032597794792770000013496125285756304570_);fill:#DCF0FA;" points="140.9,151.3 
			14.1,151.3 14.1,47.6 140.9,47.6 		"/>
		
			<line style="clip-path:url(#SVGID_00000155826032597794792770000013496125285756304570_);fill:none;stroke:#000000;stroke-width:0.75;stroke-linejoin:round;stroke-miterlimit:10;" x1="14.1" y1="151.3" x2="140.9" y2="151.3"/>
		
			<path style="clip-path:url(#SVGID_00000155826032597794792770000013496125285756304570_);fill:#FFFFFF;stroke:#000000;stroke-width:1.5;stroke-linejoin:round;stroke-miterlimit:10;" d="
			M-21.5,145.9c-5.6,0-10-4.5-10-10V62.3c0-5.5,4.5-10,10-10h40.2c5.6,0,10.1,4.5,10.1,10v73.6c0,5.5-4.5,10-10.1,10H-21.5z"/>
		
			<path style="clip-path:url(#SVGID_00000155826032597794792770000013496125285756304570_);fill:#FFFFFF;stroke:#000000;stroke-width:1.5;stroke-linejoin:round;stroke-miterlimit:10;" d="
			M52,145.9c-5.5,0-10-4.5-10-10V62.3c0-5.5,4.5-10,10-10h50.2c5.5,0,10,4.5,10,10v73.6c0,5.5-4.5,10-10,10H52z"/>
		
			<path style="clip-path:url(#SVGID_00000155826032597794792770000013496125285756304570_);fill:#FFFFFF;stroke:#000000;stroke-width:1.5;stroke-linejoin:round;stroke-miterlimit:10;" d="
			M135.8,145.9c-5.5,0-10-4.5-10-10V62.3c0-5.5,4.5-10,10-10H176c5.5,0,10,4.5,10,10v73.6c0,5.5-4.5,10-10,10H135.8z"/>
		
			<rect x="41.5" y="52.5" style="clip-path:url(#SVGID_00000155826032597794792770000013496125285756304570_);fill:none;" width="71" height="94"/>
		
			<line style="clip-path:url(#SVGID_00000155826032597794792770000013496125285756304570_);fill:none;stroke:#000000;stroke-width:0.75;stroke-linejoin:round;stroke-miterlimit:10;" x1="14.1" y1="47.6" x2="140.9" y2="47.6"/>
	</g>
</g>
<g id="Layer_2">
	<g>
		<g>
			<rect x="65" y="188.1" class="st8" width="24.9" height="88.2"/>
			<line class="st9" x1="65" y1="276" x2="82.5" y2="276"/>
			<line class="st9" x1="65" y1="274.3" x2="82.5" y2="274.3"/>
			<line class="st10" x1="65" y1="272.9" x2="82.5" y2="272.9"/>
			<line class="st10" x1="65" y1="271.2" x2="82.5" y2="271.2"/>
			<line class="st9" x1="65" y1="269.8" x2="82.5" y2="269.8"/>
			<line class="st10" x1="65" y1="268.2" x2="82.5" y2="268.2"/>
			<line class="st9" x1="65" y1="266.9" x2="82.5" y2="266.9"/>
			<line class="st9" x1="65" y1="265.1" x2="82.5" y2="265.1"/>
			<line class="st9" x1="65" y1="264.2" x2="82.5" y2="264.2"/>
			<line class="st10" x1="65" y1="262.8" x2="82.5" y2="262.8"/>
			<line class="st9" x1="65" y1="261.2" x2="82.5" y2="261.2"/>
			<line class="st10" x1="65" y1="259.9" x2="82.5" y2="259.9"/>
			<line class="st9" x1="65" y1="257.7" x2="82.5" y2="257.7"/>
			<line class="st9" x1="65" y1="256.8" x2="82.5" y2="256.8"/>
			<line class="st10" x1="65" y1="255.4" x2="82.5" y2="255.4"/>
			<line class="st10" x1="65" y1="253.4" x2="82.5" y2="253.4"/>
			<line class="st10" x1="65" y1="251.7" x2="82.5" y2="251.7"/>
			<line class="st9" x1="65" y1="249.6" x2="82.5" y2="249.6"/>
			<line class="st9" x1="65" y1="248.6" x2="82.5" y2="248.6"/>
			<line class="st9" x1="65" y1="247.6" x2="82.5" y2="247.6"/>
			<line class="st9" x1="65" y1="246.4" x2="82.5" y2="246.4"/>
			<line class="st9" x1="65" y1="245.4" x2="82.5" y2="245.4"/>
			<line class="st10" x1="65" y1="243.3" x2="82.5" y2="243.3"/>
			<line class="st9" x1="65" y1="242" x2="82.5" y2="242"/>
			<line class="st10" x1="65" y1="240.6" x2="82.5" y2="240.6"/>
			<line class="st10" x1="65" y1="238.6" x2="82.5" y2="238.6"/>
			<line class="st9" x1="65" y1="237.3" x2="82.5" y2="237.3"/>
			<line class="st10" x1="65" y1="235.1" x2="82.5" y2="235.1"/>
			<line class="st9" x1="65" y1="233.8" x2="82.5" y2="233.8"/>
			<line class="st9" x1="65" y1="232.8" x2="82.5" y2="232.8"/>
			<line class="st9" x1="65" y1="231.6" x2="82.5" y2="231.6"/>
			<line class="st10" x1="65" y1="230.2" x2="82.5" y2="230.2"/>
			<line class="st10" x1="65" y1="227.7" x2="82.5" y2="227.7"/>
			<line class="st9" x1="65" y1="226.4" x2="82.5" y2="226.4"/>
			<line class="st9" x1="65" y1="225.4" x2="82.5" y2="225.4"/>
			<line class="st9" x1="65" y1="224.2" x2="82.5" y2="224.2"/>
			<line class="st9" x1="65" y1="223.2" x2="82.5" y2="223.2"/>
			<line class="st9" x1="65" y1="221.5" x2="82.5" y2="221.5"/>
			<line class="st10" x1="65" y1="220.1" x2="82.5" y2="220.1"/>
			<line class="st10" x1="65" y1="218.4" x2="82.5" y2="218.4"/>
			<line class="st10" x1="65" y1="216.4" x2="82.5" y2="216.4"/>
			<line class="st9" x1="65" y1="215" x2="82.5" y2="215"/>
			<line class="st9" x1="65" y1="213.3" x2="82.5" y2="213.3"/>
			<line class="st10" x1="65" y1="211.9" x2="82.5" y2="211.9"/>
			<line class="st9" x1="65" y1="210.6" x2="82.5" y2="210.6"/>
			<line class="st9" x1="65" y1="209.4" x2="82.5" y2="209.4"/>
			<line class="st10" x1="65" y1="208" x2="82.5" y2="208"/>
			<line class="st9" x1="65" y1="205.9" x2="82.5" y2="205.9"/>
			<line class="st10" x1="65" y1="204.5" x2="82.5" y2="204.5"/>
			<line class="st9" x1="65" y1="203.2" x2="82.5" y2="203.2"/>
			<line class="st9" x1="65" y1="202" x2="82.5" y2="202"/>
			<line class="st10" x1="65" y1="200.6" x2="82.5" y2="200.6"/>
			<line class="st9" x1="65" y1="198.5" x2="82.5" y2="198.5"/>
			<line class="st9" x1="65" y1="197.5" x2="82.5" y2="197.5"/>
			<line class="st10" x1="65" y1="196.2" x2="82.5" y2="196.2"/>
			<line class="st9" x1="65" y1="194.6" x2="82.5" y2="194.6"/>
			<line class="st9" x1="65" y1="192.8" x2="82.5" y2="192.8"/>
			<line class="st10" x1="65" y1="191.5" x2="82.5" y2="191.5"/>
			<line class="st10" x1="65" y1="189.7" x2="82.5" y2="189.7"/>
			<line class="st9" x1="65" y1="188.4" x2="82.5" y2="188.4"/>
		</g>
		<g>
			<path class="st11" d="M84.6,256.8l1.4,1.6h-1.1l-1.3-1.5v-0.9h6.2v0.9H84.6z"/>
			<path class="st11" d="M89,252.3v-2.8h0.8v3.7c-0.2,0-0.4,0-0.5,0c-0.6,0-1-0.1-1.4-0.3c-0.3-0.1-0.5-0.3-0.7-0.5
				c-0.2-0.2-0.5-0.5-0.7-1c-0.3-0.5-0.5-0.8-0.7-0.9c-0.2-0.2-0.4-0.2-0.6-0.2c-0.3,0-0.5,0.1-0.7,0.3c-0.2,0.2-0.3,0.4-0.3,0.7
				c0,0.6,0.2,1.2,0.7,1.8H84c-0.3-0.5-0.5-1.1-0.5-1.7c0-0.6,0.2-1.1,0.5-1.4c0.3-0.4,0.7-0.5,1.2-0.5c0.4,0,0.7,0.1,1,0.3
				c0.2,0.1,0.3,0.2,0.5,0.4c0.1,0.2,0.4,0.5,0.7,1c0.3,0.4,0.6,0.8,0.8,1c0.3,0.2,0.5,0.3,0.8,0.3H89z"/>
			<path class="st11" d="M84.4,245.2v2.7h-0.8v-3.8h0.9l1.6,1.6c0-0.6,0.2-1.1,0.5-1.4c0.3-0.3,0.7-0.5,1.3-0.5
				c0.6,0,1.1,0.2,1.5,0.7c0.4,0.4,0.6,1,0.6,1.7c0,0.5-0.1,1.1-0.4,1.6h-0.9c0.3-0.5,0.4-1,0.4-1.6c0-0.5-0.1-0.9-0.3-1.2
				c-0.2-0.3-0.6-0.4-1-0.4c-0.3,0-0.6,0.1-0.8,0.4c-0.2,0.3-0.3,0.6-0.3,1v0.8H86L84.4,245.2z"/>
			<path class="st11" d="M87.7,239.2v-0.8h0.8v0.8h1.4v0.9h-1.4v2.4h-0.9l-3.9-1.8v-0.9l4.1,1.9V240h-1.3v-0.9H87.7z"/>
			<path class="st11" d="M84.4,235.7l1.2,0.1l0-0.2c0-0.8,0.2-1.4,0.5-1.8c0.3-0.4,0.8-0.6,1.5-0.6c0.9,0,1.6,0.4,2,1.3
				c0.2,0.5,0.3,1.2,0.3,2.2h-0.8v-0.1l0-0.4c0-0.3,0-0.5-0.1-0.7c-0.1-0.4-0.3-0.8-0.5-1c-0.3-0.2-0.6-0.4-1-0.4
				c-0.8,0-1.2,0.5-1.2,1.5c0,0.2,0,0.5,0,0.7l0,0.3c0,0,0,0.1,0,0.1l-2.9-0.2v-3.1h0.8V235.7z"/>
			<path class="st11" d="M83.6,229.2V228l0.1,0.1c0.7,0.7,1.2,1.2,1.6,1.5l0.5,0.4c0,0,0.1,0.1,0.2,0.1c-0.1-0.3-0.2-0.6-0.2-0.8
				c0-0.6,0.2-1,0.6-1.4c0.4-0.4,0.9-0.6,1.4-0.6c0.6,0,1.1,0.2,1.5,0.6c0.4,0.4,0.6,0.9,0.6,1.5c0,0.7-0.2,1.2-0.6,1.5
				c-0.4,0.4-0.9,0.6-1.6,0.6c-0.4,0-0.8-0.1-1.2-0.2c-0.4-0.1-0.8-0.4-1.3-0.7C84.7,230.2,84.2,229.7,83.6,229.2z M86.6,229.5
				c0,0.4,0.1,0.7,0.3,0.9c0.2,0.2,0.5,0.4,0.9,0.4c0.4,0,0.7-0.1,0.9-0.3c0.2-0.2,0.4-0.5,0.4-0.9c0-0.4-0.1-0.7-0.4-0.9
				c-0.2-0.2-0.5-0.4-0.9-0.4c-0.3,0-0.6,0.1-0.9,0.4C86.7,228.9,86.6,229.2,86.6,229.5z"/>
			<path class="st11" d="M84.4,223v3.1h-0.8V222h0.2c0.3,0,0.6,0.1,0.8,0.2c0.2,0.1,0.5,0.3,0.9,0.7c0.7,0.6,1.3,1,1.7,1.2
				c0.4,0.2,0.9,0.3,1.5,0.3h1.1v0.9h-1.1c-0.5,0-1.1-0.1-1.7-0.4c-0.6-0.3-1.1-0.6-1.7-1.1l-0.5-0.4
				C84.7,223.2,84.6,223.1,84.4,223z"/>
			<path class="st11" d="M86.4,217.9l0.1-0.2c0.3-0.4,0.5-0.7,0.8-0.9c0.2-0.2,0.6-0.3,0.9-0.3c0.6,0,1,0.2,1.3,0.6
				c0.3,0.4,0.4,0.9,0.4,1.6c0,0.7-0.1,1.2-0.4,1.5c-0.3,0.4-0.7,0.5-1.3,0.5c-0.8,0-1.4-0.4-1.8-1.3c-0.3,0.4-0.5,0.7-0.7,0.9
				c-0.2,0.1-0.5,0.2-0.8,0.2c-0.4,0-0.7-0.2-1-0.5c-0.2-0.3-0.4-0.8-0.4-1.3c0-0.6,0.1-1,0.4-1.3c0.2-0.3,0.6-0.5,1-0.5
				c0.3,0,0.5,0.1,0.7,0.2c0.2,0.1,0.4,0.4,0.7,0.7L86.4,217.9z M86.8,218.7l0.1,0.2c0.2,0.4,0.4,0.7,0.6,0.8
				c0.2,0.2,0.4,0.2,0.7,0.2c0.3,0,0.5-0.1,0.7-0.3c0.2-0.2,0.3-0.5,0.3-0.9c0-0.4-0.1-0.7-0.3-0.9c-0.2-0.2-0.4-0.3-0.7-0.3
				c-0.3,0-0.5,0.1-0.8,0.3C87.1,218,86.9,218.3,86.8,218.7z M85.9,218.7c-0.1-0.3-0.3-0.5-0.5-0.7c-0.2-0.2-0.3-0.3-0.5-0.3
				c-0.2,0-0.4,0.1-0.5,0.3c-0.1,0.2-0.2,0.4-0.2,0.7c0,0.3,0.1,0.6,0.2,0.7c0.1,0.2,0.3,0.3,0.5,0.3
				C85.4,219.7,85.7,219.3,85.9,218.7z"/>
			<path class="st11" d="M89.8,213.6v1.1c-0.9-1-1.7-1.7-2.4-2.1c0.1,0.3,0.2,0.5,0.2,0.8c0,0.5-0.2,1-0.6,1.4
				c-0.4,0.4-0.9,0.6-1.4,0.6c-0.6,0-1.1-0.2-1.5-0.6c-0.4-0.4-0.6-0.9-0.6-1.5c0-0.6,0.2-1.1,0.6-1.5c0.4-0.4,0.9-0.6,1.5-0.6
				c0.6,0,1.2,0.2,1.8,0.5c0.6,0.3,1.4,0.9,2.2,1.8L89.8,213.6z M84.3,213.2c0,0.4,0.1,0.7,0.4,0.9c0.2,0.2,0.5,0.4,0.9,0.4
				c0.4,0,0.7-0.1,0.9-0.4c0.2-0.2,0.3-0.5,0.3-0.9c0-0.4-0.1-0.7-0.3-0.9c-0.2-0.2-0.5-0.3-0.9-0.3c-0.3,0-0.6,0.1-0.9,0.3
				C84.4,212.5,84.3,212.8,84.3,213.2z"/>
			<path class="st11" d="M89,208.9V206h0.8v3.7c-0.2,0-0.4,0-0.5,0c-0.6,0-1-0.1-1.4-0.3c-0.3-0.1-0.5-0.3-0.7-0.5
				c-0.2-0.2-0.5-0.5-0.7-1c-0.3-0.5-0.5-0.8-0.7-0.9c-0.2-0.2-0.4-0.2-0.6-0.2c-0.3,0-0.5,0.1-0.7,0.3c-0.2,0.2-0.3,0.4-0.3,0.7
				c0,0.6,0.2,1.2,0.7,1.8H84c-0.3-0.5-0.5-1.1-0.5-1.7c0-0.6,0.2-1.1,0.5-1.4c0.3-0.4,0.7-0.5,1.2-0.5c0.4,0,0.7,0.1,1,0.3
				c0.2,0.1,0.3,0.2,0.5,0.4c0.1,0.2,0.4,0.5,0.7,1c0.3,0.4,0.6,0.8,0.8,1c0.3,0.2,0.5,0.3,0.8,0.3H89z"/>
		</g>
	</g>
	<g>
		<g>
			<rect x="65.1" y="55" class="st8" width="24.9" height="88.2"/>
			<line class="st9" x1="90" y1="55.2" x2="72.6" y2="55.2"/>
			<line class="st9" x1="90" y1="57" x2="72.6" y2="57"/>
			<line class="st10" x1="90" y1="58.3" x2="72.6" y2="58.3"/>
			<line class="st10" x1="90" y1="60.1" x2="72.6" y2="60.1"/>
			<line class="st9" x1="90" y1="61.4" x2="72.6" y2="61.4"/>
			<line class="st10" x1="90" y1="63" x2="72.6" y2="63"/>
			<line class="st9" x1="90" y1="64.4" x2="72.6" y2="64.4"/>
			<line class="st9" x1="90" y1="66.1" x2="72.6" y2="66.1"/>
			<line class="st9" x1="90" y1="67.1" x2="72.6" y2="67.1"/>
			<line class="st10" x1="90" y1="68.4" x2="72.6" y2="68.4"/>
			<line class="st9" x1="90" y1="70" x2="72.6" y2="70"/>
			<line class="st10" x1="90" y1="71.4" x2="72.6" y2="71.4"/>
			<line class="st9" x1="90" y1="73.5" x2="72.6" y2="73.5"/>
			<line class="st9" x1="90" y1="74.5" x2="72.6" y2="74.5"/>
			<line class="st10" x1="90" y1="75.9" x2="72.6" y2="75.9"/>
			<line class="st10" x1="90" y1="77.8" x2="72.6" y2="77.8"/>
			<line class="st10" x1="90" y1="79.6" x2="72.6" y2="79.6"/>
			<line class="st9" x1="90" y1="81.7" x2="72.6" y2="81.7"/>
			<line class="st9" x1="90" y1="82.7" x2="72.6" y2="82.7"/>
			<line class="st9" x1="90" y1="83.6" x2="72.6" y2="83.6"/>
			<line class="st9" x1="90" y1="84.8" x2="72.6" y2="84.8"/>
			<line class="st9" x1="90" y1="85.8" x2="72.6" y2="85.8"/>
			<line class="st10" x1="90" y1="88" x2="72.6" y2="88"/>
			<line class="st9" x1="90" y1="89.3" x2="72.6" y2="89.3"/>
			<line class="st10" x1="90" y1="90.7" x2="72.6" y2="90.7"/>
			<line class="st10" x1="90" y1="92.6" x2="72.6" y2="92.6"/>
			<line class="st9" x1="90" y1="94" x2="72.6" y2="94"/>
			<line class="st10" x1="90" y1="96.1" x2="72.6" y2="96.1"/>
			<line class="st9" x1="90" y1="97.5" x2="72.6" y2="97.5"/>
			<line class="st9" x1="90" y1="98.5" x2="72.6" y2="98.5"/>
			<line class="st9" x1="90" y1="99.7" x2="72.6" y2="99.7"/>
			<line class="st10" x1="90" y1="101" x2="72.6" y2="101"/>
			<line class="st10" x1="90" y1="103.5" x2="72.6" y2="103.5"/>
			<line class="st9" x1="90" y1="104.9" x2="72.6" y2="104.9"/>
			<line class="st9" x1="90" y1="105.9" x2="72.6" y2="105.9"/>
			<line class="st9" x1="90" y1="107.1" x2="72.6" y2="107.1"/>
			<line class="st9" x1="90" y1="108" x2="72.6" y2="108"/>
			<line class="st9" x1="90" y1="109.8" x2="72.6" y2="109.8"/>
			<line class="st10" x1="90" y1="111.1" x2="72.6" y2="111.1"/>
			<line class="st10" x1="90" y1="112.9" x2="72.6" y2="112.9"/>
			<line class="st10" x1="90" y1="114.9" x2="72.6" y2="114.9"/>
			<line class="st9" x1="90" y1="116.2" x2="72.6" y2="116.2"/>
			<line class="st9" x1="90" y1="118" x2="72.6" y2="118"/>
			<line class="st10" x1="90" y1="119.3" x2="72.6" y2="119.3"/>
			<line class="st9" x1="90" y1="120.7" x2="72.6" y2="120.7"/>
			<line class="st9" x1="90" y1="121.9" x2="72.6" y2="121.9"/>
			<line class="st10" x1="90" y1="123.2" x2="72.6" y2="123.2"/>
			<line class="st9" x1="90" y1="125.4" x2="72.6" y2="125.4"/>
			<line class="st10" x1="90" y1="126.7" x2="72.6" y2="126.7"/>
			<line class="st9" x1="90" y1="128.1" x2="72.6" y2="128.1"/>
			<line class="st9" x1="90" y1="129.3" x2="72.6" y2="129.3"/>
			<line class="st10" x1="90" y1="130.6" x2="72.6" y2="130.6"/>
			<line class="st9" x1="90" y1="132.8" x2="72.6" y2="132.8"/>
			<line class="st9" x1="90" y1="133.7" x2="72.6" y2="133.7"/>
			<line class="st10" x1="90" y1="135.1" x2="72.6" y2="135.1"/>
			<line class="st9" x1="90" y1="136.7" x2="72.6" y2="136.7"/>
			<line class="st9" x1="90" y1="138.4" x2="72.6" y2="138.4"/>
			<line class="st10" x1="90" y1="139.8" x2="72.6" y2="139.8"/>
			<line class="st10" x1="90" y1="141.5" x2="72.6" y2="141.5"/>
			<line class="st9" x1="90" y1="142.9" x2="72.6" y2="142.9"/>
		</g>
		<g>
			<path class="st11" d="M70.5,74.5l-1.4-1.6h1.1l1.3,1.5v0.9h-6.2v-0.9H70.5z"/>
			<path class="st11" d="M66.1,78.9v2.8h-0.8v-3.7c0.2,0,0.4,0,0.5,0c0.6,0,1,0.1,1.4,0.3c0.3,0.1,0.5,0.3,0.7,0.5
				c0.2,0.2,0.5,0.5,0.7,1c0.3,0.5,0.5,0.8,0.7,0.9c0.2,0.2,0.4,0.2,0.6,0.2c0.3,0,0.5-0.1,0.7-0.3c0.2-0.2,0.3-0.4,0.3-0.7
				c0-0.6-0.2-1.2-0.7-1.8h0.9c0.3,0.5,0.5,1.1,0.5,1.7c0,0.6-0.2,1.1-0.5,1.4c-0.3,0.4-0.7,0.5-1.2,0.5c-0.4,0-0.7-0.1-1-0.3
				c-0.2-0.1-0.3-0.2-0.5-0.4c-0.1-0.2-0.4-0.5-0.7-1c-0.3-0.4-0.6-0.8-0.8-1c-0.3-0.2-0.5-0.3-0.8-0.3H66.1z"/>
			<path class="st11" d="M70.7,86.1v-2.7h0.8v3.8h-0.9L69,85.6c0,0.6-0.2,1.1-0.5,1.4c-0.3,0.3-0.7,0.5-1.3,0.5
				c-0.6,0-1.1-0.2-1.5-0.7c-0.4-0.4-0.6-1-0.6-1.7c0-0.5,0.1-1.1,0.4-1.6h0.9c-0.3,0.5-0.4,1-0.4,1.6c0,0.5,0.1,0.9,0.3,1.2
				c0.2,0.3,0.6,0.4,1,0.4c0.3,0,0.6-0.1,0.8-0.4c0.2-0.3,0.3-0.6,0.3-1v-0.8h0.7L70.7,86.1z"/>
			<path class="st11" d="M67.4,92.1v0.8h-0.8v-0.8h-1.4v-0.9h1.4v-2.4h0.9l3.9,1.8v0.9l-4.1-1.9v1.5h1.3v0.9H67.4z"/>
			<path class="st11" d="M70.7,95.5l-1.2-0.1l0,0.2c0,0.8-0.2,1.4-0.5,1.8c-0.3,0.4-0.8,0.6-1.5,0.6c-0.9,0-1.6-0.4-2-1.3
				c-0.2-0.5-0.3-1.2-0.3-2.2H66v0.1l0,0.4c0,0.3,0,0.5,0.1,0.7c0.1,0.4,0.3,0.8,0.5,1c0.3,0.2,0.6,0.4,1,0.4c0.8,0,1.2-0.5,1.2-1.5
				c0-0.2,0-0.5,0-0.7l0-0.3c0,0,0-0.1,0-0.1l2.9,0.2v3.1h-0.8V95.5z"/>
			<path class="st11" d="M71.5,102.1v1.1l-0.1-0.1c-0.7-0.7-1.2-1.2-1.6-1.5l-0.5-0.4c0,0-0.1-0.1-0.2-0.1c0.1,0.3,0.2,0.6,0.2,0.8
				c0,0.6-0.2,1-0.6,1.4c-0.4,0.4-0.9,0.6-1.4,0.6c-0.6,0-1.1-0.2-1.5-0.6c-0.4-0.4-0.6-0.9-0.6-1.5c0-0.7,0.2-1.2,0.6-1.5
				c0.4-0.4,0.9-0.6,1.6-0.6c0.4,0,0.8,0.1,1.2,0.2c0.4,0.1,0.8,0.4,1.3,0.7C70.4,101,70.9,101.5,71.5,102.1z M68.5,101.8
				c0-0.4-0.1-0.7-0.3-0.9c-0.2-0.2-0.5-0.4-0.9-0.4c-0.4,0-0.7,0.1-0.9,0.3c-0.2,0.2-0.4,0.5-0.4,0.9c0,0.4,0.1,0.7,0.4,0.9
				c0.2,0.2,0.5,0.4,0.9,0.4c0.3,0,0.6-0.1,0.9-0.4C68.4,102.4,68.5,102.1,68.5,101.8z"/>
			<path class="st11" d="M70.7,108.2v-3.1h0.8v4.1h-0.2c-0.3,0-0.6-0.1-0.8-0.2c-0.2-0.1-0.5-0.3-0.9-0.7c-0.7-0.6-1.3-1-1.7-1.2
				c-0.4-0.2-0.9-0.3-1.5-0.3h-1.1v-0.9h1.1c0.5,0,1.1,0.1,1.7,0.4c0.6,0.3,1.1,0.6,1.7,1.1l0.5,0.4
				C70.4,108.1,70.5,108.2,70.7,108.2z"/>
			<path class="st11" d="M68.7,113.4l-0.1,0.2c-0.3,0.4-0.5,0.7-0.8,0.9c-0.2,0.2-0.6,0.3-0.9,0.3c-0.6,0-1-0.2-1.3-0.6
				c-0.3-0.4-0.4-0.9-0.4-1.6c0-0.7,0.1-1.2,0.4-1.5c0.3-0.4,0.7-0.5,1.3-0.5c0.8,0,1.4,0.4,1.8,1.3c0.3-0.4,0.5-0.7,0.7-0.9
				c0.2-0.1,0.5-0.2,0.8-0.2c0.4,0,0.7,0.2,1,0.5c0.2,0.3,0.4,0.8,0.4,1.3c0,0.6-0.1,1-0.4,1.3c-0.2,0.3-0.6,0.5-1,0.5
				c-0.3,0-0.5-0.1-0.7-0.2c-0.2-0.1-0.4-0.4-0.7-0.7L68.7,113.4z M68.3,112.6l-0.1-0.2c-0.2-0.4-0.4-0.7-0.6-0.8
				c-0.2-0.2-0.4-0.2-0.7-0.2c-0.3,0-0.5,0.1-0.7,0.3c-0.2,0.2-0.3,0.5-0.3,0.9c0,0.4,0.1,0.7,0.3,0.9c0.2,0.2,0.4,0.3,0.7,0.3
				c0.3,0,0.5-0.1,0.8-0.3C67.9,113.3,68.1,113,68.3,112.6z M69.1,112.6c0.1,0.3,0.3,0.5,0.5,0.7c0.2,0.2,0.3,0.3,0.5,0.3
				c0.2,0,0.4-0.1,0.5-0.3c0.1-0.2,0.2-0.4,0.2-0.7c0-0.3-0.1-0.6-0.2-0.7c-0.1-0.2-0.3-0.3-0.5-0.3
				C69.7,111.6,69.4,111.9,69.1,112.6z"/>
			<path class="st11" d="M65.3,117.7v-1.1c0.9,1,1.7,1.7,2.4,2.1c-0.1-0.3-0.2-0.5-0.2-0.8c0-0.5,0.2-1,0.6-1.4
				c0.4-0.4,0.9-0.6,1.4-0.6c0.6,0,1.1,0.2,1.5,0.6c0.4,0.4,0.6,0.9,0.6,1.5c0,0.6-0.2,1.1-0.6,1.5c-0.4,0.4-0.9,0.6-1.5,0.6
				c-0.6,0-1.2-0.2-1.8-0.5c-0.6-0.3-1.4-0.9-2.2-1.8L65.3,117.7z M70.8,118.1c0-0.4-0.1-0.7-0.4-0.9c-0.2-0.2-0.5-0.4-0.9-0.4
				c-0.4,0-0.7,0.1-0.9,0.4c-0.2,0.2-0.3,0.5-0.3,0.9c0,0.4,0.1,0.7,0.3,0.9c0.2,0.2,0.5,0.3,0.9,0.3c0.3,0,0.6-0.1,0.9-0.3
				C70.7,118.8,70.8,118.4,70.8,118.1z"/>
			<path class="st11" d="M66.1,122.4v2.8h-0.8v-3.7c0.2,0,0.4,0,0.5,0c0.6,0,1,0.1,1.4,0.2c0.3,0.1,0.5,0.3,0.7,0.5
				c0.2,0.2,0.5,0.5,0.7,1c0.3,0.5,0.5,0.8,0.7,0.9c0.2,0.2,0.4,0.2,0.6,0.2c0.3,0,0.5-0.1,0.7-0.3c0.2-0.2,0.3-0.4,0.3-0.7
				c0-0.6-0.2-1.2-0.7-1.8h0.9c0.3,0.5,0.5,1.1,0.5,1.7c0,0.6-0.2,1.1-0.5,1.4c-0.3,0.4-0.7,0.5-1.2,0.5c-0.4,0-0.7-0.1-1-0.3
				c-0.2-0.1-0.3-0.2-0.5-0.4c-0.1-0.2-0.4-0.5-0.7-1c-0.3-0.4-0.6-0.8-0.8-1c-0.3-0.2-0.5-0.3-0.8-0.3H66.1z"/>
		</g>
	</g>
	<g>
		<g>
			<path class="st11" d="M72.9,28.2c-0.6-0.7-1.1-1.6-1.5-2.6s-0.6-2-0.6-3.1c0-0.9,0.2-1.8,0.5-2.7c0.4-1,0.9-2,1.6-3h0.8
				c-0.5,0.8-0.8,1.4-0.9,1.7c-0.2,0.5-0.4,1.1-0.6,1.7c-0.2,0.7-0.3,1.5-0.3,2.2c0,1.9,0.6,3.8,1.8,5.6H72.9z"/>
			<path class="st11" d="M78.5,25.6h-1.1v-6.7c-0.3,0.2-0.6,0.5-1,0.7s-0.8,0.4-1.1,0.5v-1c0.6-0.3,1.1-0.6,1.5-1s0.8-0.8,0.9-1.1
				h0.7V25.6z"/>
			<path class="st11" d="M82.2,28.2h-0.8c1.2-1.9,1.8-3.8,1.8-5.6c0-0.7-0.1-1.5-0.3-2.2c-0.1-0.6-0.3-1.1-0.6-1.7
				c-0.2-0.4-0.5-0.9-0.9-1.8h0.8c0.7,1,1.3,2,1.6,3c0.3,0.9,0.5,1.7,0.5,2.7c0,1.1-0.2,2.1-0.6,3.1S82.8,27.4,82.2,28.2z"/>
		</g>
	</g>
	<g>
		<g>
			<g>
				<line class="st12" x1="120" y1="33.1" x2="36.4" y2="33.1"/>
				<polygon class="st12" points="37.4,31.7 32,33.1 37.4,34.6 				"/>
			</g>
			<g>
				<line class="st13" x1="120" y1="33.1" x2="36.4" y2="33.1"/>
				<polygon points="38.6,29.9 26.5,33.2 38.6,36.4 				"/>
			</g>
		</g>
	</g>
	<g>
	</g>
	<g>
	</g>
	<g>
	</g>
	<g>
	</g>
	<g>
	</g>
	<g>
	</g>
	<g>
	</g>
	<g>
	</g>
	<g>
	</g>
	<g>
	</g>
	<g>
	</g>
	<g>
	</g>
	<g>
	</g>
	<g>
	</g>
	<g>
	</g>
	<g>
	</g>
	<g>
	</g>
	<g>
	</g>
</g>
</svg>
