<?xml version="1.0" encoding="utf-8"?>
<!-- Generator: Adobe Illustrator 26.3.1, SVG Export Plug-In . SVG Version: 6.00 Build 0)  -->
<svg version="1.1" id="sotiConnected" xmlns="http://www.w3.org/2000/svg" xmlns:xlink="http://www.w3.org/1999/xlink" x="0px"
	 y="0px" width="44px" height="44px" viewBox="0 0 44 44" style="enable-background:new 0 0 44 44;" xml:space="preserve">
<style type="text/css">
	.st0{fill:none;}
	.st1{fill:#54575E;}
</style>
<rect id="rect" x="2" y="2" class="st0" width="40" height="40"/>
<path id="path" class="st1" d="M22,32.7L19.3,30v9.2h-2.7V30L14,32.7l-2-1.9l5-5c0.5-0.5,1.4-0.5,1.9,0l0,0l5,5L22,32.7z M33.3,33.2
	l-2.7,2.7v-9.2h-2.8v9.2l-2.7-2.7l-1.9,1.9l5,5c0.5,0.5,1.4,0.5,1.9,0l0,0l5-5L33.3,33.2z M10.7,12.7c-0.8-0.4-1.7-0.8-2.6-1
	c-0.6-0.2-1.2-0.4-1.8-0.7c-0.3-0.1-0.6-0.4-0.9-0.7c-0.2-0.3-0.3-0.6-0.3-1c0-0.5,0.2-1,0.5-1.3c0.4-0.3,1-0.5,1.5-0.4
	c0.5,0,1,0.1,1.5,0.5C9,8.4,9.2,8.8,9.3,9.2C9.5,9.6,9.7,9.8,10,9.8h1.7c0.1,0,0.3-0.1,0.4-0.2c0.1-0.1,0.1-0.3,0.1-0.4
	c0-0.7-0.3-1.4-0.6-2c-0.4-0.7-1-1.3-1.7-1.7C9.1,5,8.2,4.8,7.2,4.8C6.3,4.8,5.4,5,4.6,5.4C3.9,5.8,3.3,6.3,2.9,7S2.3,8.5,2.3,9.4
	c-0.1,1.1,0.3,2.2,1,3.1c0.9,0.8,2,1.4,3.2,1.7c0.9,0.3,1.5,0.5,2,0.7c0.4,0.1,0.7,0.4,1,0.7c0.2,0.3,0.3,0.6,0.3,1
	c0,0.5-0.2,1-0.6,1.4c-0.5,0.3-1.2,0.5-1.9,0.4c-0.6,0-1.2-0.1-1.7-0.5c-0.4-0.3-0.7-0.8-0.8-1.2c-0.1-0.1-0.1-0.3-0.2-0.4
	c-0.1-0.1-0.3-0.1-0.4-0.1H2.6c-0.1,0-0.3,0.1-0.4,0.2C2,16.5,2,16.7,2,16.8c0,0.8,0.2,1.5,0.7,2.2s1.1,1.3,1.8,1.6
	c0.9,0.4,1.9,0.6,2.9,0.6s1.9-0.2,2.8-0.6c0.7-0.3,1.3-0.8,1.8-1.6s0.7-1.7,0.7-2.6c0-0.8-0.1-1.5-0.5-2.3
	C11.8,13.6,11.3,13.1,10.7,12.7 M24.8,11.1c0,0.9,0,1.5,0,1.9s0,1.1,0,1.9c0.1,1.7-0.5,3.4-1.5,4.7c-1,1.1-2.5,1.7-4,1.6
	c-1.5,0.1-2.9-0.5-4-1.6c-1-1.3-1.6-3-1.5-4.7c0-0.4,0-1,0-1.9c0-0.9,0-1.5,0-1.9c-0.1-1.7,0.5-3.3,1.5-4.7c1-1.1,2.4-1.7,3.9-1.6
	c1.5-0.1,2.9,0.5,3.9,1.6C24.3,7.8,24.9,9.4,24.8,11.1 M16.7,13.1c0,0.7,0,1.3,0,1.8c0,1,0.2,1.9,0.8,2.7c0.9,1,2.4,1.2,3.4,0.3
	c0.1-0.1,0.2-0.2,0.3-0.3c0.5-0.8,0.8-1.8,0.7-2.7C22,14,22,13.4,22,13.1c0-0.3,0-1,0-1.8c0-1-0.2-1.9-0.8-2.7
	c-0.4-0.6-1.1-1-1.8-0.9C18.6,7.6,18,8,17.5,8.5c-0.5,0.8-0.8,1.8-0.8,2.7C16.7,11.7,16.7,12.3,16.7,13.1 M36.3,5.1H26.1
	c-0.2,0-0.3,0.1-0.5,0.2c-0.1,0.1-0.1,0.3-0.1,0.5v1.7c0,0.2,0.1,0.3,0.2,0.5c0.1,0.1,0.3,0.2,0.4,0.2h3.6v12.2
	c0,0.2,0.1,0.3,0.2,0.5c0.1,0.1,0.3,0.2,0.4,0.2h1.8c0.2,0,0.3-0.1,0.5-0.2c0.1-0.1,0.2-0.3,0.2-0.5V8.1h3.6c0.2,0,0.3-0.1,0.5-0.2
	c0.1-0.1,0.2-0.3,0.2-0.5V5.7c0-0.2,0-0.4-0.2-0.5C36.6,5.1,36.5,5,36.3,5.1 M41.6,5.2C41.5,5.1,41.3,5,41.2,5h-1.9
	c-0.2,0-0.3,0.1-0.4,0.2c-0.1,0.1-0.2,0.3-0.2,0.5v14.7c0,0.2,0.1,0.3,0.2,0.5c0.1,0.1,0.2,0.2,0.4,0.2h1.9c0.2,0,0.3-0.1,0.4-0.2
	s0.2-0.3,0.2-0.5V5.7C41.8,5.5,41.7,5.4,41.6,5.2"/>
</svg>
