<?xml version="1.0" encoding="utf-8"?>
<!-- Generator: Adobe Illustrator 26.3.1, SVG Export Plug-In . SVG Version: 6.00 Build 0)  -->
<svg version="1.1" id="calendarWarn" xmlns="http://www.w3.org/2000/svg" xmlns:xlink="http://www.w3.org/1999/xlink" x="0px"
	 y="0px" width="44px" height="44px" viewBox="0 0 44 44" style="enable-background:new 0 0 44 44;" xml:space="preserve">
<style type="text/css">
	.st0{fill:none;}
	.st1{fill:#54575E;}
	.st2{fill:#E69A37;}
</style>
<rect id="rect" x="2" y="2" class="st0" width="40" height="40"/>
<path id="path" class="st1" d="M11.7,16.6c-0.9,0-1.6-0.7-1.6-1.6l0,0v-4.7h3.3v3.1h2.1v3.2H11.7z M29.5,37.8h-19
	c-0.9,0-1.6-0.7-1.6-1.6v-12c-5.1-1.6-8-7-6.4-12.2s7-8,12.2-6.4c3,1,5.4,3.4,6.3,6.5h8.5v3.2h-8c-0.2,5.1-4.3,9.1-9.3,9.3v9.9h17.4
	L29.5,37.8z M11.7,21.4c3.6,0,6.5-2.9,6.5-6.5s-2.9-6.5-6.5-6.5s-6.5,2.9-6.5,6.5S8.1,21.4,11.7,21.4L11.7,21.4 M18.9,27.6h-3.8v3.7
	h3.8V27.6z M25.6,27.6h-3.7v3.7h3.8v-3.7H25.6z M25.6,20.6h-3.7v3.7h3.8v-3.7H25.6z M32.4,27.6h-3.8v3.7h3.8V27.6z M32.4,20.6h-3.8
	v3.7h3.8V20.6z"/>
<path id="path-warning" class="st2" d="M32,6.9h10l-2.8,18.8h-4.5L32,6.9z M37,38.1c2.1,0,3.8-1.7,3.8-3.8s-1.7-3.8-3.8-3.8
	s-3.8,1.7-3.8,3.8S34.9,38.1,37,38.1"/>
</svg>
