<?xml version="1.0" encoding="utf-8"?>
<!-- Generator: Adobe Illustrator 26.3.1, SVG Export Plug-In . SVG Version: 6.00 Build 0)  -->
<svg version="1.1" id="unknownPrinthead" xmlns="http://www.w3.org/2000/svg" xmlns:xlink="http://www.w3.org/1999/xlink" x="0px"
	 y="0px" width="44px" height="44px" viewBox="0 0 44 44" style="enable-background:new 0 0 44 44;" xml:space="preserve">
<style type="text/css">
	.st0{fill:none;}
	.st1{fill:#54575E;}
	.st2{fill:#E54C41;}
</style>
<rect id="rect" x="2" y="2" class="st0" width="40" height="40"/>
<path id="path" class="st1" d="M23.7,36.5H6.1c-0.9,0-1.6-0.7-1.6-1.6V7.4c0-0.9,0.7-1.6,1.6-1.6l0,0h17.6V9h-16v24.2h16V36.5z
	 M14,19.2l-3.9,9.2L10,28.6c0,0.1,0.1,0.3,0.2,0.4c0.1,0.1,0.2,0.1,0.4,0.1h2.3c0.3,0,0.6-0.1,0.8-0.4l0.3-0.8V19.2z M27.7,28.4
	l-6.4-15.1c-0.2-0.4-0.6-0.6-1-0.6h-2.6v5.9l1.1-2.7l2.9,7h-4v3.3H23l1.1,2.6c0.1,0.1,0.1,0.2,0.3,0.3c0.2,0.1,0.3,0.2,0.5,0.1h2.3
	c0.1,0,0.3,0,0.4-0.1c0.1-0.1,0.2-0.2,0.2-0.4C27.7,28.5,27.7,28.4,27.7,28.4"/>
<path id="path-error" class="st2" d="M30.4,34.4c0-2.1,1.7-3.8,3.8-3.8s3.8,1.7,3.8,3.8s-1.7,3.8-3.8,3.8S30.4,36.4,30.4,34.4
	 M36.4,21.6c3.2-1,5.5-3.9,5.6-7.3c0-4.3-3.5-7.9-7.9-7.9c-4.3,0-7.9,3.5-7.9,7.9l0,0h4.5c0-1.9,1.5-3.4,3.4-3.4
	c1.9,0,3.4,1.5,3.4,3.4l0,0c0,1.9-2.2,3.1-3.8,3.4c-1.1,0.2-1.9,1.1-1.9,2.2v5.7h4.5L36.4,21.6z"/>
</svg>
