<?xml version="1.0" encoding="utf-8"?>
<!-- Generator: Adobe Illustrator 26.3.1, SVG Export Plug-In . SVG Version: 6.00 Build 0)  -->
<svg version="1.1" id="replacePlatenRoller" xmlns="http://www.w3.org/2000/svg" xmlns:xlink="http://www.w3.org/1999/xlink"
	 x="0px" y="0px" width="44px" height="44px" viewBox="0 0 44 44" style="enable-background:new 0 0 44 44;" xml:space="preserve">
<style type="text/css">
	.st0{fill:none;}
	.st1{fill:#54575E;}
	.st2{fill:#E54C41;}
</style>
<rect id="rect" x="2" y="2" class="st0" width="40" height="40"/>
<path id="path" class="st1" d="M37.9,5.2c-0.4-0.7-1.3-0.9-2-0.5l-2.5,2.1c-2.3-2.4-6-2.7-8.8-0.8L6.3,21.4l0,0
	c-1.4,1.2-2.1,3-1.9,4.9c0.1,1.4,0.5,2.7,1.2,3.9l-2.5,2.1c-0.5,0.6-0.4,1.5,0.1,2c0.4,0.7,1.3,0.9,2,0.5l2.5-2.1
	c1.4,1.3,3.3,2,5.2,2.1c1.3,0,2.6-0.4,3.6-1.2L26.6,25l-2.1-2.5l-6.3,5.3c-0.3-1.6-1-3.1-2-4.3s-2.4-2.2-3.9-2.7L26.8,8.5
	c1.3-1.1,3.7-0.3,5.3,1.6c1.3,1.3,1.7,3.2,1.1,4.9l2.1,2.5c1.8-2.4,1.9-5.7,0.2-8.2L38,7.2C38.5,6.6,38.5,5.7,37.9,5.2 M13.7,25.5
	c1.6,1.9,1.9,4.4,0.6,5.5c-1.3,0.8-3,0.6-4.1-0.5l2-1.6c0.5-0.6,0.4-1.5-0.1-2c-0.4-0.7-1.3-0.9-2-0.5l-2,1.6
	c-0.3-0.6-0.5-1.3-0.5-1.9c-0.1-0.8,0.2-1.6,0.8-2.2c0.4-0.3,0.9-0.5,1.5-0.5c0.3,0,0.6,0,0.8,0.1C11.9,23.8,12.9,24.5,13.7,25.5"/>
<path id="path-error" class="st2" d="M42,27.2v3h-2.8v-3c0-2-1.6-3.6-3.6-3.6h-2V27l-6-4.7l6-4.8v3.4h2C39.1,20.9,42,23.7,42,27.2
	 M33.9,34.6h-2c-2,0-3.6-1.6-3.6-3.6v-3h-2.8v3c0,3.5,2.9,6.4,6.4,6.4h2v3.4l6-4.7l-6-4.8V34.6z"/>
</svg>
