<?xml version="1.0" encoding="utf-8"?>
<!-- Generator: Adobe Illustrator 26.3.1, SVG Export Plug-In . SVG Version: 6.00 Build 0)  -->
<svg version="1.1" id="レイヤー_1" xmlns="http://www.w3.org/2000/svg" xmlns:xlink="http://www.w3.org/1999/xlink" x="0px"
	 y="0px" width="262.5px" height="262.5px" viewBox="0 0 262.5 262.5" enable-background="new 0 0 262.5 262.5"
	 xml:space="preserve">
<rect fill="#E4F3FC" width="262.5" height="262.5"/>
<g>
	<path d="M106,126.5l1.1,1c-0.6,2.9-1.7,5.2-3.4,6.9c-1,1-2.2,1.9-3.7,2.6c-0.7,0.3-1.5,0.6-2.3,0.8l-0.6-1.1
		c1.8-0.5,3.3-1.2,4.5-2.1c0.5-0.4,1-0.8,1.3-1.1c0.1-0.1,0.2-0.2,0.2-0.2c-1.2-1.1-2.5-2-3.8-2.8l0.7-0.9c1.4,0.8,2.7,1.7,3.9,2.7
		c1-1.6,1.7-3.2,2-4.8h-5.2c-1.1,1.7-2.4,3.1-4,4l-0.8-0.8c0.8-0.5,1.6-1.1,2.3-1.8c1.2-1.3,2.1-2.7,2.6-4.2l1.1,0.3
		c-0.2,0.6-0.5,1.1-0.7,1.5H106z M106.9,126.8c-0.3-0.8-0.7-1.6-1.2-2.3l0.9-0.3c0.5,0.7,0.9,1.5,1.2,2.3L106.9,126.8z M108.7,126.4
		c-0.3-0.8-0.7-1.6-1.2-2.4l0.9-0.3c0.5,0.7,0.9,1.5,1.2,2.3L108.7,126.4z"/>
	<path d="M121.1,137.5c-3.8-1.2-7.2-2.1-10.4-2.8l0.3-1.2c4.1,0.9,7.5,1.8,10.4,2.8L121.1,137.5z M120.8,128c-2.6-0.8-5.6-1.4-8.8-2
		l0.2-1.1c3.2,0.5,6.1,1.2,8.8,2L120.8,128z M120,132.3c-2.4-0.8-4.9-1.4-7.7-1.9l0.2-1.2c2.7,0.5,5.3,1.1,7.7,1.9L120,132.3z"/>
	<path d="M123.8,130.4h12.6v1.2h-12.6V130.4z"/>
	<path d="M143.6,137.5v-7.7c-1.6,1.1-3.3,2-5.3,2.7l-0.7-1.1c2.1-0.7,4-1.7,5.6-2.8c1.6-1.2,3-2.5,4.2-3.8l1,0.6
		c-1.1,1.2-2.3,2.4-3.7,3.5v8.6H143.6z"/>
	<path d="M150.2,129h11.7c-0.2,2.1-0.7,3.8-1.5,5c-0.7,1.1-1.6,1.9-2.8,2.4c-1.1,0.5-2.4,0.9-4.1,1.2l-0.5-1.1
		c2.4-0.3,4.1-0.9,5.3-1.9c1.2-1,1.9-2.6,2.2-4.6h-10.3V129z M151.2,125.4h9.3v1.1h-9.3V125.4z"/>
	<path d="M164.9,125.9h8.6l0.7,0.7c-0.7,1.9-1.7,3.6-2.9,5.3c1.6,1.3,3.2,2.7,4.6,4.3l-0.9,1c-1.3-1.5-2.8-3-4.4-4.4
		c-1.6,2-3.6,3.5-6,4.5l-0.7-1.1c2.4-1,4.3-2.4,5.9-4.3c1.4-1.6,2.3-3.3,2.9-4.9h-7.8V125.9z"/>
	<path d="M179.3,124.8h1.2v4.2c3.1,1,5.5,1.9,7.2,2.7l-0.6,1.1c-1.9-1-4.1-1.9-6.6-2.7v7.5h-1.2V124.8z"/>
</g>
<g>
</g>
<g>
</g>
<g>
</g>
<g>
</g>
<g>
</g>
<g>
</g>
</svg>
