<?xml version="1.0" encoding="utf-8"?>
<!-- Generator: Adobe Illustrator 26.3.1, SVG Export Plug-In . SVG Version: 6.00 Build 0)  -->
<svg version="1.1" id="usbFlashDrive" xmlns="http://www.w3.org/2000/svg" xmlns:xlink="http://www.w3.org/1999/xlink" x="0px"
	 y="0px" width="44px" height="44px" viewBox="0 0 44 44" style="enable-background:new 0 0 44 44;" xml:space="preserve">
<style type="text/css">
	.st0{fill:none;}
	.st1{fill:#54575E;}
</style>
<rect id="rect" x="2" y="2" class="st0" width="40" height="40"/>
<path id="path" class="st1" d="M40.5,11.5c-1.3-2.2-3-4.2-4.9-5.8c-2.8-2.4-7-2.4-9.8,0L9.4,19.3c-0.7,0.6-0.8,1.6-0.2,2.3l0,0
	l0.2,0.3L3,27.3c-0.3,0.3-0.5,0.7-0.6,1.1c0,0.4,0.1,0.9,0.4,1.2l8.4,10c0.6,0.7,1.6,0.8,2.3,0.2l6.4-5.4l0.2,0.3
	c0.3,0.3,0.7,0.5,1.1,0.6h0.1c0.4,0,0.8-0.1,1-0.4l16.5-13.7C41.6,18.8,42.3,14.7,40.5,11.5 M12.7,36.2l-6.3-7.5l5.2-4.3l6.3,7.5
	L12.7,36.2z M36.7,18.7L21.6,31.3l-8.8-10.5l15-12.7c1.6-1.4,4-1.4,5.6,0c1.7,1.4,3.1,3.1,4.2,5C38.7,15,38.3,17.3,36.7,18.7
	 M13.7,30.3l1.6,1.9l-1.9,1.6l-1.6-1.9L13.7,30.3z M10.8,26.8l1.6,1.9l-1.9,1.6l-1.6-1.9L10.8,26.8z"/>
</svg>
