<?xml version="1.0" encoding="utf-8"?>
<!-- Generator: Adobe Illustrator 26.3.1, SVG Export Plug-In . SVG Version: 6.00 Build 0)  -->
<svg version="1.1" id="usbHost" xmlns="http://www.w3.org/2000/svg" xmlns:xlink="http://www.w3.org/1999/xlink" x="0px" y="0px"
	 width="44px" height="44px" viewBox="0 0 44 44" style="enable-background:new 0 0 44 44;" xml:space="preserve">
<style type="text/css">
	.st0{fill:none;}
	.st1{fill:#54575E;}
</style>
<rect id="rect" x="2" y="2" class="st0" width="40" height="40"/>
<path id="path" class="st1" d="M41.5,20.9l-5.7-5.7l-2.3,2.3l2.9,2.9H19.1l3.6-6.8h6.2v-3.2h-7.2c-0.6,0-1.1,0.3-1.4,0.9l-4.9,9.1
	h-2.2c-0.9-3-4.1-4.8-7.1-3.9s-4.8,4.1-3.9,7.1s4.1,4.8,7.1,3.9c1.9-0.6,3.3-2,3.9-3.9h7.2l4.9,9.1c0.3,0.5,0.8,0.9,1.4,0.9h7.1
	v-3.2h-6.2L24,23.6h12.4l-2.9,2.9l2.3,2.3l5.7-5.7C42.2,22.5,42.2,21.5,41.5,20.9 M7.8,24.5c-1.4,0-2.5-1.1-2.5-2.5s1.1-2.5,2.5-2.5
	s2.5,1.1,2.5,2.5S9.1,24.5,7.8,24.5"/>
</svg>
