<?xml version="1.0" encoding="utf-8"?>
<!-- Generator: Adobe Illustrator 26.3.1, SVG Export Plug-In . SVG Version: 6.00 Build 0)  -->
<svg version="1.1" id="pdfdpSplit" xmlns="http://www.w3.org/2000/svg" xmlns:xlink="http://www.w3.org/1999/xlink" x="0px" y="0px"
	 width="44px" height="44px" viewBox="0 0 44 44" style="enable-background:new 0 0 44 44;" xml:space="preserve">
<style type="text/css">
	.st0{fill:none;}
	.st1{fill:#54575E;}
</style>
<rect id="rect" x="2" y="2" class="st0" width="40" height="40"/>
<path id="path" class="st1" d="M34.5,5.2h-25c-0.9,0-1.6,0.7-1.6,1.6l0,0v30.3c0,0.9,0.7,1.6,1.6,1.6h25c0.9,0,1.6-0.7,1.6-1.6V6.9
	C36.1,6,35.4,5.2,34.5,5.2L34.5,5.2 M23.6,35.5v-5.7h-3.2v5.8h-9.2v-12h3.1v-3.2h-3.1V8.5h9.2v5.7h3.3V8.5h9.2v11.9h-3.1v3.2h3.1
	v11.9H23.6z M23.4,20.6h3.1v2.8h-3.1v3.1h-2.8v-3.1h-3.1v-2.8h3.1v-3.1h2.8V20.6z"/>
</svg>
