<?xml version="1.0" encoding="utf-8"?>
<!-- Generator: Adobe Illustrator 26.3.1, SVG Export Plug-In . SVG Version: 6.00 Build 0)  -->
<svg version="1.1" xmlns="http://www.w3.org/2000/svg" xmlns:xlink="http://www.w3.org/1999/xlink" x="0px" y="0px" width="280px"
	 height="305px" viewBox="0 0 280 305" style="enable-background:new 0 0 280 305;" xml:space="preserve">
<style type="text/css">
	.st0{clip-path:url(#SVGID_00000013901624443606045070000011151405885256261555_);fill:#DCF0FA;}
	
		.st1{clip-path:url(#SVGID_00000013901624443606045070000011151405885256261555_);fill:none;stroke:#000000;stroke-width:0.75;stroke-linejoin:round;stroke-miterlimit:10;}
	
		.st2{clip-path:url(#SVGID_00000013901624443606045070000011151405885256261555_);fill:#FFFFFF;stroke:#000000;stroke-width:1.5;stroke-linejoin:round;stroke-miterlimit:10;}
	.st3{clip-path:url(#SVGID_00000013901624443606045070000011151405885256261555_);fill:none;}
	.st4{clip-path:url(#SVGID_00000028285306458828939870000001983939841841791381_);fill:#DCF0FA;}
	
		.st5{clip-path:url(#SVGID_00000028285306458828939870000001983939841841791381_);fill:none;stroke:#000000;stroke-width:0.75;stroke-linejoin:round;stroke-miterlimit:10;}
	
		.st6{clip-path:url(#SVGID_00000028285306458828939870000001983939841841791381_);fill:#FFFFFF;stroke:#000000;stroke-width:1.5;stroke-linejoin:round;stroke-miterlimit:10;}
	.st7{clip-path:url(#SVGID_00000028285306458828939870000001983939841841791381_);fill:none;}
	.st8{clip-path:url(#SVGID_00000072984065016332962310000005078624257510173631_);fill:#DCF0FA;}
	
		.st9{clip-path:url(#SVGID_00000072984065016332962310000005078624257510173631_);fill:none;stroke:#000000;stroke-width:0.75;stroke-linejoin:round;stroke-miterlimit:10;}
	
		.st10{clip-path:url(#SVGID_00000072984065016332962310000005078624257510173631_);fill:#FFFFFF;stroke:#000000;stroke-width:1.5;stroke-linejoin:round;stroke-miterlimit:10;}
	.st11{clip-path:url(#SVGID_00000072984065016332962310000005078624257510173631_);fill:none;}
	.st12{clip-path:url(#SVGID_00000132083937089778439220000009593593720384329097_);fill:#DCF0FA;}
	
		.st13{clip-path:url(#SVGID_00000132083937089778439220000009593593720384329097_);fill:none;stroke:#000000;stroke-width:0.75;stroke-linejoin:round;stroke-miterlimit:10;}
	
		.st14{clip-path:url(#SVGID_00000132083937089778439220000009593593720384329097_);fill:#FFFFFF;stroke:#000000;stroke-width:1.5;stroke-linejoin:round;stroke-miterlimit:10;}
	.st15{clip-path:url(#SVGID_00000132083937089778439220000009593593720384329097_);fill:none;}
	.st16{fill:#FFFFFF;}
	.st17{fill:none;stroke:#000000;stroke-width:0.5102;}
	.st18{fill:none;stroke:#000000;stroke-width:1.3266;}
	.st19{fill:#231815;}
	.st20{fill:none;stroke:#000000;stroke-width:0.4082;}
	.st21{fill:none;stroke:#000000;stroke-width:1.0613;}
	.st22{fill:#B5B5B6;}
	.st23{fill:none;stroke:#000000;stroke-width:2.2459;stroke-linecap:round;stroke-linejoin:round;stroke-miterlimit:10;}
</style>
<g id="Layer_1">
	<g>
		<defs>
			<rect id="SVGID_1_" x="14.1" y="185.7" width="116.8" height="104.5"/>
		</defs>
		<clipPath id="SVGID_00000023252539867281359270000007433073987258399666_">
			<use xlink:href="#SVGID_1_"  style="overflow:visible;"/>
		</clipPath>
		<polyline style="clip-path:url(#SVGID_00000023252539867281359270000007433073987258399666_);fill:#DCF0FA;" points="130.9,289.8 
			14.1,289.8 14.1,186.1 130.9,186.1 		"/>
		
			<line style="clip-path:url(#SVGID_00000023252539867281359270000007433073987258399666_);fill:none;stroke:#000000;stroke-width:0.75;stroke-linejoin:round;stroke-miterlimit:10;" x1="14.1" y1="289.8" x2="130.9" y2="289.8"/>
		
			<path style="clip-path:url(#SVGID_00000023252539867281359270000007433073987258399666_);fill:#FFFFFF;stroke:#000000;stroke-width:1.5;stroke-linejoin:round;stroke-miterlimit:10;" d="
			M-26.5,284.5c-5.6,0-10-4.5-10-10v-73.6c0-5.5,4.5-10,10-10h40.2c5.6,0,10.1,4.5,10.1,10v73.6c0,5.5-4.5,10-10.1,10H-26.5z"/>
		
			<path style="clip-path:url(#SVGID_00000023252539867281359270000007433073987258399666_);fill:#FFFFFF;stroke:#000000;stroke-width:1.5;stroke-linejoin:round;stroke-miterlimit:10;" d="
			M47,284.5c-5.5,0-10-4.5-10-10v-73.6c0-5.5,4.5-10,10-10h50.2c5.5,0,10,4.5,10,10v73.6c0,5.5-4.5,10-10,10H47z"/>
		
			<path style="clip-path:url(#SVGID_00000023252539867281359270000007433073987258399666_);fill:#FFFFFF;stroke:#000000;stroke-width:1.5;stroke-linejoin:round;stroke-miterlimit:10;" d="
			M130.8,284.5c-5.5,0-10-4.5-10-10v-73.6c0-5.5,4.5-10,10-10H171c5.5,0,10,4.5,10,10v73.6c0,5.5-4.5,10-10,10H130.8z"/>
		
			<rect x="36.5" y="191" style="clip-path:url(#SVGID_00000023252539867281359270000007433073987258399666_);fill:none;" width="71" height="94"/>
		
			<line style="clip-path:url(#SVGID_00000023252539867281359270000007433073987258399666_);fill:none;stroke:#000000;stroke-width:0.75;stroke-linejoin:round;stroke-miterlimit:10;" x1="14.1" y1="186.1" x2="130.9" y2="186.1"/>
	</g>
	<g>
		<defs>
			<rect id="SVGID_00000111186420840478734180000018010513181860424120_" x="14.1" y="52.7" width="116.8" height="104.5"/>
		</defs>
		<clipPath id="SVGID_00000004504871352128955940000016273490776571338918_">
			<use xlink:href="#SVGID_00000111186420840478734180000018010513181860424120_"  style="overflow:visible;"/>
		</clipPath>
		<polyline style="clip-path:url(#SVGID_00000004504871352128955940000016273490776571338918_);fill:#DCF0FA;" points="130.9,156.8 
			14.1,156.8 14.1,53.1 130.9,53.1 		"/>
		
			<line style="clip-path:url(#SVGID_00000004504871352128955940000016273490776571338918_);fill:none;stroke:#000000;stroke-width:0.75;stroke-linejoin:round;stroke-miterlimit:10;" x1="14.1" y1="156.8" x2="130.9" y2="156.8"/>
		
			<path style="clip-path:url(#SVGID_00000004504871352128955940000016273490776571338918_);fill:#FFFFFF;stroke:#000000;stroke-width:1.5;stroke-linejoin:round;stroke-miterlimit:10;" d="
			M-26.5,151.5c-5.6,0-10-4.5-10-10V67.8c0-5.5,4.5-10,10-10h40.2c5.6,0,10.1,4.5,10.1,10v73.6c0,5.5-4.5,10-10.1,10H-26.5z"/>
		
			<path style="clip-path:url(#SVGID_00000004504871352128955940000016273490776571338918_);fill:#FFFFFF;stroke:#000000;stroke-width:1.5;stroke-linejoin:round;stroke-miterlimit:10;" d="
			M47,151.5c-5.5,0-10-4.5-10-10V67.8c0-5.5,4.5-10,10-10h50.2c5.5,0,10,4.5,10,10v73.6c0,5.5-4.5,10-10,10H47z"/>
		
			<path style="clip-path:url(#SVGID_00000004504871352128955940000016273490776571338918_);fill:#FFFFFF;stroke:#000000;stroke-width:1.5;stroke-linejoin:round;stroke-miterlimit:10;" d="
			M130.8,151.5c-5.5,0-10-4.5-10-10V67.8c0-5.5,4.5-10,10-10H171c5.5,0,10,4.5,10,10v73.6c0,5.5-4.5,10-10,10H130.8z"/>
		
			<rect x="36.5" y="58" style="clip-path:url(#SVGID_00000004504871352128955940000016273490776571338918_);fill:none;" width="71" height="94"/>
		
			<line style="clip-path:url(#SVGID_00000004504871352128955940000016273490776571338918_);fill:none;stroke:#000000;stroke-width:0.75;stroke-linejoin:round;stroke-miterlimit:10;" x1="14.1" y1="53.1" x2="130.9" y2="53.1"/>
	</g>
	<g>
		<defs>
			<rect id="SVGID_00000112593581619953286590000003454776629573500298_" x="149.1" y="185.7" width="116.8" height="104.5"/>
		</defs>
		<clipPath id="SVGID_00000164488121850070823130000000029271186629703058_">
			<use xlink:href="#SVGID_00000112593581619953286590000003454776629573500298_"  style="overflow:visible;"/>
		</clipPath>
		<polyline style="clip-path:url(#SVGID_00000164488121850070823130000000029271186629703058_);fill:#DCF0FA;" points="265.9,289.8 
			149.1,289.8 149.1,186.1 265.9,186.1 		"/>
		
			<line style="clip-path:url(#SVGID_00000164488121850070823130000000029271186629703058_);fill:none;stroke:#000000;stroke-width:0.75;stroke-linejoin:round;stroke-miterlimit:10;" x1="149.1" y1="289.8" x2="265.9" y2="289.8"/>
		
			<path style="clip-path:url(#SVGID_00000164488121850070823130000000029271186629703058_);fill:#FFFFFF;stroke:#000000;stroke-width:1.5;stroke-linejoin:round;stroke-miterlimit:10;" d="
			M108.5,284.5c-5.5,0-10-4.5-10-10v-73.6c0-5.5,4.5-10,10-10h40.2c5.6,0,10.1,4.5,10.1,10v73.6c0,5.5-4.5,10-10.1,10H108.5z"/>
		
			<path style="clip-path:url(#SVGID_00000164488121850070823130000000029271186629703058_);fill:#FFFFFF;stroke:#000000;stroke-width:1.5;stroke-linejoin:round;stroke-miterlimit:10;" d="
			M182,284.5c-5.5,0-10-4.5-10-10v-73.6c0-5.5,4.5-10,10-10h50.2c5.5,0,10,4.5,10,10v73.6c0,5.5-4.5,10-10,10H182z"/>
		
			<path style="clip-path:url(#SVGID_00000164488121850070823130000000029271186629703058_);fill:#FFFFFF;stroke:#000000;stroke-width:1.5;stroke-linejoin:round;stroke-miterlimit:10;" d="
			M265.8,284.5c-5.5,0-10-4.5-10-10v-73.6c0-5.5,4.5-10,10-10H306c5.5,0,10,4.5,10,10v73.6c0,5.5-4.5,10-10,10H265.8z"/>
		
			<rect x="171.5" y="191" style="clip-path:url(#SVGID_00000164488121850070823130000000029271186629703058_);fill:none;" width="71" height="94"/>
		
			<line style="clip-path:url(#SVGID_00000164488121850070823130000000029271186629703058_);fill:none;stroke:#000000;stroke-width:0.75;stroke-linejoin:round;stroke-miterlimit:10;" x1="149.1" y1="186.1" x2="265.9" y2="186.1"/>
	</g>
	<g>
		<defs>
			<rect id="SVGID_00000132797137862933239880000010620635354222084238_" x="149.1" y="52.7" width="116.8" height="104.5"/>
		</defs>
		<clipPath id="SVGID_00000089535818631554441870000000904094086966602414_">
			<use xlink:href="#SVGID_00000132797137862933239880000010620635354222084238_"  style="overflow:visible;"/>
		</clipPath>
		<polyline style="clip-path:url(#SVGID_00000089535818631554441870000000904094086966602414_);fill:#DCF0FA;" points="265.9,156.8 
			149.1,156.8 149.1,53.1 265.9,53.1 		"/>
		
			<line style="clip-path:url(#SVGID_00000089535818631554441870000000904094086966602414_);fill:none;stroke:#000000;stroke-width:0.75;stroke-linejoin:round;stroke-miterlimit:10;" x1="149.1" y1="156.8" x2="265.9" y2="156.8"/>
		
			<path style="clip-path:url(#SVGID_00000089535818631554441870000000904094086966602414_);fill:#FFFFFF;stroke:#000000;stroke-width:1.5;stroke-linejoin:round;stroke-miterlimit:10;" d="
			M108.5,151.5c-5.5,0-10-4.5-10-10V67.8c0-5.5,4.5-10,10-10h40.2c5.6,0,10.1,4.5,10.1,10v73.6c0,5.5-4.5,10-10.1,10H108.5z"/>
		
			<path style="clip-path:url(#SVGID_00000089535818631554441870000000904094086966602414_);fill:#FFFFFF;stroke:#000000;stroke-width:1.5;stroke-linejoin:round;stroke-miterlimit:10;" d="
			M182,151.5c-5.5,0-10-4.5-10-10V67.8c0-5.5,4.5-10,10-10h50.2c5.5,0,10,4.5,10,10v73.6c0,5.5-4.5,10-10,10H182z"/>
		
			<path style="clip-path:url(#SVGID_00000089535818631554441870000000904094086966602414_);fill:#FFFFFF;stroke:#000000;stroke-width:1.5;stroke-linejoin:round;stroke-miterlimit:10;" d="
			M265.8,151.5c-5.5,0-10-4.5-10-10V67.8c0-5.5,4.5-10,10-10H306c5.5,0,10,4.5,10,10v73.6c0,5.5-4.5,10-10,10H265.8z"/>
		
			<rect x="171.5" y="58" style="clip-path:url(#SVGID_00000089535818631554441870000000904094086966602414_);fill:none;" width="71" height="94"/>
		
			<line style="clip-path:url(#SVGID_00000089535818631554441870000000904094086966602414_);fill:none;stroke:#000000;stroke-width:0.75;stroke-linejoin:round;stroke-miterlimit:10;" x1="149.1" y1="53.1" x2="265.9" y2="53.1"/>
	</g>
</g>
<g id="Layer_2">
	<g>
		<g>
			<rect x="60" y="193.7" class="st16" width="24.9" height="88.2"/>
			<line class="st17" x1="60" y1="281.6" x2="77.5" y2="281.6"/>
			<line class="st17" x1="60" y1="279.8" x2="77.5" y2="279.8"/>
			<line class="st18" x1="60" y1="278.5" x2="77.5" y2="278.5"/>
			<line class="st18" x1="60" y1="276.7" x2="77.5" y2="276.7"/>
			<line class="st17" x1="60" y1="275.4" x2="77.5" y2="275.4"/>
			<line class="st18" x1="60" y1="273.8" x2="77.5" y2="273.8"/>
			<line class="st17" x1="60" y1="272.4" x2="77.5" y2="272.4"/>
			<line class="st17" x1="60" y1="270.7" x2="77.5" y2="270.7"/>
			<line class="st17" x1="60" y1="269.7" x2="77.5" y2="269.7"/>
			<line class="st18" x1="60" y1="268.4" x2="77.5" y2="268.4"/>
			<line class="st17" x1="60" y1="266.8" x2="77.5" y2="266.8"/>
			<line class="st18" x1="60" y1="265.4" x2="77.5" y2="265.4"/>
			<line class="st17" x1="60" y1="263.3" x2="77.5" y2="263.3"/>
			<line class="st17" x1="60" y1="262.3" x2="77.5" y2="262.3"/>
			<line class="st18" x1="60" y1="260.9" x2="77.5" y2="260.9"/>
			<line class="st18" x1="60" y1="259" x2="77.5" y2="259"/>
			<line class="st18" x1="60" y1="257.2" x2="77.5" y2="257.2"/>
			<line class="st17" x1="60" y1="255.1" x2="77.5" y2="255.1"/>
			<line class="st17" x1="60" y1="254.1" x2="77.5" y2="254.1"/>
			<line class="st17" x1="60" y1="253.2" x2="77.5" y2="253.2"/>
			<line class="st17" x1="60" y1="252" x2="77.5" y2="252"/>
			<line class="st17" x1="60" y1="251" x2="77.5" y2="251"/>
			<line class="st18" x1="60" y1="248.8" x2="77.5" y2="248.8"/>
			<line class="st17" x1="60" y1="247.5" x2="77.5" y2="247.5"/>
			<line class="st18" x1="60" y1="246.1" x2="77.5" y2="246.1"/>
			<line class="st18" x1="60" y1="244.2" x2="77.5" y2="244.2"/>
			<line class="st17" x1="60" y1="242.8" x2="77.5" y2="242.8"/>
			<line class="st18" x1="60" y1="240.7" x2="77.5" y2="240.7"/>
			<line class="st17" x1="60" y1="239.3" x2="77.5" y2="239.3"/>
			<line class="st17" x1="60" y1="238.3" x2="77.5" y2="238.3"/>
			<line class="st17" x1="60" y1="237.1" x2="77.5" y2="237.1"/>
			<line class="st18" x1="60" y1="235.8" x2="77.5" y2="235.8"/>
			<line class="st18" x1="60" y1="233.3" x2="77.5" y2="233.3"/>
			<line class="st17" x1="60" y1="231.9" x2="77.5" y2="231.9"/>
			<line class="st17" x1="60" y1="230.9" x2="77.5" y2="230.9"/>
			<line class="st17" x1="60" y1="229.7" x2="77.5" y2="229.7"/>
			<line class="st17" x1="60" y1="228.8" x2="77.5" y2="228.8"/>
			<line class="st17" x1="60" y1="227" x2="77.5" y2="227"/>
			<line class="st18" x1="60" y1="225.7" x2="77.5" y2="225.7"/>
			<line class="st18" x1="60" y1="223.9" x2="77.5" y2="223.9"/>
			<line class="st18" x1="60" y1="221.9" x2="77.5" y2="221.9"/>
			<line class="st17" x1="60" y1="220.6" x2="77.5" y2="220.6"/>
			<line class="st17" x1="60" y1="218.8" x2="77.5" y2="218.8"/>
			<line class="st18" x1="60" y1="217.5" x2="77.5" y2="217.5"/>
			<line class="st17" x1="60" y1="216.1" x2="77.5" y2="216.1"/>
			<line class="st17" x1="60" y1="214.9" x2="77.5" y2="214.9"/>
			<line class="st18" x1="60" y1="213.6" x2="77.5" y2="213.6"/>
			<line class="st17" x1="60" y1="211.4" x2="77.5" y2="211.4"/>
			<line class="st18" x1="60" y1="210.1" x2="77.5" y2="210.1"/>
			<line class="st17" x1="60" y1="208.7" x2="77.5" y2="208.7"/>
			<line class="st17" x1="60" y1="207.5" x2="77.5" y2="207.5"/>
			<line class="st18" x1="60" y1="206.2" x2="77.5" y2="206.2"/>
			<line class="st17" x1="60" y1="204" x2="77.5" y2="204"/>
			<line class="st17" x1="60" y1="203.1" x2="77.5" y2="203.1"/>
			<line class="st18" x1="60" y1="201.7" x2="77.5" y2="201.7"/>
			<line class="st17" x1="60" y1="200.1" x2="77.5" y2="200.1"/>
			<line class="st17" x1="60" y1="198.4" x2="77.5" y2="198.4"/>
			<line class="st18" x1="60" y1="197" x2="77.5" y2="197"/>
			<line class="st18" x1="60" y1="195.3" x2="77.5" y2="195.3"/>
			<line class="st17" x1="60" y1="193.9" x2="77.5" y2="193.9"/>
		</g>
		<g>
			<path class="st19" d="M79.6,262.3l1.4,1.6h-1.1l-1.3-1.5v-0.9h6.2v0.9H79.6z"/>
			<path class="st19" d="M84,257.9v-2.8h0.8v3.7c-0.2,0-0.4,0-0.5,0c-0.6,0-1-0.1-1.4-0.3c-0.3-0.1-0.5-0.3-0.7-0.5
				c-0.2-0.2-0.5-0.5-0.7-1c-0.3-0.5-0.5-0.8-0.7-0.9c-0.2-0.2-0.4-0.2-0.6-0.2c-0.3,0-0.5,0.1-0.7,0.3c-0.2,0.2-0.3,0.4-0.3,0.7
				c0,0.6,0.2,1.2,0.7,1.8H79c-0.3-0.5-0.5-1.1-0.5-1.7c0-0.6,0.2-1.1,0.5-1.4c0.3-0.4,0.7-0.5,1.2-0.5c0.4,0,0.7,0.1,1,0.3
				c0.2,0.1,0.3,0.2,0.5,0.4c0.1,0.2,0.4,0.5,0.7,1c0.3,0.4,0.6,0.8,0.8,1c0.3,0.2,0.5,0.3,0.8,0.3H84z"/>
			<path class="st19" d="M79.4,250.7v2.7h-0.8v-3.8h0.9l1.6,1.6c0-0.6,0.2-1.1,0.5-1.4c0.3-0.3,0.7-0.5,1.3-0.5
				c0.6,0,1.1,0.2,1.5,0.7c0.4,0.4,0.6,1,0.6,1.7c0,0.5-0.1,1.1-0.4,1.6h-0.9c0.3-0.5,0.4-1,0.4-1.6c0-0.5-0.1-0.9-0.3-1.2
				c-0.2-0.3-0.6-0.4-1-0.4c-0.3,0-0.6,0.1-0.8,0.4c-0.2,0.3-0.3,0.6-0.3,1v0.8H81L79.4,250.7z"/>
			<path class="st19" d="M82.7,244.7v-0.8h0.8v0.8h1.4v0.9h-1.4v2.4h-0.9l-3.9-1.8v-0.9l4.1,1.9v-1.5h-1.3v-0.9H82.7z"/>
			<path class="st19" d="M79.4,241.3l1.2,0.1l0-0.2c0-0.8,0.2-1.4,0.5-1.8c0.3-0.4,0.8-0.6,1.5-0.6c0.9,0,1.6,0.4,2,1.3
				c0.2,0.5,0.3,1.2,0.3,2.2h-0.8v-0.1l0-0.4c0-0.3,0-0.5-0.1-0.7c-0.1-0.4-0.3-0.8-0.5-1c-0.3-0.2-0.6-0.4-1-0.4
				c-0.8,0-1.2,0.5-1.2,1.5c0,0.2,0,0.5,0,0.7l0,0.3c0,0,0,0.1,0,0.1l-2.9-0.2v-3.1h0.8V241.3z"/>
			<path class="st19" d="M78.6,234.7v-1.1l0.1,0.1c0.7,0.7,1.2,1.2,1.6,1.5l0.5,0.4c0,0,0.1,0.1,0.2,0.1c-0.1-0.3-0.2-0.6-0.2-0.8
				c0-0.6,0.2-1,0.6-1.4c0.4-0.4,0.9-0.6,1.4-0.6c0.6,0,1.1,0.2,1.5,0.6c0.4,0.4,0.6,0.9,0.6,1.5c0,0.7-0.2,1.2-0.6,1.5
				c-0.4,0.4-0.9,0.6-1.6,0.6c-0.4,0-0.8-0.1-1.2-0.2c-0.4-0.1-0.8-0.4-1.3-0.7C79.7,235.8,79.2,235.3,78.6,234.7z M81.6,235
				c0,0.4,0.1,0.7,0.3,0.9c0.2,0.2,0.5,0.4,0.9,0.4c0.4,0,0.7-0.1,0.9-0.3c0.2-0.2,0.4-0.5,0.4-0.9c0-0.4-0.1-0.7-0.4-0.9
				c-0.2-0.2-0.5-0.4-0.9-0.4c-0.3,0-0.6,0.1-0.9,0.4C81.7,234.4,81.6,234.7,81.6,235z"/>
			<path class="st19" d="M79.4,228.6v3.1h-0.8v-4.1h0.2c0.3,0,0.6,0.1,0.8,0.2c0.2,0.1,0.5,0.3,0.9,0.7c0.7,0.6,1.3,1,1.7,1.2
				c0.4,0.2,0.9,0.3,1.5,0.3h1.1v0.9h-1.1c-0.5,0-1.1-0.1-1.7-0.4c-0.6-0.3-1.1-0.6-1.7-1.1l-0.5-0.4
				C79.7,228.7,79.6,228.6,79.4,228.6z"/>
			<path class="st19" d="M81.4,223.4l0.1-0.2c0.3-0.4,0.5-0.7,0.8-0.9c0.2-0.2,0.6-0.3,0.9-0.3c0.6,0,1,0.2,1.3,0.6
				c0.3,0.4,0.4,0.9,0.4,1.6c0,0.7-0.1,1.2-0.4,1.5c-0.3,0.4-0.7,0.5-1.3,0.5c-0.8,0-1.4-0.4-1.8-1.3c-0.3,0.4-0.5,0.7-0.7,0.9
				c-0.2,0.1-0.5,0.2-0.8,0.2c-0.4,0-0.7-0.2-1-0.5c-0.2-0.3-0.4-0.8-0.4-1.3c0-0.6,0.1-1,0.4-1.3c0.2-0.3,0.6-0.5,1-0.5
				c0.3,0,0.5,0.1,0.7,0.2c0.2,0.1,0.4,0.4,0.7,0.7L81.4,223.4z M81.8,224.2l0.1,0.2c0.2,0.4,0.4,0.7,0.6,0.8
				c0.2,0.2,0.4,0.2,0.7,0.2c0.3,0,0.5-0.1,0.7-0.3c0.2-0.2,0.3-0.5,0.3-0.9c0-0.4-0.1-0.7-0.3-0.9c-0.2-0.2-0.4-0.3-0.7-0.3
				c-0.3,0-0.5,0.1-0.8,0.3C82.1,223.5,81.9,223.8,81.8,224.2z M80.9,224.2c-0.1-0.3-0.3-0.5-0.5-0.7c-0.2-0.2-0.3-0.3-0.5-0.3
				c-0.2,0-0.4,0.1-0.5,0.3c-0.1,0.2-0.2,0.4-0.2,0.7c0,0.3,0.1,0.6,0.2,0.7c0.1,0.2,0.3,0.3,0.5,0.3
				C80.4,225.2,80.7,224.9,80.9,224.2z"/>
			<path class="st19" d="M84.8,219.1v1.1c-0.9-1-1.7-1.7-2.4-2.1c0.1,0.3,0.2,0.5,0.2,0.8c0,0.5-0.2,1-0.6,1.4
				c-0.4,0.4-0.9,0.6-1.4,0.6c-0.6,0-1.1-0.2-1.5-0.6c-0.4-0.4-0.6-0.9-0.6-1.5c0-0.6,0.2-1.1,0.6-1.5c0.4-0.4,0.9-0.6,1.5-0.6
				c0.6,0,1.2,0.2,1.8,0.5c0.6,0.3,1.4,0.9,2.2,1.8L84.8,219.1z M79.3,218.7c0,0.4,0.1,0.7,0.4,0.9c0.2,0.2,0.5,0.4,0.9,0.4
				c0.4,0,0.7-0.1,0.9-0.4c0.2-0.2,0.3-0.5,0.3-0.9c0-0.4-0.1-0.7-0.3-0.9c-0.2-0.2-0.5-0.3-0.9-0.3c-0.3,0-0.6,0.1-0.9,0.3
				C79.4,218,79.3,218.4,79.3,218.7z"/>
			<path class="st19" d="M84,214.4v-2.8h0.8v3.7c-0.2,0-0.4,0-0.5,0c-0.6,0-1-0.1-1.4-0.3c-0.3-0.1-0.5-0.3-0.7-0.5
				c-0.2-0.2-0.5-0.5-0.7-1c-0.3-0.5-0.5-0.8-0.7-0.9c-0.2-0.2-0.4-0.2-0.6-0.2c-0.3,0-0.5,0.1-0.7,0.3c-0.2,0.2-0.3,0.4-0.3,0.7
				c0,0.6,0.2,1.2,0.7,1.8H79c-0.3-0.5-0.5-1.1-0.5-1.7c0-0.6,0.2-1.1,0.5-1.4c0.3-0.4,0.7-0.5,1.2-0.5c0.4,0,0.7,0.1,1,0.3
				c0.2,0.1,0.3,0.2,0.5,0.4c0.1,0.2,0.4,0.5,0.7,1c0.3,0.4,0.6,0.8,0.8,1c0.3,0.2,0.5,0.3,0.8,0.3H84z"/>
		</g>
	</g>
	<g>
		<g>
			<rect x="60.1" y="60.5" class="st16" width="24.9" height="88.2"/>
			<line class="st17" x1="85" y1="60.8" x2="67.6" y2="60.8"/>
			<line class="st17" x1="85" y1="62.5" x2="67.6" y2="62.5"/>
			<line class="st18" x1="85" y1="63.9" x2="67.6" y2="63.9"/>
			<line class="st18" x1="85" y1="65.6" x2="67.6" y2="65.6"/>
			<line class="st17" x1="85" y1="67" x2="67.6" y2="67"/>
			<line class="st18" x1="85" y1="68.6" x2="67.6" y2="68.6"/>
			<line class="st17" x1="85" y1="69.9" x2="67.6" y2="69.9"/>
			<line class="st17" x1="85" y1="71.7" x2="67.6" y2="71.7"/>
			<line class="st17" x1="85" y1="72.6" x2="67.6" y2="72.6"/>
			<line class="st18" x1="85" y1="74" x2="67.6" y2="74"/>
			<line class="st17" x1="85" y1="75.6" x2="67.6" y2="75.6"/>
			<line class="st18" x1="85" y1="76.9" x2="67.6" y2="76.9"/>
			<line class="st17" x1="85" y1="79.1" x2="67.6" y2="79.1"/>
			<line class="st17" x1="85" y1="80" x2="67.6" y2="80"/>
			<line class="st18" x1="85" y1="81.4" x2="67.6" y2="81.4"/>
			<line class="st18" x1="85" y1="83.4" x2="67.6" y2="83.4"/>
			<line class="st18" x1="85" y1="85.1" x2="67.6" y2="85.1"/>
			<line class="st17" x1="85" y1="87.2" x2="67.6" y2="87.2"/>
			<line class="st17" x1="85" y1="88.2" x2="67.6" y2="88.2"/>
			<line class="st17" x1="85" y1="89.2" x2="67.6" y2="89.2"/>
			<line class="st17" x1="85" y1="90.4" x2="67.6" y2="90.4"/>
			<line class="st17" x1="85" y1="91.4" x2="67.6" y2="91.4"/>
			<line class="st18" x1="85" y1="93.5" x2="67.6" y2="93.5"/>
			<line class="st17" x1="85" y1="94.8" x2="67.6" y2="94.8"/>
			<line class="st18" x1="85" y1="96.2" x2="67.6" y2="96.2"/>
			<line class="st18" x1="85" y1="98.2" x2="67.6" y2="98.2"/>
			<line class="st17" x1="85" y1="99.5" x2="67.6" y2="99.5"/>
			<line class="st18" x1="85" y1="101.7" x2="67.6" y2="101.7"/>
			<line class="st17" x1="85" y1="103" x2="67.6" y2="103"/>
			<line class="st17" x1="85" y1="104" x2="67.6" y2="104"/>
			<line class="st17" x1="85" y1="105.2" x2="67.6" y2="105.2"/>
			<line class="st18" x1="85" y1="106.6" x2="67.6" y2="106.6"/>
			<line class="st18" x1="85" y1="109.1" x2="67.6" y2="109.1"/>
			<line class="st17" x1="85" y1="110.4" x2="67.6" y2="110.4"/>
			<line class="st17" x1="85" y1="111.4" x2="67.6" y2="111.4"/>
			<line class="st17" x1="85" y1="112.6" x2="67.6" y2="112.6"/>
			<line class="st17" x1="85" y1="113.6" x2="67.6" y2="113.6"/>
			<line class="st17" x1="85" y1="115.3" x2="67.6" y2="115.3"/>
			<line class="st18" x1="85" y1="116.7" x2="67.6" y2="116.7"/>
			<line class="st18" x1="85" y1="118.4" x2="67.6" y2="118.4"/>
			<line class="st18" x1="85" y1="120.4" x2="67.6" y2="120.4"/>
			<line class="st17" x1="85" y1="121.8" x2="67.6" y2="121.8"/>
			<line class="st17" x1="85" y1="123.5" x2="67.6" y2="123.5"/>
			<line class="st18" x1="85" y1="124.9" x2="67.6" y2="124.9"/>
			<line class="st17" x1="85" y1="126.2" x2="67.6" y2="126.2"/>
			<line class="st17" x1="85" y1="127.4" x2="67.6" y2="127.4"/>
			<line class="st18" x1="85" y1="128.8" x2="67.6" y2="128.8"/>
			<line class="st17" x1="85" y1="130.9" x2="67.6" y2="130.9"/>
			<line class="st18" x1="85" y1="132.3" x2="67.6" y2="132.3"/>
			<line class="st17" x1="85" y1="133.6" x2="67.6" y2="133.6"/>
			<line class="st17" x1="85" y1="134.8" x2="67.6" y2="134.8"/>
			<line class="st18" x1="85" y1="136.2" x2="67.6" y2="136.2"/>
			<line class="st17" x1="85" y1="138.3" x2="67.6" y2="138.3"/>
			<line class="st17" x1="85" y1="139.3" x2="67.6" y2="139.3"/>
			<line class="st18" x1="85" y1="140.6" x2="67.6" y2="140.6"/>
			<line class="st17" x1="85" y1="142.2" x2="67.6" y2="142.2"/>
			<line class="st17" x1="85" y1="144" x2="67.6" y2="144"/>
			<line class="st18" x1="85" y1="145.3" x2="67.6" y2="145.3"/>
			<line class="st18" x1="85" y1="147.1" x2="67.6" y2="147.1"/>
			<line class="st17" x1="85" y1="148.4" x2="67.6" y2="148.4"/>
		</g>
		<g>
			<path class="st19" d="M65.5,80l-1.4-1.6h1.1l1.3,1.5v0.9h-6.2V80H65.5z"/>
			<path class="st19" d="M61.1,84.5v2.8h-0.8v-3.7c0.2,0,0.4,0,0.5,0c0.6,0,1,0.1,1.4,0.3c0.3,0.1,0.5,0.3,0.7,0.5
				c0.2,0.2,0.5,0.5,0.7,1c0.3,0.5,0.5,0.8,0.7,0.9c0.2,0.2,0.4,0.2,0.6,0.2c0.3,0,0.5-0.1,0.7-0.3c0.2-0.2,0.3-0.4,0.3-0.7
				c0-0.6-0.2-1.2-0.7-1.8h0.9c0.3,0.5,0.5,1.1,0.5,1.7c0,0.6-0.2,1.1-0.5,1.4c-0.3,0.4-0.7,0.5-1.2,0.5c-0.4,0-0.7-0.1-1-0.3
				c-0.2-0.1-0.3-0.2-0.5-0.4c-0.1-0.2-0.4-0.5-0.7-1c-0.3-0.4-0.6-0.8-0.8-1c-0.3-0.2-0.5-0.3-0.8-0.3H61.1z"/>
			<path class="st19" d="M65.7,91.6V89h0.8v3.8h-0.9L64,91.1c0,0.6-0.2,1.1-0.5,1.4c-0.3,0.3-0.7,0.5-1.3,0.5
				c-0.6,0-1.1-0.2-1.5-0.7c-0.4-0.4-0.6-1-0.6-1.7c0-0.5,0.1-1.1,0.4-1.6h0.9c-0.3,0.5-0.4,1-0.4,1.6c0,0.5,0.1,0.9,0.3,1.2
				c0.2,0.3,0.6,0.4,1,0.4c0.3,0,0.6-0.1,0.8-0.4c0.2-0.3,0.3-0.6,0.3-1V90h0.7L65.7,91.6z"/>
			<path class="st19" d="M62.4,97.6v0.8h-0.8v-0.8h-1.4v-0.9h1.4v-2.4h0.9l3.9,1.8v0.9l-4.1-1.9v1.5h1.3v0.9H62.4z"/>
			<path class="st19" d="M65.7,101.1l-1.2-0.1l0,0.2c0,0.8-0.2,1.4-0.5,1.8c-0.3,0.4-0.8,0.6-1.5,0.6c-0.9,0-1.6-0.4-2-1.3
				c-0.2-0.5-0.3-1.2-0.3-2.2H61v0.1l0,0.4c0,0.3,0,0.5,0.1,0.7c0.1,0.4,0.3,0.8,0.5,1c0.3,0.2,0.6,0.4,1,0.4c0.8,0,1.2-0.5,1.2-1.5
				c0-0.2,0-0.5,0-0.7l0-0.3c0,0,0-0.1,0-0.1l2.9,0.2v3.1h-0.8V101.1z"/>
			<path class="st19" d="M66.5,107.6v1.1l-0.1-0.1c-0.7-0.7-1.2-1.2-1.6-1.5l-0.5-0.4c0,0-0.1-0.1-0.2-0.1c0.1,0.3,0.2,0.6,0.2,0.8
				c0,0.6-0.2,1-0.6,1.4c-0.4,0.4-0.9,0.6-1.4,0.6c-0.6,0-1.1-0.2-1.5-0.6c-0.4-0.4-0.6-0.9-0.6-1.5c0-0.7,0.2-1.2,0.6-1.5
				c0.4-0.4,0.9-0.6,1.6-0.6c0.4,0,0.8,0.1,1.2,0.2c0.4,0.1,0.8,0.4,1.3,0.7C65.4,106.6,65.9,107.1,66.5,107.6z M63.5,107.3
				c0-0.4-0.1-0.7-0.3-0.9c-0.2-0.2-0.5-0.4-0.9-0.4c-0.4,0-0.7,0.1-0.9,0.3c-0.2,0.2-0.4,0.5-0.4,0.9c0,0.4,0.1,0.7,0.4,0.9
				c0.2,0.2,0.5,0.4,0.9,0.4c0.3,0,0.6-0.1,0.9-0.4C63.4,107.9,63.5,107.6,63.5,107.3z"/>
			<path class="st19" d="M65.7,113.8v-3.1h0.8v4.1h-0.2c-0.3,0-0.6-0.1-0.8-0.2c-0.2-0.1-0.5-0.3-0.9-0.7c-0.7-0.6-1.3-1-1.7-1.2
				c-0.4-0.2-0.9-0.3-1.5-0.3h-1.1v-0.9h1.1c0.5,0,1.1,0.1,1.7,0.4c0.6,0.3,1.1,0.6,1.7,1.1l0.5,0.4
				C65.4,113.6,65.5,113.7,65.7,113.8z"/>
			<path class="st19" d="M63.7,118.9l-0.1,0.2c-0.3,0.4-0.5,0.7-0.8,0.9c-0.2,0.2-0.6,0.3-0.9,0.3c-0.6,0-1-0.2-1.3-0.6
				c-0.3-0.4-0.4-0.9-0.4-1.6c0-0.7,0.1-1.2,0.4-1.5c0.3-0.4,0.7-0.5,1.3-0.5c0.8,0,1.4,0.4,1.8,1.3c0.3-0.4,0.5-0.7,0.7-0.9
				c0.2-0.1,0.5-0.2,0.8-0.2c0.4,0,0.7,0.2,1,0.5c0.2,0.3,0.4,0.8,0.4,1.3c0,0.6-0.1,1-0.4,1.3c-0.2,0.3-0.6,0.5-1,0.5
				c-0.3,0-0.5-0.1-0.7-0.2c-0.2-0.1-0.4-0.4-0.7-0.7L63.7,118.9z M63.3,118.1l-0.1-0.2c-0.2-0.4-0.4-0.7-0.6-0.8
				c-0.2-0.2-0.4-0.2-0.7-0.2c-0.3,0-0.5,0.1-0.7,0.3c-0.2,0.2-0.3,0.5-0.3,0.9c0,0.4,0.1,0.7,0.3,0.9c0.2,0.2,0.4,0.3,0.7,0.3
				c0.3,0,0.5-0.1,0.8-0.3C62.9,118.8,63.1,118.5,63.3,118.1z M64.1,118.1c0.1,0.3,0.3,0.5,0.5,0.7c0.2,0.2,0.3,0.3,0.5,0.3
				c0.2,0,0.4-0.1,0.5-0.3c0.1-0.2,0.2-0.4,0.2-0.7c0-0.3-0.1-0.6-0.2-0.7c-0.1-0.2-0.3-0.3-0.5-0.3
				C64.7,117.1,64.4,117.5,64.1,118.1z"/>
			<path class="st19" d="M60.3,123.2v-1.1c0.9,1,1.7,1.7,2.4,2.1c-0.1-0.3-0.2-0.5-0.2-0.8c0-0.5,0.2-1,0.6-1.4
				c0.4-0.4,0.9-0.6,1.4-0.6c0.6,0,1.1,0.2,1.5,0.6c0.4,0.4,0.6,0.9,0.6,1.5c0,0.6-0.2,1.1-0.6,1.5c-0.4,0.4-0.9,0.6-1.5,0.6
				c-0.6,0-1.2-0.2-1.8-0.5c-0.6-0.3-1.4-0.9-2.2-1.8L60.3,123.2z M65.8,123.6c0-0.4-0.1-0.7-0.4-0.9c-0.2-0.2-0.5-0.4-0.9-0.4
				c-0.4,0-0.7,0.1-0.9,0.4c-0.2,0.2-0.3,0.5-0.3,0.9c0,0.4,0.1,0.7,0.3,0.9c0.2,0.2,0.5,0.3,0.9,0.3c0.3,0,0.6-0.1,0.9-0.3
				C65.7,124.3,65.8,124,65.8,123.6z"/>
			<path class="st19" d="M61.1,127.9v2.8h-0.8v-3.7c0.2,0,0.4,0,0.5,0c0.6,0,1,0.1,1.4,0.2c0.3,0.1,0.5,0.3,0.7,0.5
				c0.2,0.2,0.5,0.5,0.7,1c0.3,0.5,0.5,0.8,0.7,0.9c0.2,0.2,0.4,0.2,0.6,0.2c0.3,0,0.5-0.1,0.7-0.3c0.2-0.2,0.3-0.4,0.3-0.7
				c0-0.6-0.2-1.2-0.7-1.8h0.9c0.3,0.5,0.5,1.1,0.5,1.7c0,0.6-0.2,1.1-0.5,1.4c-0.3,0.4-0.7,0.5-1.2,0.5c-0.4,0-0.7-0.1-1-0.3
				c-0.2-0.1-0.3-0.2-0.5-0.4c-0.1-0.2-0.4-0.5-0.7-1c-0.3-0.4-0.6-0.8-0.8-1c-0.3-0.2-0.5-0.3-0.8-0.3H61.1z"/>
		</g>
	</g>
	<g>
		<g>
			<rect x="175.2" y="228.5" class="st16" width="64.9" height="18.3"/>
			<line class="st20" x1="239.9" y1="246.9" x2="239.9" y2="234"/>
			<line class="st20" x1="238.6" y1="246.9" x2="238.6" y2="234"/>
			<line class="st21" x1="237.6" y1="246.9" x2="237.6" y2="234"/>
			<line class="st21" x1="236.3" y1="246.9" x2="236.3" y2="234"/>
			<line class="st20" x1="235.3" y1="246.9" x2="235.3" y2="234"/>
			<line class="st21" x1="234.1" y1="246.9" x2="234.1" y2="234"/>
			<line class="st20" x1="233.1" y1="246.9" x2="233.1" y2="234"/>
			<line class="st20" x1="231.8" y1="246.9" x2="231.8" y2="234"/>
			<line class="st20" x1="231.1" y1="246.9" x2="231.1" y2="234"/>
			<line class="st21" x1="230.1" y1="246.9" x2="230.1" y2="234"/>
			<line class="st20" x1="229" y1="246.9" x2="229" y2="234"/>
			<line class="st21" x1="228" y1="246.9" x2="228" y2="234"/>
			<line class="st20" x1="226.4" y1="246.9" x2="226.4" y2="234"/>
			<line class="st20" x1="225.7" y1="246.9" x2="225.7" y2="234"/>
			<line class="st21" x1="224.7" y1="246.9" x2="224.7" y2="234"/>
			<line class="st21" x1="223.2" y1="246.9" x2="223.2" y2="234"/>
			<line class="st21" x1="221.9" y1="246.9" x2="221.9" y2="234"/>
			<line class="st20" x1="220.4" y1="246.9" x2="220.4" y2="234"/>
			<line class="st20" x1="219.7" y1="246.9" x2="219.7" y2="234"/>
			<line class="st20" x1="218.9" y1="246.9" x2="218.9" y2="234"/>
			<line class="st20" x1="218.1" y1="246.9" x2="218.1" y2="234"/>
			<line class="st20" x1="217.3" y1="246.9" x2="217.3" y2="234"/>
			<line class="st21" x1="215.8" y1="246.9" x2="215.8" y2="234"/>
			<line class="st20" x1="214.8" y1="246.9" x2="214.8" y2="234"/>
			<line class="st21" x1="213.8" y1="246.9" x2="213.8" y2="234"/>
			<line class="st21" x1="212.3" y1="246.9" x2="212.3" y2="234"/>
			<line class="st20" x1="211.3" y1="246.9" x2="211.3" y2="234"/>
			<line class="st21" x1="209.8" y1="246.9" x2="209.8" y2="234"/>
			<line class="st20" x1="208.8" y1="246.9" x2="208.8" y2="234"/>
			<line class="st20" x1="208" y1="246.9" x2="208" y2="234"/>
			<line class="st20" x1="207.2" y1="246.9" x2="207.2" y2="234"/>
			<line class="st21" x1="206.2" y1="246.9" x2="206.2" y2="234"/>
			<line class="st21" x1="204.3" y1="246.9" x2="204.3" y2="234"/>
			<line class="st20" x1="203.3" y1="246.9" x2="203.3" y2="234"/>
			<line class="st20" x1="202.6" y1="246.9" x2="202.6" y2="234"/>
			<line class="st20" x1="201.7" y1="246.9" x2="201.7" y2="234"/>
			<line class="st20" x1="201" y1="246.9" x2="201" y2="234"/>
			<line class="st20" x1="199.7" y1="246.9" x2="199.7" y2="234"/>
			<line class="st21" x1="198.7" y1="246.9" x2="198.7" y2="234"/>
			<line class="st21" x1="197.4" y1="246.9" x2="197.4" y2="234"/>
			<line class="st21" x1="196" y1="246.9" x2="196" y2="234"/>
			<line class="st20" x1="195" y1="246.9" x2="195" y2="234"/>
			<line class="st20" x1="193.7" y1="246.9" x2="193.7" y2="234"/>
			<line class="st21" x1="192.7" y1="246.9" x2="192.7" y2="234"/>
			<line class="st20" x1="191.7" y1="246.9" x2="191.7" y2="234"/>
			<line class="st20" x1="190.8" y1="246.9" x2="190.8" y2="234"/>
			<line class="st21" x1="189.8" y1="246.9" x2="189.8" y2="234"/>
			<line class="st20" x1="188.2" y1="246.9" x2="188.2" y2="234"/>
			<line class="st21" x1="187.2" y1="246.9" x2="187.2" y2="234"/>
			<line class="st20" x1="186.2" y1="246.9" x2="186.2" y2="234"/>
			<line class="st20" x1="185.4" y1="246.9" x2="185.4" y2="234"/>
			<line class="st21" x1="184.4" y1="246.9" x2="184.4" y2="234"/>
			<line class="st20" x1="182.8" y1="246.9" x2="182.8" y2="234"/>
			<line class="st20" x1="182.1" y1="246.9" x2="182.1" y2="234"/>
			<line class="st21" x1="181.1" y1="246.9" x2="181.1" y2="234"/>
			<line class="st20" x1="179.9" y1="246.9" x2="179.9" y2="234"/>
			<line class="st20" x1="178.6" y1="246.9" x2="178.6" y2="234"/>
			<line class="st21" x1="177.6" y1="246.9" x2="177.6" y2="234"/>
			<line class="st21" x1="176.3" y1="246.9" x2="176.3" y2="234"/>
			<line class="st20" x1="175.3" y1="246.9" x2="175.3" y2="234"/>
		</g>
		<g>
			<path class="st19" d="M225.7,232.5l1.2-1v0.8l-1.1,0.9h-0.7v-4.6h0.6V232.5z"/>
			<path class="st19" d="M222.4,229.2h-2.1v-0.6h2.7c0,0.2,0,0.3,0,0.4c0,0.4-0.1,0.7-0.2,1c-0.1,0.2-0.2,0.4-0.4,0.5
				c-0.2,0.2-0.4,0.3-0.7,0.5c-0.3,0.2-0.6,0.4-0.7,0.5c-0.1,0.1-0.2,0.3-0.2,0.4c0,0.2,0.1,0.4,0.2,0.5c0.1,0.1,0.3,0.2,0.5,0.2
				c0.4,0,0.9-0.2,1.3-0.5v0.7c-0.4,0.3-0.8,0.4-1.3,0.4c-0.4,0-0.8-0.1-1.1-0.3c-0.3-0.2-0.4-0.5-0.4-0.9c0-0.3,0.1-0.5,0.2-0.7
				c0.1-0.1,0.2-0.2,0.3-0.3c0.1-0.1,0.4-0.3,0.7-0.5c0.3-0.2,0.6-0.4,0.7-0.6C222.4,229.7,222.4,229.5,222.4,229.2L222.4,229.2z"/>
			<path class="st19" d="M217.1,232.6h2v0.6h-2.8v-0.6l1.2-1.2c-0.4,0-0.8-0.2-1-0.4c-0.2-0.2-0.3-0.5-0.3-0.9
				c0-0.4,0.2-0.8,0.5-1.1c0.3-0.3,0.7-0.4,1.3-0.4c0.4,0,0.8,0.1,1.2,0.3v0.6c-0.4-0.2-0.7-0.3-1.1-0.3c-0.4,0-0.7,0.1-0.9,0.3
				c-0.2,0.2-0.3,0.4-0.3,0.7c0,0.2,0.1,0.4,0.3,0.6c0.2,0.2,0.4,0.2,0.7,0.2h0.6v0.5L217.1,232.6z"/>
			<path class="st19" d="M212.7,230.2h-0.6v-0.6h0.6v-1h0.6v1h1.7v0.7l-1.3,2.9h-0.7l1.4-3h-1.1v1h-0.6V230.2z"/>
			<path class="st19" d="M210.2,232.6l0.1-0.9l-0.2,0c-0.6,0-1-0.1-1.3-0.4c-0.3-0.3-0.5-0.6-0.5-1.1c0-0.7,0.3-1.2,1-1.4
				c0.4-0.2,0.9-0.2,1.6-0.2v0.6h-0.1l-0.3,0c-0.2,0-0.4,0-0.5,0c-0.3,0.1-0.6,0.2-0.7,0.4c-0.2,0.2-0.3,0.4-0.3,0.7
				c0,0.6,0.4,0.9,1.1,0.9c0.2,0,0.3,0,0.5,0l0.2,0c0,0,0,0,0.1,0l-0.1,2.1h-2.3v-0.6H210.2z"/>
			<path class="st19" d="M205.4,233.2h-0.8l0.1-0.1c0.5-0.5,0.9-0.9,1.1-1.2l0.3-0.4c0,0,0-0.1,0.1-0.1c-0.2,0.1-0.4,0.1-0.6,0.1
				c-0.4,0-0.7-0.1-1-0.4c-0.3-0.3-0.4-0.6-0.4-1c0-0.5,0.1-0.8,0.4-1.1c0.3-0.3,0.7-0.4,1.1-0.4c0.5,0,0.9,0.1,1.1,0.4
				c0.3,0.3,0.4,0.7,0.4,1.2c0,0.3-0.1,0.6-0.2,0.9c-0.1,0.3-0.3,0.6-0.5,0.9C206.2,232.4,205.8,232.8,205.4,233.2z M205.6,231
				c0.3,0,0.5-0.1,0.7-0.3c0.2-0.2,0.3-0.4,0.3-0.6c0-0.3-0.1-0.5-0.3-0.7c-0.2-0.2-0.4-0.3-0.7-0.3c-0.3,0-0.5,0.1-0.7,0.3
				c-0.2,0.2-0.3,0.4-0.3,0.7c0,0.3,0.1,0.5,0.3,0.6C205.1,230.9,205.4,231,205.6,231z"/>
			<path class="st19" d="M200.8,232.6h2.3v0.6h-3V233c0-0.2,0-0.4,0.1-0.6c0.1-0.2,0.2-0.4,0.5-0.7c0.4-0.5,0.7-0.9,0.9-1.3
				c0.2-0.3,0.2-0.7,0.2-1.1v-0.8h0.6v0.8c0,0.4-0.1,0.8-0.3,1.2c-0.2,0.4-0.4,0.8-0.8,1.2l-0.3,0.4
				C200.9,232.4,200.9,232.5,200.8,232.6z"/>
			<path class="st19" d="M197.1,231.2l-0.1-0.1c-0.3-0.2-0.5-0.4-0.7-0.6c-0.1-0.2-0.2-0.4-0.2-0.7c0-0.4,0.1-0.7,0.4-0.9
				c0.3-0.2,0.7-0.3,1.1-0.3c0.5,0,0.9,0.1,1.1,0.3c0.3,0.2,0.4,0.5,0.4,0.9c0,0.6-0.3,1-1,1.3c0.3,0.2,0.5,0.4,0.6,0.5
				c0.1,0.2,0.2,0.3,0.2,0.6c0,0.3-0.1,0.5-0.4,0.7c-0.2,0.2-0.6,0.3-1,0.3c-0.4,0-0.7-0.1-1-0.3c-0.2-0.2-0.4-0.4-0.4-0.7
				c0-0.2,0.1-0.4,0.2-0.5C196.5,231.6,196.7,231.4,197.1,231.2L197.1,231.2z M197.6,230.9l0.1-0.1c0.3-0.2,0.5-0.3,0.6-0.4
				c0.1-0.1,0.2-0.3,0.2-0.5c0-0.2-0.1-0.4-0.3-0.5c-0.2-0.1-0.4-0.2-0.7-0.2c-0.3,0-0.5,0.1-0.6,0.2c-0.2,0.1-0.2,0.3-0.2,0.5
				c0,0.2,0.1,0.4,0.2,0.6C197.1,230.6,197.3,230.7,197.6,230.9z M197.6,231.5c-0.2,0.1-0.4,0.2-0.5,0.3c-0.1,0.1-0.2,0.3-0.2,0.4
				c0,0.2,0.1,0.3,0.2,0.4c0.1,0.1,0.3,0.1,0.5,0.1c0.2,0,0.4,0,0.5-0.1c0.1-0.1,0.2-0.2,0.2-0.4
				C198.4,231.9,198.1,231.7,197.6,231.5z"/>
			<path class="st19" d="M193.9,228.6h0.8c-0.7,0.7-1.2,1.3-1.6,1.8c0.2-0.1,0.4-0.1,0.6-0.1c0.4,0,0.7,0.1,1,0.4
				c0.3,0.3,0.4,0.6,0.4,1c0,0.5-0.1,0.8-0.4,1.1c-0.3,0.3-0.7,0.4-1.1,0.4c-0.5,0-0.8-0.1-1.1-0.4c-0.3-0.3-0.4-0.7-0.4-1.1
				c0-0.4,0.1-0.9,0.4-1.3c0.3-0.4,0.7-1,1.3-1.7L193.9,228.6z M193.6,232.7c0.3,0,0.5-0.1,0.7-0.3c0.2-0.2,0.3-0.4,0.3-0.7
				c0-0.3-0.1-0.5-0.3-0.7c-0.2-0.2-0.4-0.3-0.7-0.3c-0.3,0-0.5,0.1-0.7,0.3c-0.2,0.2-0.3,0.4-0.3,0.7c0,0.2,0.1,0.4,0.2,0.6
				C193.1,232.6,193.3,232.7,193.6,232.7z"/>
			<path class="st19" d="M190.4,229.2h-2.1v-0.6h2.7c0,0.2,0,0.3,0,0.4c0,0.4-0.1,0.7-0.2,1c-0.1,0.2-0.2,0.4-0.4,0.5
				c-0.2,0.2-0.4,0.3-0.7,0.5c-0.3,0.2-0.6,0.4-0.7,0.5c-0.1,0.1-0.2,0.3-0.2,0.4c0,0.2,0.1,0.4,0.2,0.5c0.1,0.1,0.3,0.2,0.5,0.2
				c0.4,0,0.9-0.2,1.3-0.5v0.7c-0.4,0.3-0.8,0.4-1.3,0.4c-0.4,0-0.8-0.1-1.1-0.3c-0.3-0.2-0.4-0.5-0.4-0.9c0-0.3,0.1-0.5,0.2-0.7
				c0.1-0.1,0.2-0.2,0.3-0.3c0.1-0.1,0.4-0.3,0.7-0.5c0.3-0.2,0.6-0.4,0.7-0.6C190.3,229.7,190.4,229.5,190.4,229.2L190.4,229.2z"/>
		</g>
	</g>
	<g>
		<g>
			<rect x="175.1" y="95.1" class="st16" width="64.9" height="18.3"/>
			<line class="st20" x1="175.3" y1="95.1" x2="175.3" y2="107.9"/>
			<line class="st20" x1="176.6" y1="95.1" x2="176.6" y2="107.9"/>
			<line class="st21" x1="177.6" y1="95.1" x2="177.6" y2="107.9"/>
			<line class="st21" x1="178.8" y1="95.1" x2="178.8" y2="107.9"/>
			<line class="st20" x1="179.8" y1="95.1" x2="179.8" y2="107.9"/>
			<line class="st21" x1="181" y1="95.1" x2="181" y2="107.9"/>
			<line class="st20" x1="182" y1="95.1" x2="182" y2="107.9"/>
			<line class="st20" x1="183.3" y1="95.1" x2="183.3" y2="107.9"/>
			<line class="st20" x1="184" y1="95.1" x2="184" y2="107.9"/>
			<line class="st21" x1="185" y1="95.1" x2="185" y2="107.9"/>
			<line class="st20" x1="186.2" y1="95.1" x2="186.2" y2="107.9"/>
			<line class="st21" x1="187.2" y1="95.1" x2="187.2" y2="107.9"/>
			<line class="st20" x1="188.8" y1="95.1" x2="188.8" y2="107.9"/>
			<line class="st20" x1="189.5" y1="95.1" x2="189.5" y2="107.9"/>
			<line class="st21" x1="190.5" y1="95.1" x2="190.5" y2="107.9"/>
			<line class="st21" x1="191.9" y1="95.1" x2="191.9" y2="107.9"/>
			<line class="st21" x1="193.2" y1="95.1" x2="193.2" y2="107.9"/>
			<line class="st20" x1="194.8" y1="95.1" x2="194.8" y2="107.9"/>
			<line class="st20" x1="195.5" y1="95.1" x2="195.5" y2="107.9"/>
			<line class="st20" x1="196.2" y1="95.1" x2="196.2" y2="107.9"/>
			<line class="st20" x1="197.1" y1="95.1" x2="197.1" y2="107.9"/>
			<line class="st20" x1="197.8" y1="95.1" x2="197.8" y2="107.9"/>
			<line class="st21" x1="199.4" y1="95.1" x2="199.4" y2="107.9"/>
			<line class="st20" x1="200.4" y1="95.1" x2="200.4" y2="107.9"/>
			<line class="st21" x1="201.4" y1="95.1" x2="201.4" y2="107.9"/>
			<line class="st21" x1="202.8" y1="95.1" x2="202.8" y2="107.9"/>
			<line class="st20" x1="203.8" y1="95.1" x2="203.8" y2="107.9"/>
			<line class="st21" x1="205.4" y1="95.1" x2="205.4" y2="107.9"/>
			<line class="st20" x1="206.4" y1="95.1" x2="206.4" y2="107.9"/>
			<line class="st20" x1="207.1" y1="95.1" x2="207.1" y2="107.9"/>
			<line class="st20" x1="208" y1="95.1" x2="208" y2="107.9"/>
			<line class="st21" x1="209" y1="95.1" x2="209" y2="107.9"/>
			<line class="st21" x1="210.8" y1="95.1" x2="210.8" y2="107.9"/>
			<line class="st20" x1="211.8" y1="95.1" x2="211.8" y2="107.9"/>
			<line class="st20" x1="212.6" y1="95.1" x2="212.6" y2="107.9"/>
			<line class="st20" x1="213.4" y1="95.1" x2="213.4" y2="107.9"/>
			<line class="st20" x1="214.2" y1="95.1" x2="214.2" y2="107.9"/>
			<line class="st20" x1="215.4" y1="95.1" x2="215.4" y2="107.9"/>
			<line class="st21" x1="216.4" y1="95.1" x2="216.4" y2="107.9"/>
			<line class="st21" x1="217.7" y1="95.1" x2="217.7" y2="107.9"/>
			<line class="st21" x1="219.2" y1="95.1" x2="219.2" y2="107.9"/>
			<line class="st20" x1="220.2" y1="95.1" x2="220.2" y2="107.9"/>
			<line class="st20" x1="221.5" y1="95.1" x2="221.5" y2="107.9"/>
			<line class="st21" x1="222.5" y1="95.1" x2="222.5" y2="107.9"/>
			<line class="st20" x1="223.5" y1="95.1" x2="223.5" y2="107.9"/>
			<line class="st20" x1="224.3" y1="95.1" x2="224.3" y2="107.9"/>
			<line class="st21" x1="225.3" y1="95.1" x2="225.3" y2="107.9"/>
			<line class="st20" x1="226.9" y1="95.1" x2="226.9" y2="107.9"/>
			<line class="st21" x1="227.9" y1="95.1" x2="227.9" y2="107.9"/>
			<line class="st20" x1="228.9" y1="95.1" x2="228.9" y2="107.9"/>
			<line class="st20" x1="229.8" y1="95.1" x2="229.8" y2="107.9"/>
			<line class="st21" x1="230.8" y1="95.1" x2="230.8" y2="107.9"/>
			<line class="st20" x1="232.4" y1="95.1" x2="232.4" y2="107.9"/>
			<line class="st20" x1="233.1" y1="95.1" x2="233.1" y2="107.9"/>
			<line class="st21" x1="234.1" y1="95.1" x2="234.1" y2="107.9"/>
			<line class="st20" x1="235.2" y1="95.1" x2="235.2" y2="107.9"/>
			<line class="st20" x1="236.5" y1="95.1" x2="236.5" y2="107.9"/>
			<line class="st21" x1="237.5" y1="95.1" x2="237.5" y2="107.9"/>
			<line class="st21" x1="238.8" y1="95.1" x2="238.8" y2="107.9"/>
			<line class="st20" x1="239.8" y1="95.1" x2="239.8" y2="107.9"/>
		</g>
		<g>
			<path class="st19" d="M189.5,109.4l-1.2,1v-0.8l1.1-0.9h0.7v4.6h-0.6V109.4z"/>
			<path class="st19" d="M192.7,112.7h2.1v0.6h-2.7c0-0.2,0-0.3,0-0.4c0-0.4,0.1-0.7,0.2-1c0.1-0.2,0.2-0.4,0.4-0.5
				c0.2-0.2,0.4-0.3,0.7-0.5c0.3-0.2,0.6-0.4,0.7-0.5c0.1-0.1,0.2-0.3,0.2-0.4c0-0.2-0.1-0.4-0.2-0.5c-0.1-0.1-0.3-0.2-0.5-0.2
				c-0.4,0-0.9,0.2-1.3,0.5V109c0.4-0.3,0.8-0.4,1.3-0.4c0.4,0,0.8,0.1,1.1,0.3c0.3,0.2,0.4,0.5,0.4,0.9c0,0.3-0.1,0.5-0.2,0.7
				c-0.1,0.1-0.2,0.2-0.3,0.3c-0.1,0.1-0.4,0.3-0.7,0.5c-0.3,0.2-0.6,0.4-0.7,0.6C192.8,112.2,192.7,112.4,192.7,112.7L192.7,112.7z
				"/>
			<path class="st19" d="M198,109.3h-2v-0.6h2.8v0.6l-1.2,1.2c0.4,0,0.8,0.2,1,0.4c0.2,0.2,0.3,0.5,0.3,0.9c0,0.4-0.2,0.8-0.5,1.1
				c-0.3,0.3-0.7,0.4-1.3,0.4c-0.4,0-0.8-0.1-1.2-0.3v-0.6c0.4,0.2,0.7,0.3,1.1,0.3c0.4,0,0.7-0.1,0.9-0.3c0.2-0.2,0.3-0.4,0.3-0.7
				c0-0.2-0.1-0.4-0.3-0.6c-0.2-0.2-0.4-0.2-0.7-0.2h-0.6v-0.5L198,109.3z"/>
			<path class="st19" d="M202.4,111.7h0.6v0.6h-0.6v1h-0.6v-1H200v-0.7l1.3-2.9h0.7l-1.4,3h1.1v-1h0.6V111.7z"/>
			<path class="st19" d="M204.9,109.3l-0.1,0.9l0.2,0c0.6,0,1,0.1,1.3,0.4c0.3,0.3,0.5,0.6,0.5,1.1c0,0.7-0.3,1.2-1,1.4
				c-0.4,0.2-0.9,0.2-1.6,0.2v-0.6h0.1l0.3,0c0.2,0,0.4,0,0.5,0c0.3-0.1,0.6-0.2,0.7-0.4c0.2-0.2,0.3-0.4,0.3-0.7
				c0-0.6-0.4-0.9-1.1-0.9c-0.2,0-0.3,0-0.5,0l-0.2,0c0,0,0,0-0.1,0l0.1-2.1h2.3v0.6H204.9z"/>
			<path class="st19" d="M209.8,108.7h0.8l-0.1,0.1c-0.5,0.5-0.9,0.9-1.1,1.2l-0.3,0.4c0,0,0,0.1-0.1,0.1c0.2-0.1,0.4-0.1,0.6-0.1
				c0.4,0,0.7,0.1,1,0.4c0.3,0.3,0.4,0.6,0.4,1c0,0.5-0.1,0.8-0.4,1.1c-0.3,0.3-0.7,0.4-1.1,0.4c-0.5,0-0.9-0.1-1.1-0.4
				c-0.3-0.3-0.4-0.7-0.4-1.2c0-0.3,0.1-0.6,0.2-0.9c0.1-0.3,0.3-0.6,0.5-0.9C209,109.6,209.4,109.2,209.8,108.7z M209.5,111
				c-0.3,0-0.5,0.1-0.7,0.3c-0.2,0.2-0.3,0.4-0.3,0.6c0,0.3,0.1,0.5,0.3,0.7c0.2,0.2,0.4,0.3,0.7,0.3c0.3,0,0.5-0.1,0.7-0.3
				c0.2-0.2,0.3-0.4,0.3-0.7c0-0.3-0.1-0.5-0.3-0.6C210,111,209.8,111,209.5,111z"/>
			<path class="st19" d="M214.3,109.3H212v-0.6h3v0.2c0,0.2,0,0.4-0.1,0.6c-0.1,0.2-0.2,0.4-0.5,0.7c-0.4,0.5-0.7,0.9-0.9,1.3
				c-0.2,0.3-0.2,0.7-0.2,1.1v0.8h-0.6v-0.8c0-0.4,0.1-0.8,0.3-1.2c0.2-0.4,0.4-0.8,0.8-1.2l0.3-0.4
				C214.2,109.6,214.3,109.4,214.3,109.3z"/>
			<path class="st19" d="M218.1,110.8l0.1,0.1c0.3,0.2,0.5,0.4,0.7,0.6c0.1,0.2,0.2,0.4,0.2,0.7c0,0.4-0.1,0.7-0.4,0.9
				c-0.3,0.2-0.7,0.3-1.1,0.3c-0.5,0-0.9-0.1-1.1-0.3c-0.3-0.2-0.4-0.5-0.4-0.9c0-0.6,0.3-1,1-1.3c-0.3-0.2-0.5-0.4-0.6-0.5
				c-0.1-0.2-0.2-0.3-0.2-0.6c0-0.3,0.1-0.5,0.4-0.7c0.2-0.2,0.6-0.3,1-0.3c0.4,0,0.7,0.1,1,0.3c0.2,0.2,0.4,0.4,0.4,0.7
				c0,0.2-0.1,0.4-0.2,0.5C218.6,110.4,218.4,110.5,218.1,110.8L218.1,110.8z M217.5,111.1l-0.1,0.1c-0.3,0.2-0.5,0.3-0.6,0.4
				c-0.1,0.1-0.2,0.3-0.2,0.5c0,0.2,0.1,0.4,0.3,0.5c0.2,0.1,0.4,0.2,0.7,0.2c0.3,0,0.5-0.1,0.6-0.2c0.2-0.1,0.2-0.3,0.2-0.5
				c0-0.2-0.1-0.4-0.2-0.6C218,111.3,217.8,111.2,217.5,111.1z M217.5,110.5c0.2-0.1,0.4-0.2,0.5-0.3c0.1-0.1,0.2-0.3,0.2-0.4
				c0-0.2-0.1-0.3-0.2-0.4c-0.1-0.1-0.3-0.1-0.5-0.1c-0.2,0-0.4,0-0.5,0.1c-0.1,0.1-0.2,0.2-0.2,0.4
				C216.8,110,217,110.3,217.5,110.5z"/>
			<path class="st19" d="M221.3,113.3h-0.8c0.7-0.7,1.2-1.3,1.6-1.8c-0.2,0.1-0.4,0.1-0.6,0.1c-0.4,0-0.7-0.1-1-0.4
				c-0.3-0.3-0.4-0.6-0.4-1c0-0.5,0.1-0.8,0.4-1.1c0.3-0.3,0.7-0.4,1.1-0.4c0.5,0,0.8,0.1,1.1,0.4c0.3,0.3,0.4,0.7,0.4,1.1
				c0,0.4-0.1,0.9-0.4,1.3c-0.3,0.4-0.7,1-1.3,1.7L221.3,113.3z M221.5,109.2c-0.3,0-0.5,0.1-0.7,0.3c-0.2,0.2-0.3,0.4-0.3,0.7
				c0,0.3,0.1,0.5,0.3,0.7c0.2,0.2,0.4,0.3,0.7,0.3c0.3,0,0.5-0.1,0.7-0.3c0.2-0.2,0.3-0.4,0.3-0.7c0-0.2-0.1-0.4-0.2-0.6
				C222,109.3,221.8,109.2,221.5,109.2z"/>
			<path class="st19" d="M224.7,112.7h2.1v0.6h-2.7c0-0.2,0-0.3,0-0.4c0-0.4,0.1-0.7,0.2-1c0.1-0.2,0.2-0.4,0.4-0.5
				c0.2-0.2,0.4-0.3,0.7-0.5c0.3-0.2,0.6-0.4,0.7-0.5c0.1-0.1,0.2-0.3,0.2-0.4c0-0.2-0.1-0.4-0.2-0.5c-0.1-0.1-0.3-0.2-0.5-0.2
				c-0.4,0-0.9,0.2-1.3,0.5V109c0.4-0.3,0.8-0.4,1.3-0.4c0.4,0,0.8,0.1,1.1,0.3c0.3,0.2,0.4,0.5,0.4,0.9c0,0.3-0.1,0.5-0.2,0.7
				c-0.1,0.1-0.2,0.2-0.3,0.3c-0.1,0.1-0.4,0.3-0.7,0.5c-0.3,0.2-0.6,0.4-0.7,0.6C224.8,112.2,224.7,112.4,224.7,112.7L224.7,112.7z
				"/>
		</g>
	</g>
	<g>
		<g>
			<path class="st19" d="M124.2,27.6c-0.6-0.7-1.1-1.6-1.5-2.6s-0.6-2-0.6-3.1c0-0.9,0.2-1.8,0.5-2.7c0.4-1,0.9-2,1.6-3h0.8
				c-0.5,0.8-0.8,1.4-0.9,1.7c-0.2,0.5-0.4,1.1-0.6,1.7c-0.2,0.7-0.3,1.5-0.3,2.2c0,1.9,0.6,3.8,1.8,5.6H124.2z"/>
			<path class="st19" d="M129.9,25.1h-1.1v-6.7c-0.3,0.2-0.6,0.5-1,0.7c-0.4,0.2-0.8,0.4-1.1,0.5v-1c0.6-0.3,1.1-0.6,1.5-1
				c0.4-0.4,0.8-0.8,0.9-1.1h0.7V25.1z"/>
			<path class="st19" d="M133.5,27.6h-0.8c1.2-1.9,1.8-3.8,1.8-5.6c0-0.7-0.1-1.5-0.3-2.2c-0.1-0.6-0.3-1.1-0.6-1.7
				c-0.2-0.4-0.5-0.9-0.9-1.8h0.8c0.7,1,1.3,2,1.6,3c0.3,0.9,0.5,1.7,0.5,2.7c0,1.1-0.2,2.1-0.6,3.1S134.1,26.9,133.5,27.6z"/>
		</g>
	</g>
	<g>
		<g>
			<g>
				<line class="st22" x1="194.4" y1="35.6" x2="59.5" y2="35.6"/>
				<polygon class="st22" points="60.5,34.1 55.1,35.6 60.5,37.1 				"/>
			</g>
			<g>
				<line class="st23" x1="194.4" y1="35.6" x2="59.5" y2="35.6"/>
				<polygon points="61.7,32.4 49.6,35.6 61.7,38.9 				"/>
			</g>
		</g>
	</g>
	<g>
	</g>
	<g>
	</g>
	<g>
	</g>
	<g>
	</g>
	<g>
	</g>
	<g>
	</g>
	<g>
	</g>
	<g>
	</g>
	<g>
	</g>
	<g>
	</g>
	<g>
	</g>
	<g>
	</g>
	<g>
	</g>
	<g>
	</g>
	<g>
	</g>
	<g>
	</g>
	<g>
	</g>
	<g>
	</g>
</g>
</svg>
