<?xml version="1.0" encoding="utf-8"?>
<!-- Generator: Adobe Illustrator 26.3.1, SVG Export Plug-In . SVG Version: 6.00 Build 0)  -->
<svg version="1.1" xmlns="http://www.w3.org/2000/svg" xmlns:xlink="http://www.w3.org/1999/xlink" x="0px" y="0px" width="480px"
	 height="220px" viewBox="0 0 480 220" style="enable-background:new 0 0 480 220;" xml:space="preserve">
<style type="text/css">
	.st0{clip-path:url(#SVGID_00000152970203646108386790000001129656811738656646_);fill:#CCFFFF;}
	
		.st1{clip-path:url(#SVGID_00000152970203646108386790000001129656811738656646_);fill:none;stroke:#000000;stroke-width:0.75;stroke-linejoin:round;stroke-miterlimit:10;}
	
		.st2{clip-path:url(#SVGID_00000152970203646108386790000001129656811738656646_);fill:#FFFFFF;stroke:#000000;stroke-width:1.5;stroke-linecap:round;stroke-linejoin:round;stroke-miterlimit:10;}
	.st3{clip-path:url(#SVGID_00000032607719739662475310000014231449351271735716_);fill:#CCFFFF;}
	
		.st4{clip-path:url(#SVGID_00000032607719739662475310000014231449351271735716_);fill:none;stroke:#000000;stroke-width:0.75;stroke-linejoin:round;stroke-miterlimit:10;}
	
		.st5{clip-path:url(#SVGID_00000032607719739662475310000014231449351271735716_);fill:#FFFFFF;stroke:#000000;stroke-width:1.5;stroke-linecap:round;stroke-linejoin:round;stroke-miterlimit:10;}
	.st6{clip-path:url(#SVGID_00000123413704908543540520000006083325017004993679_);}
	.st7{fill:#FFFFFF;}
	.st8{fill:none;stroke:#000000;stroke-width:0.4572;}
	.st9{fill:none;stroke:#000000;stroke-width:1.1887;}
	.st10{clip-path:url(#SVGID_00000067952422336712153850000008362493554880668552_);}
	.st11{fill:#A6A6A6;}
	.st12{fill:#5DC2D0;}
	.st13{fill:#040000;}
	.st14{fill:#FFFFFF;stroke:#000000;stroke-width:2;stroke-linecap:round;stroke-linejoin:round;stroke-miterlimit:10;}
	.st15{fill:url(#SVGID_00000137107630717456336160000017285183284860577957_);}
	.st16{fill:#FFFFFF;stroke:#000000;stroke-linejoin:round;stroke-miterlimit:10;}
	.st17{fill:url(#SVGID_00000013883878560404762040000005711363013105702575_);}
	.st18{fill:#C0DD98;}
	.st19{fill:#72AF43;}
	.st20{fill:none;stroke:#FF3200;stroke-width:15;stroke-miterlimit:10;}
	.st21{fill:#FFFF80;stroke:#FFFF00;stroke-width:1.5;stroke-miterlimit:10;}
</style>
<g id="Layer_1">
	<g>
		<defs>
			<rect id="SVGID_1_" x="255.6" y="75.1" width="221.7" height="105.3"/>
		</defs>
		<clipPath id="SVGID_00000031196684585634061970000004343388661273388714_">
			<use xlink:href="#SVGID_1_"  style="overflow:visible;"/>
		</clipPath>
		<polyline style="clip-path:url(#SVGID_00000031196684585634061970000004343388661273388714_);fill:#CCFFFF;" points="479.2,180 
			254.4,180 254.4,75.5 479.2,75.5 		"/>
		
			<line style="clip-path:url(#SVGID_00000031196684585634061970000004343388661273388714_);fill:none;stroke:#000000;stroke-width:0.75;stroke-linejoin:round;stroke-miterlimit:10;" x1="254.4" y1="180" x2="480.5" y2="180"/>
		
			<path style="clip-path:url(#SVGID_00000031196684585634061970000004343388661273388714_);fill:#FFFFFF;stroke:#000000;stroke-width:1.5;stroke-linecap:round;stroke-linejoin:round;stroke-miterlimit:10;" d="
			M257.2,174.7c-5.6,0-10.1-4.5-10.1-10.1V90.4c0-5.6,4.5-10.1,10.1-10.1h171.2c5.6,0,10.1,4.5,10.1,10.1v74.2
			c0,5.6-4.5,10.1-10.1,10.1H257.2z"/>
		
			<path style="clip-path:url(#SVGID_00000031196684585634061970000004343388661273388714_);fill:#FFFFFF;stroke:#000000;stroke-width:1.5;stroke-linecap:round;stroke-linejoin:round;stroke-miterlimit:10;" d="
			M457.3,174.7c-5.6,0-10.1-4.5-10.1-10.1V90.4c0-5.6,4.5-10.1,10.1-10.1h64c5.6,0,10.1,4.5,10.1,10.1v74.2
			c0,5.6-4.5,10.1-10.1,10.1H457.3z"/>
		
			<line style="clip-path:url(#SVGID_00000031196684585634061970000004343388661273388714_);fill:none;stroke:#000000;stroke-width:0.75;stroke-linejoin:round;stroke-miterlimit:10;" x1="254.4" y1="75.5" x2="477.9" y2="75.5"/>
	</g>
	<g>
		<defs>
			<rect id="SVGID_00000174589344503450065640000004447685244346279560_" x="2.7" y="75.1" width="221.9" height="105.3"/>
		</defs>
		<clipPath id="SVGID_00000112591951021537569060000004240324371913055129_">
			<use xlink:href="#SVGID_00000174589344503450065640000004447685244346279560_"  style="overflow:visible;"/>
		</clipPath>
		<polyline style="clip-path:url(#SVGID_00000112591951021537569060000004240324371913055129_);fill:#CCFFFF;" points="239.5,180 
			0.7,180 0.7,75.5 239.5,75.5 		"/>
		
			<line style="clip-path:url(#SVGID_00000112591951021537569060000004240324371913055129_);fill:none;stroke:#000000;stroke-width:0.75;stroke-linejoin:round;stroke-miterlimit:10;" x1="-4" y1="180" x2="234.7" y2="180"/>
		
			<path style="clip-path:url(#SVGID_00000112591951021537569060000004240324371913055129_);fill:#FFFFFF;stroke:#000000;stroke-width:1.5;stroke-linecap:round;stroke-linejoin:round;stroke-miterlimit:10;" d="
			M-39.6,174.6c-5.6,0-10.1-4.5-10.1-10.1V90.3c0-5.6,4.5-10.1,10.1-10.1H0.9c5.6,0,10.1,4.5,10.1,10.1v74.2
			c0,5.6-4.5,10.1-10.1,10.1H-39.6z"/>
		
			<path style="clip-path:url(#SVGID_00000112591951021537569060000004240324371913055129_);fill:#FFFFFF;stroke:#000000;stroke-width:1.5;stroke-linecap:round;stroke-linejoin:round;stroke-miterlimit:10;" d="
			M29.5,174.6c-5.6,0-10.1-4.5-10.1-10.1V90.3c0-5.6,4.5-10.1,10.1-10.1h171.2c5.6,0,10.1,4.5,10.1,10.1v74.2
			c0,5.6-4.5,10.1-10.1,10.1H29.5z"/>
		
			<path style="clip-path:url(#SVGID_00000112591951021537569060000004240324371913055129_);fill:#FFFFFF;stroke:#000000;stroke-width:1.5;stroke-linecap:round;stroke-linejoin:round;stroke-miterlimit:10;" d="
			M229.6,174.6c-5.6,0-10.1-4.5-10.1-10.1V90.3c0-5.6,4.5-10.1,10.1-10.1h40.5c5.6,0,10.1,4.5,10.1,10.1v74.2
			c0,5.6-4.5,10.1-10.1,10.1H229.6z"/>
		
			<line style="clip-path:url(#SVGID_00000112591951021537569060000004240324371913055129_);fill:none;stroke:#000000;stroke-width:0.75;stroke-linejoin:round;stroke-miterlimit:10;" x1="-4" y1="75.5" x2="234.7" y2="75.5"/>
	</g>
	<g>
		<defs>
			<path id="SVGID_00000084501407356831287420000004651037105834078894_" d="M257.3,173.9c-5.6,0-10.1-4.5-10.1-10.1V89.6
				c0-5.6,4.5-10.1,10.1-10.1h171.2c5.6,0,10.1,4.5,10.1,10.1v74.2c0,5.6-4.5,10.1-10.1,10.1H257.3z"/>
		</defs>
		<clipPath id="SVGID_00000173119170512514080020000002814966695369855397_">
			<use xlink:href="#SVGID_00000084501407356831287420000004651037105834078894_"  style="overflow:visible;"/>
		</clipPath>
		<g style="clip-path:url(#SVGID_00000173119170512514080020000002814966695369855397_);">
			<g>
				<rect x="279.1" y="91.9" class="st7" width="15" height="74.6"/>
				<line class="st8" x1="279.1" y1="166.3" x2="293.8" y2="166.3"/>
				<line class="st8" x1="279.1" y1="164.8" x2="293.8" y2="164.8"/>
				<line class="st9" x1="279.1" y1="163.7" x2="293.8" y2="163.7"/>
				<line class="st9" x1="279.1" y1="162.2" x2="293.8" y2="162.2"/>
				<line class="st8" x1="279.1" y1="161.1" x2="293.8" y2="161.1"/>
				<line class="st9" x1="279.1" y1="159.7" x2="293.8" y2="159.7"/>
				<line class="st8" x1="279.1" y1="158.6" x2="293.8" y2="158.6"/>
				<line class="st8" x1="279.1" y1="157.1" x2="293.8" y2="157.1"/>
				<line class="st8" x1="279.1" y1="156.3" x2="293.8" y2="156.3"/>
				<line class="st9" x1="279.1" y1="155.1" x2="293.8" y2="155.1"/>
				<line class="st8" x1="279.1" y1="153.8" x2="293.8" y2="153.8"/>
				<line class="st9" x1="279.1" y1="152.6" x2="293.8" y2="152.6"/>
				<line class="st8" x1="279.1" y1="150.8" x2="293.8" y2="150.8"/>
				<line class="st8" x1="279.1" y1="150" x2="293.8" y2="150"/>
				<line class="st9" x1="279.1" y1="148.9" x2="293.8" y2="148.9"/>
				<line class="st9" x1="279.1" y1="147.2" x2="293.8" y2="147.2"/>
				<line class="st9" x1="279.1" y1="145.7" x2="293.8" y2="145.7"/>
				<line class="st8" x1="279.1" y1="143.9" x2="293.8" y2="143.9"/>
				<line class="st8" x1="279.1" y1="143.1" x2="293.8" y2="143.1"/>
				<line class="st8" x1="279.1" y1="142.3" x2="293.8" y2="142.3"/>
				<line class="st8" x1="279.1" y1="141.2" x2="293.8" y2="141.2"/>
				<line class="st8" x1="279.1" y1="140.4" x2="293.8" y2="140.4"/>
				<line class="st9" x1="279.1" y1="138.6" x2="293.8" y2="138.6"/>
				<line class="st8" x1="279.1" y1="137.5" x2="293.8" y2="137.5"/>
				<line class="st9" x1="279.1" y1="136.3" x2="293.8" y2="136.3"/>
				<line class="st9" x1="279.1" y1="134.6" x2="293.8" y2="134.6"/>
				<line class="st8" x1="279.1" y1="133.5" x2="293.8" y2="133.5"/>
				<line class="st9" x1="279.1" y1="131.7" x2="293.8" y2="131.7"/>
				<line class="st8" x1="279.1" y1="130.5" x2="293.8" y2="130.5"/>
				<line class="st8" x1="279.1" y1="129.7" x2="293.8" y2="129.7"/>
				<line class="st8" x1="279.1" y1="128.7" x2="293.8" y2="128.7"/>
				<line class="st9" x1="279.1" y1="127.5" x2="293.8" y2="127.5"/>
				<line class="st9" x1="279.1" y1="125.4" x2="293.8" y2="125.4"/>
				<line class="st8" x1="279.1" y1="124.3" x2="293.8" y2="124.3"/>
				<line class="st8" x1="279.1" y1="123.4" x2="293.8" y2="123.4"/>
				<line class="st8" x1="279.1" y1="122.4" x2="293.8" y2="122.4"/>
				<line class="st8" x1="279.1" y1="121.6" x2="293.8" y2="121.6"/>
				<line class="st8" x1="279.1" y1="120.1" x2="293.8" y2="120.1"/>
				<line class="st9" x1="279.1" y1="119" x2="293.8" y2="119"/>
				<line class="st9" x1="279.1" y1="117.5" x2="293.8" y2="117.5"/>
				<line class="st9" x1="279.1" y1="115.8" x2="293.8" y2="115.8"/>
				<line class="st8" x1="279.1" y1="114.7" x2="293.8" y2="114.7"/>
				<line class="st8" x1="279.1" y1="113.2" x2="293.8" y2="113.2"/>
				<line class="st9" x1="279.1" y1="112" x2="293.8" y2="112"/>
				<line class="st8" x1="279.1" y1="110.9" x2="293.8" y2="110.9"/>
				<line class="st8" x1="279.1" y1="109.9" x2="293.8" y2="109.9"/>
				<line class="st9" x1="279.1" y1="108.7" x2="293.8" y2="108.7"/>
				<line class="st8" x1="279.1" y1="106.9" x2="293.8" y2="106.9"/>
				<line class="st9" x1="279.1" y1="105.8" x2="293.8" y2="105.8"/>
				<line class="st8" x1="279.1" y1="104.6" x2="293.8" y2="104.6"/>
				<line class="st8" x1="279.1" y1="103.6" x2="293.8" y2="103.6"/>
				<line class="st9" x1="279.1" y1="102.5" x2="293.8" y2="102.5"/>
				<line class="st8" x1="279.1" y1="100.7" x2="293.8" y2="100.7"/>
				<line class="st8" x1="279.1" y1="99.8" x2="293.8" y2="99.8"/>
				<line class="st9" x1="279.1" y1="98.7" x2="293.8" y2="98.7"/>
				<line class="st8" x1="279.1" y1="97.3" x2="293.8" y2="97.3"/>
				<line class="st8" x1="279.1" y1="95.9" x2="293.8" y2="95.9"/>
				<line class="st9" x1="279.1" y1="94.7" x2="293.8" y2="94.7"/>
				<line class="st9" x1="279.1" y1="93.2" x2="293.8" y2="93.2"/>
				<line class="st8" x1="279.1" y1="92.1" x2="293.8" y2="92.1"/>
			</g>
		</g>
		<g style="clip-path:url(#SVGID_00000173119170512514080020000002814966695369855397_);">
			<g>
				<rect x="335.5" y="141.9" class="st7" width="15" height="74.6"/>
				<line class="st8" x1="335.5" y1="216.3" x2="350.3" y2="216.3"/>
				<line class="st8" x1="335.5" y1="214.8" x2="350.3" y2="214.8"/>
				<line class="st9" x1="335.5" y1="213.7" x2="350.3" y2="213.7"/>
				<line class="st9" x1="335.5" y1="212.2" x2="350.3" y2="212.2"/>
				<line class="st8" x1="335.5" y1="211.1" x2="350.3" y2="211.1"/>
				<line class="st9" x1="335.5" y1="209.7" x2="350.3" y2="209.7"/>
				<line class="st8" x1="335.5" y1="208.6" x2="350.3" y2="208.6"/>
				<line class="st8" x1="335.5" y1="207.1" x2="350.3" y2="207.1"/>
				<line class="st8" x1="335.5" y1="206.3" x2="350.3" y2="206.3"/>
				<line class="st9" x1="335.5" y1="205.1" x2="350.3" y2="205.1"/>
				<line class="st8" x1="335.5" y1="203.8" x2="350.3" y2="203.8"/>
				<line class="st9" x1="335.5" y1="202.6" x2="350.3" y2="202.6"/>
				<line class="st8" x1="335.5" y1="200.8" x2="350.3" y2="200.8"/>
				<line class="st8" x1="335.5" y1="200" x2="350.3" y2="200"/>
				<line class="st9" x1="335.5" y1="198.9" x2="350.3" y2="198.9"/>
				<line class="st9" x1="335.5" y1="197.2" x2="350.3" y2="197.2"/>
				<line class="st9" x1="335.5" y1="195.7" x2="350.3" y2="195.7"/>
				<line class="st8" x1="335.5" y1="193.9" x2="350.3" y2="193.9"/>
				<line class="st8" x1="335.5" y1="193.1" x2="350.3" y2="193.1"/>
				<line class="st8" x1="335.5" y1="192.3" x2="350.3" y2="192.3"/>
				<line class="st8" x1="335.5" y1="191.2" x2="350.3" y2="191.2"/>
				<line class="st8" x1="335.5" y1="190.4" x2="350.3" y2="190.4"/>
				<line class="st9" x1="335.5" y1="188.6" x2="350.3" y2="188.6"/>
				<line class="st8" x1="335.5" y1="187.5" x2="350.3" y2="187.5"/>
				<line class="st9" x1="335.5" y1="186.3" x2="350.3" y2="186.3"/>
				<line class="st9" x1="335.5" y1="184.6" x2="350.3" y2="184.6"/>
				<line class="st8" x1="335.5" y1="183.5" x2="350.3" y2="183.5"/>
				<line class="st9" x1="335.5" y1="181.7" x2="350.3" y2="181.7"/>
				<line class="st8" x1="335.5" y1="180.5" x2="350.3" y2="180.5"/>
				<line class="st8" x1="335.5" y1="179.7" x2="350.3" y2="179.7"/>
				<line class="st8" x1="335.5" y1="178.7" x2="350.3" y2="178.7"/>
				<line class="st9" x1="335.5" y1="177.5" x2="350.3" y2="177.5"/>
				<line class="st9" x1="335.5" y1="175.4" x2="350.3" y2="175.4"/>
				<line class="st8" x1="335.5" y1="174.3" x2="350.3" y2="174.3"/>
				<line class="st8" x1="335.5" y1="173.4" x2="350.3" y2="173.4"/>
				<line class="st8" x1="335.5" y1="172.4" x2="350.3" y2="172.4"/>
				<line class="st8" x1="335.5" y1="171.6" x2="350.3" y2="171.6"/>
				<line class="st8" x1="335.5" y1="170.1" x2="350.3" y2="170.1"/>
				<line class="st9" x1="335.5" y1="169" x2="350.3" y2="169"/>
				<line class="st9" x1="335.5" y1="167.5" x2="350.3" y2="167.5"/>
				<line class="st9" x1="335.5" y1="165.8" x2="350.3" y2="165.8"/>
				<line class="st8" x1="335.5" y1="164.7" x2="350.3" y2="164.7"/>
				<line class="st8" x1="335.5" y1="163.2" x2="350.3" y2="163.2"/>
				<line class="st9" x1="335.5" y1="162" x2="350.3" y2="162"/>
				<line class="st8" x1="335.5" y1="160.9" x2="350.3" y2="160.9"/>
				<line class="st8" x1="335.5" y1="159.9" x2="350.3" y2="159.9"/>
				<line class="st9" x1="335.5" y1="158.7" x2="350.3" y2="158.7"/>
				<line class="st8" x1="335.5" y1="156.9" x2="350.3" y2="156.9"/>
				<line class="st9" x1="335.5" y1="155.8" x2="350.3" y2="155.8"/>
				<line class="st8" x1="335.5" y1="154.6" x2="350.3" y2="154.6"/>
				<line class="st8" x1="335.5" y1="153.6" x2="350.3" y2="153.6"/>
				<line class="st9" x1="335.5" y1="152.5" x2="350.3" y2="152.5"/>
				<line class="st8" x1="335.5" y1="150.7" x2="350.3" y2="150.7"/>
				<line class="st8" x1="335.5" y1="149.8" x2="350.3" y2="149.8"/>
				<line class="st9" x1="335.5" y1="148.7" x2="350.3" y2="148.7"/>
				<line class="st8" x1="335.5" y1="147.3" x2="350.3" y2="147.3"/>
				<line class="st8" x1="335.5" y1="145.9" x2="350.3" y2="145.9"/>
				<line class="st9" x1="335.5" y1="144.7" x2="350.3" y2="144.7"/>
				<line class="st9" x1="335.5" y1="143.2" x2="350.3" y2="143.2"/>
				<line class="st8" x1="335.5" y1="142.1" x2="350.3" y2="142.1"/>
			</g>
		</g>
	</g>
	<g>
		<defs>
			<path id="SVGID_00000054230308328051791420000001630099987169314700_" d="M29.5,173.8c-5.6,0-10.1-4.5-10.1-10.1V89.5
				c0-5.6,4.5-10.1,10.1-10.1h171.2c5.6,0,10.1,4.5,10.1,10.1v74.2c0,5.6-4.5,10.1-10.1,10.1H29.5z"/>
		</defs>
		<clipPath id="SVGID_00000059284179398236309750000004991907139495634363_">
			<use xlink:href="#SVGID_00000054230308328051791420000001630099987169314700_"  style="overflow:visible;"/>
		</clipPath>
		<g style="clip-path:url(#SVGID_00000059284179398236309750000004991907139495634363_);">
			<g>
				<rect x="53.7" y="91.8" class="st7" width="15" height="74.6"/>
				<line class="st8" x1="53.7" y1="166.3" x2="68.5" y2="166.3"/>
				<line class="st8" x1="53.7" y1="164.8" x2="68.5" y2="164.8"/>
				<line class="st9" x1="53.7" y1="163.7" x2="68.5" y2="163.7"/>
				<line class="st9" x1="53.7" y1="162.2" x2="68.5" y2="162.2"/>
				<line class="st8" x1="53.7" y1="161" x2="68.5" y2="161"/>
				<line class="st9" x1="53.7" y1="159.7" x2="68.5" y2="159.7"/>
				<line class="st8" x1="53.7" y1="158.5" x2="68.5" y2="158.5"/>
				<line class="st8" x1="53.7" y1="157.1" x2="68.5" y2="157.1"/>
				<line class="st8" x1="53.7" y1="156.2" x2="68.5" y2="156.2"/>
				<line class="st9" x1="53.7" y1="155.1" x2="68.5" y2="155.1"/>
				<line class="st8" x1="53.7" y1="153.7" x2="68.5" y2="153.7"/>
				<line class="st9" x1="53.7" y1="152.6" x2="68.5" y2="152.6"/>
				<line class="st8" x1="53.7" y1="150.8" x2="68.5" y2="150.8"/>
				<line class="st8" x1="53.7" y1="150" x2="68.5" y2="150"/>
				<line class="st9" x1="53.7" y1="148.8" x2="68.5" y2="148.8"/>
				<line class="st9" x1="53.7" y1="147.1" x2="68.5" y2="147.1"/>
				<line class="st9" x1="53.7" y1="145.7" x2="68.5" y2="145.7"/>
				<line class="st8" x1="53.7" y1="143.9" x2="68.5" y2="143.9"/>
				<line class="st8" x1="53.7" y1="143" x2="68.5" y2="143"/>
				<line class="st8" x1="53.7" y1="142.2" x2="68.5" y2="142.2"/>
				<line class="st8" x1="53.7" y1="141.2" x2="68.5" y2="141.2"/>
				<line class="st8" x1="53.7" y1="140.4" x2="68.5" y2="140.4"/>
				<line class="st9" x1="53.7" y1="138.6" x2="68.5" y2="138.6"/>
				<line class="st8" x1="53.7" y1="137.4" x2="68.5" y2="137.4"/>
				<line class="st9" x1="53.7" y1="136.3" x2="68.5" y2="136.3"/>
				<line class="st9" x1="53.7" y1="134.6" x2="68.5" y2="134.6"/>
				<line class="st8" x1="53.7" y1="133.5" x2="68.5" y2="133.5"/>
				<line class="st9" x1="53.7" y1="131.6" x2="68.5" y2="131.6"/>
				<line class="st8" x1="53.7" y1="130.5" x2="68.5" y2="130.5"/>
				<line class="st8" x1="53.7" y1="129.7" x2="68.5" y2="129.7"/>
				<line class="st8" x1="53.7" y1="128.7" x2="68.5" y2="128.7"/>
				<line class="st9" x1="53.7" y1="127.5" x2="68.5" y2="127.5"/>
				<line class="st9" x1="53.7" y1="125.4" x2="68.5" y2="125.4"/>
				<line class="st8" x1="53.7" y1="124.2" x2="68.5" y2="124.2"/>
				<line class="st8" x1="53.7" y1="123.4" x2="68.5" y2="123.4"/>
				<line class="st8" x1="53.7" y1="122.4" x2="68.5" y2="122.4"/>
				<line class="st8" x1="53.7" y1="121.6" x2="68.5" y2="121.6"/>
				<line class="st8" x1="53.7" y1="120.1" x2="68.5" y2="120.1"/>
				<line class="st9" x1="53.7" y1="118.9" x2="68.5" y2="118.9"/>
				<line class="st9" x1="53.7" y1="117.5" x2="68.5" y2="117.5"/>
				<line class="st9" x1="53.7" y1="115.8" x2="68.5" y2="115.8"/>
				<line class="st8" x1="53.7" y1="114.6" x2="68.5" y2="114.6"/>
				<line class="st8" x1="53.7" y1="113.2" x2="68.5" y2="113.2"/>
				<line class="st9" x1="53.7" y1="112" x2="68.5" y2="112"/>
				<line class="st8" x1="53.7" y1="110.9" x2="68.5" y2="110.9"/>
				<line class="st8" x1="53.7" y1="109.8" x2="68.5" y2="109.8"/>
				<line class="st9" x1="53.7" y1="108.7" x2="68.5" y2="108.7"/>
				<line class="st8" x1="53.7" y1="106.9" x2="68.5" y2="106.9"/>
				<line class="st9" x1="53.7" y1="105.7" x2="68.5" y2="105.7"/>
				<line class="st8" x1="53.7" y1="104.6" x2="68.5" y2="104.6"/>
				<line class="st8" x1="53.7" y1="103.6" x2="68.5" y2="103.6"/>
				<line class="st9" x1="53.7" y1="102.4" x2="68.5" y2="102.4"/>
				<line class="st8" x1="53.7" y1="100.6" x2="68.5" y2="100.6"/>
				<line class="st8" x1="53.7" y1="99.8" x2="68.5" y2="99.8"/>
				<line class="st9" x1="53.7" y1="98.6" x2="68.5" y2="98.6"/>
				<line class="st8" x1="53.7" y1="97.3" x2="68.5" y2="97.3"/>
				<line class="st8" x1="53.7" y1="95.8" x2="68.5" y2="95.8"/>
				<line class="st9" x1="53.7" y1="94.7" x2="68.5" y2="94.7"/>
				<line class="st9" x1="53.7" y1="93.2" x2="68.5" y2="93.2"/>
				<line class="st8" x1="53.7" y1="92" x2="68.5" y2="92"/>
			</g>
		</g>
		<g style="clip-path:url(#SVGID_00000059284179398236309750000004991907139495634363_);">
			<g>
				<rect x="110.1" y="141.8" class="st7" width="15" height="74.6"/>
				<line class="st8" x1="110.1" y1="216.3" x2="124.9" y2="216.3"/>
				<line class="st8" x1="110.1" y1="214.8" x2="124.9" y2="214.8"/>
				<line class="st9" x1="110.1" y1="213.7" x2="124.9" y2="213.7"/>
				<line class="st9" x1="110.1" y1="212.2" x2="124.9" y2="212.2"/>
				<line class="st8" x1="110.1" y1="211" x2="124.9" y2="211"/>
				<line class="st9" x1="110.1" y1="209.7" x2="124.9" y2="209.7"/>
				<line class="st8" x1="110.1" y1="208.5" x2="124.9" y2="208.5"/>
				<line class="st8" x1="110.1" y1="207.1" x2="124.9" y2="207.1"/>
				<line class="st8" x1="110.1" y1="206.2" x2="124.9" y2="206.2"/>
				<line class="st9" x1="110.1" y1="205.1" x2="124.9" y2="205.1"/>
				<line class="st8" x1="110.1" y1="203.7" x2="124.9" y2="203.7"/>
				<line class="st9" x1="110.1" y1="202.6" x2="124.9" y2="202.6"/>
				<line class="st8" x1="110.1" y1="200.8" x2="124.9" y2="200.8"/>
				<line class="st8" x1="110.1" y1="200" x2="124.9" y2="200"/>
				<line class="st9" x1="110.1" y1="198.8" x2="124.9" y2="198.8"/>
				<line class="st9" x1="110.1" y1="197.1" x2="124.9" y2="197.1"/>
				<line class="st9" x1="110.1" y1="195.7" x2="124.9" y2="195.7"/>
				<line class="st8" x1="110.1" y1="193.9" x2="124.9" y2="193.9"/>
				<line class="st8" x1="110.1" y1="193" x2="124.9" y2="193"/>
				<line class="st8" x1="110.1" y1="192.2" x2="124.9" y2="192.2"/>
				<line class="st8" x1="110.1" y1="191.2" x2="124.9" y2="191.2"/>
				<line class="st8" x1="110.1" y1="190.4" x2="124.9" y2="190.4"/>
				<line class="st9" x1="110.1" y1="188.6" x2="124.9" y2="188.6"/>
				<line class="st8" x1="110.1" y1="187.4" x2="124.9" y2="187.4"/>
				<line class="st9" x1="110.1" y1="186.3" x2="124.9" y2="186.3"/>
				<line class="st9" x1="110.1" y1="184.6" x2="124.9" y2="184.6"/>
				<line class="st8" x1="110.1" y1="183.5" x2="124.9" y2="183.5"/>
				<line class="st9" x1="110.1" y1="181.6" x2="124.9" y2="181.6"/>
				<line class="st8" x1="110.1" y1="180.5" x2="124.9" y2="180.5"/>
				<line class="st8" x1="110.1" y1="179.7" x2="124.9" y2="179.7"/>
				<line class="st8" x1="110.1" y1="178.7" x2="124.9" y2="178.7"/>
				<line class="st9" x1="110.1" y1="177.5" x2="124.9" y2="177.5"/>
				<line class="st9" x1="110.1" y1="175.4" x2="124.9" y2="175.4"/>
				<line class="st8" x1="110.1" y1="174.2" x2="124.9" y2="174.2"/>
				<line class="st8" x1="110.1" y1="173.4" x2="124.9" y2="173.4"/>
				<line class="st8" x1="110.1" y1="172.4" x2="124.9" y2="172.4"/>
				<line class="st8" x1="110.1" y1="171.6" x2="124.9" y2="171.6"/>
				<line class="st8" x1="110.1" y1="170.1" x2="124.9" y2="170.1"/>
				<line class="st9" x1="110.1" y1="168.9" x2="124.9" y2="168.9"/>
				<line class="st9" x1="110.1" y1="167.5" x2="124.9" y2="167.5"/>
				<line class="st9" x1="110.1" y1="165.8" x2="124.9" y2="165.8"/>
				<line class="st8" x1="110.1" y1="164.6" x2="124.9" y2="164.6"/>
				<line class="st8" x1="110.1" y1="163.2" x2="124.9" y2="163.2"/>
				<line class="st9" x1="110.1" y1="162" x2="124.9" y2="162"/>
				<line class="st8" x1="110.1" y1="160.9" x2="124.9" y2="160.9"/>
				<line class="st8" x1="110.1" y1="159.8" x2="124.9" y2="159.8"/>
				<line class="st9" x1="110.1" y1="158.7" x2="124.9" y2="158.7"/>
				<line class="st8" x1="110.1" y1="156.9" x2="124.9" y2="156.9"/>
				<line class="st9" x1="110.1" y1="155.7" x2="124.9" y2="155.7"/>
				<line class="st8" x1="110.1" y1="154.6" x2="124.9" y2="154.6"/>
				<line class="st8" x1="110.1" y1="153.6" x2="124.9" y2="153.6"/>
				<line class="st9" x1="110.1" y1="152.4" x2="124.9" y2="152.4"/>
				<line class="st8" x1="110.1" y1="150.6" x2="124.9" y2="150.6"/>
				<line class="st8" x1="110.1" y1="149.8" x2="124.9" y2="149.8"/>
				<line class="st9" x1="110.1" y1="148.6" x2="124.9" y2="148.6"/>
				<line class="st8" x1="110.1" y1="147.3" x2="124.9" y2="147.3"/>
				<line class="st8" x1="110.1" y1="145.8" x2="124.9" y2="145.8"/>
				<line class="st9" x1="110.1" y1="144.7" x2="124.9" y2="144.7"/>
				<line class="st9" x1="110.1" y1="143.2" x2="124.9" y2="143.2"/>
				<line class="st8" x1="110.1" y1="142" x2="124.9" y2="142"/>
			</g>
		</g>
	</g>
</g>
<g id="Layer_2">
	<polygon class="st11" points="202.5,191.6 189.5,200.6 202.5,209.5 202.5,203.8 476.2,203.8 476.2,197.8 202.5,197.8 	"/>
	<path class="st12" d="M233,121.5c0-2.7,1.6-3.3,3.5-1.4l10.9,10.9c1.9,1.9,1.9,5,0,6.9l-10.9,10.9c-1.9,1.9-3.5,1.3-3.5-1.4V121.5z
		"/>
	<g>
		<path class="st13" d="M423.4,209.4c0.2,0.2,0.4,0.4,0.7,0.6l1.4-1.8l0.7,0.4c0.3,0.1,0.2,0.2-0.1,0.3l-2.2,2.7l1.7-0.1
			c-0.2-0.3-0.4-0.6-0.5-0.9l0.7-0.4c0.5,0.6,0.8,1.3,1.1,2l-0.8,0.3l-0.1-0.4l-1.1,0.1v4.7h-0.9v-4.7l-1.6,0.1
			c-0.1,0.3-0.2,0.3-0.3,0l-0.2-0.8l1.1,0l0.7-0.8c-0.4-0.4-1-0.8-1.5-1.3l0.5-0.7l0.4,0.3c0.5-0.7,0.9-1.4,1.2-2.2l0.7,0.4
			c0.3,0.1,0.2,0.2-0.1,0.3C424.3,208.1,423.9,208.8,423.4,209.4z M422.6,216.2l-0.8-0.4c0.4-0.9,0.6-1.9,0.7-2.8l0.8,0.2
			c0.2,0.1,0.2,0.1,0,0.3C423.2,214.3,423,215.2,422.6,216.2z M425.7,213c0.3,0.6,0.5,1.2,0.6,1.9l-0.8,0.2
			c-0.1-0.7-0.2-1.4-0.5-1.9L425.7,213z M432,214.8c-0.2,1.8-0.7,2.3-1.5,1.5c-0.7-0.7-1.2-2.2-1.4-4.7h-1.3v3.6l1.4-0.4l0.2,0.7
			l-2.9,0.9c-0.1,0.3-0.2,0.3-0.3,0l-0.3-0.9l1.1-0.2v-7.7l0.8,0.2c1-0.3,1.9-0.6,2.8-0.9l0.6,0.9c-0.4,0.1-0.8,0.2-1.2,0.3v2.6h1.8
			v0.8H430c0.1,1.5,0.4,2.6,0.8,3.5c0.2,0.4,0.3,0.1,0.4-0.8L432,214.8z M429.1,210.9v-2.4c-0.4,0.1-0.9,0.2-1.2,0.3v2.2H429.1z"/>
		<path class="st13" d="M432.9,215.9l1.5-0.9v-2.9H433v-0.8h2.3v3.6c0.7,0.7,1.5,1,2.4,1h5.4l-0.2,0.8h-5.4c-1,0-1.9-0.4-2.7-1.2
			l-1.4,1.5L432.9,215.9z M434.9,209.4c-0.4-0.6-0.8-1.1-1.3-1.5l0.7-0.7c0.6,0.5,1.1,0.9,1.3,1.4L434.9,209.4z M442.5,212.1h-3
			l0,0.4c1.2,0.5,2.1,1.1,2.9,1.8l-0.6,1c-1-1-1.8-1.7-2.5-2c-0.4,0.8-1.2,1.5-2.5,2.2l-0.5-0.9c1.5-0.8,2.4-1.6,2.5-2.5h-2.8v-0.8
			h2.8v-1.5h-2.5V209h1.5c-0.3-0.6-0.7-1-1.1-1.5l0.8-0.5c0.4,0.4,0.8,0.9,1.1,1.5l-0.7,0.5h1.5l1.1-2.2l1,0.4
			c0.1,0.1,0.1,0.2-0.1,0.2l-1,1.5h1.9v0.8h-2.6v1.5h2.9V212.1z"/>
		<path class="st13" d="M447.4,213.6c-0.2,0-0.4-0.1-0.6-0.3c-0.2-0.2-0.3-1.1-0.3-2.6c0-1.2,0.1-2.2,0.2-3.2h1
			c0.2,0.1,0.2,0.2,0,0.3c-0.1,0.7-0.2,1.7-0.2,2.9c0,1.3,0.1,1.9,0.2,1.9c0.1,0,0.2-0.1,0.4-0.2c0.2-0.2,0.5-0.6,1-1.2l0.7,0.7
			c-0.5,0.6-1,1.1-1.4,1.4C448,213.5,447.7,213.6,447.4,213.6z M451.1,207.2h0.9c0.3,0,0.4,0.1,0.1,0.4c0.1,0.9,0.1,2.4,0.1,4.3
			c0,2.2-1,3.9-3.1,5l-0.7-0.7c2-0.9,2.9-2.4,2.9-4.3C451.2,209.9,451.2,208.3,451.1,207.2z"/>
		<path class="st13" d="M460.2,211.2h4.1l-0.4,4c-0.1,1.1-0.5,1.6-1.3,1.6h-1.8l-0.2-1h1.9c0.2,0,0.3-0.2,0.4-0.7l0.4-3.1H460
			c-0.4,1.9-1.6,3.5-3.8,4.8l-0.6-0.9c2.3-1.2,3.5-3,3.6-5.5l0-0.8h-3.7v-1h4.3v-1.8h1c0.3,0.1,0.3,0.2,0,0.4v1.4h4.4v1h-5.1
			L460.2,211.2z"/>
		<path class="st13" d="M468.3,209.3v7.4h-0.9v-8.2h3.1l0.7-1.6l1.1,0.4c0.1,0.1,0.1,0.2-0.1,0.2l-0.7,1h4.5v7.6
			c0,0.5-0.2,0.7-0.7,0.7h-1.3l-0.1-1h1c0.1,0,0.2-0.1,0.2-0.2v-6.3H468.3z M472.9,214.7v-0.5h-2.3v0.8h-0.9v-4.3h4.1v4H472.9z
			 M470.6,211.5v1.8h2.3v-1.8H470.6z"/>
	</g>
	<g>
		<polygon class="st14" points="27.3,103.9 27.3,108.1 23.6,108.1 23.6,148.4 27.3,148.4 27.3,152.6 44.4,152.6 44.4,103.9 		"/>
		
			<linearGradient id="SVGID_00000118358413167098840060000003922937916526096058_" gradientUnits="userSpaceOnUse" x1="43.6992" y1="128.5195" x2="59.2392" y2="128.5195">
			<stop  offset="0" style="stop-color:#FF4C4C"/>
			<stop  offset="1" style="stop-color:#FF4C4C;stop-opacity:0"/>
		</linearGradient>
		<polygon style="fill:url(#SVGID_00000118358413167098840060000003922937916526096058_);" points="59.2,168.1 43.7,151.8 
			43.7,103.5 59.2,88.9 		"/>
		<path class="st16" d="M35.6,108.1h-12v40.4h12V108.1z"/>
		<rect x="27.3" y="103.9" class="st16" width="17" height="48.8"/>
	</g>
	<g>
		<polygon class="st14" points="308.4,103.9 308.4,108.1 304.7,108.1 304.7,148.5 308.4,148.5 308.4,152.7 325.5,152.7 325.5,103.9 
					"/>
		
			<linearGradient id="SVGID_00000065786650094019027680000015766531885309766830_" gradientUnits="userSpaceOnUse" x1="324.8057" y1="128.5527" x2="340.3457" y2="128.5527">
			<stop  offset="0" style="stop-color:#FF4C4C"/>
			<stop  offset="1" style="stop-color:#FF4C4C;stop-opacity:0"/>
		</linearGradient>
		<polygon style="fill:url(#SVGID_00000065786650094019027680000015766531885309766830_);" points="340.3,168.1 324.8,151.9 
			324.8,103.6 340.3,89 		"/>
		<path class="st16" d="M316.7,108.1h-12v40.4h12V108.1z"/>
		<rect x="308.4" y="103.9" class="st16" width="17" height="48.8"/>
	</g>
	<g>
		<polygon class="st18" points="86.3,20 142.8,20 114.5,53.3 		"/>
		<polygon class="st18" points="338.4,20 395,20 366.7,53.3 		"/>
		<rect x="2" y="2" class="st18" width="475.5" height="35"/>
		<polygon class="st19" points="470.9,20.3 8.7,20.3 8.7,7.3 470.9,7.3 470.9,20.3 		"/>
		<g>
			<path class="st13" d="M73.7,27.1c0.2,0.1,0.2,0.3-0.1,0.4c-0.5,1.8-1.4,3.5-2.5,5.1l-1-0.7c1.3-1.6,2.2-3.3,2.6-5.3L73.7,27.1z
				 M77.1,26.1c1.5,1.8,2.5,3.8,3.1,5.8L79,32.3c-0.7-2.3-1.7-4.2-2.9-5.5L77.1,26.1z M79.4,25.8l-0.7,0.5c-0.4-0.6-0.9-1.1-1.4-1.5
				l0.6-0.5C78.4,24.7,78.9,25.2,79.4,25.8z M80.4,25l-0.6,0.5c-0.5-0.6-1-1.1-1.4-1.4l0.6-0.5C79.4,24,79.9,24.4,80.4,25z"/>
			<path class="st13" d="M81.5,29.3v-1h9.8v1H81.5z"/>
			<path class="st13" d="M99.9,27.3h-6.1v-1h7.1v6.3h-1v-0.5h-6.1v-1h6.1V27.3z"/>
			<path class="st13" d="M104,29.3v-1h9.8v1H104z"/>
			<path class="st13" d="M123.5,30.4c-1.6-0.8-2.8-1.3-3.8-1.6v4.6h-1v-8.8h0.9c0.4,0,0.4,0.1,0.1,0.4v2.8c1.4,0.4,2.9,1,4.4,1.7
				L123.5,30.4z M123.4,26.5c-0.5-0.6-1-1.1-1.5-1.5l0.6-0.4c0.5,0.4,1,0.9,1.5,1.5L123.4,26.5z M124.5,25.6c-0.4-0.5-0.9-1-1.5-1.5
				l0.6-0.4c0.5,0.4,1,0.8,1.5,1.5L124.5,25.6z"/>
			<path class="st13" d="M133.8,32.9v-3.4V26h-1.3v-0.5c1,0,1.6-0.4,1.8-1.2h0.5v8.6H133.8z"/>
			<path class="st13" d="M141.2,31.6c2.2,0,3.6-0.4,4.4-1.1c0.4-0.4,0.7-1,0.7-1.6c0-0.7-0.2-1.2-0.7-1.7c-0.4-0.4-1-0.5-1.8-0.5
				c-0.7,0-1.6,0.2-2.6,0.5c-0.8,0.3-1.6,0.6-2.5,1l-0.5-1.1l2.5-0.7c1.4-0.4,2.5-0.6,3.3-0.6c1.2,0,2,0.3,2.6,0.8
				c0.6,0.6,0.8,1.3,0.8,2.2c0,1-0.3,1.8-0.8,2.3c-1,1-2.7,1.5-5,1.5L141.2,31.6z"/>
			<path class="st13" d="M157.6,27.1c0.6,0.6,1,1.5,1,2.6c0,1-0.3,1.8-0.9,2.4c-0.5,0.5-1.3,1-2.2,1.3l-0.6-0.8
				c1-0.3,1.7-0.7,2.1-1.1c0.4-0.4,0.7-1,0.7-1.8c0-0.8-0.2-1.5-0.7-1.9c-0.6-0.6-1.3-0.9-2.2-0.9c-0.3,1.2-0.8,2.5-1.5,3.8l0.8,1
				l-0.7,0.5l-0.6-0.7c-0.2,0.4-0.5,0.7-0.7,1c-0.4,0.4-0.8,0.6-1.1,0.6c-0.4,0-0.8-0.2-1.1-0.5c-0.4-0.4-0.6-0.9-0.6-1.6
				c0-1.1,0.6-2.2,1.7-3.3c-0.2-0.9-0.4-1.7-0.4-2.5h0.8c0.3,0.1,0.3,0.2,0.1,0.4c0.1,0.6,0.1,1.2,0.3,1.6c0.8-0.5,1.5-0.8,2.3-0.9
				c0.1-0.4,0.2-1.1,0.4-2l0.9,0.2c0.3,0.1,0.3,0.2,0,0.4l-0.3,1.4C156.1,26.1,156.9,26.5,157.6,27.1z M151.3,28.5
				c-0.7,0.9-1.1,1.7-1.1,2.5c0,0.4,0.1,0.7,0.4,1c0.1,0.1,0.3,0.2,0.5,0.2c0.1,0,0.3-0.1,0.5-0.3c0.2-0.2,0.4-0.5,0.7-1.1
				C151.9,30.1,151.6,29.4,151.3,28.5z M152,27.8c0.3,1,0.6,1.7,0.8,2.1c0.5-1,0.9-1.9,1.1-2.9C153.2,27.1,152.6,27.4,152,27.8z"/>
		</g>
		<g>
			<path class="st13" d="M325.9,27.1c0.2,0.1,0.2,0.3-0.1,0.4c-0.5,1.8-1.4,3.5-2.5,5.1l-1-0.7c1.3-1.6,2.2-3.3,2.6-5.3L325.9,27.1z
				 M329.3,26.1c1.5,1.8,2.5,3.8,3.1,5.8l-1.2,0.4c-0.7-2.3-1.7-4.2-2.9-5.5L329.3,26.1z M331.6,25.8l-0.7,0.5
				c-0.4-0.6-0.9-1.1-1.4-1.5l0.6-0.5C330.6,24.7,331.1,25.2,331.6,25.8z M332.6,25l-0.6,0.5c-0.5-0.6-1-1.1-1.4-1.4l0.6-0.5
				C331.6,24,332,24.4,332.6,25z"/>
			<path class="st13" d="M333.7,29.3v-1h9.8v1H333.7z"/>
			<path class="st13" d="M352.1,27.3H346v-1h7.1v6.3h-1v-0.5H346v-1h6.1V27.3z"/>
			<path class="st13" d="M356.2,29.3v-1h9.8v1H356.2z"/>
			<path class="st13" d="M375.7,30.4c-1.6-0.8-2.8-1.3-3.8-1.6v4.6h-1v-8.8h0.9c0.4,0,0.4,0.1,0.1,0.4v2.8c1.4,0.4,2.9,1,4.4,1.7
				L375.7,30.4z M375.6,26.5c-0.5-0.6-1-1.1-1.5-1.5l0.6-0.4c0.5,0.4,1,0.9,1.5,1.5L375.6,26.5z M376.7,25.6c-0.4-0.5-0.9-1-1.5-1.5
				l0.6-0.4c0.5,0.4,1,0.8,1.5,1.5L376.7,25.6z"/>
			<path class="st13" d="M388.6,32v0.8h-4.5v-0.7c0.7-1.3,1.5-2.5,2.5-3.6c0.6-0.6,0.8-1.3,0.8-2c0-0.5-0.1-0.9-0.4-1.1
				c-0.2-0.2-0.4-0.3-0.7-0.3c-0.2,0-0.5,0.1-0.7,0.4c-0.3,0.3-0.4,0.8-0.4,1.6h-1c0-1.1,0.3-1.8,0.7-2.3c0.4-0.4,0.8-0.5,1.4-0.5
				c0.6,0,1,0.2,1.4,0.6c0.4,0.4,0.6,1,0.6,1.7c0,0.8-0.4,1.7-1.2,2.6c-0.8,1-1.6,1.9-2.1,2.8H388.6z"/>
			<path class="st13" d="M393.4,31.6c2.2,0,3.6-0.4,4.4-1.1c0.4-0.4,0.7-1,0.7-1.6c0-0.7-0.2-1.2-0.7-1.7c-0.4-0.4-1-0.5-1.8-0.5
				c-0.7,0-1.6,0.2-2.6,0.5c-0.8,0.3-1.6,0.6-2.5,1l-0.5-1.1l2.5-0.7c1.4-0.4,2.5-0.6,3.3-0.6c1.2,0,2,0.3,2.6,0.8
				c0.6,0.6,0.8,1.3,0.8,2.2c0,1-0.3,1.8-0.8,2.3c-1,1-2.7,1.5-5,1.5L393.4,31.6z"/>
			<path class="st13" d="M409.8,27.1c0.6,0.6,1,1.5,1,2.6c0,1-0.3,1.8-0.9,2.4c-0.5,0.5-1.3,1-2.2,1.3l-0.6-0.8
				c1-0.3,1.7-0.7,2.1-1.1c0.4-0.4,0.7-1,0.7-1.8c0-0.8-0.2-1.5-0.7-1.9c-0.6-0.6-1.3-0.9-2.2-0.9c-0.3,1.2-0.8,2.5-1.5,3.8l0.8,1
				l-0.7,0.5l-0.6-0.7c-0.2,0.4-0.5,0.7-0.7,1c-0.4,0.4-0.8,0.6-1.1,0.6c-0.4,0-0.8-0.2-1.1-0.5c-0.4-0.4-0.6-0.9-0.6-1.6
				c0-1.1,0.6-2.2,1.7-3.3c-0.2-0.9-0.4-1.7-0.4-2.5h0.8c0.3,0.1,0.3,0.2,0.1,0.4c0.1,0.6,0.1,1.2,0.3,1.6c0.8-0.5,1.5-0.8,2.3-0.9
				c0.1-0.4,0.2-1.1,0.4-2l0.9,0.2c0.3,0.1,0.3,0.2,0,0.4l-0.3,1.4C408.3,26.1,409.1,26.5,409.8,27.1z M403.4,28.5
				c-0.7,0.9-1.1,1.7-1.1,2.5c0,0.4,0.1,0.7,0.4,1c0.1,0.1,0.3,0.2,0.5,0.2c0.1,0,0.3-0.1,0.5-0.3c0.2-0.2,0.4-0.5,0.7-1.1
				C404.1,30.1,403.7,29.4,403.4,28.5z M404.1,27.8c0.3,1,0.6,1.7,0.8,2.1c0.5-1,0.9-1.9,1.1-2.9C405.4,27.1,404.7,27.4,404.1,27.8z
				"/>
		</g>
		<g>
			<path class="st7" d="M215.1,10.2c0.1,0.2,0,0.3-0.2,0.1c-1,0.2-2.1,0.3-3.1,0.5v2.2h3.1V14h-3.1v2.5h3.1v0.9h-3.1v1.2h-0.9V9.9
				l0.8,0.2c0.8-0.1,1.8-0.4,3-0.8L215.1,10.2z M216.5,10.9v8.7h-0.9V10h4.6v7c0,0.5-0.2,0.8-0.7,0.8h-1.4l-0.3-1h1.3
				c0.1,0,0.2-0.1,0.2-0.2v-5.7H216.5z"/>
			<path class="st7" d="M228,14.4V15h4.6v0.9H228v2.7c0,0.5-0.2,0.8-0.8,0.8H226l-0.2-0.9h1.1c0.1,0,0.2-0.1,0.2-0.2v-2.4h-4.9V15
				h4.9v-1.2l0.5,0.1l1.3-0.9h-4.5v-0.9h5.4l0.2-0.2l0.8,0.8l-0.3,0.1L228,14.4z M227.9,10.2h4.4v2.3h-0.9v-1.5h-7.9v1.5h-0.9v-2.4
				h4.4V9h1c0.3,0.1,0.3,0.2,0,0.4V10.2z"/>
			<path class="st7" d="M239.3,13.9h-4.7v-1h9.6v1h-3.8v0.6c0,2-0.7,3.6-2.1,4.9l-0.9-0.7c1.3-1,2-2.4,2-4.2V13.9z M236.3,11.1v-1
				h5.8v1H236.3z M244,10.8l-0.7,0.5c-0.4-0.6-0.9-1.2-1.3-1.7l0.7-0.4C243.1,9.5,243.5,10.1,244,10.8z M245.1,10.1l-0.7,0.5
				c-0.5-0.7-0.9-1.2-1.3-1.6l0.7-0.5C244.2,9,244.6,9.5,245.1,10.1z"/>
			<path class="st7" d="M246.2,14.8v-1h10.5v1H246.2z"/>
			<path class="st7" d="M262.5,11h3.1l0.5-0.2l0.6,0.6c0.1,0.2,0.1,0.3-0.2,0.4c-0.2,1.2-0.6,2.4-1.1,3.4l1.1,0.8l-0.7,1l-1-0.8
				c-0.9,1.3-2.2,2.4-3.9,3.2l-1.1-0.8c1.9-0.8,3.2-1.8,4-3.1c-0.8-0.5-1.5-1-2.3-1.4l0.6-0.8c1,0.4,1.8,0.8,2.4,1.2
				c0.5-1,0.8-1.8,0.8-2.6H262c-0.6,1.1-1.3,2-2.2,2.9l-0.9-0.6c1.6-1.7,2.6-3.4,3.1-5.2l1.1,0.5c0.2,0.1,0.2,0.2-0.2,0.4
				C262.8,10.3,262.7,10.6,262.5,11z"/>
		</g>
	</g>
	<g>
		<line class="st20" x1="389.3" y1="62.1" x2="435.6" y2="108.4"/>
		<line class="st20" x1="389.3" y1="108.4" x2="435.6" y2="62.1"/>
	</g>
	<g>
		<circle class="st21" cx="358" cy="127.6" r="15"/>
		<g>
			<path class="st13" d="M356.2,133.7v-1.8c0-1.9,1.2-3.7,3.7-5.4c1.6-1.2,2.5-2.8,2.5-4.8c0-1.5-0.5-2.5-1.4-3.2
				c-0.7-0.5-1.6-0.7-2.8-0.7c-1.1,0-2,0.3-2.8,0.8c-1.3,0.9-1.9,2.4-1.9,4.7h-3.9c-0.1-2.9,0.8-5,2.8-6.3c1.4-0.9,3.3-1.4,5.8-1.4
				s4.3,0.4,5.6,1.3c1.8,1.2,2.6,2.7,2.6,4.7c0,2.7-1.3,4.8-3.9,6.6c-2.1,1.4-3.2,2.7-3.2,3.9v1.6H356.2z M359.7,137.1v2.8h-1.9
				h-1.9v-2.8H359.7z"/>
		</g>
	</g>
	<g>
	</g>
	<g>
	</g>
	<g>
	</g>
	<g>
	</g>
	<g>
	</g>
	<g>
	</g>
	<g>
	</g>
	<g>
	</g>
	<g>
	</g>
	<g>
	</g>
	<g>
	</g>
	<g>
	</g>
	<g>
	</g>
	<g>
	</g>
	<g>
	</g>
	<g>
	</g>
	<g>
	</g>
	<g>
	</g>
</g>
</svg>
