<?xml version="1.0" encoding="utf-8"?>
<!-- Generator: Adobe Illustrator 26.3.1, SVG Export Plug-In . SVG Version: 6.00 Build 0)  -->
<svg version="1.1" id="sosWarn" xmlns="http://www.w3.org/2000/svg" xmlns:xlink="http://www.w3.org/1999/xlink" x="0px" y="0px"
	 width="44px" height="44px" viewBox="0 0 44 44" style="enable-background:new 0 0 44 44;" xml:space="preserve">
<style type="text/css">
	.st0{fill:none;}
	.st1{fill:#54575E;}
	.st2{fill:#E69A37;}
</style>
<rect id="rect" x="2" y="2" class="st0" width="40" height="40"/>
<path id="path" class="st1" d="M11.5,23.6c0.3,1,0.5,2,0.4,3c0,1.2-0.2,2.3-0.6,3.4c-0.4,0.9-1,1.7-1.8,2.2C8.8,32.8,7.9,33,7,33
	c-1,0-1.9-0.3-2.7-0.8C3.5,31.6,3,30.9,2.6,30C2.2,29.1,2,28.1,2,27.1c0-0.2,0-0.4,0.1-0.5s0.2-0.2,0.4-0.3H4c0.2,0,0.3,0.1,0.4,0.2
	c0.1,0.1,0.2,0.3,0.2,0.5c0.1,0.6,0.3,1.2,0.8,1.7c0.4,0.5,1,0.7,1.6,0.7s1.3-0.2,1.7-0.7s0.6-1.2,0.6-1.9c0-0.5-0.1-0.9-0.3-1.3
	c-0.2-0.4-0.5-0.7-0.9-0.9c-0.6-0.4-1.2-0.7-1.8-1c-1.2-0.4-2.2-1.2-3-2.3c-0.7-1.2-1-2.7-0.9-4.1c0-1.1,0.2-2.2,0.5-3.2
	c0.3-0.9,0.9-1.6,1.6-2.2C5.2,11.3,6,11,6.9,11s1.8,0.3,2.5,0.9c0.7,0.6,1.3,1.4,1.6,2.2c0.4,0.9,0.5,1.8,0.6,2.7
	c0,0.2,0,0.4-0.1,0.5c-0.1,0.1-0.2,0.2-0.4,0.2H9.5c-0.3,0-0.5-0.2-0.6-0.7c0-0.6-0.3-1.1-0.7-1.6c-0.3-0.4-0.8-0.6-1.3-0.6
	s-1.1,0.2-1.4,0.6c-0.4,0.6-0.6,1.2-0.5,1.9c0,0.4,0,0.9,0.2,1.3s0.5,0.7,0.8,0.9c0.6,0.4,1.1,0.7,1.7,0.9c0.9,0.4,1.7,0.8,2.5,1.4
	C10.8,22.1,11.2,22.8,11.5,23.6 M23.2,19.4c0,1.4,0,2.2,0,2.6s0,1.2,0,2.6c0.1,2.2-0.4,4.3-1.4,6.3c-1.2,2.1-3.8,2.8-5.9,1.6
	c-0.7-0.4-1.2-0.9-1.6-1.6c-1-1.9-1.5-4.1-1.4-6.3c0-0.6,0-1.4,0-2.6s0-2,0-2.6c-0.1-2.2,0.4-4.3,1.4-6.2c1.2-2,3.7-2.8,5.7-1.7
	c0.7,0.4,1.3,1,1.7,1.7C22.7,15.1,23.2,17.3,23.2,19.4 M15.6,22c0,1.1,0,1.9,0,2.4c0,1.3,0.2,2.5,0.7,3.7c0.4,0.9,1.4,1.4,2.4,1
	c0.5-0.2,0.8-0.6,1-1c0.5-1.2,0.8-2.4,0.7-3.7c0-1.3,0-2,0-2.4c0-0.4,0-1.2,0-2.4c0-1.3-0.2-2.5-0.7-3.7c-0.4-0.9-1.4-1.4-2.4-1
	c-0.5,0.2-0.9,0.6-1,1c-0.5,1.1-0.7,2.4-0.7,3.6C15.6,20.1,15.6,20.9,15.6,22 M28.2,23.5c0.6,0.3,1.2,0.6,1.8,1
	c0.3,0.2,0.5,0.4,0.7,0.6v-4.3c-0.3-0.2-0.7-0.4-1.1-0.5c-0.5-0.3-1.1-0.6-1.6-1c-0.3-0.2-0.6-0.6-0.8-0.9c-0.2-0.4-0.3-0.9-0.3-1.3
	c0-0.6,0.1-1.2,0.5-1.7c0.4-0.4,0.9-0.6,1.4-0.6s1,0.2,1.3,0.6c0.3,0.4,0.5,0.8,0.6,1.2v-5c-0.5-0.4-1.2-0.6-1.8-0.6
	c-0.9,0-1.7,0.3-2.4,0.8c-0.7,0.6-1.3,1.3-1.6,2.2c-0.4,1-0.6,2.1-0.5,3.2c-0.1,1.4,0.2,2.8,0.9,4.1C26,22.3,27,23.1,28.2,23.5
	 M30.8,28.4c0,0.1-0.1,0.1-0.1,0.2c-0.4,0.5-1.1,0.7-1.7,0.7c-0.6,0-1.2-0.2-1.6-0.7c-0.4-0.5-0.7-1.1-0.8-1.7
	c0-0.2-0.1-0.3-0.2-0.5c-0.1-0.1-0.3-0.2-0.4-0.2h-1.5c-0.2,0-0.3,0.1-0.4,0.3c-0.1,0.2-0.2,0.4-0.2,0.5c0,1,0.2,2,0.6,2.9
	c0.4,0.9,0.9,1.6,1.7,2.2C27,32.7,28,33,28.9,33c0.6,0,1.2-0.1,1.8-0.4L30.8,28.4z"/>
<path id="path-warning" class="st2" d="M32,6.9h10l-2.8,18.8h-4.5L32,6.9z M37,38.1c2.1,0,3.8-1.7,3.8-3.8s-1.7-3.8-3.8-3.8
	s-3.8,1.7-3.8,3.8S34.9,38.1,37,38.1"/>
</svg>
