<?xml version="1.0" encoding="utf-8"?>
<!-- Generator: Adobe Illustrator 26.3.1, SVG Export Plug-In . SVG Version: 6.00 Build 0)  -->
<svg version="1.1" id="rfidActive" xmlns="http://www.w3.org/2000/svg" xmlns:xlink="http://www.w3.org/1999/xlink" x="0px" y="0px"
	 width="44px" height="44px" viewBox="0 0 44 44" style="enable-background:new 0 0 44 44;" xml:space="preserve">
<style type="text/css">
	.st0{fill:none;}
	.st1{fill:#54575E;}
</style>
<rect id="rect" x="2" y="2" class="st0" width="40" height="40"/>
<path id="path" class="st1" d="M35.8,6.6H16.3c-0.4,0-0.8,0.2-1.2,0.5l-8,8c-0.3,0.3-0.5,0.7-0.5,1.2v19.5c0,0.9,0.7,1.6,1.6,1.6
	l0,0h27.5c0.9,0,1.6-0.7,1.6-1.6V8.2C37.4,7.4,36.6,6.6,35.8,6.6z M34.1,34.1H9.9v-9.3h4.3v3.4c0,0.9,0.7,1.6,1.6,1.6l0,0h12.5
	c0.9,0,1.6-0.7,1.6-1.6V15.7c0-0.9-0.7-1.6-1.6-1.6h-8.9c-0.4,0-0.8,0.2-1.1,0.5l-3.7,3.6c-0.3,0.3-0.5,0.7-0.5,1.2v2.3H9.8v-4.8
	l7.1-7.1h17.2V34.1z M17.4,26.6V20l2.6-2.6h6.6v9.3h-9.2V26.6z"/>
</svg>
