<?xml version="1.0" encoding="utf-8"?>
<!-- Generator: Adobe Illustrator 27.9.0, SVG Export Plug-In . SVG Version: 6.00 Build 0)  -->
<svg version="1.1" id="Layer_1" xmlns="http://www.w3.org/2000/svg" xmlns:xlink="http://www.w3.org/1999/xlink" x="0px" y="0px"
	 width="330px" height="151px" viewBox="0 0 330 151" style="enable-background:new 0 0 330 151;" xml:space="preserve">
<style type="text/css">
	.st0{clip-path:url(#SVGID_00000165193670796283235930000014737830627884723129_);}
	.st1{fill:#DCDCDC;stroke:#000000;stroke-linecap:round;stroke-linejoin:round;}
	.st2{fill:#DCDCDC;}
	.st3{fill:none;stroke:#000000;stroke-linecap:round;stroke-linejoin:round;}
	.st4{fill:none;stroke:#000000;stroke-width:0.5;stroke-linecap:round;stroke-linejoin:round;}
	.st5{fill:none;stroke:#000000;stroke-width:0.25;stroke-linecap:round;stroke-linejoin:round;}
	.st6{fill:#B3B3B3;}
</style>
<g>
	<defs>
		<rect id="SVGID_1_" x="20" y="10.9" width="290" height="130.1"/>
	</defs>
	<clipPath id="SVGID_00000039093536395208353000000000236387342117643410_">
		<use xlink:href="#SVGID_1_"  style="overflow:visible;"/>
	</clipPath>
	<g style="clip-path:url(#SVGID_00000039093536395208353000000000236387342117643410_);">
		<polygon class="st1" points="358.3,110.6 241.2,139.6 26.3,53.1 143.4,24.1 		"/>
		<path class="st2" d="M162.3,27.3c17.3-3.7,27.7-25,23-47.6c-4.5-22.6-22.1-38-39.6-34.4L26.2-34.5C7.7-30.5-3.2-7,2.1,18
			c5.2,25.1,24.5,42.2,43.2,38.2"/>
		<path class="st3" d="M162.3,27.3c17.3-3.7,27.7-25,23-47.6c-4.5-22.6-22.1-38-39.6-34.4L26.2-34.5C7.7-30.5-3.2-7,2.1,18
			c5.2,25.1,24.5,42.2,43.2,38.2L162.3,27.3z"/>
		<path class="st4" d="M32.4-4.3c6.3-1.3,12.8,4.5,14.5,12.9c1.8,8.4-1.9,16.4-8.1,17.7c-6.3,1.3-12.7-4.4-14.5-12.8
			C22.6,4.9,26.1-3,32.4-4.3z M26.2-34.5c18.6-4,37.9,13.1,43,38.2c5.3,25.1-5.6,48.6-24.1,52.5c-18.5,4-37.8-13.1-43-38.2
			C-3-7.1,7.6-30.5,26.2-34.5z"/>
		<path class="st5" d="M20.6,14.2c2.3,11.1,10.9,18.7,19.2,17C48,29.4,52.9,18.9,50.5,7.8C48.2-3.4,39.6-11,31.3-9.3
			C23.1-7.5,18.3,3,20.6,14.2z"/>
		<g>
			<path class="st6" d="M197.1,88.1c9.9-2.4,15.1-15.7,11.8-29.2l34.1-8.4c3.3,13.5-1.9,26.7-11.8,29.2L197.1,88.1z"/>
			<path class="st6" d="M188.2,87.5c2.9,1.1,5.9,1.4,8.9,0.6c6.2-1.5,10.6-7.1,12.2-14.3l-29.8-12l-33.6,8.5L188.2,87.5L188.2,87.5z
				"/>
			<path class="st3" d="M243.1,50.9c3.3,13.5-2,26.4-11.9,28.8l-34.1,8.4c9.9-2.4,15.2-15.3,11.9-28.8"/>
			<path class="st3" d="M146.3,70.6l41.9,16.9l0,0c2.9,1.1,5.9,1.4,8.9,0.6c6.2-1.5,10.6-7.1,12.2-14.3l-28.9-11.6"/>
			<polyline class="st3" points="243.1,50.9 240.5,50.1 240,51.7 237.4,50.9 236.9,52.4 234.3,51.6 233.8,53.2 231.2,52.4 230.7,54 
				228.1,53.2 227.5,54.7 225,53.9 224.4,55.5 221.8,54.7 221.3,56.3 218.7,55.4 218.2,57 215.6,56.2 215.1,57.8 212.5,57 
				211.9,58.5 209.6,57.8 209,59.4 			"/>
			<polyline class="st3" points="180.6,62.2 176.8,61.5 177.2,63 173.7,62.2 174,63.7 170.6,63 170.9,64.5 167.5,63.7 167.8,65.2 
				164.4,64.5 164.7,66 161.3,65.3 161.6,66.7 158.2,66 158.5,67.5 155.1,66.8 155.4,68.2 152,67.5 152.3,69 148.9,68.3 149.2,69.7 
				146,69.1 146.3,70.6 			"/>
		</g>
	</g>
</g>
<g>
</g>
<g>
</g>
<g>
</g>
<g>
</g>
<g>
</g>
<g>
</g>
<g>
</g>
<g>
</g>
<g>
</g>
<g>
</g>
<g>
</g>
<g>
</g>
<g>
</g>
<g>
</g>
<g>
</g>
<g>
</g>
<g>
</g>
<g>
</g>
</svg>
