<?xml version="1.0" encoding="utf-8"?>
<!-- Generator: Adobe Illustrator 27.9.0, SVG Export Plug-In . SVG Version: 6.00 Build 0)  -->
<svg version="1.1" id="レイヤー_1" xmlns="http://www.w3.org/2000/svg" xmlns:xlink="http://www.w3.org/1999/xlink" x="0px"
	 y="0px" width="53.7px" height="70.1px" viewBox="0 0 53.7 70.1" style="enable-background:new 0 0 53.7 70.1;"
	 xml:space="preserve">
<style type="text/css">
	.アーチ_x0020__x0028_グリーン_x0029_{fill:url(#SVGID_1_);stroke:#FFFFFF;stroke-width:0.25;stroke-miterlimit:1;}
	.st0{fill:#030000;}
	.st1{fill:#040000;}
</style>
<linearGradient id="SVGID_1_" gradientUnits="userSpaceOnUse" x1="-159.9727" y1="478.0194" x2="-159.2655" y2="477.3123">
	<stop  offset="0" style="stop-color:#00A43B"/>
	<stop  offset="0.9831" style="stop-color:#133617"/>
</linearGradient>
<g>
	<path class="st0" d="M11.7,66.3c-4.4,0-7.9-3.5-7.9-7.9V11.7c0-4.4,3.6-7.9,7.9-7.9h30.2c4.4,0,7.9,3.5,7.9,7.9v46.6
		c0,4.4-3.6,7.9-7.9,7.9H11.7z M11.7,5.5c-3.5,0-6.3,2.8-6.3,6.3v46.6c0,3.5,2.8,6.3,6.3,6.3h30.2c3.5,0,6.3-2.8,6.3-6.3V11.7
		c0-3.5-2.8-6.3-6.3-6.3H11.7z"/>
	<path class="st0" d="M41.9,65.8H11.7c-4.1,0-7.5-3.4-7.5-7.5V11.7c0-4.1,3.4-7.5,7.5-7.5h30.2c4.1,0,7.5,3.4,7.5,7.5v46.6
		C49.4,62.5,46.1,65.8,41.9,65.8L41.9,65.8z M11.7,5.1c-3.7,0-6.7,3-6.7,6.7v46.6c0,3.7,3,6.7,6.7,6.7h30.2c3.7,0,6.7-3,6.7-6.7
		V11.7c0-3.7-3-6.7-6.7-6.7H11.7L11.7,5.1z"/>
	<path id="path_2_" class="st1" d="M11.2,24.6V27h4.5v15.6c0,0.7,0.5,1.2,1.2,1.2h8.7v7.8L19.8,47L18.3,49l7.8,6
		c0.4,0.3,1,0.3,1.5,0l7.8-6L33.9,47L28,51.6V38.4h-2.4v3h-7.5V27h17.4v14.4h-3.9v2.4h5.1c0.7,0,1.2-0.5,1.2-1.2V27h4.5v-2.4H11.2z"
		/>
</g>
<g>
</g>
<g>
</g>
<g>
</g>
<g>
</g>
<g>
</g>
<g>
</g>
</svg>
