<?xml version="1.0" encoding="utf-8"?>
<!-- Generator: Adobe Illustrator 26.3.1, SVG Export Plug-In . SVG Version: 6.00 Build 0)  -->
<svg version="1.1" id="preview" xmlns="http://www.w3.org/2000/svg" xmlns:xlink="http://www.w3.org/1999/xlink" x="0px" y="0px"
	 width="44px" height="44px" viewBox="0 0 44 44" style="enable-background:new 0 0 44 44;" xml:space="preserve">
<style type="text/css">
	.st0{fill:none;}
	.st1{fill:#54575E;}
</style>
<rect id="rect" x="2" y="2" class="st0" width="40" height="40"/>
<path id="path" class="st1" d="M18.9,37.4H9.1c-0.9,0-1.6-0.7-1.6-1.6V7c0-0.9,0.7-1.6,1.6-1.6l0,0h23.7c0.9,0,1.6,0.7,1.6,1.6v12.5
	h-3.2V8.7H10.8v25.5h8.1L18.9,37.4z M37,40.3L32.7,36c-3.6,2.4-8.5,1.4-10.9-2.3s-1.4-8.5,2.3-10.9s8.5-1.4,10.9,2.3
	c1.7,2.6,1.7,6,0,8.6l4.3,4.3L37,40.3z M31.7,32.7c1.8-1.8,1.8-4.7,0-6.5s-4.7-1.8-6.5,0s-1.8,4.7,0,6.5l0,0
	C27,34.4,29.9,34.4,31.7,32.7"/>
</svg>
