<?xml version="1.0" encoding="utf-8"?>
<!-- Generator: Adobe Illustrator 26.3.1, SVG Export Plug-In . SVG Version: 6.00 Build 0)  -->
<svg version="1.1" id="sotiError" xmlns="http://www.w3.org/2000/svg" xmlns:xlink="http://www.w3.org/1999/xlink" x="0px" y="0px"
	 width="44px" height="44px" viewBox="0 0 44 44" style="enable-background:new 0 0 44 44;" xml:space="preserve">
<style type="text/css">
	.st0{fill:none;}
	.st1{fill:#54575E;}
	.st2{fill:#E54C41;}
</style>
<rect id="rect" x="2" y="2" class="st0" width="40" height="40"/>
<path id="path" class="st1" d="M12.2,14.2c0.3,0.7,0.5,1.5,0.5,2.3c0,0.9-0.3,1.8-0.7,2.5s-1.1,1.3-1.9,1.7
	c-0.9,0.4-1.8,0.6-2.8,0.6s-2-0.2-2.8-0.6C3,19.9,2,18.5,2,16.8c0-0.2,0.1-0.3,0.2-0.4c0.1-0.1,0.2-0.2,0.4-0.2h1.6
	c0.2,0,0.3,0,0.4,0.1c0.1,0.1,0.2,0.2,0.2,0.4c0.1,0.5,0.4,1,0.8,1.3c0.5,0.4,1.1,0.5,1.7,0.5c0.7,0,1.3-0.2,1.9-0.5
	c0.4-0.3,0.6-0.8,0.6-1.4c0-0.3-0.1-0.7-0.3-1c-0.3-0.3-0.6-0.5-1-0.7c-0.4-0.2-1.1-0.4-2-0.7c-1.1-0.2-2.2-0.8-3.1-1.7
	c-0.7-0.8-1.1-1.9-1-3.1C2.4,8.6,2.6,7.7,3,7c0.4-0.7,1-1.3,1.7-1.6C5.5,5,6.3,4.8,7.2,4.8C8.1,4.8,9,5,9.9,5.5
	c0.7,0.4,1.3,1,1.7,1.7c0.4,0.6,0.6,1.3,0.6,2c0,0.2,0,0.3-0.1,0.4c-0.1,0.1-0.2,0.2-0.4,0.2H10c-0.3,0-0.6-0.2-0.6-0.5
	C9.3,8.8,9.1,8.4,8.7,8.2C8.3,7.9,7.8,7.7,7.2,7.8c-0.5,0-1.1,0.1-1.5,0.4C5.3,8.5,5.1,9,5.2,9.5c0,0.3,0.1,0.7,0.3,1
	C5.7,10.6,6,10.9,6.3,11c0.6,0.3,1.2,0.5,1.8,0.7c0.9,0.3,1.8,0.6,2.6,1C11.3,13.1,11.8,13.6,12.2,14.2 M24.8,11.1
	c0,0.9,0,1.5,0,1.9s0,1,0,1.9c0.1,1.7-0.5,3.4-1.5,4.7c-1,1.1-2.5,1.7-4,1.6c-1.5,0.1-2.9-0.5-4-1.6c-1-1.3-1.6-3-1.5-4.7
	c0-0.5,0-1.1,0-1.9c0-0.8,0-1.5,0-1.9c-0.1-1.7,0.5-3.3,1.5-4.7c1-1.1,2.4-1.7,3.9-1.6c1.5-0.1,2.9,0.5,3.9,1.6
	C24.3,7.8,24.9,9.4,24.8,11.1 M16.7,13.1c0,0.8,0,1.4,0,1.8c0,1,0.2,1.9,0.8,2.7c0.4,0.6,1.1,0.9,1.8,0.9c0.7,0,1.4-0.3,1.9-0.9
	c0.5-0.8,0.8-1.8,0.7-2.7C22,14,22,13.4,22,13.1c0-0.3,0-1,0-1.8c0-1-0.2-1.9-0.8-2.7c-0.4-0.6-1.1-1-1.8-0.9
	C18.6,7.6,18,8,17.5,8.5c-0.5,0.8-0.8,1.8-0.8,2.7C16.7,11.7,16.7,12.2,16.7,13.1 M41.8,21.3V5.7c0-0.2,0-0.3-0.2-0.5
	C41.5,5.1,41.3,5,41.2,5h-1.9c-0.2,0-0.3,0.1-0.4,0.2c-0.1,0.1-0.2,0.3-0.2,0.5v12.7C39.9,19.2,40.9,20.1,41.8,21.3 M26.1,8.1h3.6
	v8.4c0.7-0.1,1.3-0.2,2-0.2c0.4,0,0.7,0.1,1.1,0.1V8.1h3.6c0.2,0,0.3-0.1,0.5-0.2c0.1-0.1,0.2-0.3,0.2-0.5V5.7
	c0-0.2-0.1-0.4-0.2-0.5C36.6,5.1,36.5,5,36.3,5H26.1c-0.2,0-0.3,0.1-0.4,0.2c-0.1,0.1-0.2,0.3-0.2,0.5v1.7c0,0.2,0.1,0.3,0.2,0.5
	C25.8,8,25.9,8.1,26.1,8.1"/>
<path id="path-error" class="st2" d="M31.6,18.7c-5.7,0-10.4,4.6-10.4,10.4c0,5.7,4.6,10.4,10.4,10.4c5.7,0,10.4-4.6,10.4-10.4
	C42,23.4,37.3,18.8,31.6,18.7 M35.8,23.4l-4.2,3.9l-4.2-3.9C29.9,21.5,33.3,21.5,35.8,23.4 M25.6,25.4l4,3.7l-4,3.7
	C24.1,30.6,24.1,27.7,25.6,25.4 M27.4,34.9l4.2-3.9l4.2,3.9C33.3,36.7,29.9,36.7,27.4,34.9 M37.7,32.8l-4-3.7l4-3.7
	C39.1,27.7,39.1,30.6,37.7,32.8"/>
</svg>
