<?xml version="1.0" encoding="utf-8"?>
<!-- Generator: Adobe Illustrator 26.3.1, SVG Export Plug-In . SVG Version: 6.00 Build 0)  -->
<svg version="1.1" id="watingForExtIoSignal" xmlns="http://www.w3.org/2000/svg" xmlns:xlink="http://www.w3.org/1999/xlink"
	 x="0px" y="0px" width="44px" height="44px" viewBox="0 0 44 44" style="enable-background:new 0 0 44 44;" xml:space="preserve">
<style type="text/css">
	.st0{fill:none;}
	.st1{fill:#54575E;}
</style>
<rect id="rect" x="2" y="2" class="st0" width="40" height="40"/>
<path id="path" class="st1" d="M26.7,5.1h-3.2c0,2,0.4,4,1.1,5.9H5.1c-0.9,0-1.6,0.7-1.6,1.6l0,0v17.9c0,0.9,0.7,1.6,1.6,1.6h5.2
	v3.7c0,0.9,0.7,1.6,1.6,1.6h13.8c0.9,0,1.6-0.7,1.6-1.6v-3.7h5.2c0.9,0,1.6-0.7,1.6-1.6v-9.8c1.9,0.7,3.9,1.1,5.9,1.1v-3.3
	C32.7,18.5,26.7,12.5,26.7,5.1 M24.1,34.3H13.6v-9h10.5V34.3z M31,28.9h-3.6v-5.2c0-0.9-0.7-1.6-1.6-1.6H12c-0.9,0-1.6,0.7-1.6,1.6
	V29H6.8V14.3h19.5c1.2,1.8,2.8,3.5,4.7,4.7V28.9z M40.1,11v3.2c-5,0-9.1-4.1-9.1-9.1h3.3C34.3,8.4,36.9,11,40.1,11"/>
</svg>
