<?xml version="1.0" encoding="utf-8"?>
<!-- Generator: Adobe Illustrator 26.3.1, SVG Export Plug-In . SVG Version: 6.00 Build 0)  -->
<svg version="1.1" id="commandWarn" xmlns="http://www.w3.org/2000/svg" xmlns:xlink="http://www.w3.org/1999/xlink" x="0px"
	 y="0px" width="44px" height="44px" viewBox="0 0 44 44" style="enable-background:new 0 0 44 44;" xml:space="preserve">
<style type="text/css">
	.st0{fill:none;}
	.st1{fill:#54575E;}
	.st2{fill:#E69A37;}
</style>
<rect id="rect" x="2" y="2" class="st0" width="40" height="40"/>
<path id="path" class="st1" d="M13.1,31.2L11,28.8l3.6-3.2L11,22.4l2.1-2.4l5,4.4c0.7,0.6,0.7,1.6,0.2,2.3c0,0.1-0.1,0.1-0.2,0.2
	L13.1,31.2z M28.2,33.4H7.8V18.1h20.5v-3.2H7.8v-3.2h20.5V8.5H6.1c-0.9,0-1.6,0.7-1.6,1.6l0,0v25c0,0.9,0.7,1.6,1.6,1.6h22.1V33.4z
	 M21.2,30.1h7v-3.3h-7V30.1z"/>
<path id="path-warning" class="st2" d="M30.8,6.9h10L38,25.6h-4.5L30.8,6.9z M35.8,38.1c2.1,0,3.8-1.7,3.8-3.8s-1.7-3.8-3.8-3.8
	S32,32.3,32,34.4C32,36.5,33.7,38.1,35.8,38.1"/>
</svg>
