<?xml version="1.0" encoding="utf-8"?>
<!-- Generator: Adobe Illustrator 26.3.1, SVG Export Plug-In . SVG Version: 6.00 Build 0)  -->
<svg version="1.1" id="hexDump" xmlns="http://www.w3.org/2000/svg" xmlns:xlink="http://www.w3.org/1999/xlink" x="0px" y="0px"
	 width="44px" height="44px" viewBox="0 0 44 44" style="enable-background:new 0 0 44 44;" xml:space="preserve">
<style type="text/css">
	.st0{fill:none;}
	.st1{fill:#54575E;}
</style>
<rect id="rect" x="2" y="2" class="st0" width="40" height="40"/>
<path id="path" class="st1" d="M41.1,18.1l-2.3-2.3l-2.9,2.9c-0.3-0.4-0.7-0.9-1-1.3L32.5,15l4.5-4.5l-2.3-2.3l-4.6,4.6l-0.6-0.6
	c-2.2-2.2-5.3-3.4-8.4-3.3c-1,0-1.9,0.2-2.9,0.5l-2-5.4l-3.1,1.1l2,5.6c-1.9,1.1-3.5,2.7-4.6,4.6l-5.6-2l-1.1,3.1l5.4,2
	c-0.3,0.9-0.4,1.9-0.5,2.9c-0.1,3.1,1.1,6.2,3.3,8.4l0.6,0.6L8,34.9l2.3,2.3l4.6-4.6l2.4,2.4c0.4,0.4,0.8,0.7,1.3,1l-2.9,2.9
	l2.3,2.3l3.7-3.7c1.2,0.4,2.5,0.7,3.8,0.7h0.4c6.6-0.3,11.9-5.6,12.2-12.2c0-1.4-0.2-2.8-0.7-4.1L41.1,18.1z M14.4,27.2
	c-1.6-1.6-2.4-3.8-2.3-6c0.2-4.9,4.1-8.8,9.1-9.1h0.3c2.1,0,4.2,0.8,5.7,2.3l0.6,0.6L15.1,27.8L14.4,27.2z M25.8,34.8
	c-2.2,0.1-4.4-0.7-6-2.3l-2.4-2.4l5.2-5.2l8.2,8.2C29.3,34.1,27.6,34.7,25.8,34.8z M33.1,30.8l-8.2-8.2l5.2-5.2l2.4,2.4
	c1.6,1.6,2.4,3.8,2.3,6C34.7,27.6,34.1,29.3,33.1,30.8L33.1,30.8z"/>
</svg>
