<?xml version="1.0" encoding="utf-8"?>
<!-- Generator: Adobe Illustrator 26.3.1, SVG Export Plug-In . SVG Version: 6.00 Build 0)  -->
<svg version="1.1" id="remoteDesktop" xmlns="http://www.w3.org/2000/svg" xmlns:xlink="http://www.w3.org/1999/xlink" x="0px"
	 y="0px" width="44px" height="44px" viewBox="0 0 44 44" style="enable-background:new 0 0 44 44;" xml:space="preserve">
<style type="text/css">
	.st0{fill:none;}
	.st1{fill:#54575E;}
</style>
<rect id="rect" x="2" y="2" class="st0" width="40" height="40"/>
<path id="path" class="st1" d="M7.7,6C5.9,6,4.5,7.4,4.5,9.2v19.1c0,1.8,1.4,3.2,3.2,3.2h11.1v3.2h-3.2v3.2h12.7v-3.2h-3.2v-3.2
	h11.1c1.8,0,3.2-1.4,3.2-3.2V9.2C39.4,7.4,38,6,36.2,6 M7.7,9.2h28.7v19.1H7.7 M26.8,10.8l-5.6,5.5l5.6,5.6l2.2-2.2l-3.3-3.3L29,13
	 M17.2,15.6L15,17.8l3.4,3.3L15,24.5l2.2,2.2l5.6-5.6"/>
</svg>
