<?xml version="1.0" encoding="utf-8"?>
<!-- Generator: Adobe Illustrator 26.3.1, SVG Export Plug-In . SVG Version: 6.00 Build 0)  -->
<svg version="1.1" id="pdfdpSplitTest" xmlns="http://www.w3.org/2000/svg" xmlns:xlink="http://www.w3.org/1999/xlink" x="0px"
	 y="0px" width="44px" height="44px" viewBox="0 0 44 44" style="enable-background:new 0 0 44 44;" xml:space="preserve">
<style type="text/css">
	.st0{fill:none;}
	.st1{fill:#54575E;}
</style>
<rect id="rect" x="2" y="2" class="st0" width="40" height="40"/>
<path id="path" class="st1" d="M9.5,30H6.3V5.8c0-0.9,0.7-1.6,1.6-1.6h20v3.2H9.5V30z M36,12.3c0-0.9-0.7-1.6-1.6-1.6h-20
	c-0.9,0-1.6,0.7-1.6,1.6l0,0v24.2c0,0.9,0.7,1.6,1.6,1.6h9.5v-3.2H16V26h4v-3.2h-4V14h6.8v6H26v-6.1h6.7v8.9h-4V26H36V12.3z
	 M34.4,30.1v4.1L29.2,29l-2.3,2.3l5.2,5.2H28v3.3h8c0.9,0,1.6-0.7,1.6-1.6l0,0v-8L34.4,30.1L34.4,30.1z"/>
</svg>
