<?xml version="1.0" encoding="utf-8"?>
<!-- Generator: Adobe Illustrator 26.3.1, SVG Export Plug-In . SVG Version: 6.00 Build 0)  -->
<svg version="1.1" id="レイヤー_1" xmlns="http://www.w3.org/2000/svg" xmlns:xlink="http://www.w3.org/1999/xlink" x="0px"
	 y="0px" width="305.4px" height="147px" viewBox="0 0 305.4 147" style="enable-background:new 0 0 305.4 147;"
	 xml:space="preserve">
<style type="text/css">
	.st0{fill-rule:evenodd;clip-rule:evenodd;}
	.st1{fill:none;stroke:#000000;stroke-width:2.04;stroke-miterlimit:8;}
	.st2{fill:none;stroke:#000000;stroke-linejoin:round;stroke-miterlimit:10;}
</style>
<g>
	<polygon class="st0" points="54.6,8.2 61.9,1.7 69,9.7 76,1.7 83.3,8.2 75.4,17 83.3,25.9 76,32.3 69,24.3 61.9,32.3 54.6,25.9 
		62.5,17 54.6,8.2 	"/>
	<polygon class="st1" points="54.6,8.2 61.9,1.8 69,9.8 76,1.8 83.3,8.2 75.4,17.1 83.3,25.9 76,32.3 69,24.4 61.9,32.3 54.6,25.9 
		62.5,17.1 54.6,8.2 	"/>
	<path class="st2" d="M48.3,35.1c-5,0-9-0.7-9-1.5V19.3c0-0.8-4-1.5-9-1.5c5,0,9-0.7,9-1.5V2c0-0.8,4-1.5,9-1.5"/>
	<polygon class="st0" points="85.3,8.2 92.5,1.8 99.6,9.8 106.7,1.8 114,8.2 106.1,17.1 114,25.9 106.7,32.4 99.6,24.4 92.5,32.4 
		85.3,25.9 93.1,17.1 85.3,8.2 	"/>
	<polygon class="st1" points="85.3,8.2 92.5,1.7 99.6,9.7 106.7,1.7 114,8.2 106.1,17 114,25.9 106.7,32.3 99.6,24.3 92.5,32.3 
		85.3,25.9 93.1,17 85.3,8.2 	"/>
	<polygon class="st0" points="116.9,8.2 124.1,1.8 131.2,9.8 138.3,1.8 145.6,8.2 137.7,17.1 145.6,25.9 138.3,32.4 131.2,24.4 
		124.1,32.4 116.9,25.9 124.7,17.1 116.9,8.2 	"/>
	<polygon class="st1" points="116.9,8.2 124.1,1.7 131.2,9.7 138.3,1.7 145.6,8.2 137.7,17 145.6,25.9 138.3,32.3 131.2,24.3 
		124.1,32.3 116.9,25.9 124.7,17 116.9,8.2 	"/>
	<polygon class="st0" points="274.5,8.2 281.7,1.7 288.8,9.7 295.9,1.7 303.2,8.2 295.3,17 303.2,25.8 295.9,32.3 288.8,24.3 
		281.7,32.3 274.5,25.8 282.3,17 274.5,8.2 	"/>
	<polygon class="st1" points="275.2,8.2 282.4,1.7 289.6,9.7 296.7,1.7 303.9,8.2 296.1,17 303.9,25.8 296.7,32.3 289.6,24.3 
		282.4,32.3 275.2,25.8 283,17 275.2,8.2 	"/>
	<path class="st2" d="M84.1,66.5c0,5-0.7,9-1.5,9H70.2c-0.8,0-1.5,4-1.5,9c0-5-0.7-9-1.5-9H54.7c-0.8,0-1.5-4-1.5-9"/>
	<polygon class="st0" points="54.6,42.6 61.9,36.2 69,44.2 76,36.2 83.3,42.6 75.4,51.5 83.3,60.4 76,66.8 69,58.8 61.9,66.8 
		54.6,60.4 62.5,51.5 54.6,42.6 	"/>
	<polygon class="st1" points="54.6,42.6 61.9,36.2 69,44.2 76,36.2 83.3,42.6 75.4,51.5 83.3,60.4 76,66.8 69,58.8 61.9,66.8 
		54.6,60.4 62.5,51.5 54.6,42.6 	"/>
	<polygon class="st0" points="85.3,42.7 92.5,36.2 99.6,44.2 106.7,36.2 114,42.7 106.1,51.5 114,60.3 106.7,66.8 99.6,58.8 
		92.5,66.8 85.3,60.3 93.1,51.5 85.3,42.7 	"/>
	<polygon class="st1" points="85.3,42.7 92.5,36.2 99.6,44.2 106.7,36.2 114,42.7 106.1,51.5 114,60.3 106.7,66.8 99.6,58.8 
		92.5,66.8 85.3,60.3 93.1,51.5 85.3,42.7 	"/>
	<polygon class="st0" points="116.9,42.7 124.1,36.2 131.2,44.2 138.3,36.2 145.6,42.7 137.7,51.5 145.6,60.3 138.3,66.8 
		131.2,58.8 124.1,66.8 116.9,60.3 124.7,51.5 116.9,42.7 	"/>
	<polygon class="st1" points="116.9,42.7 124.1,36.2 131.2,44.2 138.3,36.2 145.6,42.7 137.7,51.5 145.6,60.3 138.3,66.8 
		131.2,58.8 124.1,66.8 116.9,60.3 124.7,51.5 116.9,42.7 	"/>
	<polygon class="st0" points="275.2,42.7 282.4,36.2 289.5,44.2 296.7,36.2 303.9,42.7 296.1,51.5 303.9,60.3 296.7,66.8 
		289.5,58.8 282.4,66.8 275.2,60.3 283,51.5 275.2,42.7 	"/>
	<polygon class="st1" points="275.2,42.7 282.4,36.2 289.5,44.2 296.7,36.2 303.9,42.7 296.1,51.5 303.9,60.3 296.7,66.8 
		289.5,58.8 282.4,66.8 275.2,60.3 283,51.5 275.2,42.7 	"/>
	<polygon class="st0" points="54.6,121.5 61.9,115 68.9,123 76,115 83.3,121.5 75.4,130.3 83.3,139.1 76,145.5 68.9,137.6 
		61.9,145.5 54.6,139.1 62.5,130.3 54.6,121.5 	"/>
	<polygon class="st1" points="54.6,121.5 61.9,115 69,123 76,115 83.3,121.5 75.4,130.3 83.3,139.1 76,145.5 69,137.6 61.9,145.5 
		54.6,139.1 62.5,130.3 54.6,121.5 	"/>
	<polygon class="st0" points="85.3,121.5 92.5,115 99.6,123 106.8,115 114,121.5 106.2,130.3 114,139.1 106.8,145.5 99.6,137.6 
		92.5,145.5 85.3,139.1 93.1,130.3 85.3,121.5 	"/>
	<polygon class="st1" points="85.3,121.5 92.5,115 99.6,123 106.8,115 114,121.5 106.2,130.3 114,139.1 106.8,145.5 99.6,137.6 
		92.5,145.5 85.3,139.1 93.1,130.3 85.3,121.5 	"/>
	<polygon class="st0" points="116.9,121.5 124.1,115 131.2,123 138.3,115 145.6,121.5 137.7,130.3 145.6,139.1 138.3,145.5 
		131.2,137.6 124.1,145.5 116.9,139.1 124.7,130.3 116.9,121.5 	"/>
	<polygon class="st1" points="116.9,121.5 124.1,115 131.2,123 138.3,115 145.6,121.5 137.7,130.3 145.6,139.1 138.3,145.5 
		131.2,137.6 124.1,145.5 116.9,139.1 124.7,130.3 116.9,121.5 	"/>
	<polygon class="st0" points="275.2,121.5 282.4,115 289.5,123 296.7,115 303.9,121.5 296.1,130.3 303.9,139.1 296.7,145.5 
		289.5,137.6 282.4,145.5 275.2,139.1 283,130.3 275.2,121.5 	"/>
	<polygon class="st1" points="275.2,121.5 282.4,115 289.6,123 296.7,115 303.9,121.5 296.1,130.3 303.9,139.1 296.7,145.5 
		289.6,137.6 282.4,145.5 275.2,139.1 283,130.3 275.2,121.5 	"/>
	<g>
		<path d="M199.3,30.8h-2.9v-2.9h2.9V30.8z M204.4,30.8v-2.9h2.9v2.9H204.4z M212.5,30.8v-2.9h2.9v2.9H212.5z"/>
	</g>
	<g>
		<path d="M183.2,87.2h-2.9v-2.9h2.9V87.2z M183.2,95.3h-2.9v-2.9h2.9V95.3z M183.2,100.5v2.9h-2.9v-2.9H183.2z"/>
	</g>
	<g>
		<path d="M4.9,15.3L4,15.4c-0.1-0.4-0.2-0.8-0.4-0.9C3.4,14.2,3.1,14,2.8,14c-0.5,0-0.9,0.3-1.2,0.9c-0.3,0.5-0.4,1.3-0.4,2.4
			C1.4,17,1.7,16.7,2,16.5s0.6-0.3,1-0.3c0.6,0,1,0.3,1.5,0.8S5,18.1,5,19c0,0.6-0.1,1.1-0.3,1.6s-0.5,0.8-0.8,1s-0.7,0.3-1.1,0.3
			c-0.7,0-1.3-0.3-1.8-1s-0.7-1.7-0.7-3.2c0-1.7,0.2-2.8,0.7-3.5s1.1-1.1,1.8-1.1c0.5,0,1,0.2,1.3,0.5S4.8,14.6,4.9,15.3z M1.3,19
			c0,0.6,0.1,1.1,0.4,1.5s0.6,0.6,1,0.6c0.3,0,0.6-0.2,0.9-0.5s0.4-0.8,0.4-1.5c0-0.6-0.1-1.1-0.4-1.4s-0.6-0.5-1-0.5
			c-0.4,0-0.7,0.2-1,0.5S1.3,18.4,1.3,19z"/>
		<path d="M8.9,21.8v-6.2h0.8v0.9c0.2-0.3,0.4-0.6,0.7-0.7c0.3-0.2,0.6-0.3,0.9-0.3c0.4,0,0.7,0.1,0.9,0.3c0.2,0.2,0.4,0.5,0.5,0.8
			c0.2-0.4,0.4-0.6,0.7-0.8s0.6-0.3,0.9-0.3c0.5,0,0.9,0.2,1.2,0.5c0.3,0.3,0.4,0.9,0.4,1.6v4.3h-0.9v-3.9c0-0.4,0-0.8-0.1-0.9
			c-0.1-0.2-0.2-0.3-0.3-0.4c-0.1-0.1-0.3-0.2-0.5-0.2c-0.4,0-0.7,0.1-0.9,0.4s-0.4,0.8-0.4,1.4v3.6h-0.9v-4c0-0.5-0.1-0.9-0.2-1.1
			c-0.2-0.2-0.4-0.3-0.7-0.3c-0.4,0-0.7,0.2-0.9,0.5s-0.3,0.9-0.3,1.7v3.2H8.9z"/>
		<path d="M17.1,21.8v-6.2h0.8v0.9c0.2-0.3,0.4-0.6,0.7-0.7c0.3-0.2,0.6-0.3,0.9-0.3c0.4,0,0.7,0.1,0.9,0.3c0.2,0.2,0.4,0.5,0.5,0.8
			c0.2-0.4,0.4-0.6,0.7-0.8s0.6-0.3,0.9-0.3c0.5,0,0.9,0.2,1.2,0.5c0.3,0.3,0.4,0.9,0.4,1.6v4.3h-0.9v-3.9c0-0.4,0-0.8-0.1-0.9
			c-0.1-0.2-0.2-0.3-0.3-0.4c-0.1-0.1-0.3-0.2-0.5-0.2c-0.4,0-0.7,0.1-0.9,0.4s-0.4,0.8-0.4,1.4v3.6h-0.9v-4c0-0.5-0.1-0.9-0.2-1.1
			c-0.2-0.2-0.4-0.3-0.7-0.3c-0.4,0-0.7,0.2-0.9,0.5s-0.3,0.9-0.3,1.7v3.2H17.1z"/>
	</g>
	<g>
		<path d="M61.2,93.3l-0.9,0.1c-0.1-0.4-0.2-0.8-0.4-0.9c-0.2-0.3-0.5-0.4-0.8-0.4c-0.5,0-0.9,0.3-1.2,0.9c-0.3,0.5-0.4,1.3-0.4,2.4
			c0.2-0.4,0.4-0.7,0.8-0.9s0.6-0.3,1-0.3c0.6,0,1,0.3,1.5,0.8s0.6,1.2,0.6,2c0,0.6-0.1,1.1-0.3,1.6s-0.5,0.8-0.8,1
			s-0.7,0.3-1.1,0.3c-0.7,0-1.3-0.3-1.8-1s-0.7-1.7-0.7-3.2c0-1.7,0.2-2.8,0.7-3.5s1.1-1.1,1.8-1.1c0.5,0,1,0.2,1.3,0.5
			S61.1,92.6,61.2,93.3z M57.6,97c0,0.6,0.1,1.1,0.4,1.5s0.6,0.6,1,0.6c0.3,0,0.6-0.2,0.9-0.5s0.4-0.8,0.4-1.5
			c0-0.6-0.1-1.1-0.4-1.4s-0.6-0.5-1-0.5c-0.4,0-0.7,0.2-1,0.5S57.6,96.4,57.6,97z"/>
		<path d="M65.1,99.8v-6.2h0.8v0.9c0.2-0.3,0.4-0.6,0.7-0.7c0.3-0.2,0.6-0.3,0.9-0.3c0.4,0,0.7,0.1,0.9,0.3c0.2,0.2,0.4,0.5,0.5,0.8
			c0.2-0.4,0.4-0.6,0.7-0.8s0.6-0.3,0.9-0.3c0.5,0,0.9,0.2,1.2,0.5s0.4,0.9,0.4,1.6v4.3h-0.9v-3.9c0-0.4,0-0.8-0.1-0.9
			c-0.1-0.2-0.2-0.3-0.3-0.4c-0.1-0.1-0.3-0.2-0.5-0.2c-0.4,0-0.7,0.1-0.9,0.4S69,95.5,69,96.2v3.6h-0.9v-4c0-0.5-0.1-0.9-0.2-1.1
			c-0.2-0.2-0.4-0.3-0.7-0.3c-0.4,0-0.7,0.2-0.9,0.5S66,95.7,66,96.5v3.2H65.1z"/>
		<path d="M73.3,99.8v-6.2h0.8v0.9c0.2-0.3,0.4-0.6,0.7-0.7c0.3-0.2,0.6-0.3,0.9-0.3c0.4,0,0.7,0.1,0.9,0.3c0.2,0.2,0.4,0.5,0.5,0.8
			c0.2-0.4,0.4-0.6,0.7-0.8s0.6-0.3,0.9-0.3c0.5,0,0.9,0.2,1.2,0.5s0.4,0.9,0.4,1.6v4.3h-0.9v-3.9c0-0.4,0-0.8-0.1-0.9
			c-0.1-0.2-0.2-0.3-0.3-0.4c-0.1-0.1-0.3-0.2-0.5-0.2c-0.4,0-0.7,0.1-0.9,0.4s-0.4,0.8-0.4,1.4v3.6h-0.9v-4c0-0.5-0.1-0.9-0.2-1.1
			c-0.2-0.2-0.4-0.3-0.7-0.3c-0.4,0-0.7,0.2-0.9,0.5s-0.3,0.9-0.3,1.7v3.2H73.3z"/>
	</g>
</g>
<g>
</g>
<g>
</g>
<g>
</g>
<g>
</g>
<g>
</g>
<g>
</g>
<g>
</g>
<g>
</g>
<g>
</g>
<g>
</g>
<g>
</g>
<g>
</g>
<g>
</g>
<g>
</g>
<g>
</g>
</svg>
