<?xml version="1.0" encoding="utf-8"?>
<!-- Generator: Adobe Illustrator 26.3.1, SVG Export Plug-In . SVG Version: 6.00 Build 0)  -->
<svg version="1.1" id="barcodeReaderConnected" xmlns="http://www.w3.org/2000/svg" xmlns:xlink="http://www.w3.org/1999/xlink"
	 x="0px" y="0px" width="44px" height="44px" viewBox="0 0 44 44" style="enable-background:new 0 0 44 44;" xml:space="preserve">
<style type="text/css">
	.st0{fill:none;}
	.st1{fill:#54575E;}
</style>
<rect id="rect" x="2" y="2" class="st0" width="40" height="40"/>
<path id="path" class="st1" d="M35.1,11.2l5-5l-2.3-2.3l-5,5L32,8c-1.1-1.1-2.9-1.1-4.1,0c0,0,0,0,0,0l-4.6,4.6L21,12.4
	c-1.9-0.1-3.8,0.6-5.2,1.9l-4.2,4.2l-0.2-0.2c-0.6-0.6-1.7-0.6-2.3,0c0,0,0,0,0,0l-4.9,4.9c-0.6,0.6-0.6,1.7,0,2.3l14.1,14.1
	c0.6,0.6,1.7,0.6,2.3,0c0,0,0,0,0,0l4.9-4.9c0.6-0.6,0.6-1.7,0-2.3c0,0,0,0,0,0l-0.2-0.2l4.2-4.2c1.4-1.4,2.1-3.2,1.9-5.2l-0.2-2.3
	l4.6-4.6c1.1-1.1,1.1-2.9,0-4.1L35.1,11.2z M19.6,36.3L7.7,24.4l2.6-2.7l11.8,11.8L19.6,36.3z M28.6,18.9c-0.3,0.3-0.5,0.8-0.5,1.3
	l0.2,3.1c0.1,1-0.3,1.9-1,2.6L23.2,30L14,20.8l4.2-4.2c0.7-0.7,1.7-1.1,2.6-1l3.1,0.2c0.5,0,0.9-0.1,1.3-0.5l4.8-4.8l3.4,3.4
	L28.6,18.9z"/>
</svg>
