<?xml version="1.0" encoding="utf-8"?>
<!-- Generator: Adobe Illustrator 26.3.1, SVG Export Plug-In . SVG Version: 6.00 Build 0)  -->
<svg version="1.1" id="sosCloudWarn" xmlns="http://www.w3.org/2000/svg" xmlns:xlink="http://www.w3.org/1999/xlink" x="0px"
	 y="0px" width="44px" height="44px" viewBox="0 0 44 44" style="enable-background:new 0 0 44 44;" xml:space="preserve">
<style type="text/css">
	.st0{fill:none;}
	.st1{fill:#54575E;}
	.st2{fill:#E69A37;}
</style>
<rect id="rect" x="2" y="2" class="st0" width="40" height="40"/>
<path id="path" class="st1" d="M29.5,32.1H12.4c-3.5,0-6.3-2.8-6.3-6.2c0-3.5,2.8-6.3,6.2-6.3c1.6,0,3.2,0.6,4.4,1.8l2.3-2.3
	c-1.6-1.6-3.8-2.6-6.1-2.7c1.7-3.7,5.3-6,9.3-6c2.8,0,5.4,1.2,7.3,3.2V9.3C23.3,5.2,15,7,10.9,13.2c-0.7,1.2-1.3,2.4-1.7,3.7
	C4.3,18.7,1.7,24,3.4,29c1.3,3.8,4.9,6.4,9,6.4h17.1V32.1z"/>
<path id="path-warning" class="st2" d="M32,6.9h10l-2.8,18.8h-4.5L32,6.9z M37,38.1c2.1,0,3.8-1.7,3.8-3.8s-1.7-3.8-3.8-3.8
	s-3.8,1.7-3.8,3.8S34.9,38.1,37,38.1"/>
</svg>
