<?xml version="1.0" encoding="utf-8"?>
<!-- Generator: Adobe Illustrator 26.3.1, SVG Export Plug-In . SVG Version: 6.00 Build 0)  -->
<svg version="1.1" id="ribbonWarn" xmlns="http://www.w3.org/2000/svg" xmlns:xlink="http://www.w3.org/1999/xlink" x="0px" y="0px"
	 width="44px" height="44px" viewBox="0 0 44 44" style="enable-background:new 0 0 44 44;" xml:space="preserve">
<style type="text/css">
	.st0{fill:none;}
	.st1{fill:#54575E;}
	.st2{fill:#E69A37;}
</style>
<rect id="rect" x="2" y="2" class="st0" width="40" height="40"/>
<path id="path" class="st1" d="M22,20.2c-3,0-5.4,2.4-5.4,5.4S19,31,22,31s5.4-2.4,5.4-5.4S25,20.2,22,20.2 M22,27.7
	c-1.2,0-2.1-1-2.1-2.1c0-1.2,1-2.1,2.1-2.1c1.2,0,2.1,1,2.1,2.1C24.1,26.8,23.2,27.7,22,27.7 M12.1,16l-4.3-2.5l1.6-2.8l4.3,2.5
	L12.1,16z M18.9,12h-3.3V7h3.3V12z M28.2,35.4c-1.9,1.2-4,1.9-6.2,1.9H4.5v-5h8c-3.7-5.3-2.4-12.6,2.8-16.2c3.9-2.7,9-2.8,12.9-0.2
	v4.3c-3-3.5-8.3-3.8-11.8-0.8s-3.8,8.3-0.8,11.8S23.9,35,27.4,32c0.3-0.2,0.5-0.5,0.8-0.8V35.4z"/>
<path id="path-warning" class="st2" d="M30.8,6.9h10L38,25.6h-4.5L30.8,6.9z M35.8,38.1c2.1,0,3.8-1.7,3.8-3.8s-1.7-3.8-3.8-3.8
	S32,32.3,32,34.4C32,36.5,33.7,38.1,35.8,38.1"/>
</svg>
