<?xml version="1.0" encoding="utf-8"?>
<!-- Generator: Adobe Illustrator 26.3.1, SVG Export Plug-In . SVG Version: 6.00 Build 0)  -->
<svg version="1.1" id="wifiDirectOwner" xmlns="http://www.w3.org/2000/svg" xmlns:xlink="http://www.w3.org/1999/xlink" x="0px"
	 y="0px" width="44px" height="44px" viewBox="0 0 44 44" style="enable-background:new 0 0 44 44;" xml:space="preserve">
<style type="text/css">
	.st0{fill:none;}
	.st1{fill:#54575E;}
</style>
<rect id="rect" x="2" y="2" class="st0" width="40" height="40"/>
<g id="path">
	<path id="path5" class="st1" d="M13.5,35h-9v-3.2h9V35z M39.5,31.7h-9V35h9V31.7z"/>
	<path id="path4" class="st1" d="M4.6,15.5c9.6,9.6,25.2,9.6,34.8,0l2.3,2.3c-10.9,10.9-28.5,10.9-39.4,0l0,0L4.6,15.5z"/>
	<path id="path3" class="st1" d="M9.9,10.5c6.7,6.7,17.5,6.7,24.2,0l2.3,2.3c-8,7.9-20.9,7.9-28.8,0L9.9,10.5z"/>
	<path id="path2" class="st1" d="M15.2,5.5c3.8,3.8,9.8,3.8,13.6,0l2.3,2.3c-5,5-13.2,5-18.2,0L15.2,5.5z"/>
	<path id="path1" class="st1" d="M27,33.4c0,2.8-2.2,5-5,5s-5-2.2-5-5c0-2.8,2.2-5,5-5S27,30.6,27,33.4"/>
</g>
</svg>
