<?xml version="1.0" encoding="utf-8"?>
<!-- Generator: Adobe Illustrator 26.3.1, SVG Export Plug-In . SVG Version: 6.00 Build 0)  -->
<svg version="1.1" id="bluetoothConnected" xmlns="http://www.w3.org/2000/svg" xmlns:xlink="http://www.w3.org/1999/xlink" x="0px"
	 y="0px" width="44px" height="44px" viewBox="0 0 44 44" style="enable-background:new 0 0 44 44;" xml:space="preserve">
<style type="text/css">
	.st0{fill:none;}
	.st1{fill:#54575E;}
</style>
<rect id="rect" x="2" y="2" class="st0" width="40" height="40"/>
<path id="path" class="st1" d="M24.6,22l9.2-7.5c0.7-0.6,0.8-1.6,0.2-2.3c0-0.1-0.1-0.1-0.2-0.2L23,3.2c-0.7-0.6-1.7-0.5-2.3,0.2
	c-0.2,0.3-0.4,0.6-0.4,1v14.2l-8-6.6l-2,2.5l9.1,7.5l-9.2,7.5l2,2.5l8.1-6.6v14.1c0,0.9,0.7,1.6,1.6,1.6c0.4,0,0.7-0.1,1-0.4
	L33.8,32c0.7-0.6,0.8-1.6,0.2-2.3c-0.1-0.1-0.2-0.2-0.2-0.2L24.6,22z M23.6,7.9l6.6,5.3l-6.6,5.4V7.9z M23.6,36.1V25.4l6.6,5.3
	L23.6,36.1z"/>
</svg>
