<?xml version="1.0" encoding="utf-8"?>
<!-- Generator: Adobe Illustrator 26.3.1, SVG Export Plug-In . SVG Version: 6.00 Build 0)  -->
<svg version="1.1" id="labelWarn" xmlns="http://www.w3.org/2000/svg" xmlns:xlink="http://www.w3.org/1999/xlink" x="0px" y="0px"
	 width="32px" height="32px" viewBox="0 0 32 32" style="enable-background:new 0 0 32 32;" xml:space="preserve">
<style type="text/css">
	.st0{fill:none;}
	.st1{fill:#54575E;}
	.st2{fill:#E69A37;}
</style>
<rect id="rect" x="1.6" y="1.6" class="st0" width="28.8" height="28.8"/>
<path id="path" class="st1" d="M18.9,9.2l-1.2-2l3.1-1.8l1.2,2L18.9,9.2z M16.4,3.1H14v3.6h2.3V3.1z M18.3,11.5v13.3
	c0,2-2.5,3.5-5.9,3.5s-5.9-1.5-5.9-3.5v-1.2H1.6v-2.3h4.9v-9.7c0-0.4,0.1-0.8,0.3-1.2H1.6V8h10.8C15.8,8,18.3,9.5,18.3,11.5
	 M8.8,11.5c0,0.7,1.6,1.2,3.6,1.2s3.6-0.5,3.6-1.2l0,0c0-0.7-1.6-1.2-3.6-1.2S8.8,10.9,8.8,11.5 M16,24.8V14.4
	c-1.1,0.5-2.3,0.7-3.6,0.7c-1.2,0-2.4-0.2-3.6-0.7v10.4c0,0.3,1.3,1.2,3.6,1.2S16,25.1,16,24.8"/>
<path id="path-warning" class="st2" d="M23.2,5.1h7.2l-2,13.5h-3.2L23.2,5.1z M26.8,27.6c1.5,0,2.7-1.2,2.7-2.7s-1.2-2.7-2.7-2.7
	s-2.7,1.2-2.7,2.7S25.3,27.6,26.8,27.6"/>
</svg>
