<?xml version="1.0" encoding="utf-8"?>
<!-- Generator: Adobe Illustrator 26.3.1, SVG Export Plug-In . SVG Version: 6.00 Build 0)  -->
<svg version="1.1" id="sosCloudEasyConnect" xmlns="http://www.w3.org/2000/svg" xmlns:xlink="http://www.w3.org/1999/xlink"
	 x="0px" y="0px" width="44px" height="44px" viewBox="0 0 44 44" style="enable-background:new 0 0 44 44;" xml:space="preserve">
<style type="text/css">
	.st0{fill:none;}
	.st1{fill:#54575E;}
</style>
<rect id="rect" x="2" y="2" class="st0" width="40" height="40"/>
<path id="path" class="st1" d="M41.1,24.7c0,4.5-3.6,8.1-8.1,8.1h-1v-3.3h1c2.7,0,4.9-2.2,4.9-4.9s-2.2-4.9-4.9-4.9
	c-1.6,0-3.1,0.8-4,2.1L26.3,20c1.4-2,3.6-3.3,6-3.5c-0.8-5.4-5.9-9.3-11.5-8.5c-3.5,0.5-6.5,2.7-8,6c2.4,0,4.6,1,6.3,2.6l-2.3,2.3
	c-2.4-2.4-6.4-2.4-8.8,0s-2.4,6.4,0,8.8c1.1,1.1,2.5,1.7,4.1,1.8v3.2c-5.2-0.2-9.3-4.6-9.1-9.8c0.1-3.9,2.7-7.3,6.4-8.6
	C11.4,7.1,18.8,3,26,5c5.5,1.5,9.4,6.3,9.8,12C38.9,18.2,41.1,21.3,41.1,24.7 M28.6,30.4L23,24.8c-0.5-0.5-1.4-0.5-1.9,0l0,0
	l-5.7,5.7l1.9,1.9l3.3-3.3v10.4h2.8V29.1l3.3,3.3L28.6,30.4z"/>
</svg>
