<?xml version="1.0" encoding="utf-8"?>
<!-- Generator: Adobe Illustrator 26.3.1, SVG Export Plug-In . SVG Version: 6.00 Build 0)  -->
<svg version="1.1" xmlns="http://www.w3.org/2000/svg" xmlns:xlink="http://www.w3.org/1999/xlink" x="0px" y="0px" width="480px"
	 height="220px" viewBox="0 0 480 220" style="enable-background:new 0 0 480 220;" xml:space="preserve">
<style type="text/css">
	.st0{clip-path:url(#SVGID_00000135684511660160448140000018438634546381121183_);fill:#CCFFFF;}
	
		.st1{clip-path:url(#SVGID_00000135684511660160448140000018438634546381121183_);fill:none;stroke:#000000;stroke-width:0.75;stroke-linejoin:round;stroke-miterlimit:10;}
	
		.st2{clip-path:url(#SVGID_00000135684511660160448140000018438634546381121183_);fill:#FFFFFF;stroke:#000000;stroke-width:1.5;stroke-linecap:round;stroke-linejoin:round;stroke-miterlimit:10;}
	.st3{clip-path:url(#SVGID_00000088820516796696856830000017407547685010697903_);fill:#CCFFFF;}
	
		.st4{clip-path:url(#SVGID_00000088820516796696856830000017407547685010697903_);fill:none;stroke:#000000;stroke-width:0.75;stroke-linejoin:round;stroke-miterlimit:10;}
	
		.st5{clip-path:url(#SVGID_00000088820516796696856830000017407547685010697903_);fill:#FFFFFF;stroke:#000000;stroke-width:1.5;stroke-linecap:round;stroke-linejoin:round;stroke-miterlimit:10;}
	.st6{clip-path:url(#SVGID_00000055680456674186052320000017283470801609509566_);}
	.st7{fill:#FFFFFF;}
	.st8{fill:none;stroke:#000000;stroke-width:0.4572;}
	.st9{fill:none;stroke:#000000;stroke-width:1.1887;}
	.st10{clip-path:url(#SVGID_00000124144688289070812000000015768799269404196257_);}
	.st11{fill:#A6A6A6;}
	.st12{fill:#5DC2D0;}
	.st13{fill:#040000;}
	.st14{fill:#FFFFFF;stroke:#000000;stroke-width:2;stroke-linecap:round;stroke-linejoin:round;stroke-miterlimit:10;}
	.st15{fill:url(#SVGID_00000134947851069981784720000013483024666732408978_);}
	.st16{fill:#FFFFFF;stroke:#000000;stroke-linejoin:round;stroke-miterlimit:10;}
	.st17{fill:url(#SVGID_00000018233446220262337220000006033449095615205788_);}
	.st18{fill:#C0DD98;}
	.st19{fill:#72AF43;}
	.st20{fill:none;stroke:#FF3200;stroke-width:12;stroke-miterlimit:10;}
	.st21{fill:#FFFFFF;stroke:#007DFF;stroke-width:2;stroke-linecap:round;stroke-linejoin:round;stroke-miterlimit:10;}
	.st22{fill:none;stroke:#FF3200;stroke-width:15;stroke-miterlimit:10;}
	.st23{fill:#FFFF80;stroke:#FFFF00;stroke-width:1.5;stroke-miterlimit:10;}
</style>
<g id="Layer_1">
	<g>
		<defs>
			<rect id="SVGID_1_" x="255.6" y="77.1" width="221.7" height="105.3"/>
		</defs>
		<clipPath id="SVGID_00000142855775020515223610000004377092000159426957_">
			<use xlink:href="#SVGID_1_"  style="overflow:visible;"/>
		</clipPath>
		<polyline style="clip-path:url(#SVGID_00000142855775020515223610000004377092000159426957_);fill:#CCFFFF;" points="479.2,182 
			254.4,182 254.4,77.5 479.2,77.5 		"/>
		
			<line style="clip-path:url(#SVGID_00000142855775020515223610000004377092000159426957_);fill:none;stroke:#000000;stroke-width:0.75;stroke-linejoin:round;stroke-miterlimit:10;" x1="254.4" y1="182" x2="480.5" y2="182"/>
		
			<path style="clip-path:url(#SVGID_00000142855775020515223610000004377092000159426957_);fill:#FFFFFF;stroke:#000000;stroke-width:1.5;stroke-linecap:round;stroke-linejoin:round;stroke-miterlimit:10;" d="
			M245.2,176.7c-5.6,0-10.1-4.5-10.1-10.1V92.4c0-5.6,4.5-10.1,10.1-10.1h171.2c5.6,0,10.1,4.5,10.1,10.1v74.2
			c0,5.6-4.5,10.1-10.1,10.1H245.2z"/>
		
			<path style="clip-path:url(#SVGID_00000142855775020515223610000004377092000159426957_);fill:#FFFFFF;stroke:#000000;stroke-width:1.5;stroke-linecap:round;stroke-linejoin:round;stroke-miterlimit:10;" d="
			M445.3,176.7c-5.6,0-10.1-4.5-10.1-10.1V92.4c0-5.6,4.5-10.1,10.1-10.1h64c5.6,0,10.1,4.5,10.1,10.1v74.2
			c0,5.6-4.5,10.1-10.1,10.1H445.3z"/>
		
			<line style="clip-path:url(#SVGID_00000142855775020515223610000004377092000159426957_);fill:none;stroke:#000000;stroke-width:0.75;stroke-linejoin:round;stroke-miterlimit:10;" x1="254.4" y1="77.5" x2="477.9" y2="77.5"/>
	</g>
	<g>
		<defs>
			<rect id="SVGID_00000118371426672428341170000005939240905776592274_" x="2.7" y="77.1" width="221.9" height="105.3"/>
		</defs>
		<clipPath id="SVGID_00000085942643287608704730000015456413748970298761_">
			<use xlink:href="#SVGID_00000118371426672428341170000005939240905776592274_"  style="overflow:visible;"/>
		</clipPath>
		<polyline style="clip-path:url(#SVGID_00000085942643287608704730000015456413748970298761_);fill:#CCFFFF;" points="239.5,182 
			0.7,182 0.7,77.5 239.5,77.5 		"/>
		
			<line style="clip-path:url(#SVGID_00000085942643287608704730000015456413748970298761_);fill:none;stroke:#000000;stroke-width:0.75;stroke-linejoin:round;stroke-miterlimit:10;" x1="-4" y1="182" x2="234.7" y2="182"/>
		
			<path style="clip-path:url(#SVGID_00000085942643287608704730000015456413748970298761_);fill:#FFFFFF;stroke:#000000;stroke-width:1.5;stroke-linecap:round;stroke-linejoin:round;stroke-miterlimit:10;" d="
			M-39.6,176.6c-5.6,0-10.1-4.5-10.1-10.1V92.3c0-5.6,4.5-10.1,10.1-10.1H0.9c5.6,0,10.1,4.5,10.1,10.1v74.2
			c0,5.6-4.5,10.1-10.1,10.1H-39.6z"/>
		
			<path style="clip-path:url(#SVGID_00000085942643287608704730000015456413748970298761_);fill:#FFFFFF;stroke:#000000;stroke-width:1.5;stroke-linecap:round;stroke-linejoin:round;stroke-miterlimit:10;" d="
			M29.5,176.6c-5.6,0-10.1-4.5-10.1-10.1V92.3c0-5.6,4.5-10.1,10.1-10.1h171.2c5.6,0,10.1,4.5,10.1,10.1v74.2
			c0,5.6-4.5,10.1-10.1,10.1H29.5z"/>
		
			<path style="clip-path:url(#SVGID_00000085942643287608704730000015456413748970298761_);fill:#FFFFFF;stroke:#000000;stroke-width:1.5;stroke-linecap:round;stroke-linejoin:round;stroke-miterlimit:10;" d="
			M229.6,176.6c-5.6,0-10.1-4.5-10.1-10.1V92.3c0-5.6,4.5-10.1,10.1-10.1h40.5c5.6,0,10.1,4.5,10.1,10.1v74.2
			c0,5.6-4.5,10.1-10.1,10.1H229.6z"/>
		
			<line style="clip-path:url(#SVGID_00000085942643287608704730000015456413748970298761_);fill:none;stroke:#000000;stroke-width:0.75;stroke-linejoin:round;stroke-miterlimit:10;" x1="-4" y1="77.5" x2="234.7" y2="77.5"/>
	</g>
	<g>
		<defs>
			<path id="SVGID_00000016791458289595137960000009748280137769026440_" d="M245.3,176.6c-5.6,0-10.1-4.5-10.1-10.1V92.3
				c0-5.6,4.5-10.1,10.1-10.1h171.2c5.6,0,10.1,4.5,10.1,10.1v74.2c0,5.6-4.5,10.1-10.1,10.1H245.3z"/>
		</defs>
		<clipPath id="SVGID_00000086656744218328175700000015947817784841250178_">
			<use xlink:href="#SVGID_00000016791458289595137960000009748280137769026440_"  style="overflow:visible;"/>
		</clipPath>
		<g style="clip-path:url(#SVGID_00000086656744218328175700000015947817784841250178_);">
			<g>
				<rect x="286.5" y="93.9" class="st7" width="15" height="74.6"/>
				<line class="st8" x1="286.5" y1="168.3" x2="301.3" y2="168.3"/>
				<line class="st8" x1="286.5" y1="166.8" x2="301.3" y2="166.8"/>
				<line class="st9" x1="286.5" y1="165.7" x2="301.3" y2="165.7"/>
				<line class="st9" x1="286.5" y1="164.2" x2="301.3" y2="164.2"/>
				<line class="st8" x1="286.5" y1="163.1" x2="301.3" y2="163.1"/>
				<line class="st9" x1="286.5" y1="161.7" x2="301.3" y2="161.7"/>
				<line class="st8" x1="286.5" y1="160.6" x2="301.3" y2="160.6"/>
				<line class="st8" x1="286.5" y1="159.1" x2="301.3" y2="159.1"/>
				<line class="st8" x1="286.5" y1="158.3" x2="301.3" y2="158.3"/>
				<line class="st9" x1="286.5" y1="157.1" x2="301.3" y2="157.1"/>
				<line class="st8" x1="286.5" y1="155.8" x2="301.3" y2="155.8"/>
				<line class="st9" x1="286.5" y1="154.6" x2="301.3" y2="154.6"/>
				<line class="st8" x1="286.5" y1="152.8" x2="301.3" y2="152.8"/>
				<line class="st8" x1="286.5" y1="152" x2="301.3" y2="152"/>
				<line class="st9" x1="286.5" y1="150.9" x2="301.3" y2="150.9"/>
				<line class="st9" x1="286.5" y1="149.2" x2="301.3" y2="149.2"/>
				<line class="st9" x1="286.5" y1="147.7" x2="301.3" y2="147.7"/>
				<line class="st8" x1="286.5" y1="145.9" x2="301.3" y2="145.9"/>
				<line class="st8" x1="286.5" y1="145.1" x2="301.3" y2="145.1"/>
				<line class="st8" x1="286.5" y1="144.3" x2="301.3" y2="144.3"/>
				<line class="st8" x1="286.5" y1="143.2" x2="301.3" y2="143.2"/>
				<line class="st8" x1="286.5" y1="142.4" x2="301.3" y2="142.4"/>
				<line class="st9" x1="286.5" y1="140.6" x2="301.3" y2="140.6"/>
				<line class="st8" x1="286.5" y1="139.5" x2="301.3" y2="139.5"/>
				<line class="st9" x1="286.5" y1="138.3" x2="301.3" y2="138.3"/>
				<line class="st9" x1="286.5" y1="136.6" x2="301.3" y2="136.6"/>
				<line class="st8" x1="286.5" y1="135.5" x2="301.3" y2="135.5"/>
				<line class="st9" x1="286.5" y1="133.7" x2="301.3" y2="133.7"/>
				<line class="st8" x1="286.5" y1="132.5" x2="301.3" y2="132.5"/>
				<line class="st8" x1="286.5" y1="131.7" x2="301.3" y2="131.7"/>
				<line class="st8" x1="286.5" y1="130.7" x2="301.3" y2="130.7"/>
				<line class="st9" x1="286.5" y1="129.5" x2="301.3" y2="129.5"/>
				<line class="st9" x1="286.5" y1="127.4" x2="301.3" y2="127.4"/>
				<line class="st8" x1="286.5" y1="126.3" x2="301.3" y2="126.3"/>
				<line class="st8" x1="286.5" y1="125.4" x2="301.3" y2="125.4"/>
				<line class="st8" x1="286.5" y1="124.4" x2="301.3" y2="124.4"/>
				<line class="st8" x1="286.5" y1="123.6" x2="301.3" y2="123.6"/>
				<line class="st8" x1="286.5" y1="122.1" x2="301.3" y2="122.1"/>
				<line class="st9" x1="286.5" y1="121" x2="301.3" y2="121"/>
				<line class="st9" x1="286.5" y1="119.5" x2="301.3" y2="119.5"/>
				<line class="st9" x1="286.5" y1="117.8" x2="301.3" y2="117.8"/>
				<line class="st8" x1="286.5" y1="116.7" x2="301.3" y2="116.7"/>
				<line class="st8" x1="286.5" y1="115.2" x2="301.3" y2="115.2"/>
				<line class="st9" x1="286.5" y1="114" x2="301.3" y2="114"/>
				<line class="st8" x1="286.5" y1="112.9" x2="301.3" y2="112.9"/>
				<line class="st8" x1="286.5" y1="111.9" x2="301.3" y2="111.9"/>
				<line class="st9" x1="286.5" y1="110.7" x2="301.3" y2="110.7"/>
				<line class="st8" x1="286.5" y1="108.9" x2="301.3" y2="108.9"/>
				<line class="st9" x1="286.5" y1="107.8" x2="301.3" y2="107.8"/>
				<line class="st8" x1="286.5" y1="106.6" x2="301.3" y2="106.6"/>
				<line class="st8" x1="286.5" y1="105.6" x2="301.3" y2="105.6"/>
				<line class="st9" x1="286.5" y1="104.5" x2="301.3" y2="104.5"/>
				<line class="st8" x1="286.5" y1="102.7" x2="301.3" y2="102.7"/>
				<line class="st8" x1="286.5" y1="101.8" x2="301.3" y2="101.8"/>
				<line class="st9" x1="286.5" y1="100.7" x2="301.3" y2="100.7"/>
				<line class="st8" x1="286.5" y1="99.3" x2="301.3" y2="99.3"/>
				<line class="st8" x1="286.5" y1="97.9" x2="301.3" y2="97.9"/>
				<line class="st9" x1="286.5" y1="96.7" x2="301.3" y2="96.7"/>
				<line class="st9" x1="286.5" y1="95.2" x2="301.3" y2="95.2"/>
				<line class="st8" x1="286.5" y1="94.1" x2="301.3" y2="94.1"/>
			</g>
		</g>
		<g style="clip-path:url(#SVGID_00000086656744218328175700000015947817784841250178_);">
			<g>
				<rect x="360.9" y="93.9" class="st7" width="15" height="74.6"/>
				<line class="st8" x1="360.9" y1="168.3" x2="375.7" y2="168.3"/>
				<line class="st8" x1="360.9" y1="166.8" x2="375.7" y2="166.8"/>
				<line class="st9" x1="360.9" y1="165.7" x2="375.7" y2="165.7"/>
				<line class="st9" x1="360.9" y1="164.2" x2="375.7" y2="164.2"/>
				<line class="st8" x1="360.9" y1="163.1" x2="375.7" y2="163.1"/>
				<line class="st9" x1="360.9" y1="161.7" x2="375.7" y2="161.7"/>
				<line class="st8" x1="360.9" y1="160.6" x2="375.7" y2="160.6"/>
				<line class="st8" x1="360.9" y1="159.1" x2="375.7" y2="159.1"/>
				<line class="st8" x1="360.9" y1="158.3" x2="375.7" y2="158.3"/>
				<line class="st9" x1="360.9" y1="157.1" x2="375.7" y2="157.1"/>
				<line class="st8" x1="360.9" y1="155.8" x2="375.7" y2="155.8"/>
				<line class="st9" x1="360.9" y1="154.6" x2="375.7" y2="154.6"/>
				<line class="st8" x1="360.9" y1="152.8" x2="375.7" y2="152.8"/>
				<line class="st8" x1="360.9" y1="152" x2="375.7" y2="152"/>
				<line class="st9" x1="360.9" y1="150.9" x2="375.7" y2="150.9"/>
				<line class="st9" x1="360.9" y1="149.2" x2="375.7" y2="149.2"/>
				<line class="st9" x1="360.9" y1="147.7" x2="375.7" y2="147.7"/>
				<line class="st8" x1="360.9" y1="145.9" x2="375.7" y2="145.9"/>
				<line class="st8" x1="360.9" y1="145.1" x2="375.7" y2="145.1"/>
				<line class="st8" x1="360.9" y1="144.3" x2="375.7" y2="144.3"/>
				<line class="st8" x1="360.9" y1="143.2" x2="375.7" y2="143.2"/>
				<line class="st8" x1="360.9" y1="142.4" x2="375.7" y2="142.4"/>
				<line class="st9" x1="360.9" y1="140.6" x2="375.7" y2="140.6"/>
				<line class="st8" x1="360.9" y1="139.5" x2="375.7" y2="139.5"/>
				<line class="st9" x1="360.9" y1="138.3" x2="375.7" y2="138.3"/>
				<line class="st9" x1="360.9" y1="136.6" x2="375.7" y2="136.6"/>
				<line class="st8" x1="360.9" y1="135.5" x2="375.7" y2="135.5"/>
				<line class="st9" x1="360.9" y1="133.7" x2="375.7" y2="133.7"/>
				<line class="st8" x1="360.9" y1="132.5" x2="375.7" y2="132.5"/>
				<line class="st8" x1="360.9" y1="131.7" x2="375.7" y2="131.7"/>
				<line class="st8" x1="360.9" y1="130.7" x2="375.7" y2="130.7"/>
				<line class="st9" x1="360.9" y1="129.5" x2="375.7" y2="129.5"/>
				<line class="st9" x1="360.9" y1="127.4" x2="375.7" y2="127.4"/>
				<line class="st8" x1="360.9" y1="126.3" x2="375.7" y2="126.3"/>
				<line class="st8" x1="360.9" y1="125.4" x2="375.7" y2="125.4"/>
				<line class="st8" x1="360.9" y1="124.4" x2="375.7" y2="124.4"/>
				<line class="st8" x1="360.9" y1="123.6" x2="375.7" y2="123.6"/>
				<line class="st8" x1="360.9" y1="122.1" x2="375.7" y2="122.1"/>
				<line class="st9" x1="360.9" y1="121" x2="375.7" y2="121"/>
				<line class="st9" x1="360.9" y1="119.5" x2="375.7" y2="119.5"/>
				<line class="st9" x1="360.9" y1="117.8" x2="375.7" y2="117.8"/>
				<line class="st8" x1="360.9" y1="116.7" x2="375.7" y2="116.7"/>
				<line class="st8" x1="360.9" y1="115.2" x2="375.7" y2="115.2"/>
				<line class="st9" x1="360.9" y1="114" x2="375.7" y2="114"/>
				<line class="st8" x1="360.9" y1="112.9" x2="375.7" y2="112.9"/>
				<line class="st8" x1="360.9" y1="111.9" x2="375.7" y2="111.9"/>
				<line class="st9" x1="360.9" y1="110.7" x2="375.7" y2="110.7"/>
				<line class="st8" x1="360.9" y1="108.9" x2="375.7" y2="108.9"/>
				<line class="st9" x1="360.9" y1="107.8" x2="375.7" y2="107.8"/>
				<line class="st8" x1="360.9" y1="106.6" x2="375.7" y2="106.6"/>
				<line class="st8" x1="360.9" y1="105.6" x2="375.7" y2="105.6"/>
				<line class="st9" x1="360.9" y1="104.5" x2="375.7" y2="104.5"/>
				<line class="st8" x1="360.9" y1="102.7" x2="375.7" y2="102.7"/>
				<line class="st8" x1="360.9" y1="101.8" x2="375.7" y2="101.8"/>
				<line class="st9" x1="360.9" y1="100.7" x2="375.7" y2="100.7"/>
				<line class="st8" x1="360.9" y1="99.3" x2="375.7" y2="99.3"/>
				<line class="st8" x1="360.9" y1="97.9" x2="375.7" y2="97.9"/>
				<line class="st9" x1="360.9" y1="96.7" x2="375.7" y2="96.7"/>
				<line class="st9" x1="360.9" y1="95.2" x2="375.7" y2="95.2"/>
				<line class="st8" x1="360.9" y1="94.1" x2="375.7" y2="94.1"/>
			</g>
		</g>
	</g>
	<g>
		<defs>
			<path id="SVGID_00000026859464843437498300000009082580835502840482_" d="M29.5,176.6c-5.6,0-10.1-4.5-10.1-10.1V92.3
				c0-5.6,4.5-10.1,10.1-10.1h171.2c5.6,0,10.1,4.5,10.1,10.1v74.2c0,5.6-4.5,10.1-10.1,10.1H29.5z"/>
		</defs>
		<clipPath id="SVGID_00000009589373546360262050000005930734453179981209_">
			<use xlink:href="#SVGID_00000026859464843437498300000009082580835502840482_"  style="overflow:visible;"/>
		</clipPath>
		<g style="clip-path:url(#SVGID_00000009589373546360262050000005930734453179981209_);">
			<g>
				<rect x="70.7" y="93.8" class="st7" width="15" height="74.6"/>
				<line class="st8" x1="70.7" y1="168.3" x2="85.5" y2="168.3"/>
				<line class="st8" x1="70.7" y1="166.8" x2="85.5" y2="166.8"/>
				<line class="st9" x1="70.7" y1="165.7" x2="85.5" y2="165.7"/>
				<line class="st9" x1="70.7" y1="164.2" x2="85.5" y2="164.2"/>
				<line class="st8" x1="70.7" y1="163" x2="85.5" y2="163"/>
				<line class="st9" x1="70.7" y1="161.7" x2="85.5" y2="161.7"/>
				<line class="st8" x1="70.7" y1="160.5" x2="85.5" y2="160.5"/>
				<line class="st8" x1="70.7" y1="159.1" x2="85.5" y2="159.1"/>
				<line class="st8" x1="70.7" y1="158.2" x2="85.5" y2="158.2"/>
				<line class="st9" x1="70.7" y1="157.1" x2="85.5" y2="157.1"/>
				<line class="st8" x1="70.7" y1="155.7" x2="85.5" y2="155.7"/>
				<line class="st9" x1="70.7" y1="154.6" x2="85.5" y2="154.6"/>
				<line class="st8" x1="70.7" y1="152.8" x2="85.5" y2="152.8"/>
				<line class="st8" x1="70.7" y1="152" x2="85.5" y2="152"/>
				<line class="st9" x1="70.7" y1="150.8" x2="85.5" y2="150.8"/>
				<line class="st9" x1="70.7" y1="149.1" x2="85.5" y2="149.1"/>
				<line class="st9" x1="70.7" y1="147.7" x2="85.5" y2="147.7"/>
				<line class="st8" x1="70.7" y1="145.9" x2="85.5" y2="145.9"/>
				<line class="st8" x1="70.7" y1="145" x2="85.5" y2="145"/>
				<line class="st8" x1="70.7" y1="144.2" x2="85.5" y2="144.2"/>
				<line class="st8" x1="70.7" y1="143.2" x2="85.5" y2="143.2"/>
				<line class="st8" x1="70.7" y1="142.4" x2="85.5" y2="142.4"/>
				<line class="st9" x1="70.7" y1="140.6" x2="85.5" y2="140.6"/>
				<line class="st8" x1="70.7" y1="139.4" x2="85.5" y2="139.4"/>
				<line class="st9" x1="70.7" y1="138.3" x2="85.5" y2="138.3"/>
				<line class="st9" x1="70.7" y1="136.6" x2="85.5" y2="136.6"/>
				<line class="st8" x1="70.7" y1="135.5" x2="85.5" y2="135.5"/>
				<line class="st9" x1="70.7" y1="133.6" x2="85.5" y2="133.6"/>
				<line class="st8" x1="70.7" y1="132.5" x2="85.5" y2="132.5"/>
				<line class="st8" x1="70.7" y1="131.7" x2="85.5" y2="131.7"/>
				<line class="st8" x1="70.7" y1="130.7" x2="85.5" y2="130.7"/>
				<line class="st9" x1="70.7" y1="129.5" x2="85.5" y2="129.5"/>
				<line class="st9" x1="70.7" y1="127.4" x2="85.5" y2="127.4"/>
				<line class="st8" x1="70.7" y1="126.2" x2="85.5" y2="126.2"/>
				<line class="st8" x1="70.7" y1="125.4" x2="85.5" y2="125.4"/>
				<line class="st8" x1="70.7" y1="124.4" x2="85.5" y2="124.4"/>
				<line class="st8" x1="70.7" y1="123.6" x2="85.5" y2="123.6"/>
				<line class="st8" x1="70.7" y1="122.1" x2="85.5" y2="122.1"/>
				<line class="st9" x1="70.7" y1="120.9" x2="85.5" y2="120.9"/>
				<line class="st9" x1="70.7" y1="119.5" x2="85.5" y2="119.5"/>
				<line class="st9" x1="70.7" y1="117.8" x2="85.5" y2="117.8"/>
				<line class="st8" x1="70.7" y1="116.6" x2="85.5" y2="116.6"/>
				<line class="st8" x1="70.7" y1="115.2" x2="85.5" y2="115.2"/>
				<line class="st9" x1="70.7" y1="114" x2="85.5" y2="114"/>
				<line class="st8" x1="70.7" y1="112.9" x2="85.5" y2="112.9"/>
				<line class="st8" x1="70.7" y1="111.8" x2="85.5" y2="111.8"/>
				<line class="st9" x1="70.7" y1="110.7" x2="85.5" y2="110.7"/>
				<line class="st8" x1="70.7" y1="108.9" x2="85.5" y2="108.9"/>
				<line class="st9" x1="70.7" y1="107.7" x2="85.5" y2="107.7"/>
				<line class="st8" x1="70.7" y1="106.6" x2="85.5" y2="106.6"/>
				<line class="st8" x1="70.7" y1="105.6" x2="85.5" y2="105.6"/>
				<line class="st9" x1="70.7" y1="104.4" x2="85.5" y2="104.4"/>
				<line class="st8" x1="70.7" y1="102.6" x2="85.5" y2="102.6"/>
				<line class="st8" x1="70.7" y1="101.8" x2="85.5" y2="101.8"/>
				<line class="st9" x1="70.7" y1="100.6" x2="85.5" y2="100.6"/>
				<line class="st8" x1="70.7" y1="99.3" x2="85.5" y2="99.3"/>
				<line class="st8" x1="70.7" y1="97.8" x2="85.5" y2="97.8"/>
				<line class="st9" x1="70.7" y1="96.7" x2="85.5" y2="96.7"/>
				<line class="st9" x1="70.7" y1="95.2" x2="85.5" y2="95.2"/>
				<line class="st8" x1="70.7" y1="94" x2="85.5" y2="94"/>
			</g>
		</g>
		<g style="clip-path:url(#SVGID_00000009589373546360262050000005930734453179981209_);">
			<g>
				<rect x="145.1" y="93.8" class="st7" width="15" height="74.6"/>
				<line class="st8" x1="145.1" y1="168.3" x2="159.9" y2="168.3"/>
				<line class="st8" x1="145.1" y1="166.8" x2="159.9" y2="166.8"/>
				<line class="st9" x1="145.1" y1="165.7" x2="159.9" y2="165.7"/>
				<line class="st9" x1="145.1" y1="164.2" x2="159.9" y2="164.2"/>
				<line class="st8" x1="145.1" y1="163" x2="159.9" y2="163"/>
				<line class="st9" x1="145.1" y1="161.7" x2="159.9" y2="161.7"/>
				<line class="st8" x1="145.1" y1="160.5" x2="159.9" y2="160.5"/>
				<line class="st8" x1="145.1" y1="159.1" x2="159.9" y2="159.1"/>
				<line class="st8" x1="145.1" y1="158.2" x2="159.9" y2="158.2"/>
				<line class="st9" x1="145.1" y1="157.1" x2="159.9" y2="157.1"/>
				<line class="st8" x1="145.1" y1="155.7" x2="159.9" y2="155.7"/>
				<line class="st9" x1="145.1" y1="154.6" x2="159.9" y2="154.6"/>
				<line class="st8" x1="145.1" y1="152.8" x2="159.9" y2="152.8"/>
				<line class="st8" x1="145.1" y1="152" x2="159.9" y2="152"/>
				<line class="st9" x1="145.1" y1="150.8" x2="159.9" y2="150.8"/>
				<line class="st9" x1="145.1" y1="149.1" x2="159.9" y2="149.1"/>
				<line class="st9" x1="145.1" y1="147.7" x2="159.9" y2="147.7"/>
				<line class="st8" x1="145.1" y1="145.9" x2="159.9" y2="145.9"/>
				<line class="st8" x1="145.1" y1="145" x2="159.9" y2="145"/>
				<line class="st8" x1="145.1" y1="144.2" x2="159.9" y2="144.2"/>
				<line class="st8" x1="145.1" y1="143.2" x2="159.9" y2="143.2"/>
				<line class="st8" x1="145.1" y1="142.4" x2="159.9" y2="142.4"/>
				<line class="st9" x1="145.1" y1="140.6" x2="159.9" y2="140.6"/>
				<line class="st8" x1="145.1" y1="139.4" x2="159.9" y2="139.4"/>
				<line class="st9" x1="145.1" y1="138.3" x2="159.9" y2="138.3"/>
				<line class="st9" x1="145.1" y1="136.6" x2="159.9" y2="136.6"/>
				<line class="st8" x1="145.1" y1="135.5" x2="159.9" y2="135.5"/>
				<line class="st9" x1="145.1" y1="133.6" x2="159.9" y2="133.6"/>
				<line class="st8" x1="145.1" y1="132.5" x2="159.9" y2="132.5"/>
				<line class="st8" x1="145.1" y1="131.7" x2="159.9" y2="131.7"/>
				<line class="st8" x1="145.1" y1="130.7" x2="159.9" y2="130.7"/>
				<line class="st9" x1="145.1" y1="129.5" x2="159.9" y2="129.5"/>
				<line class="st9" x1="145.1" y1="127.4" x2="159.9" y2="127.4"/>
				<line class="st8" x1="145.1" y1="126.2" x2="159.9" y2="126.2"/>
				<line class="st8" x1="145.1" y1="125.4" x2="159.9" y2="125.4"/>
				<line class="st8" x1="145.1" y1="124.4" x2="159.9" y2="124.4"/>
				<line class="st8" x1="145.1" y1="123.6" x2="159.9" y2="123.6"/>
				<line class="st8" x1="145.1" y1="122.1" x2="159.9" y2="122.1"/>
				<line class="st9" x1="145.1" y1="120.9" x2="159.9" y2="120.9"/>
				<line class="st9" x1="145.1" y1="119.5" x2="159.9" y2="119.5"/>
				<line class="st9" x1="145.1" y1="117.8" x2="159.9" y2="117.8"/>
				<line class="st8" x1="145.1" y1="116.6" x2="159.9" y2="116.6"/>
				<line class="st8" x1="145.1" y1="115.2" x2="159.9" y2="115.2"/>
				<line class="st9" x1="145.1" y1="114" x2="159.9" y2="114"/>
				<line class="st8" x1="145.1" y1="112.9" x2="159.9" y2="112.9"/>
				<line class="st8" x1="145.1" y1="111.8" x2="159.9" y2="111.8"/>
				<line class="st9" x1="145.1" y1="110.7" x2="159.9" y2="110.7"/>
				<line class="st8" x1="145.1" y1="108.9" x2="159.9" y2="108.9"/>
				<line class="st9" x1="145.1" y1="107.7" x2="159.9" y2="107.7"/>
				<line class="st8" x1="145.1" y1="106.6" x2="159.9" y2="106.6"/>
				<line class="st8" x1="145.1" y1="105.6" x2="159.9" y2="105.6"/>
				<line class="st9" x1="145.1" y1="104.4" x2="159.9" y2="104.4"/>
				<line class="st8" x1="145.1" y1="102.6" x2="159.9" y2="102.6"/>
				<line class="st8" x1="145.1" y1="101.8" x2="159.9" y2="101.8"/>
				<line class="st9" x1="145.1" y1="100.6" x2="159.9" y2="100.6"/>
				<line class="st8" x1="145.1" y1="99.3" x2="159.9" y2="99.3"/>
				<line class="st8" x1="145.1" y1="97.8" x2="159.9" y2="97.8"/>
				<line class="st9" x1="145.1" y1="96.7" x2="159.9" y2="96.7"/>
				<line class="st9" x1="145.1" y1="95.2" x2="159.9" y2="95.2"/>
				<line class="st8" x1="145.1" y1="94" x2="159.9" y2="94"/>
			</g>
		</g>
	</g>
</g>
<g id="Layer_2">
	<polygon class="st11" points="202.5,191.6 189.5,200.6 202.5,209.5 202.5,203.8 476.2,203.8 476.2,197.8 202.5,197.8 	"/>
	<path class="st12" d="M233,123.5c0-2.7,1.6-3.3,3.5-1.4l10.9,10.9c1.9,1.9,1.9,5,0,6.9l-10.9,10.9c-1.9,1.9-3.5,1.3-3.5-1.4V123.5z
		"/>
	<g>
		<path class="st13" d="M423.4,209.4c0.2,0.2,0.4,0.4,0.7,0.6l1.4-1.8l0.7,0.4c0.3,0.1,0.2,0.2-0.1,0.3l-2.2,2.7l1.7-0.1
			c-0.2-0.3-0.4-0.6-0.5-0.9l0.7-0.4c0.5,0.6,0.8,1.3,1.1,2l-0.8,0.3l-0.1-0.4l-1.1,0.1v4.7h-0.9v-4.7l-1.6,0.1
			c-0.1,0.3-0.2,0.3-0.3,0l-0.2-0.8l1.1,0l0.7-0.8c-0.4-0.4-1-0.8-1.5-1.3l0.5-0.7l0.4,0.3c0.5-0.7,0.9-1.4,1.2-2.2l0.7,0.4
			c0.3,0.1,0.2,0.2-0.1,0.3C424.3,208.1,423.9,208.8,423.4,209.4z M422.6,216.2l-0.8-0.4c0.4-0.9,0.6-1.9,0.7-2.8l0.8,0.2
			c0.2,0.1,0.2,0.1,0,0.3C423.2,214.3,423,215.2,422.6,216.2z M425.7,213c0.3,0.6,0.5,1.2,0.6,1.9l-0.8,0.2
			c-0.1-0.7-0.2-1.4-0.5-1.9L425.7,213z M432,214.8c-0.2,1.8-0.7,2.3-1.5,1.5c-0.7-0.7-1.2-2.2-1.4-4.7h-1.3v3.6l1.4-0.4l0.2,0.7
			l-2.9,0.9c-0.1,0.3-0.2,0.3-0.3,0l-0.3-0.9l1.1-0.2v-7.7l0.8,0.2c1-0.3,1.9-0.6,2.8-0.9l0.6,0.9c-0.4,0.1-0.8,0.2-1.2,0.3v2.6h1.8
			v0.8H430c0.1,1.5,0.4,2.6,0.8,3.5c0.2,0.4,0.3,0.1,0.4-0.8L432,214.8z M429.1,210.9v-2.4c-0.4,0.1-0.9,0.2-1.2,0.3v2.2H429.1z"/>
		<path class="st13" d="M432.9,215.9l1.5-0.9v-2.9H433v-0.8h2.3v3.6c0.7,0.7,1.5,1,2.4,1h5.4l-0.2,0.8h-5.4c-1,0-1.9-0.4-2.7-1.2
			l-1.4,1.5L432.9,215.9z M434.9,209.4c-0.4-0.6-0.8-1.1-1.3-1.5l0.7-0.7c0.6,0.5,1.1,0.9,1.3,1.4L434.9,209.4z M442.5,212.1h-3
			l0,0.4c1.2,0.5,2.1,1.1,2.9,1.8l-0.6,1c-1-1-1.8-1.7-2.5-2c-0.4,0.8-1.2,1.5-2.5,2.2l-0.5-0.9c1.5-0.8,2.4-1.6,2.5-2.5h-2.8v-0.8
			h2.8v-1.5h-2.5V209h1.5c-0.3-0.6-0.7-1-1.1-1.5l0.8-0.5c0.4,0.4,0.8,0.9,1.1,1.5l-0.7,0.5h1.5l1.1-2.2l1,0.4
			c0.1,0.1,0.1,0.2-0.1,0.2l-1,1.5h1.9v0.8h-2.6v1.5h2.9V212.1z"/>
		<path class="st13" d="M447.4,213.6c-0.2,0-0.4-0.1-0.6-0.3c-0.2-0.2-0.3-1.1-0.3-2.6c0-1.2,0.1-2.2,0.2-3.2h1
			c0.2,0.1,0.2,0.2,0,0.3c-0.1,0.7-0.2,1.7-0.2,2.9c0,1.3,0.1,1.9,0.2,1.9c0.1,0,0.2-0.1,0.4-0.2c0.2-0.2,0.5-0.6,1-1.2l0.7,0.7
			c-0.5,0.6-1,1.1-1.4,1.4C448,213.5,447.7,213.6,447.4,213.6z M451.1,207.2h0.9c0.3,0,0.4,0.1,0.1,0.4c0.1,0.9,0.1,2.4,0.1,4.3
			c0,2.2-1,3.9-3.1,5l-0.7-0.7c2-0.9,2.9-2.4,2.9-4.3C451.2,209.9,451.2,208.3,451.1,207.2z"/>
		<path class="st13" d="M460.2,211.2h4.1l-0.4,4c-0.1,1.1-0.5,1.6-1.3,1.6h-1.8l-0.2-1h1.9c0.2,0,0.3-0.2,0.4-0.7l0.4-3.1H460
			c-0.4,1.9-1.6,3.5-3.8,4.8l-0.6-0.9c2.3-1.2,3.5-3,3.6-5.5l0-0.8h-3.7v-1h4.3v-1.8h1c0.3,0.1,0.3,0.2,0,0.4v1.4h4.4v1h-5.1
			L460.2,211.2z"/>
		<path class="st13" d="M468.3,209.3v7.4h-0.9v-8.2h3.1l0.7-1.6l1.1,0.4c0.1,0.1,0.1,0.2-0.1,0.2l-0.7,1h4.5v7.6
			c0,0.5-0.2,0.7-0.7,0.7h-1.3l-0.1-1h1c0.1,0,0.2-0.1,0.2-0.2v-6.3H468.3z M472.9,214.7v-0.5h-2.3v0.8h-0.9v-4.3h4.1v4H472.9z
			 M470.6,211.5v1.8h2.3v-1.8H470.6z"/>
	</g>
	<g>
		<polygon class="st14" points="44.3,105.9 44.3,110.1 40.6,110.1 40.6,150.4 44.3,150.4 44.3,154.6 61.4,154.6 61.4,105.9 		"/>
		
			<linearGradient id="SVGID_00000124883903690889180390000004586812327242575544_" gradientUnits="userSpaceOnUse" x1="60.6992" y1="130.5195" x2="76.2392" y2="130.5195">
			<stop  offset="0" style="stop-color:#FF4C4C"/>
			<stop  offset="1" style="stop-color:#FF4C4C;stop-opacity:0"/>
		</linearGradient>
		<polygon style="fill:url(#SVGID_00000124883903690889180390000004586812327242575544_);" points="76.2,170.1 60.7,153.8 
			60.7,105.5 76.2,90.9 		"/>
		<path class="st16" d="M52.6,110.1h-12v40.4h12V110.1z"/>
		<rect x="44.3" y="105.9" class="st16" width="17" height="48.8"/>
	</g>
	<g>
		<polygon class="st14" points="332.4,105.9 332.4,110.1 328.7,110.1 328.7,150.5 332.4,150.5 332.4,154.7 349.5,154.7 349.5,105.9 
					"/>
		
			<linearGradient id="SVGID_00000072274626319924548300000004234383073208887683_" gradientUnits="userSpaceOnUse" x1="348.8057" y1="130.5527" x2="364.3457" y2="130.5527">
			<stop  offset="0" style="stop-color:#FF4C4C"/>
			<stop  offset="1" style="stop-color:#FF4C4C;stop-opacity:0"/>
		</linearGradient>
		<polygon style="fill:url(#SVGID_00000072274626319924548300000004234383073208887683_);" points="364.3,170.1 348.8,153.9 
			348.8,105.6 364.3,91 		"/>
		<path class="st16" d="M340.7,110.1h-12v40.4h12V110.1z"/>
		<rect x="332.4" y="105.9" class="st16" width="17" height="48.8"/>
	</g>
	<g>
		<polygon class="st18" points="86.3,34 142.8,34 114.5,67.3 		"/>
		<polygon class="st18" points="338.4,34 395,34 366.7,67.3 		"/>
		<rect x="2" y="2" class="st18" width="475.5" height="49"/>
		<polygon class="st19" points="470.9,20.3 8.7,20.3 8.7,7.3 470.9,7.3 470.9,20.3 		"/>
		<g>
			<path class="st13" d="M73.7,27.1c0.2,0.1,0.2,0.3-0.1,0.4c-0.5,1.8-1.4,3.5-2.5,5.1l-1-0.7c1.3-1.6,2.2-3.3,2.6-5.3L73.7,27.1z
				 M77.1,26.1c1.5,1.8,2.5,3.8,3.1,5.8L79,32.3c-0.7-2.3-1.7-4.2-2.9-5.5L77.1,26.1z M79.4,25.8l-0.7,0.5c-0.4-0.6-0.9-1.1-1.4-1.5
				l0.6-0.5C78.4,24.7,78.9,25.2,79.4,25.8z M80.4,25l-0.6,0.5c-0.5-0.6-1-1.1-1.4-1.4l0.6-0.5C79.4,24,79.9,24.4,80.4,25z"/>
			<path class="st13" d="M81.5,29.3v-1h9.8v1H81.5z"/>
			<path class="st13" d="M99.9,27.3h-6.1v-1h7.1v6.3h-1v-0.5h-6.1v-1h6.1V27.3z"/>
			<path class="st13" d="M104,29.3v-1h9.8v1H104z"/>
			<path class="st13" d="M123.5,30.4c-1.6-0.8-2.8-1.3-3.8-1.6v4.6h-1v-8.8h0.9c0.4,0,0.4,0.1,0.1,0.4v2.8c1.4,0.4,2.9,1,4.4,1.7
				L123.5,30.4z M123.4,26.5c-0.5-0.6-1-1.1-1.5-1.5l0.6-0.4c0.5,0.4,1,0.9,1.5,1.5L123.4,26.5z M124.5,25.6c-0.4-0.5-0.9-1-1.5-1.5
				l0.6-0.4c0.5,0.4,1,0.8,1.5,1.5L124.5,25.6z"/>
			<path class="st13" d="M133.8,32.9v-3.4V26h-1.3v-0.5c1,0,1.6-0.4,1.8-1.2h0.5v8.6H133.8z"/>
			<path class="st13" d="M141.2,31.6c2.2,0,3.6-0.4,4.4-1.1c0.4-0.4,0.7-1,0.7-1.6c0-0.7-0.2-1.2-0.7-1.7c-0.4-0.4-1-0.5-1.8-0.5
				c-0.7,0-1.6,0.2-2.6,0.5c-0.8,0.3-1.6,0.6-2.5,1l-0.5-1.1l2.5-0.7c1.4-0.4,2.5-0.6,3.3-0.6c1.2,0,2,0.3,2.6,0.8
				c0.6,0.6,0.8,1.3,0.8,2.2c0,1-0.3,1.8-0.8,2.3c-1,1-2.7,1.5-5,1.5L141.2,31.6z"/>
			<path class="st13" d="M157.6,27.1c0.6,0.6,1,1.5,1,2.6c0,1-0.3,1.8-0.9,2.4c-0.5,0.5-1.3,1-2.2,1.3l-0.6-0.8
				c1-0.3,1.7-0.7,2.1-1.1c0.4-0.4,0.7-1,0.7-1.8c0-0.8-0.2-1.5-0.7-1.9c-0.6-0.6-1.3-0.9-2.2-0.9c-0.3,1.2-0.8,2.5-1.5,3.8l0.8,1
				l-0.7,0.5l-0.6-0.7c-0.2,0.4-0.5,0.7-0.7,1c-0.4,0.4-0.8,0.6-1.1,0.6c-0.4,0-0.8-0.2-1.1-0.5c-0.4-0.4-0.6-0.9-0.6-1.6
				c0-1.1,0.6-2.2,1.7-3.3c-0.2-0.9-0.4-1.7-0.4-2.5h0.8c0.3,0.1,0.3,0.2,0.1,0.4c0.1,0.6,0.1,1.2,0.3,1.6c0.8-0.5,1.5-0.8,2.3-0.9
				c0.1-0.4,0.2-1.1,0.4-2l0.9,0.2c0.3,0.1,0.3,0.2,0,0.4l-0.3,1.4C156.1,26.1,156.9,26.5,157.6,27.1z M151.3,28.5
				c-0.7,0.9-1.1,1.7-1.1,2.5c0,0.4,0.1,0.7,0.4,1c0.1,0.1,0.3,0.2,0.5,0.2c0.1,0,0.3-0.1,0.5-0.3c0.2-0.2,0.4-0.5,0.7-1.1
				C151.9,30.1,151.6,29.4,151.3,28.5z M152,27.8c0.3,1,0.6,1.7,0.8,2.1c0.5-1,0.9-1.9,1.1-2.9C153.2,27.1,152.6,27.4,152,27.8z"/>
		</g>
		<g>
			<path class="st13" d="M325.9,27.1c0.2,0.1,0.2,0.3-0.1,0.4c-0.5,1.8-1.4,3.5-2.5,5.1l-1-0.7c1.3-1.6,2.2-3.3,2.6-5.3L325.9,27.1z
				 M329.3,26.1c1.5,1.8,2.5,3.8,3.1,5.8l-1.2,0.4c-0.7-2.3-1.7-4.2-2.9-5.5L329.3,26.1z M331.6,25.8l-0.7,0.5
				c-0.4-0.6-0.9-1.1-1.4-1.5l0.6-0.5C330.6,24.7,331.1,25.2,331.6,25.8z M332.6,25l-0.6,0.5c-0.5-0.6-1-1.1-1.4-1.4l0.6-0.5
				C331.6,24,332,24.4,332.6,25z"/>
			<path class="st13" d="M333.7,29.3v-1h9.8v1H333.7z"/>
			<path class="st13" d="M352.1,27.3H346v-1h7.1v6.3h-1v-0.5H346v-1h6.1V27.3z"/>
			<path class="st13" d="M356.2,29.3v-1h9.8v1H356.2z"/>
			<path class="st13" d="M375.7,30.4c-1.6-0.8-2.8-1.3-3.8-1.6v4.6h-1v-8.8h0.9c0.4,0,0.4,0.1,0.1,0.4v2.8c1.4,0.4,2.9,1,4.4,1.7
				L375.7,30.4z M375.6,26.5c-0.5-0.6-1-1.1-1.5-1.5l0.6-0.4c0.5,0.4,1,0.9,1.5,1.5L375.6,26.5z M376.7,25.6c-0.4-0.5-0.9-1-1.5-1.5
				l0.6-0.4c0.5,0.4,1,0.8,1.5,1.5L376.7,25.6z"/>
			<path class="st13" d="M388.6,32v0.8h-4.5v-0.7c0.7-1.3,1.5-2.5,2.5-3.6c0.6-0.6,0.8-1.3,0.8-2c0-0.5-0.1-0.9-0.4-1.1
				c-0.2-0.2-0.4-0.3-0.7-0.3c-0.2,0-0.5,0.1-0.7,0.4c-0.3,0.3-0.4,0.8-0.4,1.6h-1c0-1.1,0.3-1.8,0.7-2.3c0.4-0.4,0.8-0.5,1.4-0.5
				c0.6,0,1,0.2,1.4,0.6c0.4,0.4,0.6,1,0.6,1.7c0,0.8-0.4,1.7-1.2,2.6c-0.8,1-1.6,1.9-2.1,2.8H388.6z"/>
			<path class="st13" d="M393.4,31.6c2.2,0,3.6-0.4,4.4-1.1c0.4-0.4,0.7-1,0.7-1.6c0-0.7-0.2-1.2-0.7-1.7c-0.4-0.4-1-0.5-1.8-0.5
				c-0.7,0-1.6,0.2-2.6,0.5c-0.8,0.3-1.6,0.6-2.5,1l-0.5-1.1l2.5-0.7c1.4-0.4,2.5-0.6,3.3-0.6c1.2,0,2,0.3,2.6,0.8
				c0.6,0.6,0.8,1.3,0.8,2.2c0,1-0.3,1.8-0.8,2.3c-1,1-2.7,1.5-5,1.5L393.4,31.6z"/>
			<path class="st13" d="M409.8,27.1c0.6,0.6,1,1.5,1,2.6c0,1-0.3,1.8-0.9,2.4c-0.5,0.5-1.3,1-2.2,1.3l-0.6-0.8
				c1-0.3,1.7-0.7,2.1-1.1c0.4-0.4,0.7-1,0.7-1.8c0-0.8-0.2-1.5-0.7-1.9c-0.6-0.6-1.3-0.9-2.2-0.9c-0.3,1.2-0.8,2.5-1.5,3.8l0.8,1
				l-0.7,0.5l-0.6-0.7c-0.2,0.4-0.5,0.7-0.7,1c-0.4,0.4-0.8,0.6-1.1,0.6c-0.4,0-0.8-0.2-1.1-0.5c-0.4-0.4-0.6-0.9-0.6-1.6
				c0-1.1,0.6-2.2,1.7-3.3c-0.2-0.9-0.4-1.7-0.4-2.5h0.8c0.3,0.1,0.3,0.2,0.1,0.4c0.1,0.6,0.1,1.2,0.3,1.6c0.8-0.5,1.5-0.8,2.3-0.9
				c0.1-0.4,0.2-1.1,0.4-2l0.9,0.2c0.3,0.1,0.3,0.2,0,0.4l-0.3,1.4C408.3,26.1,409.1,26.5,409.8,27.1z M403.4,28.5
				c-0.7,0.9-1.1,1.7-1.1,2.5c0,0.4,0.1,0.7,0.4,1c0.1,0.1,0.3,0.2,0.5,0.2c0.1,0,0.3-0.1,0.5-0.3c0.2-0.2,0.4-0.5,0.7-1.1
				C404.1,30.1,403.7,29.4,403.4,28.5z M404.1,27.8c0.3,1,0.6,1.7,0.8,2.1c0.5-1,0.9-1.9,1.1-2.9C405.4,27.1,404.7,27.4,404.1,27.8z
				"/>
		</g>
		<g>
			<path class="st13" d="M88.8,46.4v-3.4v-3.4h-1.3V39c1,0,1.6-0.4,1.8-1.2h0.5v8.6H88.8z"/>
			<path class="st13" d="M97,45.5v0.8h-4.5v-0.7c0.7-1.3,1.5-2.5,2.5-3.6c0.6-0.6,0.8-1.3,0.8-2c0-0.5-0.1-0.9-0.4-1.1
				c-0.2-0.2-0.4-0.3-0.7-0.3c-0.2,0-0.5,0.1-0.7,0.4c-0.3,0.3-0.4,0.8-0.4,1.6h-1c0-1.1,0.3-1.8,0.7-2.3c0.4-0.4,0.8-0.5,1.4-0.5
				c0.6,0,1,0.2,1.4,0.6c0.4,0.4,0.6,1,0.6,1.7c0,0.8-0.4,1.7-1.2,2.6c-0.9,1-1.6,1.9-2.1,2.8H97z"/>
			<path class="st13" d="M99.5,45.2c0.2,0.2,0.5,0.3,0.8,0.3c0.3,0,0.6-0.1,0.8-0.4s0.4-0.7,0.4-1.3c0-0.5-0.2-0.9-0.5-1.2
				c-0.2-0.2-0.6-0.3-1.1-0.3v-0.7c0.5,0,0.8-0.2,1.1-0.4c0.2-0.2,0.4-0.6,0.4-1.1c0-0.6-0.1-1-0.4-1.3c-0.2-0.2-0.4-0.3-0.7-0.3
				s-0.5,0.1-0.7,0.3c-0.3,0.3-0.5,0.7-0.5,1.3h-1c0-0.8,0.3-1.4,0.7-1.8c0.4-0.4,0.8-0.5,1.4-0.5c0.6,0,1.1,0.2,1.4,0.5
				c0.4,0.4,0.6,1,0.6,1.6c0,0.6-0.2,1.1-0.5,1.4c-0.3,0.3-0.6,0.5-0.8,0.6c0.4,0.1,0.7,0.3,0.9,0.5c0.4,0.4,0.6,0.9,0.6,1.5
				c0,0.8-0.2,1.4-0.7,1.8c-0.4,0.4-0.9,0.6-1.5,0.6c-0.7,0-1.2-0.2-1.6-0.6c-0.4-0.4-0.7-1.1-0.7-2h1
				C99.1,44.5,99.2,44.9,99.5,45.2z"/>
			<path class="st13" d="M106.6,46.4v-1v-1h-2.9v-0.8l2.9-5.7h1v5.7h0.9v0.8h-0.9v2H106.6z M106.6,43.5v-3.9l-2,3.9H106.6z"/>
			<path class="st13" d="M110.8,45.3c0.2,0.2,0.4,0.3,0.7,0.3c0.3,0,0.5-0.1,0.7-0.4c0.4-0.4,0.5-0.9,0.5-1.8c0-0.8-0.1-1.3-0.4-1.6
				c-0.2-0.2-0.4-0.3-0.6-0.3c-0.5,0-1,0.3-1.3,0.9h-0.9l0.3-4.7h3.8v0.8h-2.9l-0.2,2.9c0.4-0.4,0.9-0.7,1.5-0.7
				c0.4,0,0.8,0.2,1.1,0.5c0.5,0.5,0.7,1.2,0.7,2.1c0,1-0.3,1.8-0.8,2.3c-0.4,0.4-0.9,0.6-1.5,0.6c-0.6,0-1.1-0.2-1.5-0.5
				c-0.4-0.4-0.7-1.1-0.7-1.9h1C110.4,44.5,110.5,45,110.8,45.3z"/>
			<path class="st13" d="M118.1,38.8c-0.1-0.1-0.3-0.2-0.4-0.2c-0.2,0-0.4,0.1-0.6,0.3c-0.5,0.5-0.8,1.5-0.9,2.9
				c0.4-0.7,0.9-1,1.5-1c0.4,0,0.8,0.2,1.2,0.5c0.5,0.5,0.7,1.2,0.7,2.2c0,1.1-0.2,1.8-0.7,2.3c-0.4,0.4-0.8,0.5-1.4,0.5
				c-0.5,0-1-0.2-1.4-0.6c-0.6-0.6-0.9-1.8-0.9-3.6c0-1.7,0.4-3,1.3-3.9c0.4-0.4,0.8-0.5,1.3-0.5c0.4,0,0.8,0.1,1.1,0.4
				c0.4,0.4,0.6,0.9,0.7,1.6h-1C118.4,39.3,118.3,39,118.1,38.8z M116.8,41.9c-0.4,0.4-0.5,0.8-0.5,1.4c0,0.9,0.2,1.6,0.6,2
				c0.2,0.2,0.4,0.3,0.6,0.3c0.2,0,0.5-0.1,0.7-0.3c0.3-0.3,0.4-0.8,0.4-1.8c0-0.8-0.1-1.3-0.4-1.6c-0.2-0.2-0.4-0.3-0.6-0.3
				C117.2,41.6,117,41.7,116.8,41.9z"/>
			<path class="st13" d="M122,46.4l2.2-7.7h-3.3v-0.8h4.2v0.9l-2.1,7.6H122z"/>
			<path class="st13" d="M130.1,42.4c0.5,0.5,0.7,1,0.7,1.5c0,0.8-0.2,1.4-0.7,1.9c-0.4,0.4-0.9,0.6-1.6,0.6c-0.7,0-1.2-0.2-1.6-0.6
				c-0.5-0.5-0.7-1.1-0.7-1.9c0-0.5,0.2-1,0.7-1.5c0.2-0.2,0.4-0.4,0.7-0.4c-0.2-0.1-0.4-0.2-0.6-0.4c-0.4-0.4-0.6-0.9-0.6-1.5v0
				c0-0.7,0.2-1.3,0.7-1.8c0.4-0.4,0.8-0.6,1.4-0.6c0.6,0,1,0.2,1.4,0.6c0.4,0.4,0.7,1,0.7,1.8v0c0,0.6-0.2,1-0.6,1.5
				c-0.1,0.1-0.3,0.3-0.6,0.4C129.7,42,129.9,42.2,130.1,42.4z M127.7,42.7c-0.3,0.3-0.4,0.7-0.4,1.2c0,0.6,0.1,1,0.4,1.3
				c0.2,0.2,0.5,0.4,0.8,0.4c0.3,0,0.6-0.1,0.8-0.4c0.3-0.3,0.4-0.7,0.4-1.3c0-0.5-0.1-0.9-0.4-1.2c-0.2-0.2-0.5-0.4-0.8-0.4
				C128.2,42.4,127.9,42.5,127.7,42.7z M127.8,38.9c-0.2,0.2-0.4,0.6-0.4,1.2v0c0,0.5,0.1,0.9,0.4,1.1c0.2,0.2,0.5,0.3,0.7,0.3
				c0.3,0,0.5-0.1,0.7-0.3c0.2-0.2,0.4-0.6,0.4-1.1v0c0-0.6-0.1-1-0.4-1.2c-0.2-0.2-0.5-0.3-0.7-0.3C128.3,38.6,128,38.7,127.8,38.9
				z"/>
			<path class="st13" d="M136.4,42c0,1.8-0.4,3.1-1.2,3.9c-0.4,0.4-0.8,0.5-1.3,0.5c-0.4,0-0.8-0.1-1.1-0.4c-0.5-0.5-0.7-1-0.7-1.6
				h1c0,0.4,0.1,0.7,0.4,1c0.1,0.1,0.3,0.2,0.5,0.2c0.2,0,0.4-0.1,0.6-0.3c0.4-0.4,0.7-1.4,0.8-2.8c-0.3,0.7-0.8,1-1.5,1
				c-0.4,0-0.8-0.2-1.2-0.5c-0.5-0.5-0.7-1.2-0.7-2.3c0-1,0.3-1.8,0.8-2.3c0.4-0.4,0.8-0.6,1.3-0.6c0.5,0,0.9,0.2,1.3,0.5
				C136,39,136.4,40.2,136.4,42z M134,38.6c-0.2,0-0.4,0.1-0.6,0.3c-0.3,0.3-0.5,0.9-0.5,1.8c0,0.9,0.1,1.5,0.4,1.8
				c0.2,0.2,0.4,0.3,0.6,0.3c0.3,0,0.5-0.1,0.7-0.3c0.4-0.4,0.5-0.9,0.5-1.6c0-0.9-0.2-1.6-0.6-2C134.5,38.7,134.3,38.6,134,38.6z"
				/>
			<path class="st13" d="M142,45.5v0.8h-4.5v-0.7c0.7-1.3,1.5-2.5,2.5-3.6c0.6-0.6,0.8-1.3,0.8-2c0-0.5-0.1-0.9-0.4-1.1
				c-0.2-0.2-0.4-0.3-0.7-0.3c-0.2,0-0.5,0.1-0.7,0.4c-0.3,0.3-0.4,0.8-0.4,1.6h-1c0-1.1,0.3-1.8,0.7-2.3c0.4-0.4,0.8-0.5,1.4-0.5
				c0.6,0,1,0.2,1.4,0.6c0.4,0.4,0.6,1,0.6,1.7c0,0.8-0.4,1.7-1.2,2.6c-0.9,1-1.6,1.9-2.1,2.8H142z"/>
		</g>
		<g>
			<path class="st13" d="M343.5,42c0,1.8-0.4,3.1-1.2,3.9c-0.4,0.4-0.8,0.5-1.3,0.5c-0.4,0-0.8-0.1-1.1-0.4c-0.5-0.5-0.7-1-0.7-1.6
				h1c0,0.4,0.1,0.7,0.4,1c0.1,0.1,0.3,0.2,0.5,0.2s0.4-0.1,0.6-0.3c0.4-0.4,0.7-1.4,0.8-2.8c-0.3,0.7-0.8,1-1.5,1
				c-0.4,0-0.8-0.2-1.2-0.5c-0.5-0.5-0.7-1.2-0.7-2.3c0-1,0.3-1.8,0.8-2.3c0.4-0.4,0.8-0.6,1.3-0.6c0.5,0,0.9,0.2,1.3,0.5
				C343.2,39,343.5,40.2,343.5,42z M341.2,38.6c-0.2,0-0.4,0.1-0.6,0.3c-0.3,0.3-0.5,0.9-0.5,1.8c0,0.9,0.1,1.5,0.4,1.8
				c0.2,0.2,0.4,0.3,0.6,0.3c0.3,0,0.5-0.1,0.7-0.3c0.4-0.4,0.5-0.9,0.5-1.6c0-0.9-0.2-1.6-0.6-2C341.7,38.7,341.5,38.6,341.2,38.6z
				"/>
			<path class="st13" d="M348.6,42.4c0.5,0.5,0.7,1,0.7,1.5c0,0.8-0.2,1.4-0.7,1.9c-0.4,0.4-0.9,0.6-1.6,0.6c-0.7,0-1.2-0.2-1.6-0.6
				c-0.5-0.5-0.7-1.1-0.7-1.9c0-0.5,0.2-1,0.7-1.5c0.2-0.2,0.4-0.4,0.7-0.4c-0.2-0.1-0.4-0.2-0.6-0.4c-0.4-0.4-0.6-0.9-0.6-1.5v0
				c0-0.7,0.2-1.3,0.7-1.8c0.4-0.4,0.8-0.6,1.4-0.6c0.6,0,1,0.2,1.4,0.6c0.4,0.4,0.7,1,0.7,1.8v0c0,0.6-0.2,1-0.6,1.5
				c-0.1,0.1-0.3,0.3-0.6,0.4C348.1,42,348.4,42.2,348.6,42.4z M346.1,42.7c-0.3,0.3-0.4,0.7-0.4,1.2c0,0.6,0.1,1,0.4,1.3
				c0.2,0.2,0.5,0.4,0.8,0.4c0.3,0,0.6-0.1,0.8-0.4c0.3-0.3,0.4-0.7,0.4-1.3c0-0.5-0.1-0.9-0.4-1.2c-0.2-0.2-0.5-0.4-0.8-0.4
				C346.7,42.4,346.4,42.5,346.1,42.7z M346.2,38.9c-0.2,0.2-0.4,0.6-0.4,1.2v0c0,0.5,0.1,0.9,0.4,1.1c0.2,0.2,0.5,0.3,0.7,0.3
				c0.3,0,0.5-0.1,0.7-0.3c0.2-0.2,0.4-0.6,0.4-1.1v0c0-0.6-0.1-1-0.4-1.2c-0.2-0.2-0.5-0.3-0.7-0.3
				C346.7,38.6,346.4,38.7,346.2,38.9z"/>
			<path class="st13" d="M351.6,46.4l2.2-7.7h-3.3v-0.8h4.2v0.9l-2.1,7.6H351.6z"/>
			<path class="st13" d="M359.1,38.8c-0.1-0.1-0.3-0.2-0.4-0.2c-0.2,0-0.4,0.1-0.6,0.3c-0.5,0.5-0.8,1.5-0.9,2.9
				c0.4-0.7,0.9-1,1.5-1c0.4,0,0.8,0.2,1.2,0.5c0.5,0.5,0.7,1.2,0.7,2.2c0,1.1-0.2,1.8-0.7,2.3c-0.4,0.4-0.8,0.5-1.4,0.5
				c-0.5,0-1-0.2-1.4-0.6c-0.6-0.6-0.9-1.8-0.9-3.6c0-1.7,0.4-3,1.3-3.9c0.4-0.4,0.8-0.5,1.3-0.5c0.4,0,0.8,0.1,1.1,0.4
				c0.4,0.4,0.6,0.9,0.7,1.6h-1C359.4,39.3,359.3,39,359.1,38.8z M357.7,41.9c-0.4,0.4-0.5,0.8-0.5,1.4c0,0.9,0.2,1.6,0.6,2
				c0.2,0.2,0.4,0.3,0.6,0.3c0.2,0,0.5-0.1,0.7-0.3c0.3-0.3,0.4-0.8,0.4-1.8c0-0.8-0.1-1.3-0.4-1.6c-0.2-0.2-0.4-0.3-0.6-0.3
				C358.1,41.6,357.9,41.7,357.7,41.9z"/>
			<path class="st13" d="M363,45.3c0.2,0.2,0.4,0.3,0.7,0.3c0.3,0,0.5-0.1,0.7-0.4c0.4-0.4,0.5-0.9,0.5-1.8c0-0.8-0.1-1.3-0.4-1.6
				c-0.2-0.2-0.4-0.3-0.6-0.3c-0.5,0-1,0.3-1.3,0.9h-0.9l0.3-4.7h3.8v0.8h-2.9l-0.2,2.9c0.4-0.4,0.9-0.7,1.5-0.7
				c0.4,0,0.8,0.2,1.1,0.5c0.5,0.5,0.7,1.2,0.7,2.1c0,1-0.3,1.8-0.8,2.3c-0.4,0.4-0.9,0.6-1.5,0.6c-0.6,0-1.1-0.2-1.5-0.5
				c-0.4-0.4-0.7-1.1-0.7-1.9h1C362.6,44.5,362.7,45,363,45.3z"/>
			<path class="st13" d="M370,46.4v-1v-1h-2.9v-0.8l2.9-5.7h1v5.7h0.9v0.8H371v2H370z M370,43.5v-3.9l-2,3.9H370z"/>
			<path class="st13" d="M374.2,45.2c0.2,0.2,0.5,0.3,0.8,0.3c0.3,0,0.6-0.1,0.8-0.4s0.4-0.7,0.4-1.3c0-0.5-0.2-0.9-0.5-1.2
				c-0.2-0.2-0.6-0.3-1.1-0.3v-0.7c0.5,0,0.8-0.2,1.1-0.4c0.2-0.2,0.4-0.6,0.4-1.1c0-0.6-0.1-1-0.4-1.3c-0.2-0.2-0.4-0.3-0.7-0.3
				s-0.5,0.1-0.7,0.3c-0.3,0.3-0.5,0.7-0.5,1.3h-1c0-0.8,0.3-1.4,0.7-1.8c0.4-0.4,0.8-0.5,1.4-0.5c0.6,0,1.1,0.2,1.4,0.5
				c0.4,0.4,0.6,1,0.6,1.6c0,0.6-0.2,1.1-0.5,1.4c-0.3,0.3-0.6,0.5-0.8,0.6c0.4,0.1,0.7,0.3,0.9,0.5c0.4,0.4,0.6,0.9,0.6,1.5
				c0,0.8-0.2,1.4-0.7,1.8c-0.4,0.4-0.9,0.6-1.5,0.6c-0.7,0-1.2-0.2-1.6-0.6c-0.4-0.4-0.7-1.1-0.7-2h1
				C373.8,44.5,373.9,44.9,374.2,45.2z"/>
			<path class="st13" d="M383,45.5v0.8h-4.5v-0.7c0.7-1.3,1.5-2.5,2.5-3.6c0.6-0.6,0.8-1.3,0.8-2c0-0.5-0.1-0.9-0.4-1.1
				c-0.2-0.2-0.4-0.3-0.7-0.3c-0.2,0-0.5,0.1-0.7,0.4c-0.3,0.3-0.4,0.8-0.4,1.6h-1c0-1.1,0.3-1.8,0.7-2.3c0.4-0.4,0.8-0.5,1.4-0.5
				c0.6,0,1,0.2,1.4,0.6c0.4,0.4,0.6,1,0.6,1.7c0,0.8-0.4,1.7-1.2,2.6c-0.8,1-1.6,1.9-2.1,2.8H383z"/>
			<path class="st13" d="M386,46.4v-3.4v-3.4h-1.3V39c1,0,1.6-0.4,1.8-1.2h0.5v8.6H386z"/>
			<path class="st13" d="M394.2,42c0,1.8-0.4,3.1-1.2,3.9c-0.4,0.4-0.8,0.5-1.3,0.5c-0.4,0-0.8-0.1-1.1-0.4c-0.5-0.5-0.7-1-0.7-1.6
				h1c0,0.4,0.1,0.7,0.4,1c0.1,0.1,0.3,0.2,0.5,0.2s0.4-0.1,0.6-0.3c0.4-0.4,0.7-1.4,0.8-2.8c-0.3,0.7-0.8,1-1.5,1
				c-0.4,0-0.8-0.2-1.2-0.5c-0.5-0.5-0.7-1.2-0.7-2.3c0-1,0.3-1.8,0.8-2.3c0.4-0.4,0.8-0.6,1.3-0.6c0.5,0,0.9,0.2,1.3,0.5
				C393.8,39,394.2,40.2,394.2,42z M391.8,38.6c-0.2,0-0.4,0.1-0.6,0.3c-0.3,0.3-0.5,0.9-0.5,1.8c0,0.9,0.1,1.5,0.4,1.8
				c0.2,0.2,0.4,0.3,0.6,0.3c0.3,0,0.5-0.1,0.7-0.3c0.4-0.4,0.5-0.9,0.5-1.6c0-0.9-0.2-1.6-0.6-2C392.3,38.7,392.1,38.6,391.8,38.6z
				"/>
		</g>
		<g>
			<path class="st7" d="M215.1,10.2c0.1,0.2,0,0.3-0.2,0.1c-1,0.2-2.1,0.3-3.1,0.5v2.2h3.1V14h-3.1v2.5h3.1v0.9h-3.1v1.2h-0.9V9.9
				l0.8,0.2c0.8-0.1,1.8-0.4,3-0.8L215.1,10.2z M216.5,10.9v8.7h-0.9V10h4.6v7c0,0.5-0.2,0.8-0.7,0.8h-1.4l-0.3-1h1.3
				c0.1,0,0.2-0.1,0.2-0.2v-5.7H216.5z"/>
			<path class="st7" d="M228,14.4V15h4.6v0.9H228v2.7c0,0.5-0.2,0.8-0.8,0.8H226l-0.2-0.9h1.1c0.1,0,0.2-0.1,0.2-0.2v-2.4h-4.9V15
				h4.9v-1.2l0.5,0.1l1.3-0.9h-4.5v-0.9h5.4l0.2-0.2l0.8,0.8l-0.3,0.1L228,14.4z M227.9,10.2h4.4v2.3h-0.9v-1.5h-7.9v1.5h-0.9v-2.4
				h4.4V9h1c0.3,0.1,0.3,0.2,0,0.4V10.2z"/>
			<path class="st7" d="M239.3,13.9h-4.7v-1h9.6v1h-3.8v0.6c0,2-0.7,3.6-2.1,4.9l-0.9-0.7c1.3-1,2-2.4,2-4.2V13.9z M236.3,11.1v-1
				h5.8v1H236.3z M244,10.8l-0.7,0.5c-0.4-0.6-0.9-1.2-1.3-1.7l0.7-0.4C243.1,9.5,243.5,10.1,244,10.8z M245.1,10.1l-0.7,0.5
				c-0.5-0.7-0.9-1.2-1.3-1.6l0.7-0.5C244.2,9,244.6,9.5,245.1,10.1z"/>
			<path class="st7" d="M246.2,14.8v-1h10.5v1H246.2z"/>
			<path class="st7" d="M262.5,11h3.1l0.5-0.2l0.6,0.6c0.1,0.2,0.1,0.3-0.2,0.4c-0.2,1.2-0.6,2.4-1.1,3.4l1.1,0.8l-0.7,1l-1-0.8
				c-0.9,1.3-2.2,2.4-3.9,3.2l-1.1-0.8c1.9-0.8,3.2-1.8,4-3.1c-0.8-0.5-1.5-1-2.3-1.4l0.6-0.8c1,0.4,1.8,0.8,2.4,1.2
				c0.5-1,0.8-1.8,0.8-2.6H262c-0.6,1.1-1.3,2-2.2,2.9l-0.9-0.6c1.6-1.7,2.6-3.4,3.1-5.2l1.1,0.5c0.2,0.1,0.2,0.2-0.2,0.4
				C262.8,10.3,262.7,10.6,262.5,11z"/>
		</g>
	</g>
	<path class="st20" d="M145.4,134.1c0,12.2-9.9,22-22.1,22c-12.2,0-22-9.9-22-22c0-12.2,9.9-22,22-22
		C135.5,112.1,145.4,122,145.4,134.1z"/>
	<path class="st21" d="M140.2,71.3h-49c-4.4,0-8,3.6-8,8v4c0,4.4,3.6,8,8,8h5.5L84.7,118l24-26.6h31.5c4.4,0,8-3.6,8-8v-4
		C148.2,74.9,144.6,71.3,140.2,71.3z"/>
	<g>
		<path class="st13" d="M89.3,85.5v-3.4v-3.4H88v-0.5c1,0,1.6-0.4,1.8-1.2h0.5v8.6H89.3z"/>
		<path class="st13" d="M97.5,84.7v0.8h-4.5v-0.7c0.7-1.3,1.5-2.5,2.5-3.6c0.6-0.6,0.8-1.3,0.8-2c0-0.5-0.1-0.9-0.4-1.1
			c-0.2-0.2-0.4-0.3-0.7-0.3c-0.2,0-0.5,0.1-0.7,0.4c-0.3,0.3-0.4,0.8-0.4,1.6h-1c0-1.1,0.3-1.8,0.7-2.3c0.4-0.4,0.8-0.5,1.4-0.5
			c0.6,0,1,0.2,1.4,0.6c0.4,0.4,0.6,1,0.6,1.7c0,0.8-0.4,1.7-1.2,2.6c-0.9,1-1.6,1.9-2.1,2.8H97.5z"/>
		<path class="st13" d="M100,84.4c0.2,0.2,0.5,0.3,0.8,0.3c0.3,0,0.6-0.1,0.8-0.4s0.4-0.7,0.4-1.3c0-0.5-0.2-0.9-0.5-1.2
			c-0.2-0.2-0.6-0.3-1.1-0.3v-0.7c0.5,0,0.8-0.2,1.1-0.4c0.2-0.2,0.4-0.6,0.4-1.1c0-0.6-0.1-1-0.4-1.3c-0.2-0.2-0.4-0.3-0.7-0.3
			s-0.5,0.1-0.7,0.3c-0.3,0.3-0.5,0.7-0.5,1.3h-1c0-0.8,0.3-1.4,0.7-1.8c0.4-0.4,0.8-0.5,1.4-0.5c0.6,0,1.1,0.2,1.4,0.5
			c0.4,0.4,0.6,1,0.6,1.6c0,0.6-0.2,1.1-0.5,1.4c-0.3,0.3-0.6,0.5-0.8,0.6c0.4,0.1,0.7,0.3,0.9,0.5c0.4,0.4,0.6,0.9,0.6,1.5
			c0,0.8-0.2,1.4-0.7,1.8c-0.4,0.4-0.9,0.6-1.5,0.6c-0.7,0-1.2-0.2-1.6-0.6c-0.4-0.4-0.7-1.1-0.7-2h1C99.6,83.6,99.7,84.1,100,84.4z
			"/>
		<path class="st13" d="M107.1,85.5v-1v-1h-2.9v-0.8l2.9-5.7h1v5.7h0.9v0.8h-0.9v2H107.1z M107.1,82.7v-3.9l-2,3.9H107.1z"/>
		<path class="st13" d="M111.3,84.4c0.2,0.2,0.4,0.3,0.7,0.3c0.3,0,0.5-0.1,0.7-0.4c0.4-0.4,0.5-0.9,0.5-1.8c0-0.8-0.1-1.3-0.4-1.6
			c-0.2-0.2-0.4-0.3-0.6-0.3c-0.5,0-1,0.3-1.3,0.9h-0.9l0.3-4.7h3.8v0.8h-2.9l-0.2,2.9c0.4-0.4,0.9-0.7,1.5-0.7
			c0.4,0,0.8,0.2,1.1,0.5c0.5,0.5,0.7,1.2,0.7,2.1c0,1-0.3,1.8-0.8,2.3c-0.4,0.4-0.9,0.6-1.5,0.6c-0.6,0-1.1-0.2-1.5-0.5
			c-0.4-0.4-0.7-1.1-0.7-1.9h1C110.9,83.7,111,84.1,111.3,84.4z"/>
		<path class="st13" d="M118.6,78c-0.1-0.1-0.3-0.2-0.4-0.2c-0.2,0-0.4,0.1-0.6,0.3c-0.5,0.5-0.8,1.5-0.9,2.9c0.4-0.7,0.9-1,1.5-1
			c0.4,0,0.8,0.2,1.2,0.5c0.5,0.5,0.7,1.2,0.7,2.2c0,1.1-0.2,1.8-0.7,2.3c-0.4,0.4-0.8,0.5-1.4,0.5c-0.5,0-1-0.2-1.4-0.6
			c-0.6-0.6-0.9-1.8-0.9-3.6c0-1.7,0.4-3,1.3-3.9c0.4-0.4,0.8-0.5,1.3-0.5c0.4,0,0.8,0.1,1.1,0.4c0.4,0.4,0.6,0.9,0.7,1.6h-1
			C118.9,78.5,118.8,78.2,118.6,78z M117.3,81.1c-0.4,0.4-0.5,0.8-0.5,1.4c0,0.9,0.2,1.6,0.6,2c0.2,0.2,0.4,0.3,0.6,0.3
			c0.2,0,0.5-0.1,0.7-0.3c0.3-0.3,0.4-0.8,0.4-1.8c0-0.8-0.1-1.3-0.4-1.6c-0.2-0.2-0.4-0.3-0.6-0.3
			C117.7,80.8,117.5,80.9,117.3,81.1z"/>
		<path class="st13" d="M122.4,85.5l2.2-7.7h-3.3V77h4.2v0.9l-2.1,7.6H122.4z"/>
		<path class="st13" d="M130.6,81.6c0.5,0.5,0.7,1,0.7,1.5c0,0.8-0.2,1.4-0.7,1.9c-0.4,0.4-0.9,0.6-1.6,0.6c-0.7,0-1.2-0.2-1.6-0.6
			c-0.5-0.5-0.7-1.1-0.7-1.9c0-0.5,0.2-1,0.7-1.5c0.2-0.2,0.4-0.4,0.7-0.4c-0.2-0.1-0.4-0.2-0.6-0.4c-0.4-0.4-0.6-0.9-0.6-1.5v0
			c0-0.7,0.2-1.3,0.7-1.8c0.4-0.4,0.8-0.6,1.4-0.6c0.6,0,1,0.2,1.4,0.6c0.4,0.4,0.7,1,0.7,1.8v0c0,0.6-0.2,1-0.6,1.5
			c-0.1,0.1-0.3,0.3-0.6,0.4C130.2,81.2,130.4,81.4,130.6,81.6z M128.2,81.9c-0.3,0.3-0.4,0.7-0.4,1.2c0,0.6,0.1,1,0.4,1.3
			c0.2,0.2,0.5,0.4,0.8,0.4c0.3,0,0.6-0.1,0.8-0.4c0.3-0.3,0.4-0.7,0.4-1.3c0-0.5-0.1-0.9-0.4-1.2c-0.2-0.2-0.5-0.4-0.8-0.4
			C128.7,81.5,128.4,81.6,128.2,81.9z M128.3,78.1c-0.2,0.2-0.4,0.6-0.4,1.2v0c0,0.5,0.1,0.9,0.4,1.1c0.2,0.2,0.5,0.3,0.7,0.3
			c0.3,0,0.5-0.1,0.7-0.3c0.2-0.2,0.4-0.6,0.4-1.1v0c0-0.6-0.1-1-0.4-1.2c-0.2-0.2-0.5-0.3-0.7-0.3
			C128.7,77.8,128.5,77.9,128.3,78.1z"/>
		<path class="st13" d="M136.9,81.1c0,1.8-0.4,3.1-1.2,3.9c-0.4,0.4-0.8,0.5-1.3,0.5c-0.4,0-0.8-0.1-1.1-0.4c-0.5-0.5-0.7-1-0.7-1.6
			h1c0,0.4,0.1,0.7,0.4,1c0.1,0.1,0.3,0.2,0.5,0.2c0.2,0,0.4-0.1,0.6-0.3c0.4-0.4,0.7-1.4,0.8-2.8c-0.3,0.7-0.8,1-1.5,1
			c-0.4,0-0.8-0.2-1.2-0.5c-0.5-0.5-0.7-1.2-0.7-2.3c0-1,0.3-1.8,0.8-2.3c0.4-0.4,0.8-0.6,1.3-0.6c0.5,0,0.9,0.2,1.3,0.5
			C136.5,78.2,136.9,79.4,136.9,81.1z M134.5,77.8c-0.2,0-0.4,0.1-0.6,0.3c-0.3,0.3-0.5,0.9-0.5,1.8c0,0.9,0.1,1.5,0.4,1.8
			c0.2,0.2,0.4,0.3,0.6,0.3c0.3,0,0.5-0.1,0.7-0.3c0.4-0.4,0.5-0.9,0.5-1.6c0-0.9-0.2-1.6-0.6-2C135,77.8,134.8,77.8,134.5,77.8z"/>
		<path class="st13" d="M142.5,84.7v0.8h-4.5v-0.7c0.7-1.3,1.5-2.5,2.5-3.6c0.6-0.6,0.8-1.3,0.8-2c0-0.5-0.1-0.9-0.4-1.1
			c-0.2-0.2-0.4-0.3-0.7-0.3c-0.2,0-0.5,0.1-0.7,0.4c-0.3,0.3-0.4,0.8-0.4,1.6h-1c0-1.1,0.3-1.8,0.7-2.3c0.4-0.4,0.8-0.5,1.4-0.5
			c0.6,0,1,0.2,1.4,0.6c0.4,0.4,0.6,1,0.6,1.7c0,0.8-0.4,1.7-1.2,2.6c-0.9,1-1.6,1.9-2.1,2.8H142.5z"/>
	</g>
	<path class="st21" d="M428.2,71.3h-49c-4.4,0-8,3.6-8,8v4c0,4.4,3.6,8,8,8h5.5L372.7,118l24-26.6h31.5c4.4,0,8-3.6,8-8v-4
		C436.2,74.9,432.6,71.3,428.2,71.3z"/>
	<g>
		<path class="st13" d="M379.9,81.1c0,1.8-0.4,3.1-1.2,3.9c-0.4,0.4-0.8,0.5-1.3,0.5c-0.4,0-0.8-0.1-1.1-0.4c-0.5-0.5-0.7-1-0.7-1.6
			h1c0,0.4,0.1,0.7,0.4,1c0.1,0.1,0.3,0.2,0.5,0.2c0.2,0,0.4-0.1,0.6-0.3c0.4-0.4,0.7-1.4,0.8-2.8c-0.3,0.7-0.8,1-1.5,1
			c-0.4,0-0.8-0.2-1.2-0.5c-0.5-0.5-0.7-1.2-0.7-2.3c0-1,0.3-1.8,0.8-2.3c0.4-0.4,0.8-0.6,1.3-0.6s0.9,0.2,1.3,0.5
			C379.5,78.2,379.9,79.4,379.9,81.1z M377.5,77.8c-0.2,0-0.4,0.1-0.6,0.3c-0.3,0.3-0.5,0.9-0.5,1.8c0,0.9,0.1,1.5,0.4,1.8
			c0.2,0.2,0.4,0.3,0.6,0.3c0.3,0,0.5-0.1,0.7-0.3c0.4-0.4,0.5-0.9,0.5-1.6c0-0.9-0.2-1.6-0.6-2C378,77.8,377.8,77.8,377.5,77.8z"/>
		<path class="st13" d="M385.5,81.1c0,1.8-0.4,3.1-1.2,3.9c-0.4,0.4-0.8,0.5-1.3,0.5c-0.4,0-0.8-0.1-1.1-0.4c-0.5-0.5-0.7-1-0.7-1.6
			h1c0,0.4,0.1,0.7,0.4,1c0.1,0.1,0.3,0.2,0.5,0.2c0.2,0,0.4-0.1,0.6-0.3c0.4-0.4,0.7-1.4,0.8-2.8c-0.3,0.7-0.8,1-1.5,1
			c-0.4,0-0.8-0.2-1.2-0.5c-0.5-0.5-0.7-1.2-0.7-2.3c0-1,0.3-1.8,0.8-2.3c0.4-0.4,0.8-0.6,1.3-0.6s0.9,0.2,1.3,0.5
			C385.2,78.2,385.5,79.4,385.5,81.1z M383.2,77.8c-0.2,0-0.4,0.1-0.6,0.3c-0.3,0.3-0.5,0.9-0.5,1.8c0,0.9,0.1,1.5,0.4,1.8
			c0.2,0.2,0.4,0.3,0.6,0.3c0.3,0,0.5-0.1,0.7-0.3c0.4-0.4,0.5-0.9,0.5-1.6c0-0.9-0.2-1.6-0.6-2C383.6,77.8,383.4,77.8,383.2,77.8z"
			/>
		<path class="st13" d="M391.1,81.1c0,1.8-0.4,3.1-1.2,3.9c-0.4,0.4-0.8,0.5-1.3,0.5c-0.4,0-0.8-0.1-1.1-0.4c-0.5-0.5-0.7-1-0.7-1.6
			h1c0,0.4,0.1,0.7,0.4,1c0.1,0.1,0.3,0.2,0.5,0.2c0.2,0,0.4-0.1,0.6-0.3c0.4-0.4,0.7-1.4,0.8-2.8c-0.3,0.7-0.8,1-1.5,1
			c-0.4,0-0.8-0.2-1.2-0.5c-0.5-0.5-0.7-1.2-0.7-2.3c0-1,0.3-1.8,0.8-2.3c0.4-0.4,0.8-0.6,1.3-0.6s0.9,0.2,1.3,0.5
			C390.8,78.2,391.1,79.4,391.1,81.1z M388.8,77.8c-0.2,0-0.4,0.1-0.6,0.3c-0.3,0.3-0.5,0.9-0.5,1.8c0,0.9,0.1,1.5,0.4,1.8
			c0.2,0.2,0.4,0.3,0.6,0.3c0.3,0,0.5-0.1,0.7-0.3c0.4-0.4,0.5-0.9,0.5-1.6c0-0.9-0.2-1.6-0.6-2C389.3,77.8,389,77.8,388.8,77.8z"/>
		<path class="st13" d="M396.7,81.1c0,1.8-0.4,3.1-1.2,3.9c-0.4,0.4-0.8,0.5-1.3,0.5c-0.4,0-0.8-0.1-1.1-0.4c-0.5-0.5-0.7-1-0.7-1.6
			h1c0,0.4,0.1,0.7,0.4,1c0.1,0.1,0.3,0.2,0.5,0.2c0.2,0,0.4-0.1,0.6-0.3c0.4-0.4,0.7-1.4,0.8-2.8c-0.3,0.7-0.8,1-1.5,1
			c-0.4,0-0.8-0.2-1.2-0.5c-0.5-0.5-0.7-1.2-0.7-2.3c0-1,0.3-1.8,0.8-2.3c0.4-0.4,0.8-0.6,1.3-0.6s0.9,0.2,1.3,0.5
			C396.4,78.2,396.7,79.4,396.7,81.1z M394.4,77.8c-0.2,0-0.4,0.1-0.6,0.3c-0.3,0.3-0.5,0.9-0.5,1.8c0,0.9,0.1,1.5,0.4,1.8
			c0.2,0.2,0.4,0.3,0.6,0.3c0.3,0,0.5-0.1,0.7-0.3c0.4-0.4,0.5-0.9,0.5-1.6c0-0.9-0.2-1.6-0.6-2C394.9,77.8,394.7,77.8,394.4,77.8z"
			/>
		<path class="st13" d="M402.4,81.1c0,1.8-0.4,3.1-1.2,3.9c-0.4,0.4-0.8,0.5-1.3,0.5c-0.4,0-0.8-0.1-1.1-0.4c-0.5-0.5-0.7-1-0.7-1.6
			h1c0,0.4,0.1,0.7,0.4,1c0.1,0.1,0.3,0.2,0.5,0.2c0.2,0,0.4-0.1,0.6-0.3c0.4-0.4,0.7-1.4,0.8-2.8c-0.3,0.7-0.8,1-1.5,1
			c-0.4,0-0.8-0.2-1.2-0.5c-0.5-0.5-0.7-1.2-0.7-2.3c0-1,0.3-1.8,0.8-2.3c0.4-0.4,0.8-0.6,1.3-0.6s0.9,0.2,1.3,0.5
			C402,78.2,402.4,79.4,402.4,81.1z M400,77.8c-0.2,0-0.4,0.1-0.6,0.3c-0.3,0.3-0.5,0.9-0.5,1.8c0,0.9,0.1,1.5,0.4,1.8
			c0.2,0.2,0.4,0.3,0.6,0.3c0.3,0,0.5-0.1,0.7-0.3c0.4-0.4,0.5-0.9,0.5-1.6c0-0.9-0.2-1.6-0.6-2C400.5,77.8,400.3,77.8,400,77.8z"/>
		<path class="st13" d="M408,81.1c0,1.8-0.4,3.1-1.2,3.9c-0.4,0.4-0.8,0.5-1.3,0.5c-0.4,0-0.8-0.1-1.1-0.4c-0.5-0.5-0.7-1-0.7-1.6h1
			c0,0.4,0.1,0.7,0.4,1c0.1,0.1,0.3,0.2,0.5,0.2c0.2,0,0.4-0.1,0.6-0.3c0.4-0.4,0.7-1.4,0.8-2.8c-0.3,0.7-0.8,1-1.5,1
			c-0.4,0-0.8-0.2-1.2-0.5c-0.5-0.5-0.7-1.2-0.7-2.3c0-1,0.3-1.8,0.8-2.3c0.4-0.4,0.8-0.6,1.3-0.6s0.9,0.2,1.3,0.5
			C407.7,78.2,408,79.4,408,81.1z M405.7,77.8c-0.2,0-0.4,0.1-0.6,0.3c-0.3,0.3-0.5,0.9-0.5,1.8c0,0.9,0.1,1.5,0.4,1.8
			c0.2,0.2,0.4,0.3,0.6,0.3c0.3,0,0.5-0.1,0.7-0.3c0.4-0.4,0.5-0.9,0.5-1.6c0-0.9-0.2-1.6-0.6-2C406.1,77.8,405.9,77.8,405.7,77.8z"
			/>
		<path class="st13" d="M413.6,81.1c0,1.8-0.4,3.1-1.2,3.9c-0.4,0.4-0.8,0.5-1.3,0.5c-0.4,0-0.8-0.1-1.1-0.4c-0.5-0.5-0.7-1-0.7-1.6
			h1c0,0.4,0.1,0.7,0.4,1c0.1,0.1,0.3,0.2,0.5,0.2c0.2,0,0.4-0.1,0.6-0.3c0.4-0.4,0.7-1.4,0.8-2.8c-0.3,0.7-0.8,1-1.5,1
			c-0.4,0-0.8-0.2-1.2-0.5c-0.5-0.5-0.7-1.2-0.7-2.3c0-1,0.3-1.8,0.8-2.3c0.4-0.4,0.8-0.6,1.3-0.6s0.9,0.2,1.3,0.5
			C413.3,78.2,413.6,79.4,413.6,81.1z M411.3,77.8c-0.2,0-0.4,0.1-0.6,0.3c-0.3,0.3-0.5,0.9-0.5,1.8c0,0.9,0.1,1.5,0.4,1.8
			c0.2,0.2,0.4,0.3,0.6,0.3c0.3,0,0.5-0.1,0.7-0.3c0.4-0.4,0.5-0.9,0.5-1.6c0-0.9-0.2-1.6-0.6-2C411.8,77.8,411.5,77.8,411.3,77.8z"
			/>
		<path class="st13" d="M419.2,81.1c0,1.8-0.4,3.1-1.2,3.9c-0.4,0.4-0.8,0.5-1.3,0.5c-0.4,0-0.8-0.1-1.1-0.4c-0.5-0.5-0.7-1-0.7-1.6
			h1c0,0.4,0.1,0.7,0.4,1c0.1,0.1,0.3,0.2,0.5,0.2c0.2,0,0.4-0.1,0.6-0.3c0.4-0.4,0.7-1.4,0.8-2.8c-0.3,0.7-0.8,1-1.5,1
			c-0.4,0-0.8-0.2-1.2-0.5c-0.5-0.5-0.7-1.2-0.7-2.3c0-1,0.3-1.8,0.8-2.3c0.4-0.4,0.8-0.6,1.3-0.6s0.9,0.2,1.3,0.5
			C418.9,78.2,419.2,79.4,419.2,81.1z M416.9,77.8c-0.2,0-0.4,0.1-0.6,0.3c-0.3,0.3-0.5,0.9-0.5,1.8c0,0.9,0.1,1.5,0.4,1.8
			c0.2,0.2,0.4,0.3,0.6,0.3c0.3,0,0.5-0.1,0.7-0.3c0.4-0.4,0.5-0.9,0.5-1.6c0-0.9-0.2-1.6-0.6-2C417.4,77.8,417.2,77.8,416.9,77.8z"
			/>
		<path class="st13" d="M424.9,81.1c0,1.8-0.4,3.1-1.2,3.9c-0.4,0.4-0.8,0.5-1.3,0.5c-0.4,0-0.8-0.1-1.1-0.4c-0.5-0.5-0.7-1-0.7-1.6
			h1c0,0.4,0.1,0.7,0.4,1c0.1,0.1,0.3,0.2,0.5,0.2c0.2,0,0.4-0.1,0.6-0.3c0.4-0.4,0.7-1.4,0.8-2.8c-0.3,0.7-0.8,1-1.5,1
			c-0.4,0-0.8-0.2-1.2-0.5c-0.5-0.5-0.7-1.2-0.7-2.3c0-1,0.3-1.8,0.8-2.3c0.4-0.4,0.8-0.6,1.3-0.6s0.9,0.2,1.3,0.5
			C424.5,78.2,424.9,79.4,424.9,81.1z M422.5,77.8c-0.2,0-0.4,0.1-0.6,0.3c-0.3,0.3-0.5,0.9-0.5,1.8c0,0.9,0.1,1.5,0.4,1.8
			c0.2,0.2,0.4,0.3,0.6,0.3c0.3,0,0.5-0.1,0.7-0.3c0.4-0.4,0.5-0.9,0.5-1.6c0-0.9-0.2-1.6-0.6-2C423,77.8,422.8,77.8,422.5,77.8z"/>
		<path class="st13" d="M430.5,81.1c0,1.8-0.4,3.1-1.2,3.9c-0.4,0.4-0.8,0.5-1.3,0.5c-0.4,0-0.8-0.1-1.1-0.4c-0.5-0.5-0.7-1-0.7-1.6
			h1c0,0.4,0.1,0.7,0.4,1c0.1,0.1,0.3,0.2,0.5,0.2c0.2,0,0.4-0.1,0.6-0.3c0.4-0.4,0.7-1.4,0.8-2.8c-0.3,0.7-0.8,1-1.5,1
			c-0.4,0-0.8-0.2-1.2-0.5c-0.5-0.5-0.7-1.2-0.7-2.3c0-1,0.3-1.8,0.8-2.3c0.4-0.4,0.8-0.6,1.3-0.6s0.9,0.2,1.3,0.5
			C430.2,78.2,430.5,79.4,430.5,81.1z M428.2,77.8c-0.2,0-0.4,0.1-0.6,0.3c-0.3,0.3-0.5,0.9-0.5,1.8c0,0.9,0.1,1.5,0.4,1.8
			c0.2,0.2,0.4,0.3,0.6,0.3c0.3,0,0.5-0.1,0.7-0.3c0.4-0.4,0.5-0.9,0.5-1.6c0-0.9-0.2-1.6-0.6-2C428.6,77.8,428.4,77.8,428.2,77.8z"
			/>
	</g>
	<g>
		<line class="st22" x1="396.2" y1="112.2" x2="442.6" y2="158.5"/>
		<line class="st22" x1="396.2" y1="158.5" x2="442.6" y2="112.1"/>
	</g>
	<g>
		<circle class="st23" cx="445.6" cy="70.8" r="15"/>
		<g>
			<path class="st13" d="M443.5,59.1h2.5h2.5l-1.1,17.6h-2.8L443.5,59.1z M444,83.5v-2.6h1.9h1.9v2.6H444z"/>
		</g>
	</g>
	<g>
	</g>
	<g>
	</g>
	<g>
	</g>
	<g>
	</g>
	<g>
	</g>
	<g>
	</g>
	<g>
	</g>
	<g>
	</g>
	<g>
	</g>
	<g>
	</g>
	<g>
	</g>
	<g>
	</g>
	<g>
	</g>
	<g>
	</g>
	<g>
	</g>
	<g>
	</g>
	<g>
	</g>
	<g>
	</g>
</g>
</svg>
