<?xml version="1.0" encoding="utf-8"?>
<!-- Generator: Adobe Illustrator 26.3.1, SVG Export Plug-In . SVG Version: 6.00 Build 0)  -->
<svg version="1.1" id="レイヤー_1" xmlns="http://www.w3.org/2000/svg" xmlns:xlink="http://www.w3.org/1999/xlink" x="0px"
	 y="0px" width="220px" height="90px" viewBox="0 0 220 90" style="enable-background:new 0 0 220 90;" xml:space="preserve">
<style type="text/css">
	.アーチ_x0020__x0028_グリーン_x0029_{fill:url(#SVGID_1_);stroke:#FFFFFF;stroke-width:0.25;stroke-miterlimit:1;}
	.st0{fill:none;stroke:#000000;stroke-width:0.275;}
	.st1{fill:none;stroke:#000000;stroke-width:0.489;}
	.st2{fill:#B5B5B6;}
	.st3{fill:none;stroke:#000000;stroke-width:2.2459;stroke-linecap:round;stroke-linejoin:round;stroke-miterlimit:10;}
</style>
<linearGradient id="SVGID_1_" gradientUnits="userSpaceOnUse" x1="-148.5736" y1="446.127" x2="-147.8665" y2="445.4198">
	<stop  offset="0" style="stop-color:#00A43B"/>
	<stop  offset="0.9831" style="stop-color:#133617"/>
</linearGradient>
<g>
	<path class="st0" d="M82.4,28.3c0-1,0.8-1.9,1.9-1.9c1,0,1.9,0.8,1.9,1.9c0,1-0.8,1.9-1.9,1.9C83.2,30.1,82.4,29.3,82.4,28.3z
		 M124.4,28.3c0-1,0.8-1.9,1.9-1.9c1,0,1.9,0.8,1.9,1.9c0,1-0.8,1.9-1.9,1.9C125.3,30.1,124.4,29.3,124.4,28.3z M166.5,28.3
		c0-1,0.8-1.9,1.9-1.9c1,0,1.9,0.8,1.9,1.9c0,1-0.8,1.9-1.9,1.9C167.3,30.1,166.5,29.3,166.5,28.3z"/>
	<path class="st1" d="M70.5,69.6c0.3-1.3,0.1-2,0.1-3.3c0-0.6-0.4-1.1-0.4-1.7c0-0.5,1-1.1,0.9-1.6c-0.1-1.1-1.6-2-1.7-3.2
		c-0.1-1.3,1.2-2.7,1.4-4.1c0.1-1.5-0.7-2.9-0.7-4.3c0-1.4,0.7-2.2,0.7-3.5c0-1-0.7-2-0.7-3.2c0-1.2,0.8-1.9,0.4-3
		c0-0.5-0.9-1.4-0.8-1.8c0.1-0.4,0.6-1.7,0.9-2.3c0.3-0.6-0.8-1.6-0.5-2c0.3-0.4,0.7-1.7,0.8-2.5c0.1-0.8-0.5-2.3-0.4-3.9
		c0.1-1.5-1.6-0.8-1.6-2.4c0-1.6,2.4-3.5,2.4-4.2c0-0.7-0.7-2.3-0.7-2.3h130.3v49.2H70.5"/>
</g>
<g>
	<path d="M34.2,38.6c-0.6-0.7-1.1-1.6-1.5-2.6s-0.6-2-0.6-3.1c0-0.9,0.2-1.8,0.5-2.7c0.4-1,0.9-2,1.6-3H35c-0.5,0.8-0.8,1.4-0.9,1.7
		c-0.2,0.5-0.4,1.1-0.6,1.7c-0.2,0.7-0.3,1.5-0.3,2.2c0,1.9,0.6,3.8,1.8,5.6H34.2z"/>
	<path d="M39.9,36.1h-1.1v-6.7c-0.3,0.2-0.6,0.5-1,0.7s-0.8,0.4-1.1,0.5v-1c0.6-0.3,1.1-0.6,1.5-1s0.8-0.8,0.9-1.1h0.7V36.1z"/>
	<path d="M43.6,38.6h-0.8c1.2-1.9,1.8-3.8,1.8-5.6c0-0.7-0.1-1.5-0.3-2.2c-0.1-0.6-0.3-1.1-0.6-1.7c-0.2-0.4-0.5-0.9-0.9-1.8h0.8
		c0.7,1,1.3,2,1.6,3c0.3,0.9,0.5,1.7,0.5,2.7c0,1.1-0.2,2.1-0.6,3.1S44.2,37.9,43.6,38.6z"/>
</g>
<g>
	<g>
		<g>
			<line class="st2" x1="61" y1="48.4" x2="28.9" y2="48.4"/>
			<polygon class="st2" points="29.9,46.9 24.5,48.4 29.9,49.8 			"/>
		</g>
		<g>
			<line class="st3" x1="61" y1="48.4" x2="28.9" y2="48.4"/>
			<polygon points="31.1,45.1 19,48.4 31.1,51.7 			"/>
		</g>
	</g>
</g>
<g>
</g>
<g>
</g>
<g>
</g>
<g>
</g>
<g>
</g>
<g>
</g>
</svg>
