<?xml version="1.0" encoding="utf-8"?>
<!-- Generator: Adobe Illustrator 26.3.1, SVG Export Plug-In . SVG Version: 6.00 Build 0)  -->
<svg version="1.1" id="lanConnected" xmlns="http://www.w3.org/2000/svg" xmlns:xlink="http://www.w3.org/1999/xlink" x="0px"
	 y="0px" width="44px" height="44px" viewBox="0 0 44 44" style="enable-background:new 0 0 44 44;" xml:space="preserve">
<style type="text/css">
	.st0{fill:none;}
	.st1{fill:#54575E;}
</style>
<rect id="rect" x="2" y="2" class="st0" width="40" height="40"/>
<path id="path" class="st1" d="M38.3,23.6v-3.2H23.6v-4h3.6c0.9,0,1.6-0.7,1.6-1.6v-9c0-0.9-0.7-1.6-1.6-1.6H16.8
	c-0.9,0-1.6,0.7-1.6,1.6v9c0,0.9,0.7,1.6,1.6,1.6h3.6v4H5.8v3.2H11v4H7.4c-0.9,0-1.6,0.7-1.6,1.6v9c0,0.9,0.7,1.6,1.6,1.6h10.5
	c0.9,0,1.6-0.7,1.6-1.6v-9c0-0.9-0.7-1.6-1.6-1.6h-3.6v-4h15.5v4h-3.6c-0.9,0-1.6,0.7-1.6,1.6v9c0,0.9,0.7,1.6,1.6,1.6h10.5
	c0.9,0,1.6-0.7,1.6-1.6v-9c0-0.9-0.7-1.6-1.6-1.6H33v-4H38.3z M18.4,7.4h7.2v5.7h-7.2V7.4z M16.3,36.6H9v-5.7h7.2L16.3,36.6
	L16.3,36.6z M35,36.6h-7.2v-5.7H35V36.6z"/>
</svg>
