<?xml version="1.0" encoding="UTF-8"?>
<svg id="_レイヤー_1" data-name="レイヤー 1" xmlns="http://www.w3.org/2000/svg" width="84" height="16" version="1.1" viewBox="0 0 84 16">
  <defs>
    <style>
      .cls-1 {
        fill: #1173bb;
        stroke-width: 0px;
      }
    </style>
  </defs>
  <path class="cls-1" d="M.3,15.2h16c2,0,2.9-1.2,3.1-1.5.2-.3.3-.4.2-.6,0,0-2.7-9.5-2.8-9.9-.1-.4.2-.4.2-.4h.4c.3,0,.5.2.5.4,0,.2,2.3,7.9,2.3,8.1,0,.2.3.3.5,0,.2-.3,5.2-9.8,5.3-10,.1-.2,0-.4-.3-.4h-15.9c-1.9,0-2.9,1.2-3.1,1.4,0,0-.2.2-.3.4,0,.1-.1.2,0,.4,0,0,2.8,9.7,2.8,9.9,0,.2,0,.3-.2.3h-.5c-.2,0-.4-.1-.5-.4,0-.3-2.3-7.9-2.3-8.1,0-.2-.3-.2-.4,0C5.3,5,.1,14.7,0,14.9c0,.2,0,.3.2.3Z"/>
  <path class="cls-1" d="M20.4,15.2h9.4c.3,0,.5-.2.4-.4,0-.3-2-6.9-2-7.1,0-.3-.4-.4-.7-.1-.2.2-7.1,7.2-7.3,7.3-.1.1-.1.4.2.4Z"/>
  <path class="cls-1" d="M31.8,15.2h9.6c.1,0,.3-.1.2-.3,0-.2-3.9-13.6-3.9-13.7,0-.2-.2-.3-.5-.3h-2.9c-.1,0-.2,0-.3.1,0,0-5,5-5,5.1,0,0-.1.2,0,.3,0,.2,2.4,8.4,2.4,8.5,0,.1.2.3.4.3Z"/>
  <path class="cls-1" d="M46.3.9h18.9c.2,0,.3.2.1.5-.2.3-3.9,7.4-4,7.6-.1.2-.3.2-.3,0s-1.6-5.5-1.6-5.7c0-.2-.4-.2-.5,0-.1.2-6.1,11.7-6.2,11.8,0,.1-.2.2-.3.2h-7.9c-.2,0-.3-.2-.2-.4,0-.2,6-11.3,6-11.5.1-.3,0-.5-.3-.2-.3.2-7.5,5.8-7.6,5.9-.3.2-.5,0-.3-.3.1-.3,3.9-7.4,4-7.6.1-.2.2-.3.5-.3Z"/>
  <path class="cls-1" d="M75.3.9c.3,0,.4.2.3.5-.2.3-7,13.3-7.1,13.5-.1.2-.2.3-.5.3h-2.7c-1.5,0-2.6-.5-3.2-1.4-.6-.9-.7-2.2,0-3.6.7-1.4.9-1.7,1.9-3.6,1.3-2.5,2.7-3.8,3.7-4.5,1-.7,2.5-1.3,4.8-1.3h2.9Z"/>
  <path class="cls-1" d="M70.3,15.2c-.3,0-.4-.2-.3-.5.2-.3,7-13.3,7.1-13.5.1-.2.2-.3.5-.3h2.7c1.5,0,2.6.5,3.2,1.4.6.9.7,2.2,0,3.6-.7,1.3-.9,1.7-1.9,3.6-1.3,2.5-2.7,3.8-3.7,4.5-1,.7-2.5,1.3-4.8,1.3h-2.8Z"/>
</svg>